<svg xmlns="http://www.w3.org/2000/svg" width="1331" height="1649" viewBox="0 0 1331 1649">
  <g id="Group_3198" data-name="Group 3198" transform="translate(-16957 -11560)">
    <rect id="Rectangle_1047" data-name="Rectangle 1047" width="1331" height="1649" transform="translate(16957 11560)" fill="#fff"/>
    <g id="Group_3122" data-name="Group 3122" transform="translate(-6.501 3.5)">
      <line id="Line_278" data-name="Line 278" y2="1589" transform="translate(17181.5 11586.5)" fill="none" stroke="#707070" stroke-width="1"/>
      <line id="Line_279" data-name="Line 279" x2="1247.697" transform="translate(17000.5 11758.5)" fill="none" stroke="#707070" stroke-width="1"/>
      <line id="Line_280" data-name="Line 280" x2="1247.697" transform="translate(17000.5 11933.5)" fill="none" stroke="#707070" stroke-width="1"/>
      <line id="Line_281" data-name="Line 281" x2="1247.697" transform="translate(17000.5 12108.5)" fill="none" stroke="#707070" stroke-width="1"/>
      <line id="Line_282" data-name="Line 282" x2="1247.697" transform="translate(17000.5 12283.5)" fill="none" stroke="#707070" stroke-width="1"/>
      <line id="Line_283" data-name="Line 283" x2="1247.697" transform="translate(17010.5 12458.5)" fill="none" stroke="#707070" stroke-width="1"/>
      <line id="Line_284" data-name="Line 284" x2="1247.697" transform="translate(17010.5 12633.5)" fill="none" stroke="#707070" stroke-width="1"/>
      <line id="Line_285" data-name="Line 285" x2="1247.697" transform="translate(17010.5 12808.5)" fill="none" stroke="#707070" stroke-width="1"/>
      <line id="Line_286" data-name="Line 286" x2="1247.697" transform="translate(17010.5 12983.5)" fill="none" stroke="#707070" stroke-width="1"/>
      <text id="Receivable" transform="translate(17241 11604)" fill="#21232a" font-size="54" font-family="OpenSans-Bold, Open Sans" font-weight="700"><tspan x="0" y="58">Receivable</tspan></text>
      <text id="Overview_of_cash_collection" data-name="Overview of cash collection" transform="translate(17241 11670)" fill="#21232a" font-size="54" font-family="OpenSans-Regular, Open Sans"><tspan x="0" y="58">Overview of cash collection</tspan></text>
      <text id="Consumer_List" data-name="Consumer List" transform="translate(17241 11779)" fill="#21232a" font-size="54" font-family="OpenSans-Bold, Open Sans" font-weight="700"><tspan x="0" y="58">Consumer List</tspan></text>
      <text id="View_consumers_at_every_plant" data-name="View consumers at every plant" transform="translate(17242 11853)" fill="#21232a" font-size="54" font-family="OpenSans-Regular, Open Sans"><tspan x="0" y="58">View consumers at every plant</tspan></text>
      <text id="Consumer_Status" data-name="Consumer Status" transform="translate(17241 11946)" fill="#21232a" font-size="54" font-family="OpenSans-Bold, Open Sans" font-weight="700"><tspan x="0" y="58">Consumer Status</tspan></text>
      <text id="Survey_customer_s_connection_status" data-name="Survey customer’s connection status" transform="translate(17242 12013)" fill="#21232a" font-size="54" font-family="OpenSans-Regular, Open Sans"><tspan x="0" y="58">Survey customer’s connection status</tspan></text>
      <text id="Consumer_Activity" data-name="Consumer Activity" transform="translate(17241 12123)" fill="#21232a" font-size="54" font-family="OpenSans-Bold, Open Sans" font-weight="700"><tspan x="0" y="58">Consumer Activity</tspan></text>
      <text id="Track_active_and_inactive_customers" data-name="Track active and inactive customers" transform="translate(17242 12192)" fill="#21232a" font-size="54" font-family="OpenSans-Regular, Open Sans"><tspan x="0" y="58">Track active and inactive customers</tspan></text>
      <text id="Consumer_Service" data-name="Consumer Service" transform="translate(17241 12296)" fill="#21232a" font-size="54" font-family="OpenSans-Bold, Open Sans" font-weight="700"><tspan x="0" y="58">Consumer Service</tspan></text>
      <text id="Navigate_through_service_requests" data-name="Navigate through service requests" transform="translate(17242 12366)" fill="#21232a" font-size="54" font-family="OpenSans-Regular, Open Sans"><tspan x="0" y="58">Navigate through service requests</tspan></text>
      <text id="Temporary_Disconnect" data-name="Temporary Disconnect" transform="translate(17241 12476)" fill="#21232a" font-size="54" font-family="OpenSans-Bold, Open Sans" font-weight="700"><tspan x="0" y="58">Temporary Disconnect</tspan></text>
      <text id="Remote_cut_supply_to_customers" data-name="Remote cut supply to customers" transform="translate(17242 12538)" fill="#21232a" font-size="54" font-family="OpenSans-Regular, Open Sans"><tspan x="0" y="58">Remote cut supply to customers</tspan></text>
      <text id="Add_Consumer" data-name="Add Consumer" transform="translate(17241 12652)" fill="#21232a" font-size="54" font-family="OpenSans-Bold, Open Sans" font-weight="700"><tspan x="0" y="58">Add Consumer</tspan></text>
      <text id="Add_a_customer" data-name="Add a customer" transform="translate(17242 12713)" fill="#21232a" font-size="54" font-family="OpenSans-Regular, Open Sans"><tspan x="0" y="58">Add a customer</tspan></text>
      <text id="Add_Instant_Consumer" data-name="Add Instant Consumer" transform="translate(17241 12827)" fill="#21232a" font-size="54" font-family="OpenSans-Bold, Open Sans" font-weight="700"><tspan x="0" y="58">Add Instant Consumer</tspan></text>
      <text id="Fast-track_customer_addition" data-name="Fast-track customer addition" transform="translate(17242 12889)" fill="#21232a" font-size="54" font-family="OpenSans-Regular, Open Sans"><tspan x="0" y="58">Fast-track customer addition</tspan></text>
      <text id="Catchment_Survey" data-name="Catchment Survey" transform="translate(17241 13001)" fill="#21232a" font-size="54" font-family="OpenSans-Bold, Open Sans" font-weight="700"><tspan x="0" y="58">Catchment Survey</tspan></text>
      <text id="An_HCLF_functionality" data-name="An HCLF functionality" transform="translate(17242 13062)" fill="#21232a" font-size="54" font-family="OpenSans-Regular, Open Sans"><tspan x="0" y="58">An HCLF functionality</tspan></text>
      <g id="Smart_phone_shopping" data-name="Smart phone shopping" transform="translate(17050 11636)">
        <path id="Path_959" data-name="Path 959" d="M59.392,37.2l-6.938,4.011a3.581,3.581,0,0,0-3.372-2.425H43.666a1.219,1.219,0,0,1-.535-.12l-1.383-.693a3.605,3.605,0,0,0-1.6-.384h-6.22a3.605,3.605,0,0,0-1.136.184l-3.038,1.012h-1V36.392a1.2,1.2,0,0,0-1.2-1.2H20.373a1.2,1.2,0,0,0-1.2,1.2v1.2H14.392V34H12V55.531h2.392V51.943h4.785v1.2a1.2,1.2,0,0,0,1.2,1.2H27.55a1.2,1.2,0,0,0,1.2-1.2v-2.4l.908.01,1.641.821a3.605,3.605,0,0,0,1.6.378H47.245a3.589,3.589,0,0,0,1.794-.478l13.937-8.049a3.6,3.6,0,0,0,1.812-3.123A3.562,3.562,0,0,0,64.3,38.5,3.6,3.6,0,0,0,59.392,37.2Zm-45,12.352v-9.57h4.785v9.57Zm11.962,2.392H21.57V37.589h4.785ZM61.785,41.337,47.843,49.39a1.2,1.2,0,0,1-.6.16H32.9a1.219,1.219,0,0,1-.535-.12l-2.134-1.077-1.484-.013V41.177h1.2a1.2,1.2,0,0,0,.378-.061L33.54,40.04a1.212,1.212,0,0,1,.38-.059h6.22a1.219,1.219,0,0,1,.535.12l1.383.693a3.605,3.605,0,0,0,1.608.384h5.416a1.2,1.2,0,0,1,0,2.392H44.3a1.2,1.2,0,0,0,0,2.392h4.785a3.578,3.578,0,0,0,3.11-1.834l8.4-4.865a1.189,1.189,0,0,1,1.646.445,1.155,1.155,0,0,1,.161.584,1.2,1.2,0,0,1-.616,1.045Z" transform="translate(1.962 6.278)" fill="#707070"/>
        <path id="Path_960" data-name="Path 960" d="M41.474,60.613a1.2,1.2,0,0,0-1.2,1.2V64.2H4.392V11.57H40.278v1.2a1.2,1.2,0,1,0,2.392,0V10.373A8.383,8.383,0,0,0,34.3,2H10.373A8.383,8.383,0,0,0,2,10.373V65.4a8.383,8.383,0,0,0,8.373,8.373H34.3A8.383,8.383,0,0,0,42.671,65.4V61.81A1.2,1.2,0,0,0,41.474,60.613ZM10.373,4.392H34.3a5.992,5.992,0,0,1,5.861,4.785H4.512a5.992,5.992,0,0,1,5.861-4.785ZM34.3,71.379H10.373a5.992,5.992,0,0,1-5.861-4.785H40.159A5.992,5.992,0,0,1,34.3,71.379Z" fill="#707070"/>
        <path id="Path_961" data-name="Path 961" d="M16,5h2.392V7.392H16Z" transform="translate(2.747 0.589)" fill="#707070"/>
        <path id="Path_962" data-name="Path 962" d="M20,5h2.392V7.392H20Z" transform="translate(3.531 0.589)" fill="#707070"/>
        <path id="Path_963" data-name="Path 963" d="M16,57h7.177v2.392H16Z" transform="translate(2.747 10.791)" fill="#707070"/>
        <path id="Path_964" data-name="Path 964" d="M67.082,13H38.373a1.2,1.2,0,0,0-1.2,1.2v2.392H34.785a1.2,1.2,0,0,0-1.2,1.2v2.392H31.2a1.2,1.2,0,0,0-1.2,1.2V38.12a1.2,1.2,0,0,0,1.2,1.2H59.9a1.2,1.2,0,0,0,1.2-1.2V35.728h2.392a1.2,1.2,0,0,0,1.2-1.2V32.139h2.392a1.2,1.2,0,0,0,1.2-1.2V14.2A1.2,1.2,0,0,0,67.082,13ZM58.709,36.924H32.392V22.57H58.709ZM62.3,33.335H61.1V21.373a1.2,1.2,0,0,0-1.2-1.2H35.981v-1.2H62.3Zm3.589-3.589h-1.2V17.785a1.2,1.2,0,0,0-1.2-1.2H39.57v-1.2H65.886Z" transform="translate(5.493 2.158)" fill="#707070"/>
        <path id="Path_965" data-name="Path 965" d="M43.785,23a4.785,4.785,0,1,0,4.785,4.785A4.785,4.785,0,0,0,43.785,23Zm0,7.177a2.392,2.392,0,1,1,2.392-2.392A2.392,2.392,0,0,1,43.785,30.177Z" transform="translate(7.259 4.12)" fill="#707070"/>
        <path id="Path_966" data-name="Path 966" d="M51.392,26H50.2a1.2,1.2,0,0,0,0,2.392h1.2a1.2,1.2,0,1,0,0-2.392Z" transform="translate(9.221 4.709)" fill="#707070"/>
        <path id="Path_967" data-name="Path 967" d="M36.392,26H35.2a1.2,1.2,0,0,0,0,2.392h1.2a1.2,1.2,0,0,0,0-2.392Z" transform="translate(6.278 4.709)" fill="#707070"/>
        <path id="Path_968" data-name="Path 968" d="M15.177,15.2a1.2,1.2,0,0,0-1.2-1.2H9.2A1.2,1.2,0,0,0,8,15.2v4.785a1.2,1.2,0,0,0,1.2,1.2h4.785a1.2,1.2,0,0,0,1.2-1.2Zm-2.392,3.589H10.392V16.392h2.392Z" transform="translate(1.177 2.354)" fill="#707070"/>
        <path id="Path_969" data-name="Path 969" d="M23.177,15.2a1.2,1.2,0,0,0-1.2-1.2H17.2A1.2,1.2,0,0,0,16,15.2v4.785a1.2,1.2,0,0,0,1.2,1.2h4.785a1.2,1.2,0,0,0,1.2-1.2Zm-2.392,3.589H18.392V16.392h2.392Z" transform="translate(2.747 2.354)" fill="#707070"/>
        <path id="Path_970" data-name="Path 970" d="M13.981,24H9.2A1.2,1.2,0,0,0,8,25.2v4.785a1.2,1.2,0,0,0,1.2,1.2h4.785a1.2,1.2,0,0,0,1.2-1.2V25.2A1.2,1.2,0,0,0,13.981,24Zm-1.2,4.785H10.392V26.392h2.392Z" transform="translate(1.177 4.316)" fill="#707070"/>
        <path id="Path_971" data-name="Path 971" d="M21.981,24H17.2A1.2,1.2,0,0,0,16,25.2v4.785a1.2,1.2,0,0,0,1.2,1.2h4.785a1.2,1.2,0,0,0,1.2-1.2V25.2A1.2,1.2,0,0,0,21.981,24Zm-1.2,4.785H18.392V26.392h2.392Z" transform="translate(2.747 4.316)" fill="#707070"/>
        <path id="Path_972" data-name="Path 972" d="M29.981,16.392a1.2,1.2,0,1,0,0-2.392H25.2A1.2,1.2,0,0,0,24,15.2v4.785a1.2,1.2,0,0,0,1.2,1.2h2.392a1.2,1.2,0,1,0,0-2.392h-1.2V16.392Z" transform="translate(4.316 2.354)" fill="#707070"/>
        <path id="Path_973" data-name="Path 973" d="M27.589,26.392a1.2,1.2,0,1,0,0-2.392H25.2A1.2,1.2,0,0,0,24,25.2v4.785a1.2,1.2,0,0,0,1.2,1.2h2.392a1.2,1.2,0,1,0,0-2.392h-1.2V26.392Z" transform="translate(4.316 4.316)" fill="#707070"/>
      </g>
      <g id="personal-information" transform="translate(17056 11815)">
        <path id="Path_5191" data-name="Path 5191" d="M70.353,72.607H34.191A3.194,3.194,0,0,1,31,69.417V16.195A3.194,3.194,0,0,1,34.191,13H40.3a1.064,1.064,0,1,1,0,2.127H34.191a1.065,1.065,0,0,0-1.064,1.064V69.417a1.065,1.065,0,0,0,1.064,1.064H70.353a1.065,1.065,0,0,0,1.064-1.064V44.671H46.954a3.194,3.194,0,0,1-3.191-3.191V3.191A3.194,3.194,0,0,1,46.954,0H78.861a3.194,3.194,0,0,1,3.191,3.191V13.827a1.064,1.064,0,0,1-2.127,0V3.191a1.065,1.065,0,0,0-1.064-1.064H46.954A1.065,1.065,0,0,0,45.89,3.191V41.48a1.065,1.065,0,0,0,1.064,1.064H78.861a1.065,1.065,0,0,0,1.064-1.064v-23.4a1.064,1.064,0,0,1,1.064-1.064H87.37a1.064,1.064,0,0,1,0,2.127H82.052V23.4H87.37a1.064,1.064,0,0,1,0,2.127H82.052V29.78H87.37a1.064,1.064,0,0,1,0,2.127H82.052v4.254H87.37a1.064,1.064,0,0,1,0,2.127H82.052V41.48a3.177,3.177,0,0,1-.182,1.064h5.5a1.064,1.064,0,0,1,0,2.127H73.543v4.254H87.37a1.064,1.064,0,0,1,0,2.127H73.543v6.665H91.624a1.065,1.065,0,0,0,1.064-1.064V9.813A1.065,1.065,0,0,0,91.624,8.75H85.243a1.064,1.064,0,1,1,0-2.127h6.382a3.194,3.194,0,0,1,3.191,3.191v46.84a3.194,3.194,0,0,1-3.191,3.191H73.543v6.382h11.7a1.065,1.065,0,0,0,1.064-1.064V63.035a1.064,1.064,0,0,1,2.127,0v2.127a3.194,3.194,0,0,1-3.191,3.191h-11.7v1.064A3.194,3.194,0,0,1,70.353,72.607Zm6.382-32.191H49.081a1.064,1.064,0,0,1-1.064-1.064V35.658c0-5.465,3.613-6.716,6.252-7.629,2.178-.754,3.414-1.261,3.632-2.9a8.9,8.9,0,0,1-3.891-7.352V13.393a8.9,8.9,0,0,1,17.795,0v4.386a8.9,8.9,0,0,1-3.891,7.352c.218,1.638,1.454,2.145,3.632,2.9,2.638.913,6.252,2.164,6.252,7.629v3.695A1.064,1.064,0,0,1,76.734,40.416Zm-26.59-2.127H75.671V35.658c0-3.95-2.234-4.724-4.82-5.619-1.91-.661-4.213-1.458-4.9-3.9a8.905,8.905,0,0,1-6.091,0c-.684,2.442-2.987,3.24-4.9,3.9-2.586.9-4.82,1.668-4.82,5.619ZM62.908,6.623a6.778,6.778,0,0,0-6.77,6.77v4.386a6.77,6.77,0,0,0,13.54,0V13.393a6.778,6.778,0,0,0-6.77-6.77Z" transform="translate(-31)" fill="#707070" stroke="#707070" stroke-width="0.5"/>
      </g>
      <g id="add-user" transform="translate(17059 12697)">
        <g id="Group_3003" data-name="Group 3003" transform="translate(0)">
          <g id="Group_3002" data-name="Group 3002">
            <path id="Path_5246" data-name="Path 5246" d="M40.9,28.584a28.951,28.951,0,0,0-3.348-1.344,15.132,15.132,0,1,0-18.118.009A28.943,28.943,0,0,0,.145,48.813a6.76,6.76,0,0,0,6.608,8.153h27.4a2.225,2.225,0,1,0,0-4.45H6.753a2.261,2.261,0,0,1-1.78-.846A2.325,2.325,0,0,1,4.5,49.72,24.586,24.586,0,0,1,27.894,30.252q.294.011.59.011t.6-.012A24.239,24.239,0,0,1,38.986,32.6a2.225,2.225,0,0,0,1.911-4.02ZM29.026,25.8q-.271,0-.543,0t-.539.005a10.681,10.681,0,1,1,1.081,0Z" transform="translate(0 0)" fill="#707070"/>
          </g>
        </g>
        <g id="Group_3005" data-name="Group 3005" transform="translate(35.827 35.826)">
          <g id="Group_3004" data-name="Group 3004">
            <path id="Path_5247" data-name="Path 5247" d="M340.915,330.345H334.8v-6.119a2.225,2.225,0,0,0-4.451,0v6.119h-6.119a2.225,2.225,0,1,0,0,4.45h6.119v6.119a2.225,2.225,0,0,0,4.451,0V334.8h6.119a2.225,2.225,0,1,0,0-4.45Z" transform="translate(-322 -322)" fill="#707070"/>
          </g>
        </g>
      </g>
      <g id="Consult-Talk" transform="translate(17051 12338)">
        <rect id="Rectangle_969" data-name="Rectangle 969" width="2.432" height="2.432" transform="translate(17.026 28.36)" fill="#707070" stroke="#707070" stroke-width="0.25"/>
        <rect id="Rectangle_970" data-name="Rectangle 970" width="2.432" height="2.432" transform="translate(29.187 28.36)" fill="#707070" stroke="#707070" stroke-width="0.25"/>
        <path id="Path_5248" data-name="Path 5248" d="M73.925,43.43l-4.751-.679a17.027,17.027,0,0,0-.8-1.946l2.875-3.833a1.216,1.216,0,0,0-.113-1.589l-5.16-5.16a1.2,1.2,0,0,0-.737-.344V18.172a9.729,9.729,0,0,0,3.648-7.59A9.628,9.628,0,0,0,63.326,1.8a1.216,1.216,0,0,0-1.735,1.1v6.81l-2.432.811-2.432-.811V2.9A1.216,1.216,0,0,0,54.991,1.8a9.628,9.628,0,0,0-5.561,8.781,9.729,9.729,0,0,0,3.648,7.59v8.22H49.43a1.216,1.216,0,0,0-1.2,1.044l-.787,5.508,2.408.344.637-4.463h5.188l.637,4.463a1.216,1.216,0,0,0,.863.995,14.52,14.52,0,0,1,2.919,1.2,1.216,1.216,0,0,0,1.315-.094l3.6-2.7,3.668,3.668-2.706,3.6a1.216,1.216,0,0,0-.094,1.315,14.52,14.52,0,0,1,1.2,2.919,1.216,1.216,0,0,0,.995.863l4.463.637V50.88l-4.463.637a1.216,1.216,0,0,0-.995.863,14.52,14.52,0,0,1-1.2,2.919,1.216,1.216,0,0,0,.094,1.315l2.7,3.6L65,63.883l-3.6-2.71a1.216,1.216,0,0,0-1.315-.094,14.519,14.519,0,0,1-2.919,1.2,1.216,1.216,0,0,0-.863.995l-.634,4.466H50.646V62.6a13.5,13.5,0,0,0-.547-3.8,11.079,11.079,0,1,0-7.776-8.588c-.029-.012-.057-.027-.086-.038L32.4,46.243V44.374a13.486,13.486,0,0,0,4.231-3.388H39.7a3.648,3.648,0,0,0,3.648-3.648V34.681a3.648,3.648,0,0,0,2.432-3.425V27.608a3.648,3.648,0,0,0-2.432-3.425v-1.44a17.026,17.026,0,1,0-34.052,0v1.44a3.648,3.648,0,0,0-2.432,3.425v3.648A3.648,3.648,0,0,0,10.513,34.9h2.432c.078,0,.153-.012.23-.017a13.406,13.406,0,0,0,7.067,9.486v1.869L10.41,50.176A13.316,13.316,0,0,0,2,62.6V73.822a1.216,1.216,0,0,0,1.216,1.216H49.43a1.216,1.216,0,0,0,1.216-1.216V70.173h6.081a1.216,1.216,0,0,0,1.2-1.044l.679-4.751a17.025,17.025,0,0,0,1.946-.8l3.833,2.875a1.216,1.216,0,0,0,1.59-.113l5.16-5.16a1.216,1.216,0,0,0,.113-1.59l-2.875-3.833a17.027,17.027,0,0,0,.8-1.946l4.751-.679a1.216,1.216,0,0,0,1.042-1.2v-7.3a1.216,1.216,0,0,0-1.044-1.2ZM60.548,32.986c-.057-.028-.122-.046-.179-.073V17.879H57.943v9.644l-.012-.088a1.216,1.216,0,0,0-1.2-1.043H55.51V17.563a1.216,1.216,0,0,0-.522-1,7.3,7.3,0,0,1-.694-11.428v5.446a1.216,1.216,0,0,0,.832,1.154l3.648,1.216a1.216,1.216,0,0,0,.769,0l3.648-1.216a1.216,1.216,0,0,0,.832-1.154V5.136a7.3,7.3,0,0,1-.694,11.432,1.216,1.216,0,0,0-.522.995V31.3Zm-15.983,15.3a8.574,8.574,0,1,1,4.053,7.225,13.275,13.275,0,0,0-3.175-3.5,8.314,8.314,0,0,1-.878-3.726ZM39.7,38.553H38.224a13.256,13.256,0,0,0,1.247-3.665c.077,0,.152.017.23.017h1.216v2.432A1.216,1.216,0,0,1,39.7,38.553ZM37.268,25.176a3.667,3.667,0,0,1-2.919-1.459L32.16,20.8a1.216,1.216,0,0,0-.82-.477,1.23,1.23,0,0,0-.913.257l-4.081,3.26a6.1,6.1,0,0,1-3.793,1.338H15.378V23.96a10.945,10.945,0,1,1,21.891,0Zm6.081,6.081a1.216,1.216,0,0,1-1.216,1.216H39.7V26.392h2.432a1.216,1.216,0,0,1,1.216,1.216ZM26.323,8.15A14.61,14.61,0,0,1,40.917,22.744V23.96H39.7a13.378,13.378,0,1,0-26.755,0H11.729V22.744A14.61,14.61,0,0,1,26.323,8.15ZM10.513,32.473A1.216,1.216,0,0,1,9.3,31.257V27.608a1.216,1.216,0,0,1,1.216-1.216h2.432v6.081Zm4.865,0V27.608h7.175a8.542,8.542,0,0,0,5.317-1.866l3.1-2.482L32.4,25.176a6.111,6.111,0,0,0,4.865,2.432v4.865a10.881,10.881,0,0,1-1.851,6.081H26.323v2.432h6.864a10.934,10.934,0,0,1-17.809-8.513ZM26.323,45.85a13.336,13.336,0,0,0,3.648-.518v1.734a3.648,3.648,0,1,1-7.3,0V45.332a13.336,13.336,0,0,0,3.648.518ZM48.213,72.605h-7.3V59.228H38.484V72.605H14.161V59.228H11.729V72.605h-7.3V62.6a10.894,10.894,0,0,1,6.881-10.163l9.2-3.679a6.042,6.042,0,0,0,11.624,0l9.2,3.679A10.894,10.894,0,0,1,48.213,62.6Z" transform="translate(-2 -1.68)" fill="#707070" stroke="#707070" stroke-width="0.25"/>
        <rect id="Rectangle_971" data-name="Rectangle 971" width="2.432" height="2.432" transform="translate(49.862 29.576)" fill="#707070" stroke="#707070" stroke-width="0.25"/>
        <rect id="Rectangle_972" data-name="Rectangle 972" width="2.432" height="2.432" transform="translate(49.862 61.196)" fill="#707070" stroke="#707070" stroke-width="0.25"/>
        <rect id="Rectangle_973" data-name="Rectangle 973" width="2.432" height="2.432" transform="translate(60.537 57.782) rotate(-45)" fill="#707070" stroke="#707070" stroke-width="0.25"/>
        <rect id="Rectangle_974" data-name="Rectangle 974" width="2.432" height="2.432" transform="translate(65.672 45.386)" fill="#707070" stroke="#707070" stroke-width="0.25"/>
        <rect id="Rectangle_975" data-name="Rectangle 975" width="2.432" height="2.432" transform="translate(60.537 35.424) rotate(-45)" fill="#707070" stroke="#707070" stroke-width="0.25"/>
      </g>
      <g id="customer_2_" data-name="customer (2)" transform="translate(17051 12861)">
        <path id="Path_5249" data-name="Path 5249" d="M48.98,26.133a23.013,23.013,0,0,0-2.426.133A22.729,22.729,0,0,0,23.848,1a22.848,22.848,0,1,0,0,45.7,23.065,23.065,0,0,0,2.417-.141A22.846,22.846,0,1,0,48.98,26.133ZM23.848,44.411A20.7,20.7,0,1,1,44.2,26.643a22.554,22.554,0,0,0-2.418.668A18.338,18.338,0,1,0,27.312,41.784a22.878,22.878,0,0,0-.668,2.417A20.758,20.758,0,0,1,23.848,44.411Zm4.523-5.226a15.939,15.939,0,0,1-15.892-4.1,3.4,3.4,0,0,1,2.694-2.856l4.219-.856a4.631,4.631,0,0,0,.753-.3l3.7,4.972,3.712-4.982a4.882,4.882,0,0,0,.833.33l4.131.834a3.382,3.382,0,0,1,.716.239,22.936,22.936,0,0,0-4.869,6.722ZM18.136,23.848a1.142,1.142,0,1,1,0-2.285Zm.891-4.57h-.891a3.379,3.379,0,0,0-.865.125,5.288,5.288,0,0,1,5.043-6.979h3.07A5.288,5.288,0,0,1,30.425,19.4a3.379,3.379,0,0,0-.865-.125H26.4a9.72,9.72,0,0,1-4.329-1.022l-.241-.12h-.27A3.41,3.41,0,0,0,19.027,19.278ZM29.56,21.563a1.142,1.142,0,1,1,0,2.285Zm-2.285,2.285a3.427,3.427,0,1,1-6.854,0V21.563a1.145,1.145,0,0,1,.924-1.122A12.032,12.032,0,0,0,26.4,21.563h.873ZM22.09,29.254a5.2,5.2,0,0,0,3.517,0c.064.111.133.219.207.324l-1.966,2.639L21.883,29.58C21.956,29.474,22.025,29.366,22.09,29.254Zm12.989,1.636a5.645,5.645,0,0,0-2.1-.9l-4.044-.813a2.274,2.274,0,0,1-1.337-1.048,5.721,5.721,0,0,0,1.481-1.991h.486a3.419,3.419,0,0,0,2.8-5.39,7.588,7.588,0,0,0-6.98-10.6h-3.07a7.589,7.589,0,0,0-6.979,10.6,3.418,3.418,0,0,0,2.8,5.389h.484A5.718,5.718,0,0,0,20.1,28.125a2.189,2.189,0,0,1-1.251,1.025l-4.131.834a5.652,5.652,0,0,0-3.954,3.036,15.991,15.991,0,1,1,28.415-4.647,22.924,22.924,0,0,0-4.1,2.517Zm13.9,38.654A20.563,20.563,0,1,1,69.543,48.98,20.587,20.587,0,0,1,48.98,69.543Z" transform="translate(0 0)" fill="#707070"/>
        <path id="Path_5250" data-name="Path 5250" d="M57.625,27.576l2.247-.416c-.151-.81-.335-1.624-.547-2.42l-2.207.592C57.316,26.07,57.486,26.825,57.625,27.576Z" transform="translate(7.991 3.38)" fill="#707070"/>
        <path id="Path_5251" data-name="Path 5251" d="M42.427,10.854a3.407,3.407,0,0,0,2.5-1.1A29.974,29.974,0,0,1,59.016,26.086l2.155-.761A32.274,32.274,0,0,0,45.833,7.649c0-.074.022-.146.022-.222a3.427,3.427,0,1,0-3.427,3.427Zm0-4.57a1.142,1.142,0,1,1-1.142,1.142A1.144,1.144,0,0,1,42.427,6.285Z" transform="translate(5.411 0.427)" fill="#707070"/>
        <path id="Path_5252" data-name="Path 5252" d="M6.718,36.777l-2.247.416c.151.81.335,1.624.547,2.42l2.207-.592C7.028,38.284,6.857,37.529,6.718,36.777Z" transform="translate(0.494 5.094)" fill="#707070"/>
        <path id="Path_5253" data-name="Path 5253" d="M24.336,55.9a3.407,3.407,0,0,0-2.5,1.1A29.983,29.983,0,0,1,7.748,40.667l-2.155.761A32.274,32.274,0,0,0,20.931,59.1c0,.074-.022.146-.022.222A3.427,3.427,0,1,0,24.336,55.9Zm0,4.57a1.142,1.142,0,1,1,1.142-1.142A1.144,1.144,0,0,1,24.336,60.468Z" transform="translate(0.654 5.648)" fill="#707070"/>
        <path id="Path_5254" data-name="Path 5254" d="M58.649,34.339h0a4.547,4.547,0,0,0-4.075-1.262A4.71,4.71,0,0,0,52.1,34.428L39.424,47.1l-3.536-3.537a4.716,4.716,0,0,0-2.474-1.349,4.574,4.574,0,0,0-5.337,5.336,4.71,4.71,0,0,0,1.351,2.476l6.765,6.766a4.566,4.566,0,0,0,6.461,0L58.56,40.888a4.71,4.71,0,0,0,1.351-2.476,4.546,4.546,0,0,0-1.262-4.074Zm-.987,3.669a2.484,2.484,0,0,1-.717,1.265L41.039,55.178a2.338,2.338,0,0,1-3.231,0l-6.766-6.766a2.493,2.493,0,0,1-.717-1.266,2.29,2.29,0,0,1,2.247-2.722,2.246,2.246,0,0,1,1.7.756l5.151,5.151,14.29-14.289a2.493,2.493,0,0,1,1.266-.717,2.291,2.291,0,0,1,2.682,2.683Z" transform="translate(3.844 4.556)" fill="#707070"/>
      </g>
      <g id="knife-switch" transform="translate(17061 12519.351)">
        <path id="Path_5255" data-name="Path 5255" d="M86.5,217.721l-5.315-2.658,1.963-1.963a1.927,1.927,0,0,0-2.724-2.724l-3.853,3.853a1.927,1.927,0,0,0,.5,3.085l5.315,2.658-1.963,1.963a1.927,1.927,0,0,0,2.724,2.724L87,220.806A1.927,1.927,0,0,0,86.5,217.721Z" transform="translate(-68.296 -182.841)" fill="#707070"/>
        <path id="Path_5256" data-name="Path 5256" d="M71.868,11.559A5.782,5.782,0,1,0,66.653,8.27l-12.8,12.8a17.312,17.312,0,0,0-10.879-5.554V9.632a5.786,5.786,0,0,0-5.779-5.779H19.853V1.926a1.926,1.926,0,0,0-3.853,0v61.9a1.926,1.926,0,0,0,3.853,0V61.647H37.191a5.786,5.786,0,0,0,5.779-5.779V49.981A17.331,17.331,0,0,0,56.14,24.231L69.378,10.994a5.744,5.744,0,0,0,2.49.565ZM42.971,27.3a5.778,5.778,0,0,1,0,10.9ZM39.118,55.868a1.929,1.929,0,0,1-1.926,1.926H19.853V7.706H37.191a1.929,1.929,0,0,1,1.926,1.926ZM42.971,46.1V42.189a9.633,9.633,0,0,0,0-18.877V19.4a13.485,13.485,0,0,1,0,26.694Zm28.9-42.244a1.926,1.926,0,1,1-1.926,1.926A1.929,1.929,0,0,1,71.868,3.853Z" transform="translate(-16 0)" fill="#707070"/>
        <circle id="Ellipse_461" data-name="Ellipse 461" cx="1.54" cy="1.54" r="1.54" transform="translate(15.901 11.713)" fill="#707070"/>
        <ellipse id="Ellipse_462" data-name="Ellipse 462" cx="1.54" cy="2.309" rx="1.54" ry="2.309" transform="translate(15.901 50.201)" fill="#707070"/>
      </g>
      <g id="status-bar" transform="translate(17054 11989)">
        <g id="Group_3007" data-name="Group 3007" transform="translate(47.777 0)">
          <g id="Group_3006" data-name="Group 3006">
            <path id="Path_5257" data-name="Path 5257" d="M376.832,9.241a5.939,5.939,0,1,0-9.867,0A9.9,9.9,0,0,0,362,17.817v3.959a1.98,1.98,0,0,0,1.98,1.98h15.837a1.98,1.98,0,0,0,1.98-1.98V17.817A9.9,9.9,0,0,0,376.832,9.241ZM371.9,3.959a1.98,1.98,0,1,1-1.98,1.98A1.982,1.982,0,0,1,371.9,3.959ZM377.837,19.8H365.959v-1.98a5.939,5.939,0,1,1,11.878,0Z" transform="translate(-362)" fill="#939292"/>
          </g>
        </g>
        <g id="Group_3009" data-name="Group 3009" transform="translate(23.888 11.878)">
          <g id="Group_3008" data-name="Group 3008">
            <path id="Path_5258" data-name="Path 5258" d="M195.832,99.241a5.939,5.939,0,1,0-9.867,0A9.9,9.9,0,0,0,181,107.817v3.959a1.98,1.98,0,0,0,1.98,1.98h15.838a1.98,1.98,0,0,0,1.98-1.98v-3.959A9.9,9.9,0,0,0,195.832,99.241ZM190.9,93.959a1.98,1.98,0,1,1-1.98,1.98A1.982,1.982,0,0,1,190.9,93.959Zm5.939,15.838H184.959v-1.98a5.939,5.939,0,0,1,11.878,0Z" transform="translate(-181 -90)" fill="#939292"/>
          </g>
        </g>
        <g id="Group_3011" data-name="Group 3011" transform="translate(0 23.756)">
          <g id="Group_3010" data-name="Group 3010">
            <path id="Path_5259" data-name="Path 5259" d="M14.832,189.241a5.939,5.939,0,1,0-9.867,0A9.9,9.9,0,0,0,0,197.817v3.959a1.98,1.98,0,0,0,1.98,1.98H17.817a1.98,1.98,0,0,0,1.98-1.98v-3.959A9.9,9.9,0,0,0,14.832,189.241ZM9.9,183.959a1.98,1.98,0,1,1-1.98,1.98A1.982,1.982,0,0,1,9.9,183.959ZM15.838,199.8H3.959v-1.98a5.939,5.939,0,1,1,11.878,0Z" transform="translate(0 -180)" fill="#939292"/>
          </g>
        </g>
        <g id="Group_3013" data-name="Group 3013" transform="translate(0 27.716)">
          <g id="Group_3012" data-name="Group 3012">
            <path id="Path_5260" data-name="Path 5260" d="M65.594,210H49.756a1.98,1.98,0,0,0-1.98,1.98V245.9H43.685V223.858a1.98,1.98,0,0,0-1.98-1.98H25.868a1.98,1.98,0,0,0-1.98,1.98V245.9H19.8V235.736a1.98,1.98,0,0,0-1.98-1.98H1.98A1.98,1.98,0,0,0,0,235.736v12.142a1.98,1.98,0,0,0,1.98,1.98H65.594a1.98,1.98,0,0,0,1.98-1.98v-35.9A1.98,1.98,0,0,0,65.594,210ZM15.838,245.9H3.959v-8.183H15.838Zm23.888,0H27.848V225.838H39.726Zm23.888,0H51.736V213.959H63.614Z" transform="translate(0 -210)" fill="#939292"/>
          </g>
        </g>
      </g>
      <g id="work_time" data-name="work time" transform="translate(17056 12168)">
        <path id="Path_5261" data-name="Path 5261" d="M36.748,4.127h9V2H36.18a1.063,1.063,0,0,0-.885.473l-2.127,3.19,1.77,1.18Z" transform="translate(-0.024 -2)" fill="#707070" stroke="#707070" stroke-width="0.25"/>
        <path id="Path_5262" data-name="Path 5262" d="M28,60.162H19v2.127h9.571a1.063,1.063,0,0,0,.885-.473l2.127-3.19-1.769-1.18Z" transform="translate(-0.922 1.515)" fill="#707070" stroke="#707070" stroke-width="0.25"/>
        <path id="Path_5263" data-name="Path 5263" d="M45.6,25.395a19.97,19.97,0,0,0-10.482,2.956l-.552-.773a15,15,0,0,0,.618-1.5l4.211-.7a1.063,1.063,0,0,0,.888-1.049v-6.38a1.063,1.063,0,0,0-.888-1.049l-4.211-.7a14.993,14.993,0,0,0-.618-1.5l2.48-3.472a1.063,1.063,0,0,0-.114-1.37L32.42,5.351a1.063,1.063,0,0,0-1.37-.114l-3.472,2.48a14.994,14.994,0,0,0-1.5-.613l-.7-4.211A1.063,1.063,0,0,0,24.331,2h-6.38a1.063,1.063,0,0,0-1.049.888L16.2,7.1a14.994,14.994,0,0,0-1.5.618l-3.472-2.48a1.063,1.063,0,0,0-1.37.114L5.351,9.863a1.063,1.063,0,0,0-.114,1.37L7.729,14.72A14.094,14.094,0,0,0,7.119,16.2L2.888,16.9A1.063,1.063,0,0,0,2,17.951v6.38a1.063,1.063,0,0,0,.888,1.049l4.23.705a15.791,15.791,0,0,0,.6,1.489L5.237,31.05a1.063,1.063,0,0,0,.114,1.37l4.512,4.512a1.063,1.063,0,0,0,1.37.114l3.472-2.48a14.992,14.992,0,0,0,1.5.618l.7,4.211a1.063,1.063,0,0,0,1.049.888h6.38a1.063,1.063,0,0,0,1.049-.888l.7-4.211a14.992,14.992,0,0,0,1.5-.618l.773.552A19.97,19.97,0,0,0,25.395,45.6a20.2,20.2,0,1,0,20.2-20.2ZM27.169,32.389a12.724,12.724,0,0,1-2.339.966,1.063,1.063,0,0,0-.744.843l-.654,3.958H18.852L18.192,34.2a1.063,1.063,0,0,0-.744-.843,12.725,12.725,0,0,1-2.339-.966,1.063,1.063,0,0,0-1.121.071l-3.265,2.331L7.491,31.554l2.331-3.265a1.063,1.063,0,0,0,.071-1.121,14.369,14.369,0,0,1-.982-2.387,1.063,1.063,0,0,0-.826-.691l-3.959-.659V18.852l3.958-.659a1.063,1.063,0,0,0,.826-.691,17.44,17.44,0,0,1,1.007-2.434,1.063,1.063,0,0,0-.1-1.074L7.491,10.728l3.237-3.237,3.265,2.331a1.063,1.063,0,0,0,1.121.071,12.725,12.725,0,0,1,2.339-.966,1.063,1.063,0,0,0,.744-.843l.654-3.958h4.579l.659,3.958a1.063,1.063,0,0,0,.744.843,12.725,12.725,0,0,1,2.339.966,1.063,1.063,0,0,0,1.121-.071l3.265-2.331L34.8,10.728l-2.331,3.265a1.063,1.063,0,0,0-.071,1.121,12.725,12.725,0,0,1,.966,2.339,1.063,1.063,0,0,0,.843.744l3.958.659v4.579L34.2,24.1a1.063,1.063,0,0,0-.843.744,12.725,12.725,0,0,1-.966,2.339,1.063,1.063,0,0,0,.071,1.121L34.8,31.565,31.559,34.8l-3.265-2.331A1.063,1.063,0,0,0,27.169,32.389ZM46.663,63.623V60.487H44.536v3.136a18.071,18.071,0,0,1-16.96-16.96h3.136V44.536H27.561a17.81,17.81,0,0,1,2.522-8.181l.967.69a1.063,1.063,0,0,0,1.37-.114l4.512-4.512a1.063,1.063,0,0,0,.114-1.37l-.69-.967a17.81,17.81,0,0,1,8.181-2.522v3.151h2.127V27.576a18.071,18.071,0,0,1,16.96,16.96H60.487v2.127h3.136a18.071,18.071,0,0,1-16.96,16.96Z" transform="translate(-2 -2)" fill="#707070" stroke="#707070" stroke-width="0.25"/>
        <path id="Path_5264" data-name="Path 5264" d="M44.127,31H42V43.761a1.063,1.063,0,0,0,1.063,1.063h8.507V42.7H44.127Z" transform="translate(0.536 -0.161)" fill="#707070" stroke="#707070" stroke-width="0.25"/>
        <path id="Path_5265" data-name="Path 5265" d="M25.7,17.444H21.444v-6.38a1.063,1.063,0,0,0-2.031-.44L14.1,22.321a1.063,1.063,0,0,0,.968,1.5h4.254V30.2a1.063,1.063,0,0,0,.838,1.04,1.09,1.09,0,0,0,.225.023,1.063,1.063,0,0,0,.968-.623l5.317-11.7a1.063,1.063,0,0,0-.968-1.5Zm-4.254,7.851V22.761A1.063,1.063,0,0,0,20.38,21.7H16.715l2.6-5.724v2.534a1.063,1.063,0,0,0,1.063,1.063h3.666Z" transform="translate(-1.239 -1.493)" fill="#707070" stroke="#707070" stroke-width="0.25"/>
        <rect id="Rectangle_976" data-name="Rectangle 976" width="3.076" height="3.076" transform="translate(17.658 3.814)" fill="#707070" stroke="#707070" stroke-width="0.25"/>
        <rect id="Rectangle_977" data-name="Rectangle 977" width="2.127" height="2.127" transform="translate(7.862 9.366) rotate(-45)" fill="#707070" stroke="#707070" stroke-width="0.25"/>
        <rect id="Rectangle_978" data-name="Rectangle 978" width="3.076" height="3.076" transform="translate(3.814 17.658)" fill="#707070" stroke="#707070" stroke-width="0.25"/>
        <rect id="Rectangle_979" data-name="Rectangle 979" width="2.127" height="2.127" transform="translate(7.862 28.915) rotate(-45)" fill="#707070" stroke="#707070" stroke-width="0.25"/>
        <rect id="Rectangle_980" data-name="Rectangle 980" width="3.076" height="3.076" transform="translate(17.658 31.502)" fill="#707070" stroke="#707070" stroke-width="0.25"/>
        <rect id="Rectangle_981" data-name="Rectangle 981" width="2.127" height="2.127" transform="translate(27.412 28.916) rotate(-45)" fill="#707070" stroke="#707070" stroke-width="0.25"/>
        <rect id="Rectangle_982" data-name="Rectangle 982" width="3.076" height="3.076" transform="translate(31.502 17.658)" fill="#707070" stroke="#707070" stroke-width="0.25"/>
        <rect id="Rectangle_983" data-name="Rectangle 983" width="2.127" height="2.127" transform="translate(27.412 9.367) rotate(-45)" fill="#707070" stroke="#707070" stroke-width="0.25"/>
        <path id="Path_5266" data-name="Path 5266" d="M53.254,7a4.254,4.254,0,1,0,4.254,4.254A4.254,4.254,0,0,0,53.254,7Zm0,6.38a2.127,2.127,0,1,1,2.127-2.127A2.127,2.127,0,0,1,53.254,13.38Z" transform="translate(0.98 -1.683)" fill="#707070" stroke="#707070" stroke-width="0.25"/>
        <path id="Path_5267" data-name="Path 5267" d="M62.336,8.412l-.711-.178L62,7.606a1.063,1.063,0,0,0-.161-1.3L58.834,3.3a1.063,1.063,0,0,0-1.3-.161l-.628.378L56.729,2.8A1.063,1.063,0,0,0,55.7,2H51.444a1.063,1.063,0,0,0-1.031.8l-.178.711-.628-.378a1.063,1.063,0,0,0-1.3.161L45.3,6.307a1.063,1.063,0,0,0-.161,1.3l.378.628-.711.178A1.063,1.063,0,0,0,44,9.444V13.7a1.063,1.063,0,0,0,.8,1.031l.711.178-.378.628a1.063,1.063,0,0,0,.161,1.3l3.007,3.007a1.063,1.063,0,0,0,1.3.161l.628-.378.178.711a1.063,1.063,0,0,0,1.032.8H55.7a1.063,1.063,0,0,0,1.031-.8l.178-.711.628.378a1.063,1.063,0,0,0,1.3-.161l3.007-3.007a1.063,1.063,0,0,0,.161-1.3l-.378-.628.711-.178a1.063,1.063,0,0,0,.805-1.031V9.444a1.063,1.063,0,0,0-.8-1.031Zm-1.322,4.455-1.3.319a1.063,1.063,0,0,0-.653,1.579l.688,1.147-1.833,1.833-1.147-.688a1.063,1.063,0,0,0-1.579.653l-.324,1.3H52.274l-.319-1.3a1.063,1.063,0,0,0-1.579-.653l-1.147.688L47.4,15.918l.688-1.147a1.063,1.063,0,0,0-.653-1.579l-1.3-.324V10.274l1.3-.319a1.063,1.063,0,0,0,.653-1.579L47.39,7.229,49.223,5.4l1.147.688a1.063,1.063,0,0,0,1.579-.654l.319-1.3h2.593l.319,1.3a1.063,1.063,0,0,0,1.579.654L57.907,5.4,59.74,7.229l-.688,1.147a1.063,1.063,0,0,0,.653,1.579l1.3.319Z" transform="translate(0.663 -2)" fill="#707070" stroke="#707070" stroke-width="0.25"/>
        <path id="Path_5268" data-name="Path 5268" d="M11.254,49a4.254,4.254,0,1,0,4.254,4.254A4.254,4.254,0,0,0,11.254,49Zm0,6.38a2.127,2.127,0,1,1,2.127-2.127A2.127,2.127,0,0,1,11.254,55.38Z" transform="translate(-1.683 0.98)" fill="#707070" stroke="#707070" stroke-width="0.25"/>
        <path id="Path_5269" data-name="Path 5269" d="M20,57.535l-.378-.628.711-.178a1.063,1.063,0,0,0,.8-1.031V51.444a1.063,1.063,0,0,0-.8-1.031l-.711-.178L20,49.606a1.063,1.063,0,0,0-.161-1.3L16.834,45.3a1.063,1.063,0,0,0-1.3-.161l-.628.377-.178-.711A1.063,1.063,0,0,0,13.7,44H9.444a1.063,1.063,0,0,0-1.031.8l-.178.711-.628-.377a1.063,1.063,0,0,0-1.3.161L3.3,48.307a1.063,1.063,0,0,0-.161,1.3l.378.628-.711.178A1.063,1.063,0,0,0,2,51.444V55.7a1.063,1.063,0,0,0,.8,1.031l.711.178-.378.628a1.063,1.063,0,0,0,.161,1.3l3.007,3.007a1.063,1.063,0,0,0,1.3.161l.628-.378.178.711a1.063,1.063,0,0,0,1.031.805H13.7a1.063,1.063,0,0,0,1.031-.8l.178-.711.628.378a1.063,1.063,0,0,0,1.3-.161l3.007-3.007A1.063,1.063,0,0,0,20,57.535Zm-.988-2.668-1.3.319a1.063,1.063,0,0,0-.653,1.579l.688,1.147-1.833,1.833-1.147-.688a1.063,1.063,0,0,0-1.579.653l-.324,1.3H10.274l-.319-1.3a1.063,1.063,0,0,0-1.579-.653l-1.147.688L5.39,57.918l.688-1.147a1.063,1.063,0,0,0-.653-1.579l-1.3-.324V52.274l1.3-.319a1.063,1.063,0,0,0,.653-1.579L5.39,49.229,7.223,47.4l1.147.688a1.063,1.063,0,0,0,1.579-.654l.319-1.3h2.593l.319,1.3a1.063,1.063,0,0,0,1.579.654l1.147-.688,1.833,1.833-.688,1.147a1.063,1.063,0,0,0,.653,1.579l1.3.319Z" transform="translate(-2 0.663)" fill="#707070" stroke="#707070" stroke-width="0.25"/>
      </g>
      <g id="survey_2_" data-name="survey (2)" transform="translate(17052 13020.667)">
        <g id="Group_3015" data-name="Group 3015" transform="translate(0 21.333)">
          <g id="Group_3014" data-name="Group 3014" transform="translate(0 0)">
            <circle id="Ellipse_463" data-name="Ellipse 463" cx="1.476" cy="1.476" r="1.476" transform="translate(5.902 5.902)" fill="#707070"/>
            <circle id="Ellipse_464" data-name="Ellipse 464" cx="1.476" cy="1.476" r="1.476" transform="translate(11.805 5.902)" fill="#707070"/>
            <circle id="Ellipse_465" data-name="Ellipse 465" cx="1.476" cy="1.476" r="1.476" transform="translate(17.707 5.902)" fill="#707070"/>
            <path id="Path_5270" data-name="Path 5270" d="M108.142,216.284H140.6a1.476,1.476,0,0,0,0-2.951H108.142a1.476,1.476,0,1,0,0,2.951Z" transform="translate(-91.91 -186.772)" fill="#707070"/>
            <path id="Path_5271" data-name="Path 5271" d="M125.849,341.333H108.142a1.476,1.476,0,1,0,0,2.951h17.707a1.476,1.476,0,1,0,0-2.951Z" transform="translate(-91.91 -297.065)" fill="#707070"/>
            <path id="Path_5272" data-name="Path 5272" d="M65.179,39.04c-.085,0-.168.021-.254.025V27.235a5.909,5.909,0,0,0-5.9-5.9H5.9a5.909,5.909,0,0,0-5.9,5.9V80.356a5.909,5.909,0,0,0,5.9,5.9H59.023a5.909,5.909,0,0,0,5.9-5.9V52.931l4.248-4.247h0a5.648,5.648,0,0,0-3.994-9.642ZM2.951,27.235A2.954,2.954,0,0,1,5.9,24.284H59.023a2.954,2.954,0,0,1,2.951,2.951v5.9H2.951ZM61.975,80.356a2.954,2.954,0,0,1-2.951,2.951H5.9a2.954,2.954,0,0,1-2.951-2.951V36.089H61.975v3.959a5.551,5.551,0,0,0-.79.646L45.13,56.747h-28.9a1.476,1.476,0,1,0,0,2.951H42.762l-1.417,7.088a1.476,1.476,0,0,0,1.447,1.765,1.507,1.507,0,0,0,.288-.029l7.375-1.476a1.466,1.466,0,0,0,.755-.4L61.975,55.881ZM49.441,64.242l-4.767.954.954-4.773L59.023,47.028l3.816,3.816ZM67.087,46.6l-2.161,2.161-3.817-3.817,2.162-2.162A2.7,2.7,0,0,1,67.087,46.6Z" transform="translate(0 -21.333)" fill="#707070"/>
          </g>
        </g>
      </g>
    </g>
  </g>
</svg>
