<svg xmlns="http://www.w3.org/2000/svg" width="1608" height="876" viewBox="0 0 1608 876">
  <g id="Group_3199" data-name="Group 3199" transform="translate(-16052 -13632)">
    <rect id="Rectangle_1048" data-name="Rectangle 1048" width="1608" height="876" transform="translate(16052 13632)" fill="#fff"/>
    <g id="Group_3121" data-name="Group 3121" transform="translate(0.069 4.5)">
      <line id="Line_292" data-name="Line 292" y2="827" transform="translate(16341.5 13652.5)" fill="none" stroke="#707070" stroke-width="1"/>
      <line id="Line_296" data-name="Line 296" x2="1553.669" transform="translate(16078.931 13934.5)" fill="none" stroke="#707070" stroke-width="1"/>
      <line id="Line_295" data-name="Line 295" x2="1553.669" transform="translate(16078.931 14199.5)" fill="none" stroke="#707070" stroke-width="1"/>
      <text id="Package_Activity" data-name="Package Activity" transform="translate(16451 13692)" fill="#21232a" font-size="54" font-family="OpenSans-Bold, Open Sans" font-weight="700"><tspan x="0" y="58">Package Activity</tspan></text>
      <text id="Get_an_overview_of_the_package_status" data-name="Get an overview of the package status" transform="translate(16451 13766)" fill="#21232a" font-size="54" font-family="OpenSans-Regular, Open Sans"><tspan x="0" y="58">Get an overview of the package status</tspan></text>
      <text id="Scheme" transform="translate(16451 13955)" fill="#21232a" font-size="54" font-family="OpenSans-Bold, Open Sans" font-weight="700"><tspan x="0" y="58">Scheme</tspan></text>
      <text id="Get_an_overview_of_the_schemes_being_used" data-name="Get an overview of the schemes being used" transform="translate(16451 14029)" fill="#21232a" font-size="54" font-family="OpenSans-Regular, Open Sans"><tspan x="0" y="58">Get an overview of the schemes being used</tspan></text>
      <text id="Product_Inventory" data-name="Product Inventory" transform="translate(16451 14223)" fill="#21232a" font-size="54" font-family="OpenSans-Bold, Open Sans" font-weight="700"><tspan x="0" y="58">Product Inventory</tspan></text>
      <text id="Get_an_overview_of_leased_products" data-name="Get an overview of leased products" transform="translate(16451 14297)" fill="#21232a" font-size="54" font-family="OpenSans-Regular, Open Sans"><tspan x="0" y="58">Get an overview of leased products</tspan></text>
      <circle id="Ellipse_475" data-name="Ellipse 475" cx="7" cy="7" r="7" transform="translate(16391 13799)" fill="#bebebe"/>
      <text id="Add_a_package_activity_request" data-name="Add a package activity request" transform="translate(16451 13828)" fill="#21232a" font-size="54" font-family="OpenSans-Regular, Open Sans"><tspan x="0" y="58">Add a package activity request</tspan></text>
      <g id="Outline" transform="translate(16165 13771.477)">
        <path id="Path_5430" data-name="Path 5430" d="M217.188,280.811l-5.468-8.2a1.367,1.367,0,0,0-1.137-.609H166.836a1.367,1.367,0,0,0-1.137.609l-5.468,8.2a1.367,1.367,0,0,0,1.137,2.126h4.1v24.607h-2.734v2.734h51.95v-2.734H211.95V282.937h4.1a1.367,1.367,0,0,0,1.137-2.126Zm-49.621-6.077h13.119l-3.645,5.468H163.922Zm.636,8.2h9.57a1.367,1.367,0,0,0,1.137-.609l2.964-4.446v29.662H168.2Zm41.013,24.607H184.608V277.882l2.964,4.446a1.367,1.367,0,0,0,1.137.609h20.506ZM189.441,280.2l-3.646-5.468h24.056L213.5,280.2Z" transform="translate(-135.392 -229.62)" fill="#707070"/>
        <path id="Path_5431" data-name="Path 5431" d="M416,448h2.734v2.734H416Z" transform="translate(-347.646 -375.545)" fill="#707070"/>
        <path id="Path_5432" data-name="Path 5432" d="M384,448h2.734v2.734H384Z" transform="translate(-321.114 -375.545)" fill="#707070"/>
        <path id="Path_5433" data-name="Path 5433" d="M320.477,81.645l9.57,8.2a1.367,1.367,0,0,0,1.779,0l9.57-8.2a1.367,1.367,0,0,0,.477-1.038v-4.1a1.367,1.367,0,0,0-1.367-1.367h-4.1V56h-2.734V76.506a1.367,1.367,0,0,0,1.367,1.367h4.1v2.105l-8.2,7.031-8.2-7.031V77.873h4.1a1.367,1.367,0,0,0,1.367-1.367V56h-2.734V75.139h-4.1A1.367,1.367,0,0,0,320,76.506v4.1a1.367,1.367,0,0,0,.477,1.038Z" transform="translate(-268.051 -50.532)" fill="#707070"/>
        <path id="Path_5434" data-name="Path 5434" d="M18.734,26.734H62.481V63.645h2.734V25.367A1.367,1.367,0,0,0,63.848,24H17.367A1.367,1.367,0,0,0,16,25.367V97.823a1.367,1.367,0,0,0,1.367,1.367H41.9V96.455H18.734Z" transform="translate(-16 -24)" fill="#707070"/>
        <path id="Path_5435" data-name="Path 5435" d="M68.7,50.343l-3.7,3.7H57.367A1.367,1.367,0,0,0,56,55.411v8.2a1.367,1.367,0,0,0,1.367,1.367h8.2a1.367,1.367,0,0,0,1.367-1.367V55.977l3.7-3.7Zm-4.5,11.9H58.734V56.778h3.535L60.5,58.546l1.933,1.933L64.2,58.711Z" transform="translate(-49.165 -45.841)" fill="#707070"/>
        <path id="Path_5436" data-name="Path 5436" d="M152,80h2.734v2.734H152Z" transform="translate(-128.759 -70.43)" fill="#707070"/>
        <path id="Path_5437" data-name="Path 5437" d="M184,80h13.671v2.734H184Z" transform="translate(-155.291 -70.43)" fill="#707070"/>
        <path id="Path_5438" data-name="Path 5438" d="M152,112h19.139v2.734H152Z" transform="translate(-128.759 -96.962)" fill="#707070"/>
        <path id="Path_5439" data-name="Path 5439" d="M68.7,146.343l-3.7,3.7H57.367A1.367,1.367,0,0,0,56,151.411v8.2a1.367,1.367,0,0,0,1.367,1.367h8.2a1.367,1.367,0,0,0,1.367-1.367v-7.636l3.7-3.7Zm-4.5,11.9H58.734v-5.468h3.535L60.5,154.546l1.933,1.933,1.767-1.767Z" transform="translate(-49.165 -125.436)" fill="#707070"/>
        <path id="Path_5440" data-name="Path 5440" d="M152,176h2.734v2.734H152Z" transform="translate(-128.759 -150.025)" fill="#707070"/>
        <path id="Path_5441" data-name="Path 5441" d="M184,176h13.671v2.734H184Z" transform="translate(-155.291 -150.025)" fill="#707070"/>
        <path id="Path_5442" data-name="Path 5442" d="M152,208h19.139v2.734H152Z" transform="translate(-128.759 -176.557)" fill="#707070"/>
        <path id="Path_5443" data-name="Path 5443" d="M68.7,242.343l-3.7,3.7H57.367A1.367,1.367,0,0,0,56,247.411v8.2a1.367,1.367,0,0,0,1.367,1.367h8.2a1.367,1.367,0,0,0,1.367-1.367v-7.636l3.7-3.7Zm-4.5,11.9H58.734v-5.468h3.535L60.5,250.546l1.933,1.933,1.767-1.768Z" transform="translate(-49.165 -205.031)" fill="#707070"/>
        <path id="Path_5444" data-name="Path 5444" d="M152,272h2.734v2.734H152Z" transform="translate(-128.759 -229.62)" fill="#707070"/>
        <path id="Path_5445" data-name="Path 5445" d="M57.367,342.044A1.367,1.367,0,0,0,56,343.411v8.2a1.367,1.367,0,0,0,1.367,1.367h8.2a1.367,1.367,0,0,0,1.367-1.367v-7.636l3.7-3.7L68.7,338.343l-3.7,3.7Zm6.835,8.2H58.734v-5.468h3.535L60.5,346.545l1.933,1.934,1.767-1.767Z" transform="translate(-49.165 -284.626)" fill="#707070"/>
        <path id="Path_5446" data-name="Path 5446" d="M152,368h2.734v2.734H152Z" transform="translate(-128.759 -309.215)" fill="#707070"/>
        <path id="Path_5447" data-name="Path 5447" d="M152,400h4.1v2.734H152Z" transform="translate(-128.759 -335.747)" fill="#707070"/>
      </g>
      <g id="workflow_1_" data-name="workflow (1)" transform="translate(16161 14031.435)">
        <g id="Group_3035" data-name="Group 3035" transform="translate(0 0)">
          <g id="Group_3034" data-name="Group 3034">
            <path id="Path_5448" data-name="Path 5448" d="M89.606,57.422H79.734L74.466,48.73a1.332,1.332,0,0,0-1.139-.642H46.8V39.464a12.11,12.11,0,1,0-10.253-3.845,1.332,1.332,0,0,0,1.962-1.8,9.415,9.415,0,1,1,4.163,2.637A1.332,1.332,0,1,0,41.885,39a12.049,12.049,0,0,0,2.252.466v8.623H17.612a1.332,1.332,0,0,0-1.139.642L11.2,57.422H1.332A1.332,1.332,0,0,0,0,58.754V99.48a1.332,1.332,0,0,0,1.332,1.332H22.578A1.332,1.332,0,0,0,23.91,99.48V69.431a1.332,1.332,0,0,0-2.664,0V98.148H2.664V60.086H21.246v3.9a1.332,1.332,0,0,0,2.664,0V58.754a1.332,1.332,0,0,0-1.332-1.332H14.32l4.042-6.669H44.137v6.669H34.846a1.332,1.332,0,0,0-1.332,1.332V99.48a1.332,1.332,0,0,0,1.332,1.332H56.092a1.332,1.332,0,0,0,1.332-1.332V92.935a1.332,1.332,0,0,0-2.664,0v5.213H36.178V60.086H54.76v27.47a1.332,1.332,0,1,0,2.664,0v-28.8a1.332,1.332,0,0,0-1.332-1.332H46.8V50.753H72.576l4.042,6.669H68.361a1.332,1.332,0,0,0-1.332,1.332V99.48a1.332,1.332,0,0,0,1.332,1.332H89.606a1.332,1.332,0,0,0,1.332-1.332V58.754A1.332,1.332,0,0,0,89.606,57.422ZM88.274,98.148H69.693V60.086H88.274Z" transform="translate(0 -15.315)" fill="#707070"/>
          </g>
        </g>
        <g id="Group_3037" data-name="Group 3037" transform="translate(5.294 51.495)">
          <g id="Group_3036" data-name="Group 3036">
            <path id="Path_5449" data-name="Path 5449" d="M33.78,305.245H31.14a1.332,1.332,0,1,0,0,2.664h2.64a1.332,1.332,0,1,0,0-2.664Z" transform="translate(-29.808 -305.245)" fill="#707070"/>
          </g>
        </g>
        <g id="Group_3039" data-name="Group 3039" transform="translate(5.294 57.718)">
          <g id="Group_3038" data-name="Group 3038">
            <path id="Path_5450" data-name="Path 5450" d="M42.265,340.278H31.14a1.332,1.332,0,1,0,0,2.664H42.265a1.332,1.332,0,1,0,0-2.664Z" transform="translate(-29.808 -340.278)" fill="#707070"/>
          </g>
        </g>
        <g id="Group_3041" data-name="Group 3041" transform="translate(5.294 62.47)">
          <g id="Group_3040" data-name="Group 3040">
            <path id="Path_5451" data-name="Path 5451" d="M42.265,367.035H31.14a1.332,1.332,0,0,0,0,2.664H42.265a1.332,1.332,0,1,0,0-2.664Z" transform="translate(-29.808 -367.035)" fill="#707070"/>
          </g>
        </g>
        <g id="Group_3043" data-name="Group 3043" transform="translate(5.294 67.222)">
          <g id="Group_3042" data-name="Group 3042">
            <path id="Path_5452" data-name="Path 5452" d="M42.265,393.791H31.14a1.332,1.332,0,1,0,0,2.664H42.265a1.332,1.332,0,1,0,0-2.664Z" transform="translate(-29.808 -393.791)" fill="#707070"/>
          </g>
        </g>
        <g id="Group_3045" data-name="Group 3045" transform="translate(5.294 71.975)">
          <g id="Group_3044" data-name="Group 3044">
            <path id="Path_5453" data-name="Path 5453" d="M42.265,420.548H31.14a1.332,1.332,0,1,0,0,2.664H42.265a1.332,1.332,0,1,0,0-2.664Z" transform="translate(-29.808 -420.548)" fill="#707070"/>
          </g>
        </g>
        <g id="Group_3047" data-name="Group 3047" transform="translate(38.575 51.495)">
          <g id="Group_3046" data-name="Group 3046">
            <path id="Path_5454" data-name="Path 5454" d="M221.155,305.245h-2.64a1.332,1.332,0,1,0,0,2.664h2.64a1.332,1.332,0,1,0,0-2.664Z" transform="translate(-217.183 -305.245)" fill="#707070"/>
          </g>
        </g>
        <g id="Group_3049" data-name="Group 3049" transform="translate(38.575 57.718)">
          <g id="Group_3048" data-name="Group 3048">
            <path id="Path_5455" data-name="Path 5455" d="M229.639,340.278H218.514a1.332,1.332,0,1,0,0,2.664h11.125a1.332,1.332,0,1,0,0-2.664Z" transform="translate(-217.182 -340.278)" fill="#707070"/>
          </g>
        </g>
        <g id="Group_3051" data-name="Group 3051" transform="translate(38.575 62.47)">
          <g id="Group_3050" data-name="Group 3050">
            <path id="Path_5456" data-name="Path 5456" d="M229.639,367.035H218.514a1.332,1.332,0,0,0,0,2.664h11.125a1.332,1.332,0,1,0,0-2.664Z" transform="translate(-217.182 -367.035)" fill="#707070"/>
          </g>
        </g>
        <g id="Group_3053" data-name="Group 3053" transform="translate(38.575 67.222)">
          <g id="Group_3052" data-name="Group 3052">
            <path id="Path_5457" data-name="Path 5457" d="M229.639,393.791H218.514a1.332,1.332,0,1,0,0,2.664h11.125a1.332,1.332,0,1,0,0-2.664Z" transform="translate(-217.182 -393.791)" fill="#707070"/>
          </g>
        </g>
        <g id="Group_3055" data-name="Group 3055" transform="translate(38.575 71.975)">
          <g id="Group_3054" data-name="Group 3054">
            <path id="Path_5458" data-name="Path 5458" d="M229.639,420.548H218.514a1.332,1.332,0,1,0,0,2.664h11.125a1.332,1.332,0,1,0,0-2.664Z" transform="translate(-217.182 -420.548)" fill="#707070"/>
          </g>
        </g>
        <g id="Group_3057" data-name="Group 3057" transform="translate(71.855 51.495)">
          <g id="Group_3056" data-name="Group 3056">
            <path id="Path_5459" data-name="Path 5459" d="M408.529,305.245h-2.64a1.332,1.332,0,1,0,0,2.664h2.64a1.332,1.332,0,1,0,0-2.664Z" transform="translate(-404.557 -305.245)" fill="#707070"/>
          </g>
        </g>
        <g id="Group_3059" data-name="Group 3059" transform="translate(71.855 57.718)">
          <g id="Group_3058" data-name="Group 3058">
            <path id="Path_5460" data-name="Path 5460" d="M417.014,340.278H405.889a1.332,1.332,0,1,0,0,2.664h11.125a1.332,1.332,0,0,0,0-2.664Z" transform="translate(-404.557 -340.278)" fill="#707070"/>
          </g>
        </g>
        <g id="Group_3061" data-name="Group 3061" transform="translate(71.855 62.47)">
          <g id="Group_3060" data-name="Group 3060">
            <path id="Path_5461" data-name="Path 5461" d="M417.013,367.035H405.888a1.332,1.332,0,0,0,0,2.664h11.125a1.332,1.332,0,1,0,0-2.664Z" transform="translate(-404.556 -367.035)" fill="#707070"/>
          </g>
        </g>
        <g id="Group_3063" data-name="Group 3063" transform="translate(71.855 67.222)">
          <g id="Group_3062" data-name="Group 3062">
            <path id="Path_5462" data-name="Path 5462" d="M417.013,393.791H405.888a1.332,1.332,0,1,0,0,2.664h11.125a1.332,1.332,0,1,0,0-2.664Z" transform="translate(-404.556 -393.791)" fill="#707070"/>
          </g>
        </g>
        <g id="Group_3065" data-name="Group 3065" transform="translate(71.855 71.975)">
          <g id="Group_3064" data-name="Group 3064">
            <path id="Path_5463" data-name="Path 5463" d="M417.013,420.548H405.888a1.332,1.332,0,1,0,0,2.664h11.125a1.332,1.332,0,1,0,0-2.664Z" transform="translate(-404.556 -420.548)" fill="#707070"/>
          </g>
        </g>
      </g>
      <g id="inventory_1_" data-name="inventory (1)" transform="translate(16166 14304.754)">
        <path id="Path_5414" data-name="Path 5414" d="M54.007,50.715h9.5V61.574a1.357,1.357,0,0,0,1.357,1.357H75.726a1.357,1.357,0,0,0,1.357-1.357V50.715h9.5V64.289H89.3V49.357A1.357,1.357,0,0,0,87.942,48H17.357A1.357,1.357,0,0,0,16,49.357v70.585a1.357,1.357,0,0,0,1.357,1.357h42.08v-2.715h-5.43V86.007h5.43V83.292h-5.43Zm20.361,9.5H66.224v-9.5h8.144Zm-43.437-9.5h8.144v9.5H30.931Zm-2.715,0V61.574a1.357,1.357,0,0,0,1.357,1.357H40.433a1.357,1.357,0,0,0,1.357-1.357V50.715h9.5V83.292H18.715V50.715Zm2.715,35.292h8.144v9.5H30.931Zm20.361,32.578H18.715V86.007h9.5V96.866a1.357,1.357,0,0,0,1.357,1.357H40.433a1.357,1.357,0,0,0,1.357-1.357V86.007h9.5Z" transform="translate(-16 -42.57)" fill="#707070"/>
        <path id="Path_5415" data-name="Path 5415" d="M192,224h2.715v2.715H192Z" transform="translate(-162.137 -188.708)" fill="#707070"/>
        <path id="Path_5416" data-name="Path 5416" d="M160,224h2.715v2.715H160Z" transform="translate(-135.567 -188.708)" fill="#707070"/>
        <path id="Path_5417" data-name="Path 5417" d="M192,432h2.715v2.715H192Z" transform="translate(-162.137 -361.415)" fill="#707070"/>
        <path id="Path_5418" data-name="Path 5418" d="M160,432h2.715v2.715H160Z" transform="translate(-135.567 -361.415)" fill="#707070"/>
        <path id="Path_5419" data-name="Path 5419" d="M88,16h40.722v2.715H88Z" transform="translate(-75.783 -16)" fill="#707070"/>
        <path id="Path_5420" data-name="Path 5420" d="M344,16h2.715v2.715H344Z" transform="translate(-288.346 -16)" fill="#707070"/>
        <path id="Path_5421" data-name="Path 5421" d="M317.863,160H293.43a5.436,5.436,0,0,0-5.43,5.43v46.151a5.436,5.436,0,0,0,5.43,5.43h24.433a5.436,5.436,0,0,0,5.43-5.43V165.43A5.436,5.436,0,0,0,317.863,160Zm2.715,51.581a2.718,2.718,0,0,1-2.715,2.715H293.43a2.718,2.718,0,0,1-2.715-2.715V165.43a2.718,2.718,0,0,1,2.715-2.715h24.433a2.718,2.718,0,0,1,2.715,2.715Z" transform="translate(-241.848 -135.567)" fill="#707070"/>
        <path id="Path_5422" data-name="Path 5422" d="M368,192h2.715v2.715H368Z" transform="translate(-308.274 -162.137)" fill="#707070"/>
        <path id="Path_5423" data-name="Path 5423" d="M400,192h2.715v2.715H400Z" transform="translate(-334.845 -162.137)" fill="#707070"/>
        <path id="Path_5424" data-name="Path 5424" d="M384,448h2.715v2.715H384Z" transform="translate(-321.559 -374.701)" fill="#707070"/>
        <path id="Path_5425" data-name="Path 5425" d="M370.592,252.243l-2.455-2.455-1.92,1.92,3.415,3.415a1.357,1.357,0,0,0,1.92,0l10.859-10.859-1.92-1.92Z" transform="translate(-306.794 -203.938)" fill="#707070"/>
        <path id="Path_5426" data-name="Path 5426" d="M345.513,259a9.513,9.513,0,0,0,9.5-9.5H352.3a6.784,6.784,0,1,1-3.395-5.88l1.359-2.35A9.5,9.5,0,1,0,345.513,259Z" transform="translate(-281.715 -201.993)" fill="#707070"/>
        <path id="Path_5427" data-name="Path 5427" d="M328,376h2.715v2.715H328Z" transform="translate(-275.061 -314.917)" fill="#707070"/>
        <path id="Path_5428" data-name="Path 5428" d="M360,376h16.289v2.715H360Z" transform="translate(-301.632 -314.917)" fill="#707070"/>
        <path id="Path_5429" data-name="Path 5429" d="M328,408h21.718v2.715H328Z" transform="translate(-275.061 -341.488)" fill="#707070"/>
      </g>
      <text id="Add_a_scheme" data-name="Add a scheme" transform="translate(16451 14098)" fill="#21232a" font-size="54" font-family="OpenSans-Regular, Open Sans"><tspan x="0" y="58">Add a scheme</tspan></text>
      <text id="Check_availability_of_a_product" data-name="Check availability of a product" transform="translate(16451 14370)" fill="#21232a" font-size="54" font-family="OpenSans-Regular, Open Sans"><tspan x="0" y="58">Check availability of a product</tspan></text>
      <circle id="Ellipse_520" data-name="Ellipse 520" cx="7" cy="7" r="7" transform="translate(16391 13859)" fill="#bebebe"/>
      <circle id="Ellipse_521" data-name="Ellipse 521" cx="7" cy="7" r="7" transform="translate(16391 14065)" fill="#bebebe"/>
      <circle id="Ellipse_522" data-name="Ellipse 522" cx="7" cy="7" r="7" transform="translate(16391 14125)" fill="#bebebe"/>
      <circle id="Ellipse_523" data-name="Ellipse 523" cx="7" cy="7" r="7" transform="translate(16391 14335)" fill="#bebebe"/>
      <circle id="Ellipse_524" data-name="Ellipse 524" cx="7" cy="7" r="7" transform="translate(16391 14395)" fill="#bebebe"/>
    </g>
  </g>
</svg>
