<svg xmlns="http://www.w3.org/2000/svg" width="3329" height="1469" viewBox="0 0 3329 1469">
  <g id="Group_3194" data-name="Group 3194" transform="translate(4285 -4080)">
    <rect id="Rectangle_1043" data-name="Rectangle 1043" width="3329" height="1469" transform="translate(-4285 4080)" fill="#fff"/>
    <g id="Group_3193" data-name="Group 3193" transform="translate(77.893 -12)">
      <rect id="Rectangle_241" data-name="Rectangle 241" width="500" height="300" transform="translate(-3790 4263)" fill="#bde8c6"/>
      <rect id="Rectangle_999" data-name="Rectangle 999" width="500" height="300" transform="translate(-2472 4263)" fill="#bde8c6"/>
      <rect id="Rectangle_1000" data-name="Rectangle 1000" width="500" height="300" transform="translate(-2472 5107)" fill="#f3e2df"/>
      <rect id="Rectangle_992" data-name="Rectangle 992" width="500" height="300" transform="translate(-3134 5107)" fill="#e8dec3"/>
      <rect id="Rectangle_985" data-name="Rectangle 985" width="500" height="300" transform="translate(-3790 5107)" fill="rgba(252,195,28,0.16)"/>
      <rect id="Rectangle_1003" data-name="Rectangle 1003" width="500" height="300" transform="translate(-3134 4673.812)" fill="#e4fcff"/>
      <rect id="Rectangle_984" data-name="Rectangle 984" width="500" height="300" transform="translate(-3790 4673.812)" fill="#bde8c6"/>
      <rect id="Rectangle_998" data-name="Rectangle 998" width="500" height="300" transform="translate(-3134 4263)" fill="rgba(252,195,28,0.16)"/>
      <text id="Conventional_Meters:_In_person_metering" data-name="Conventional
Meters: In person
metering" transform="translate(-3134 4316.308)" fill="#21232a" font-size="54" font-family="OpenSans-Regular, Open Sans"><tspan x="83.755" y="58">Conventional</tspan><tspan x="28.107" y="116">Meters: In person</tspan><tspan x="135.843" y="174">metering</tspan></text>
      <text id="Automatic_server_update_through_smart_Meter_API" data-name="Automatic server
update through
smart Meter API" transform="translate(-3772 4325.023)" fill="#21232a" font-size="54" font-family="OpenSans-Regular, Open Sans"><tspan x="16.97" y="58">Automatic server</tspan><tspan x="33.832" y="116">update through</tspan><tspan x="27.886" y="174">smart Meter API</tspan></text>
      <text id="Bill_outstanding_calculated" data-name="Bill +
outstanding
calculated" transform="translate(-3753 4729.121)" fill="#21232a" font-size="54" font-family="OpenSans-Regular, Open Sans"><tspan x="152.158" y="58">Bill +</tspan><tspan x="61.442" y="116">outstanding</tspan><tspan x="85.396" y="174">calculated</tspan></text>
      <text id="In-person_collection" data-name="In-person
collection" transform="translate(-3712 5195.735)" fill="#21232a" font-size="54" font-family="OpenSans-Regular, Open Sans"><tspan x="50.835" y="58">In-person</tspan><tspan x="52.035" y="116">collection</tspan></text>
      <text id="Hard_copy_receipt_generated" data-name="Hard copy receipt
generated" transform="translate(-3053 5165.427)" fill="#21232a" font-size="54" font-family="OpenSans-Regular, Open Sans"><tspan x="40.737" y="58">Hard copy </tspan><tspan x="82.489" y="116">receipt</tspan><tspan x="40.645" y="174">generated</tspan></text>
      <text id="Electronic_receipt_generated" data-name="Electronic
receipt
generated" transform="translate(-2395 5159.366)" fill="#21232a" font-size="54" font-family="OpenSans-Regular, Open Sans"><tspan x="49.135" y="58">Electronic</tspan><tspan x="85.02" y="116">receipt</tspan><tspan x="43.176" y="174">generated</tspan></text>
      <text id="Electronic_notifications_to_customer" data-name="Electronic
notifications to
 customer" transform="translate(-3114 4732.121)" fill="#21232a" font-size="54" font-family="OpenSans-Regular, Open Sans"><tspan x="107.344" y="58">Electronic</tspan><tspan x="42.244" y="116">notifications to</tspan><tspan x="103.864" y="174" xml:space="preserve"> customer</tspan></text>
      <text id="Readings_calculated_by_server_through_smart_meter_APIs" data-name="Readings calculated by server through smart meter APIs" transform="translate(-2453 4286.308)" fill="#21232a" font-size="54" font-family="OpenSans-Regular, Open Sans"><tspan x="115.834" y="58">Readings </tspan><tspan x="65.948" y="116">calculated by </tspan><tspan x="43.18" y="174">server through </tspan><tspan x="13.002" y="232">smart meter APIs</tspan></text>
      <g id="Group_351" data-name="Group 351" transform="translate(-2036.444 4114)" opacity="0.508">
        <path id="Path_828" data-name="Path 828" d="M734.939,225.882l-5.311,583.09H774.5l-20.818-583.09Z" transform="translate(-77.028 268.955)" fill="#efefef"/>
        <path id="Path_829" data-name="Path 829" d="M744,214.257h0a14.411,14.411,0,0,1,14.365,14.37v16.59a4.609,4.609,0,0,1-4.591,4.593H734.221a4.611,4.611,0,0,1-4.594-4.593v-16.59A14.417,14.417,0,0,1,744,214.257Z" transform="translate(-77.027 251.159)" fill="#cecef9"/>
        <path id="Path_830" data-name="Path 830" d="M731.53,228.3,766.2,654.338,751.08,228.3Z" transform="translate(-74.116 272.664)" fill="#c6d5f2"/>
        <path id="Path_831" data-name="Path 831" d="M826.874,218.462l-156.1,157.262a3.549,3.549,0,0,0-1,3.027h0a3.574,3.574,0,0,0,5.226,2.642l1.855-.995a3.551,3.551,0,0,0,.714-.509l44.054-40.2L806.88,263.4a26.849,26.849,0,0,0,8.071-13.226h0a26.759,26.759,0,0,1,5.783-10.916l9.07-10.351Z" transform="translate(-168.703 257.596)" fill="#efefef"/>
        <path id="Path_832" data-name="Path 832" d="M738.153,225.944,951,287.522a3.583,3.583,0,0,0,3.138-.574h0a3.574,3.574,0,0,0-.187-5.851l-1.759-1.154a3.573,3.573,0,0,0-.8-.387L895,260.174,787.173,221.94A26.826,26.826,0,0,0,771.7,221.2h0a26.889,26.889,0,0,1-12.356.157l-13.431-3Z" transform="translate(-63.977 257.438)" fill="#efefef"/>
        <path id="Path_833" data-name="Path 833" d="M776.18,346.1,719.626,131.863a3.574,3.574,0,0,0-2.111-2.394h0a3.574,3.574,0,0,0-4.92,3.174l-.078,2.1a3.507,3.507,0,0,0,.071.876l12.356,58.346L747.554,306.11a26.846,26.846,0,0,0,7.319,13.654h0a26.776,26.776,0,0,1,6.484,10.513l4.328,13.064Z" transform="translate(-103.227 120.951)" fill="#efefef"/>
        <path id="Path_834" data-name="Path 834" d="M759.8,228.61a15.084,15.084,0,1,1-15.081-15.081A15.08,15.08,0,0,1,759.8,228.61Z" transform="translate(-77.027 250.044)" fill="#fff"/>
        <path id="Path_835" data-name="Path 835" d="M667.434,185.229,661.34,854.45h51.5l-23.892-669.22Z" transform="translate(-181.567 206.722)" fill="#efefef"/>
        <path id="Path_836" data-name="Path 836" d="M677.826,171.888h0a16.54,16.54,0,0,1,16.493,16.486v19.042a5.284,5.284,0,0,1-5.272,5.272H666.612a5.283,5.283,0,0,1-5.272-5.272V188.374A16.535,16.535,0,0,1,677.826,171.888Z" transform="translate(-181.566 186.298)" fill="#cecef9"/>
        <path id="Path_837" data-name="Path 837" d="M663.52,188.009l39.8,488.969L685.962,188.009Z" transform="translate(-178.228 210.977)" fill="#c6d5f2"/>
        <path id="Path_838" data-name="Path 838" d="M818.073,175.225l-249.9,47.127a4.094,4.094,0,0,0-2.918,2.212h0a4.1,4.1,0,0,0,3.227,5.9l2.4.263a3.873,3.873,0,0,0,1.012-.013l67.807-9.346L769.931,204.7a30.829,30.829,0,0,0,16.235-7.251h0a30.775,30.775,0,0,1,12.571-6.56l15.312-3.885Z" transform="translate(-329.32 191.407)" fill="#efefef"/>
        <path id="Path_839" data-name="Path 839" d="M668.984,183.356l161.18,196.706a4.12,4.12,0,0,0,3.343,1.5h0a4.105,4.105,0,0,0,3.627-5.662l-.919-2.23a3.924,3.924,0,0,0-.5-.881l-40.714-55.023-77.07-106.3a30.8,30.8,0,0,0-14.15-10.769h0A30.789,30.789,0,0,1,692,192.814l-10.748-11.576Z" transform="translate(-169.864 200.612)" fill="#efefef"/>
        <path id="Path_840" data-name="Path 840" d="M677.639,323.758l85.92-239.35a4.106,4.106,0,0,0-.438-3.639h0a4.1,4.1,0,0,0-6.714-.2L754.961,82.5a4.177,4.177,0,0,0-.5.878l-26.278,63.2L676.6,267.32a30.782,30.782,0,0,0-1.966,17.673h0a30.849,30.849,0,0,1-.709,14.163l-4.406,15.17Z" transform="translate(-169.052 43.975)" fill="#efefef"/>
        <path id="Path_841" data-name="Path 841" d="M695.954,188.363a17.307,17.307,0,1,1-17.306-17.311A17.3,17.3,0,0,1,695.954,188.363Z" transform="translate(-181.566 185.018)" fill="#fff"/>
        <path id="Path_842" data-name="Path 842" d="M600.438,135.931,592.744,980.5h64.994L627.58,135.931Z" transform="translate(-286.577 131.253)" fill="#efefef"/>
        <path id="Rectangle_156" data-name="Rectangle 156" d="M8.059,0h25.5a8.06,8.06,0,0,1,8.06,8.06V48.916a2.576,2.576,0,0,1-2.576,2.576H2.576A2.576,2.576,0,0,1,0,48.916V8.059A8.059,8.059,0,0,1,8.059,0Z" transform="translate(306.168 224.569)" fill="#cecef9"/>
        <path id="Path_843" data-name="Path 843" d="M595.5,139.439l50.219,617.09-21.9-617.09Z" transform="translate(-282.361 136.623)" fill="#c6d5f2"/>
        <path id="Path_844" data-name="Path 844" d="M598.179,130.617l93.852,306.914a5.176,5.176,0,0,0,3.179,3.351h0a5.179,5.179,0,0,0,6.95-4.867V432.97A5.105,5.105,0,0,0,702,431.7l-21.15-83.753-39-161.046a38.842,38.842,0,0,0-11.356-19.356h0a38.9,38.9,0,0,1-9.974-14.861l-7-18.662Z" transform="translate(-278.256 123.118)" fill="#efefef"/>
        <path id="Path_845" data-name="Path 845" d="M608.844,268.68,833.178,39.162a5.174,5.174,0,0,0,1.415-4.4h0A5.18,5.18,0,0,0,826.99,31l-2.668,1.463a5.006,5.006,0,0,0-1.037.744L759.928,91.923,637.3,203.369a38.866,38.866,0,0,0-11.538,19.245h0a38.846,38.846,0,0,1-8.261,15.876l-13.024,15.091Z" transform="translate(-268.613 -30.36)" fill="#efefef"/>
        <path id="Path_846" data-name="Path 846" d="M790.323,165.876,478.15,91.373a5.184,5.184,0,0,0-4.5,1.048h0a5.18,5.18,0,0,0,.676,8.456l2.625,1.541a5.362,5.362,0,0,0,1.174.506L561.053,127.1l158.618,47.924a38.848,38.848,0,0,0,22.444.01h0a38.82,38.82,0,0,1,17.86-1.073l19.639,3.417Z" transform="translate(-471.77 62.826)" fill="#efefef"/>
        <path id="Path_847" data-name="Path 847" d="M636.436,139.883a21.846,21.846,0,1,1-21.849-21.844A21.846,21.846,0,0,1,636.436,139.883Z" transform="translate(-286.577 103.863)" fill="#efefef"/>
      </g>
      <line id="Line_268" data-name="Line 268" y1="1354.996" transform="translate(-3872.844 4183.599)" fill="none" stroke="rgba(112,112,112,0.53)" stroke-width="1" opacity="0.504"/>
      <line id="Line_35" data-name="Line 35" x1="2415.113" transform="translate(-4313.893 4611.313)" fill="none" stroke="rgba(112,112,112,0.53)" stroke-width="1" opacity="0.498"/>
      <path id="Path_5464" data-name="Path 5464" d="M0,1355V0" transform="translate(-3214.822 4183.599)" fill="none" stroke="rgba(112,112,112,0.53)" stroke-width="1" opacity="0.504"/>
      <line id="Line_270" data-name="Line 270" y1="1354.996" transform="translate(-2556.801 4183.599)" fill="none" stroke="rgba(112,112,112,0.53)" stroke-width="1" opacity="0.504"/>
      <line id="Line_271" data-name="Line 271" x1="3169.893" transform="translate(-4313.893 5041.558)" fill="none" stroke="rgba(112,112,112,0.53)" stroke-width="1" opacity="0.498"/>
      <path id="Polygon_9" data-name="Polygon 9" d="M15.185,0,30.37,25.309H0Z" transform="translate(-3846.27 4437.949) rotate(90)" fill="#707070" opacity="0.303"/>
      <path id="Polygon_22" data-name="Polygon 22" d="M15.185,0,30.37,25.309H0Z" transform="translate(-3188.249 4437.949) rotate(90)" fill="#707070" opacity="0.303"/>
      <path id="Polygon_23" data-name="Polygon 23" d="M15.185,0,30.37,25.309H0Z" transform="translate(-2530.227 4437.949) rotate(90)" fill="#707070" opacity="0.303"/>
      <g id="Group_3088" data-name="Group 3088" transform="translate(-3871.578 4809.984)">
        <path id="Polygon_9-2" data-name="Polygon 9" d="M15.185,0,30.37,25.309H0Z" transform="translate(25.309) rotate(90)" fill="#707070" opacity="0.303"/>
        <path id="Polygon_22-2" data-name="Polygon 22" d="M15.185,0,30.37,25.309H0Z" transform="translate(683.33) rotate(90)" fill="#707070" opacity="0.303"/>
        <path id="Path_5465" data-name="Path 5465" d="M30.37,0h0Z" transform="translate(1316.043) rotate(90)" fill="#707070" opacity="0.303"/>
      </g>
      <path id="Polygon_9-3" data-name="Polygon 9" d="M15.185,0,30.37,25.309H0Z" transform="translate(-3846.27 5242.76) rotate(90)" fill="#707070" opacity="0.303"/>
      <path id="Polygon_22-3" data-name="Polygon 22" d="M15.185,0,30.37,25.309H0Z" transform="translate(-3188.249 5242.76) rotate(90)" fill="#707070" opacity="0.303"/>
      <path id="Polygon_23-2" data-name="Polygon 23" d="M15.185,0,30.37,25.309H0Z" transform="translate(-2530.227 5242.76) rotate(90)" fill="#707070" opacity="0.303"/>
      <rect id="Rectangle_273" data-name="Rectangle 273" width="350" height="200" transform="translate(-1431.509 4775.899)" fill="#bde8c6"/>
      <rect id="Rectangle_270" data-name="Rectangle 270" width="350" height="200" transform="translate(-1814.224 4551.837)" fill="#e8dec3"/>
      <rect id="Rectangle_271" data-name="Rectangle 271" width="350" height="200" transform="translate(-1814.224 4776.43)" fill="#e4fcff"/>
      <rect id="Rectangle_272" data-name="Rectangle 272" width="350" height="200" transform="translate(-1436.509 4551.837)" fill="#f3e2df"/>
      <text id="Metering" transform="translate(-4106 4490.992)" fill="#21232a" font-size="54" font-family="OpenSans-Bold, Open Sans" font-weight="700"><tspan x="-122.581" y="0">Metering</tspan></text>
      <text id="Billing" transform="translate(-4106 4913.212)" fill="#21232a" font-size="54" font-family="OpenSans-Bold, Open Sans" font-weight="700"><tspan x="-84.098" y="0">Billing</tspan></text>
      <text id="Collection" transform="translate(-4106 5362.254)" fill="#21232a" font-size="54" font-family="OpenSans-Bold, Open Sans" font-weight="700"><tspan x="-134.657" y="0">Collection</tspan></text>
      <text id="Automated_Field_Force_App_" data-name="Automated
(Field Force App)" transform="translate(-1256.966 4652.8)" fill="#21232a" font-size="40" font-family="OpenSans-Regular, Open Sans"><tspan x="-104.336" y="0">Automated</tspan><tspan x="-154.619" y="46">(Field Force App)</tspan></text>
      <text id="Manual" transform="translate(-1709.175 4622.047)" fill="#21232a" font-size="40" font-family="OpenSans-Regular, Open Sans"><tspan x="0.088" y="43">Manual</tspan></text>
      <text id="LEGENDS" transform="translate(-1448.656 4515.826)" fill="#21232a" font-size="49" font-family="HelveticaNeue-Bold, Helvetica Neue" font-weight="700" letter-spacing="0.2em"><tspan x="-146.486" y="0">LEGENDS</tspan></text>
      <text id="DMS_Server" data-name="DMS Server" transform="translate(-1245.472 4891.046)" fill="#21232a" font-size="40" font-family="OpenSans-Regular, Open Sans"><tspan x="-108.574" y="0">DMS Server</tspan></text>
      <text id="Automated_Customer_App_" data-name="Automated
(Customer App)" transform="translate(-1638.977 4870.33)" fill="#21232a" font-size="40" font-family="OpenSans-Regular, Open Sans"><tspan x="-104.336" y="0">Automated</tspan><tspan x="-145.762" y="46">(Customer App)</tspan></text>
      <g id="Smart_phone_shopping" data-name="Smart phone shopping" transform="translate(-4164 5170.071)">
        <path id="Path_959" data-name="Path 959" d="M88.245,39.146,77.083,45.6a5.762,5.762,0,0,0-5.425-3.9H62.944a1.961,1.961,0,0,1-.86-.192l-2.225-1.114a5.8,5.8,0,0,0-2.581-.618H47.271a5.8,5.8,0,0,0-1.828.3L40.555,41.7H38.942V37.849a1.924,1.924,0,0,0-1.924-1.924H25.471a1.924,1.924,0,0,0-1.924,1.924v1.924h-7.7V34H12V68.64h3.849V62.867h7.7v1.924a1.924,1.924,0,0,0,1.924,1.924H37.018a1.924,1.924,0,0,0,1.924-1.924V60.923l1.461.015,2.64,1.32a5.8,5.8,0,0,0,2.581.608H68.7a5.774,5.774,0,0,0,2.887-.77L94.01,49.147a5.789,5.789,0,0,0,2.916-5.025,5.731,5.731,0,0,0-.781-2.875A5.793,5.793,0,0,0,88.245,39.146Zm-72.4,19.872v-15.4h7.7v15.4Zm19.244,3.849H27.4V39.773h7.7ZM92.1,45.8,69.664,58.76a1.924,1.924,0,0,1-.962.258H45.624a1.961,1.961,0,0,1-.86-.192l-3.433-1.732-2.388-.021V45.547h1.924a1.924,1.924,0,0,0,.608-.1l5.179-1.732a1.95,1.95,0,0,1,.612-.094H57.273a1.961,1.961,0,0,1,.86.192l2.225,1.114a5.8,5.8,0,0,0,2.586.618h8.714a1.924,1.924,0,0,1,0,3.849h-7.7a1.924,1.924,0,1,0,0,3.849h7.7a5.756,5.756,0,0,0,5-2.95l13.517-7.827a1.913,1.913,0,0,1,2.648.716,1.859,1.859,0,0,1,.26.939A1.924,1.924,0,0,1,92.1,45.8Z" transform="translate(7.244 27.582)" fill="#707070"/>
        <path id="Path_960" data-name="Path 960" d="M65.507,96.3a1.924,1.924,0,0,0-1.924,1.924v3.849H5.849V17.4H63.582V19.32a1.924,1.924,0,1,0,3.849,0V15.471A13.487,13.487,0,0,0,53.96,2H15.471A13.487,13.487,0,0,0,2,15.471V104a13.487,13.487,0,0,0,13.471,13.471H53.96A13.487,13.487,0,0,0,67.431,104V98.222A1.924,1.924,0,0,0,65.507,96.3ZM15.471,5.849H53.96a9.64,9.64,0,0,1,9.43,7.7H6.041a9.64,9.64,0,0,1,9.43-7.7ZM53.96,113.618H15.471a9.64,9.64,0,0,1-9.43-7.7H63.39a9.64,9.64,0,0,1-9.43,7.7Z" transform="translate(-2 -2)" fill="#707070"/>
        <path id="Path_961" data-name="Path 961" d="M16,5h3.849V8.849H16Z" transform="translate(10.942 0.773)" fill="#707070"/>
        <path id="Path_962" data-name="Path 962" d="M20,5h3.849V8.849H20Z" transform="translate(14.64 0.773)" fill="#707070"/>
        <path id="Path_963" data-name="Path 963" d="M16,57H27.547v3.849H16Z" transform="translate(10.942 48.845)" fill="#707070"/>
        <path id="Path_964" data-name="Path 964" d="M89.658,13H43.471a1.924,1.924,0,0,0-1.924,1.924v3.849H37.7A1.924,1.924,0,0,0,35.773,20.7v3.849H31.924A1.924,1.924,0,0,0,30,26.471V53.413a1.924,1.924,0,0,0,1.924,1.924H78.111a1.924,1.924,0,0,0,1.924-1.924V49.564h3.849a1.924,1.924,0,0,0,1.924-1.924V43.791h3.849a1.924,1.924,0,0,0,1.924-1.924V14.924A1.924,1.924,0,0,0,89.658,13ZM76.187,51.489H33.849V28.4H76.187Zm5.773-5.773H80.036V26.471a1.924,1.924,0,0,0-1.924-1.924H39.622V22.622H81.96Zm5.773-5.773H85.809V20.7a1.924,1.924,0,0,0-1.924-1.924H45.4V16.849H87.733Z" transform="translate(23.885 8.169)" fill="#707070"/>
        <path id="Path_965" data-name="Path 965" d="M46.7,23a7.7,7.7,0,1,0,7.7,7.7A7.7,7.7,0,0,0,46.7,23Zm0,11.547A3.849,3.849,0,1,1,50.547,30.7,3.849,3.849,0,0,1,46.7,34.547Z" transform="translate(32.205 17.413)" fill="#707070"/>
        <path id="Path_966" data-name="Path 966" d="M52.849,26H50.924a1.924,1.924,0,1,0,0,3.849h1.924a1.924,1.924,0,0,0,0-3.849Z" transform="translate(41.449 20.187)" fill="#707070"/>
        <path id="Path_967" data-name="Path 967" d="M37.849,26H35.924a1.924,1.924,0,1,0,0,3.849h1.924a1.924,1.924,0,1,0,0-3.849Z" transform="translate(27.582 20.187)" fill="#707070"/>
        <path id="Path_968" data-name="Path 968" d="M19.547,15.924A1.924,1.924,0,0,0,17.622,14h-7.7A1.924,1.924,0,0,0,8,15.924v7.7a1.924,1.924,0,0,0,1.924,1.924h7.7a1.924,1.924,0,0,0,1.924-1.924ZM15.7,21.7H11.849V17.849H15.7Z" transform="translate(3.547 9.093)" fill="#707070"/>
        <path id="Path_969" data-name="Path 969" d="M27.547,15.924A1.924,1.924,0,0,0,25.622,14h-7.7A1.924,1.924,0,0,0,16,15.924v7.7a1.924,1.924,0,0,0,1.924,1.924h7.7a1.924,1.924,0,0,0,1.924-1.924ZM23.7,21.7H19.849V17.849H23.7Z" transform="translate(10.942 9.093)" fill="#707070"/>
        <path id="Path_970" data-name="Path 970" d="M17.622,24h-7.7A1.924,1.924,0,0,0,8,25.924v7.7a1.924,1.924,0,0,0,1.924,1.924h7.7a1.924,1.924,0,0,0,1.924-1.924v-7.7A1.924,1.924,0,0,0,17.622,24ZM15.7,31.7H11.849V27.849H15.7Z" transform="translate(3.547 18.338)" fill="#707070"/>
        <path id="Path_971" data-name="Path 971" d="M25.622,24h-7.7A1.924,1.924,0,0,0,16,25.924v7.7a1.924,1.924,0,0,0,1.924,1.924h7.7a1.924,1.924,0,0,0,1.924-1.924v-7.7A1.924,1.924,0,0,0,25.622,24ZM23.7,31.7H19.849V27.849H23.7Z" transform="translate(10.942 18.338)" fill="#707070"/>
        <path id="Path_972" data-name="Path 972" d="M33.622,17.849a1.924,1.924,0,1,0,0-3.849h-7.7A1.924,1.924,0,0,0,24,15.924v7.7a1.924,1.924,0,0,0,1.924,1.924h3.849a1.924,1.924,0,1,0,0-3.849H27.849V17.849Z" transform="translate(18.338 9.093)" fill="#707070"/>
        <path id="Path_973" data-name="Path 973" d="M29.773,27.849a1.924,1.924,0,1,0,0-3.849H25.924A1.924,1.924,0,0,0,24,25.924v7.7a1.924,1.924,0,0,0,1.924,1.924h3.849a1.924,1.924,0,1,0,0-3.849H27.849V27.849Z" transform="translate(18.338 18.338)" fill="#707070"/>
      </g>
      <g id="meter" transform="translate(-4161 4314.599)">
        <path id="Path_893" data-name="Path 893" d="M93.63,16.064A54.847,54.847,0,0,0,16.065,93.63,54.847,54.847,0,0,0,93.63,16.064ZM90.6,90.6A50.547,50.547,0,0,1,6.923,70.936h38.3a2.142,2.142,0,1,0,0-4.285H5.7a50.551,50.551,0,1,1,98.3,0H64.464a2.142,2.142,0,0,0,0,4.285h38.308A50.252,50.252,0,0,1,90.6,90.6Z" transform="translate(-0.001 0)" fill="#707070"/>
        <path id="Path_894" data-name="Path 894" d="M94.793,62.544a2.142,2.142,0,1,0,4.285,0V52.922a38.84,38.84,0,0,1,10.815,2.151L108.475,58.5a2.143,2.143,0,1,0,3.959,1.638l1.417-3.423a39.223,39.223,0,0,1,8.889,5.9l-6.779,6.774a2.143,2.143,0,0,0,3.029,3.031l6.809-6.8a39.246,39.246,0,0,1,6.373,9.417l-3.423,1.417a2.143,2.143,0,1,0,1.638,3.959l3.428-1.418a38.833,38.833,0,0,1,2.151,10.815h-9.622a2.142,2.142,0,1,0,0,4.285h11.824a1.526,1.526,0,0,0,.159-.008,2.141,2.141,0,0,0,1.983-2.135,43.37,43.37,0,1,0-86.74,0,2.142,2.142,0,0,0,2.142,2.142H67.536a2.142,2.142,0,1,0,0-4.285H57.913a38.834,38.834,0,0,1,2.151-10.815l3.428,1.418a2.143,2.143,0,0,0,1.638-3.959l-3.424-1.417a39.232,39.232,0,0,1,6.372-9.417l6.8,6.8a2.143,2.143,0,0,0,3.03-3.03l-6.775-6.776a39.215,39.215,0,0,1,8.887-5.9l1.421,3.425A2.142,2.142,0,1,0,85.4,58.5L83.98,55.072a38.826,38.826,0,0,1,10.813-2.151v9.623Z" transform="translate(-42.092 -38.17)" fill="#707070"/>
        <path id="Path_895" data-name="Path 895" d="M232.531,176.1l-.018-.043-5.49-12.845a2.142,2.142,0,0,0-1.97-1.3h0a2.143,2.143,0,0,0-1.97,1.3L217.6,176.054l-.023.055a9.875,9.875,0,0,0-.957,3.871,8.437,8.437,0,1,0,16.875,0A9.914,9.914,0,0,0,232.531,176.1Zm-7.478,8.04a4.157,4.157,0,0,1-4.149-4.155,6.215,6.215,0,0,1,.645-2.265l3.506-8.211,3.51,8.212a6.214,6.214,0,0,1,.644,2.264A4.16,4.16,0,0,1,225.053,184.136Z" transform="translate(-170.21 -127.22)" fill="#707070"/>
        <path id="Path_896" data-name="Path 896" d="M238.6,359.66h-3.714l2.918-5.867a2.143,2.143,0,0,0-3.837-1.908l-4.458,8.964a2.165,2.165,0,0,0,1.924,3.1h3.708l-2.918,5.868a2.143,2.143,0,1,0,3.837,1.908l4.458-8.964a2.151,2.151,0,0,0-1.918-3.1Z" transform="translate(-180.167 -275.561)" fill="#707070"/>
        <path id="Path_897" data-name="Path 897" d="M159.58,385.451h-7.6a2.142,2.142,0,1,0,0,4.285h7.6a2.142,2.142,0,1,0,0-4.285Z" transform="translate(-117.733 -302.87)" fill="#707070"/>
        <path id="Path_898" data-name="Path 898" d="M316.394,385.451h-7.6a2.142,2.142,0,0,0,0,4.285h7.6a2.142,2.142,0,1,0,0-4.285Z" transform="translate(-240.95 -302.87)" fill="#707070"/>
        <path id="Path_899" data-name="Path 899" d="M248.14,315.383a2.148,2.148,0,1,0-.012,0Z" transform="translate(-193.285 -244.447)" fill="#707070"/>
      </g>
      <g id="invoice" transform="translate(-4138 4733.564)">
        <g id="Group_2816" data-name="Group 2816" transform="translate(46.29 17.144)">
          <g id="Group_2815" data-name="Group 2815" transform="translate(0)">
            <path id="Path_5043" data-name="Path 5043" d="M326.535,80.161h-4.286a1.6,1.6,0,0,0,0,3.208h4.286a1.6,1.6,0,1,0,0-3.208Z" transform="translate(-320.645 -80.161)" fill="#707070"/>
          </g>
        </g>
        <g id="Group_2818" data-name="Group 2818" transform="translate(46.29 25.717)">
          <g id="Group_2817" data-name="Group 2817" transform="translate(0)">
            <path id="Path_5044" data-name="Path 5044" d="M326.535,120.242h-4.286a1.6,1.6,0,0,0,0,3.208h4.286a1.6,1.6,0,1,0,0-3.208Z" transform="translate(-320.645 -120.242)" fill="#707070"/>
          </g>
        </g>
        <g id="Group_2820" data-name="Group 2820" transform="translate(46.29 34.289)">
          <g id="Group_2819" data-name="Group 2819" transform="translate(0)">
            <path id="Path_5045" data-name="Path 5045" d="M326.535,160.322h-4.286a1.6,1.6,0,0,0,0,3.208h4.286a1.6,1.6,0,1,0,0-3.208Z" transform="translate(-320.645 -160.322)" fill="#707070"/>
          </g>
        </g>
        <g id="Group_2822" data-name="Group 2822" transform="translate(46.29 42.861)">
          <g id="Group_2821" data-name="Group 2821" transform="translate(0)">
            <path id="Path_5046" data-name="Path 5046" d="M326.535,200.4h-4.286a1.6,1.6,0,0,0,0,3.208h4.286a1.6,1.6,0,1,0,0-3.208Z" transform="translate(-320.645 -200.404)" fill="#707070"/>
          </g>
        </g>
        <g id="Group_2824" data-name="Group 2824" transform="translate(46.29 51.434)">
          <g id="Group_2823" data-name="Group 2823" transform="translate(0)">
            <path id="Path_5047" data-name="Path 5047" d="M326.535,240.484h-4.286a1.6,1.6,0,0,0,0,3.208h4.286a1.6,1.6,0,1,0,0-3.208Z" transform="translate(-320.645 -240.484)" fill="#707070"/>
          </g>
        </g>
        <g id="Group_2826" data-name="Group 2826" transform="translate(46.29 60.006)">
          <g id="Group_2825" data-name="Group 2825" transform="translate(0)">
            <path id="Path_5048" data-name="Path 5048" d="M326.535,280.565h-4.286a1.6,1.6,0,0,0,0,3.208h4.286a1.6,1.6,0,1,0,0-3.208Z" transform="translate(-320.645 -280.565)" fill="#707070"/>
          </g>
        </g>
        <g id="Group_2828" data-name="Group 2828" transform="translate(46.29 68.578)">
          <g id="Group_2827" data-name="Group 2827" transform="translate(0)">
            <path id="Path_5049" data-name="Path 5049" d="M326.535,320.646h-4.286a1.6,1.6,0,1,0,0,3.208h4.286a1.6,1.6,0,1,0,0-3.208Z" transform="translate(-320.645 -320.646)" fill="#707070"/>
          </g>
        </g>
        <g id="Group_2830" data-name="Group 2830" transform="translate(10.287 17.144)">
          <g id="Group_2829" data-name="Group 2829" transform="translate(0)">
            <path id="Path_5050" data-name="Path 5050" d="M172.77,80.161H153.911a1.6,1.6,0,1,0,0,3.208H172.77a1.6,1.6,0,1,0,0-3.208Z" transform="translate(-152.307 -80.161)" fill="#707070"/>
          </g>
        </g>
        <g id="Group_2832" data-name="Group 2832" transform="translate(10.287 25.717)">
          <g id="Group_2831" data-name="Group 2831" transform="translate(0)">
            <path id="Path_5051" data-name="Path 5051" d="M178.8,120.242H153.911a1.6,1.6,0,0,0,0,3.208H178.8a1.6,1.6,0,0,0,0-3.208Z" transform="translate(-152.307 -120.242)" fill="#707070"/>
          </g>
        </g>
        <g id="Group_2834" data-name="Group 2834" transform="translate(10.287 34.289)">
          <g id="Group_2833" data-name="Group 2833" transform="translate(0)">
            <path id="Path_5052" data-name="Path 5052" d="M167.627,160.322H153.911a1.6,1.6,0,0,0,0,3.208h13.716a1.6,1.6,0,1,0,0-3.208Z" transform="translate(-152.307 -160.322)" fill="#707070"/>
          </g>
        </g>
        <g id="Group_2836" data-name="Group 2836" transform="translate(10.287 42.861)">
          <g id="Group_2835" data-name="Group 2835" transform="translate(0)">
            <path id="Path_5053" data-name="Path 5053" d="M172.77,200.4H153.911a1.6,1.6,0,1,0,0,3.208H172.77a1.6,1.6,0,1,0,0-3.208Z" transform="translate(-152.307 -200.404)" fill="#707070"/>
          </g>
        </g>
        <g id="Group_2838" data-name="Group 2838" transform="translate(10.287 51.434)">
          <g id="Group_2837" data-name="Group 2837" transform="translate(0)">
            <path id="Path_5054" data-name="Path 5054" d="M179.628,240.484H153.911a1.6,1.6,0,0,0,0,3.208h25.717a1.6,1.6,0,1,0,0-3.208Z" transform="translate(-152.307 -240.484)" fill="#707070"/>
          </g>
        </g>
        <g id="Group_2840" data-name="Group 2840" transform="translate(10.287 60.006)">
          <g id="Group_2839" data-name="Group 2839" transform="translate(0)">
            <path id="Path_5055" data-name="Path 5055" d="M167.627,280.565H153.911a1.6,1.6,0,0,0,0,3.208h13.716a1.6,1.6,0,1,0,0-3.208Z" transform="translate(-152.307 -280.565)" fill="#707070"/>
          </g>
        </g>
        <g id="Group_2842" data-name="Group 2842" transform="translate(10.287 68.578)">
          <g id="Group_2841" data-name="Group 2841" transform="translate(0)">
            <path id="Path_5056" data-name="Path 5056" d="M172.77,320.646H153.911a1.6,1.6,0,1,0,0,3.208H172.77a1.6,1.6,0,1,0,0-3.208Z" transform="translate(-152.307 -320.646)" fill="#707070"/>
          </g>
        </g>
        <g id="Group_2844" data-name="Group 2844" transform="translate(18.859 80.579)">
          <g id="Group_2843" data-name="Group 2843" transform="translate(0)">
            <path id="Path_5057" data-name="Path 5057" d="M217.993,376.758h-24a1.6,1.6,0,0,0,0,3.208h24a1.6,1.6,0,1,0,0-3.208Z" transform="translate(-192.387 -376.758)" fill="#707070"/>
          </g>
        </g>
        <g id="Group_2846" data-name="Group 2846" transform="translate(24.003 89.152)">
          <g id="Group_2845" data-name="Group 2845" transform="translate(0)">
            <path id="Path_5058" data-name="Path 5058" d="M231.756,416.839H218.04a1.6,1.6,0,1,0,0,3.208h13.716a1.6,1.6,0,1,0,0-3.208Z" transform="translate(-216.436 -416.839)" fill="#707070"/>
          </g>
        </g>
        <g id="Group_2848" data-name="Group 2848" transform="translate(0 0)">
          <g id="Group_2847" data-name="Group 2847" transform="translate(0 0)">
            <path id="Path_5059" data-name="Path 5059" d="M168.324.208a1.6,1.6,0,0,0-1.616.02l-4.927,2.957L156.3.2a1.6,1.6,0,0,0-1.536,0l-5.518,3.01L143.728.2a1.6,1.6,0,0,0-1.536,0l-5.518,3.01L131.155.2a1.6,1.6,0,0,0-1.536,0L124.1,3.206,118.583.2a1.6,1.6,0,0,0-1.536,0l-5.48,2.989L106.638.229A1.6,1.6,0,0,0,104.209,1.6V107.9a1.6,1.6,0,0,0,2.429,1.375l4.927-2.957,5.48,2.989a1.6,1.6,0,0,0,1.536,0l5.518-3.01,5.518,3.01a1.605,1.605,0,0,0,1.536,0l5.518-3.01,5.518,3.01a1.6,1.6,0,0,0,1.536,0l5.518-3.01,5.518,3.01a1.6,1.6,0,0,0,1.536,0l5.48-2.989,4.927,2.957a1.6,1.6,0,0,0,2.429-1.376V1.6A1.6,1.6,0,0,0,168.324.208ZM165.93,105.067h0l-3.286-1.972a1.6,1.6,0,0,0-1.593-.032l-5.518,3.01-5.518-3.01a1.6,1.6,0,0,0-1.536,0l-5.518,3.01-5.518-3.01a1.6,1.6,0,0,0-1.536,0l-5.518,3.01-5.518-3.01a1.6,1.6,0,0,0-1.536,0l-5.518,3.01-5.518-3.01a1.6,1.6,0,0,0-1.593.032l-3.286,1.972V4.437L110.7,6.409a1.6,1.6,0,0,0,1.593.033l5.518-3.01,5.518,3.01a1.6,1.6,0,0,0,1.536,0l5.518-3.01,5.518,3.01a1.6,1.6,0,0,0,1.536,0l5.518-3.01,5.518,3.01a1.6,1.6,0,0,0,1.536,0l5.518-3.01,5.518,3.01a1.606,1.606,0,0,0,1.593-.033l3.286-1.972Z" transform="translate(-104.209 0)" fill="#707070"/>
          </g>
        </g>
      </g>
      <line id="Line_277" data-name="Line 277" y1="1354.996" transform="translate(-1898.779 4183.599)" fill="none" stroke="rgba(112,112,112,0.53)" stroke-width="1" opacity="0.504"/>
      <path id="Polygon_24" data-name="Polygon 24" d="M15.185,0,30.37,25.309H0Z" transform="translate(-1872.205 4437.949) rotate(90)" fill="#707070" opacity="0.303"/>
      <path id="Polygon_25" data-name="Polygon 25" d="M15.185,0,30.37,25.309H0Z" transform="translate(-1872.205 5242.76) rotate(90)" fill="#707070" opacity="0.303"/>
      <rect id="Rectangle_1004" data-name="Rectangle 1004" width="500" height="300" transform="translate(-1816.156 5107)" fill="#bde8c6"/>
      <text id="Collection_updated_in_server" data-name="Collection updated in
server" transform="translate(-1737.947 5157.896)" fill="#21232a" font-size="54" font-family="OpenSans-Regular, Open Sans"><tspan x="47.856" y="58">Collection </tspan><tspan x="35.78" y="116">updated in</tspan><tspan x="93.352" y="174">server</tspan></text>
    </g>
  </g>
</svg>
