<svg xmlns="http://www.w3.org/2000/svg" xmlns:xlink="http://www.w3.org/1999/xlink" width="3584" height="3044" viewBox="0 0 3584 3044">
  <defs>
    <clipPath id="clip-path">
      <rect width="3584" height="3044" fill="none"/>
    </clipPath>
  </defs>
  <g id="Repeat_Grid_2" data-name="Repeat Grid 2" clip-path="url(#clip-path)">
    <g id="Group_3195" data-name="Group 3195" transform="translate(4228 -6144)">
      <rect id="Rectangle_1044" data-name="Rectangle 1044" width="3584" height="3044" transform="translate(-4228 6144)" fill="#fff"/>
      <g id="Group_3111" data-name="Group 3111" transform="translate(40.099 -36.26)">
        <rect id="Rectangle_1006" data-name="Rectangle 1006" width="634.834" height="306.953" transform="translate(-1621.833 8124.296)" fill="#e4fcff"/>
        <rect id="Rectangle_1005" data-name="Rectangle 1005" width="634.834" height="306.953" transform="translate(-2525 6934.854)" fill="#bde8c6"/>
        <rect id="Rectangle_279" data-name="Rectangle 279" width="394.155" height="216.262" transform="translate(-1117.803 7032.521)" fill="#bde8c6" opacity="0.999"/>
        <rect id="Rectangle_281" data-name="Rectangle 281" width="394.155" height="216.262" transform="translate(-1588.696 7032.521)" fill="rgba(252,195,28,0.16)"/>
        <rect id="Rectangle_280" data-name="Rectangle 280" width="394.155" height="212.774" transform="translate(-1588.696 7318.545)" fill="rgba(219,249,255,0.55)"/>
        <rect id="Rectangle_282" data-name="Rectangle 282" width="394.155" height="212.774" transform="translate(-1117.803 7315.057)" fill="rgba(255,225,219,0.55)"/>
        <text id="Server" transform="translate(-920.743 7440.283)" fill="#21232a" font-size="40" font-family="OpenSans-Regular, Open Sans"><tspan x="-59.766" y="0">Server</tspan></text>
        <text id="Manual" transform="translate(-1392.101 7161.747)" fill="#21232a" font-size="40" font-family="OpenSans-Regular, Open Sans"><tspan x="-69.912" y="0">Manual</tspan></text>
        <text id="LEGENDS" transform="translate(-1145.994 6929.604)" fill="#21232a" font-size="70" font-family="HelveticaNeue-Bold, Helvetica Neue" font-weight="700" letter-spacing="0.2em"><tspan x="-209.265" y="0">LEGENDS</tspan></text>
        <text id="Automated_Field_force_app_" data-name="Automated
(Field force app)" transform="translate(-922.386 7133.842)" fill="#21232a" font-size="40" font-family="OpenSans-Regular, Open Sans"><tspan x="-104.336" y="0">Automated</tspan><tspan x="-149.541" y="55">(Field force app)</tspan></text>
        <text id="Automated_Customer_App_" data-name="Automated
(Customer App)" transform="translate(-1395.792 7415.866)" fill="#21232a" font-size="40" font-family="OpenSans-Regular, Open Sans"><tspan x="-104.336" y="0">Automated</tspan><tspan x="-145.762" y="55">(Customer App)</tspan></text>
        <text id="Complaint_Submission" data-name="Complaint
Submission" transform="translate(-3906 6556.258)" fill="#21232a" font-size="54" font-family="OpenSans-Bold, Open Sans" font-weight="700"><tspan x="-139.772" y="0">Complaint</tspan><tspan x="-153.998" y="74">Submission</tspan></text>
        <text id="Complaint_Assignment" data-name="Complaint
Assignment" transform="translate(-3906 7153.913)" fill="#21232a" font-size="54" font-family="OpenSans-Bold, Open Sans" font-weight="700"><tspan x="-139.772" y="0">Complaint</tspan><tspan x="-158.638" y="74">Assignment</tspan></text>
        <text id="Re-assignment" transform="translate(-3906 7806.165)" fill="#21232a" font-size="54" font-family="OpenSans-Bold, Open Sans" font-weight="700"><tspan x="-198.782" y="0">Re-assignment</tspan></text>
        <text id="Completion" transform="translate(-3906 8374.725)" fill="#21232a" font-size="54" font-family="OpenSans-Bold, Open Sans" font-weight="700"><tspan x="-156.133" y="0">Completion</tspan></text>
        <text id="Performance" transform="translate(-3906 8992.119)" fill="#21232a" font-size="54" font-family="OpenSans-Bold, Open Sans" font-weight="700"><tspan x="-174.999" y="0">Performance</tspan></text>
        <g id="Group_354" data-name="Group 354" transform="translate(-3979 8789.715)">
          <g id="Outline">
            <path id="Path_927" data-name="Path 927" d="M42.054,166.812h8.217v39.029h4.108V166.812h82.166v39.029h4.108V166.812h8.217a2.054,2.054,0,0,0,1.963-2.658l-8.217-26.7a2.054,2.054,0,0,0-1.963-1.45h-6.162v4.108h4.645l6.952,22.6H44.836l6.952-22.6h4.645V136H50.271a2.054,2.054,0,0,0-1.963,1.45l-8.217,26.7a2.054,2.054,0,0,0,1.963,2.658Z" transform="translate(-35.89 -86.841)" fill="#707070"/>
            <rect id="Rectangle_216" data-name="Rectangle 216" width="3.681" height="4.601" transform="translate(55.516 108.53)" fill="#707070"/>
            <path id="Path_928" data-name="Path 928" d="M120,306.054V326.6a2.054,2.054,0,0,0,2.054,2.054h12.325a2.054,2.054,0,0,0,2.054-2.054V306.054A2.054,2.054,0,0,0,134.379,304H122.054A2.054,2.054,0,0,0,120,306.054Zm4.108,18.487v-4.108h8.217v4.108Zm8.217-16.433v8.217h-8.217v-8.217Z" transform="translate(-95.348 -211.704)" fill="#707070"/>
            <path id="Path_929" data-name="Path 929" d="M328,306.054V326.6a2.054,2.054,0,0,0,2.054,2.054h12.325a2.054,2.054,0,0,0,2.054-2.054V306.054A2.054,2.054,0,0,0,342.379,304H330.054A2.054,2.054,0,0,0,328,306.054Zm4.108,18.487v-4.108h8.217v4.108Zm8.217-16.433v8.217h-8.217v-8.217Z" transform="translate(-249.94 -211.704)" fill="#707070"/>
            <rect id="Rectangle_217" data-name="Rectangle 217" width="4.601" height="4.601" transform="translate(30.67 83.684)" fill="#707070"/>
            <rect id="Rectangle_218" data-name="Rectangle 218" width="4.601" height="4.601" transform="translate(84.044 83.684)" fill="#707070"/>
            <path id="Path_930" data-name="Path 930" d="M106.054,108.975H180A2.054,2.054,0,0,0,182,106.422L173.78,73.556A2.054,2.054,0,0,0,171.787,72H114.271a2.054,2.054,0,0,0-1.993,1.556l-8.217,32.866a2.054,2.054,0,0,0,1.993,2.552Zm46.351-16.433h9.352l1.541,12.325H153.175Zm-3.346,12.325H137l.77-12.325h10.519Zm3.089-16.433-.77-12.325H159.7l1.541,12.325Zm-4.117,0H138.026l.77-12.325h8.465Zm-14.122,0h-9.1l1.541-12.325h8.325Zm-.257,4.108-.77,12.325H122.76L124.3,92.542Zm33.785,12.325L165.9,92.542h8.394l3.081,12.325Zm5.827-16.433h-7.881l-1.541-12.325h6.34Zm-57.39-12.325h6.34l-1.541,12.325h-7.88Zm-4.108,16.433h8.394l-1.541,12.325h-9.935Z" transform="translate(-83.456 -39.275)" fill="#707070"/>
            <path id="Path_931" data-name="Path 931" d="M290.508,20.108a30.832,30.832,0,0,1,28.573,42.367l3.808,1.541A34.925,34.925,0,0,0,266.5,25.562l2.825,2.983A30.684,30.684,0,0,1,290.508,20.108Z" transform="translate(-179.77 -16)" fill="#707070"/>
            <path id="Path_932" data-name="Path 932" d="M132.864,326.812a10.307,10.307,0,0,0-8.376,4.331,8.211,8.211,0,0,0-9.006,12.1H105.375l-3.541-7.081A2.054,2.054,0,0,0,100,335.029H95.889v-26.7a12.325,12.325,0,1,0-24.65,0v26.7H67.131a2.054,2.054,0,0,0-1.837,1.135l-3.541,7.081H51.648a8.212,8.212,0,0,0-9.006-12.1,10.271,10.271,0,1,0-8.378,16.211h98.6a10.271,10.271,0,0,0,0-20.542ZM75.347,308.325a8.217,8.217,0,0,1,16.433,0v26.7H75.347ZM68.4,339.137H98.728l2.054,4.108H66.346Zm-23.865,4.108H34.264a6.162,6.162,0,1,1,5.6-8.735,2.054,2.054,0,0,0,2.8.969,4.06,4.06,0,0,1,1.869-.45,4.108,4.108,0,1,1,0,8.217Zm88.328,0H122.593a4.108,4.108,0,0,1,0-8.217,4.062,4.062,0,0,1,1.869.45,2.054,2.054,0,0,0,2.8-.969,6.162,6.162,0,1,1,5.6,8.735Z" transform="translate(-23.992 -205.758)" fill="#707070"/>
          </g>
          <g id="security_1_" data-name="security (1)" transform="translate(94.01 16.833)">
            <path id="Path_934" data-name="Path 934" d="M25.207,40.494A3.119,3.119,0,0,1,23,39.578l-8.333-8.333a3.126,3.126,0,0,1,4.421-4.421l5.975,5.971L45.606,14.564a3.127,3.127,0,0,1,4.7,4.121L27.565,39.432a3.17,3.17,0,0,1-2.254,1.062Z" transform="translate(-13.75 -13.501)" fill="#707070" stroke="#707070" stroke-width="1"/>
          </g>
        </g>
        <g id="complaint_1_" data-name="complaint (1)" transform="translate(-3966 6341.341)">
          <path id="Path_974" data-name="Path 974" d="M182.631,394.263A2.631,2.631,0,1,0,180,391.631,2.632,2.632,0,0,0,182.631,394.263Zm0,0" transform="translate(-132.637 -286.644)" fill="#707070"/>
          <path id="Path_975" data-name="Path 975" d="M113.144,43.679H99.988V2.631A2.631,2.631,0,0,0,97.356,0H23.681A2.631,2.631,0,0,0,21.05,2.631V43.679H7.894A7.9,7.9,0,0,0,0,51.573v21.05a7.907,7.907,0,0,0,5.263,7.442v46.762a7.9,7.9,0,0,0,7.894,7.894h94.725a7.9,7.9,0,0,0,7.894-7.894V80.064a7.907,7.907,0,0,0,5.263-7.442V51.573A7.9,7.9,0,0,0,113.144,43.679ZM99.988,59.466h5.263v5.263H99.988ZM26.313,5.263H94.725V64.729H26.313ZM15.788,64.729V59.466H21.05v5.263Zm92.094,64.729H13.156a2.634,2.634,0,0,1-2.631-2.631V80.516h99.988v46.31A2.634,2.634,0,0,1,107.882,129.458Zm7.894-56.835a2.634,2.634,0,0,1-2.631,2.631H7.894a2.634,2.634,0,0,1-2.631-2.631V51.573a2.634,2.634,0,0,1,2.631-2.631H21.05V54.2H13.156a2.631,2.631,0,0,0-2.631,2.631V67.36a2.631,2.631,0,0,0,2.631,2.631h94.725a2.631,2.631,0,0,0,2.631-2.631V56.835a2.631,2.631,0,0,0-2.631-2.631H99.988V48.941h13.156a2.634,2.634,0,0,1,2.631,2.631Zm0,0" fill="#707070"/>
          <path id="Path_976" data-name="Path 976" d="M175.256,349H122.631A2.631,2.631,0,0,0,120,351.631v21.05a2.631,2.631,0,0,0,2.631,2.631h52.625a2.631,2.631,0,0,0,2.631-2.631v-21.05A2.631,2.631,0,0,0,175.256,349Zm-2.631,21.05H125.263V354.263h47.363Zm0,0" transform="translate(-88.425 -257.169)" fill="#707070"/>
          <path id="Path_977" data-name="Path 977" d="M222.631,394.263h10.525a2.631,2.631,0,1,0,0-5.262H222.631a2.631,2.631,0,1,0,0,5.262Zm0,0" transform="translate(-162.112 -286.644)" fill="#707070"/>
          <path id="Path_978" data-name="Path 978" d="M162.631,147.05a2.631,2.631,0,0,0,2.631-2.631,13.156,13.156,0,0,1,26.313,0,2.631,2.631,0,1,0,5.263,0,18.419,18.419,0,0,0-36.838,0A2.631,2.631,0,0,0,162.631,147.05Zm0,0" transform="translate(-117.9 -92.846)" fill="#707070"/>
          <path id="Path_979" data-name="Path 979" d="M162.631,76.525a2.631,2.631,0,0,0,2.631-2.631V68.631a2.631,2.631,0,1,0-5.263,0v5.263A2.631,2.631,0,0,0,162.631,76.525Zm0,0" transform="translate(-117.9 -48.634)" fill="#707070"/>
          <path id="Path_980" data-name="Path 980" d="M282.631,76.525a2.631,2.631,0,0,0,2.631-2.631V68.631a2.631,2.631,0,1,0-5.263,0v5.263A2.631,2.631,0,0,0,282.631,76.525Zm0,0" transform="translate(-206.325 -48.634)" fill="#707070"/>
        </g>
        <g id="complaint" transform="translate(-3971 6948.256)">
          <path id="Path_981" data-name="Path 981" d="M91.678,59.483a5.008,5.008,0,0,0,3.565-1.477l6.878-6.878h22.111a6.274,6.274,0,0,0,6.266-6.266V15.621a6.274,6.274,0,0,0-6.266-6.266H80.37V5.177A4.182,4.182,0,0,0,76.193,1H18.574a4.149,4.149,0,0,0-2.953,1.224l-13.4,13.4A4.149,4.149,0,0,0,1,18.574V126.321A4.182,4.182,0,0,0,5.177,130.5H76.193a4.182,4.182,0,0,0,4.177-4.177V109.611h20.022l6.878,6.878a5.042,5.042,0,0,0,8.607-3.565v-3.313h8.355a6.274,6.274,0,0,0,6.266-6.266V74.1a6.271,6.271,0,0,0-6.262-6.266H80.37V51.128h6.266v3.313A5.048,5.048,0,0,0,91.678,59.483ZM15.621,8.131v7.49H8.131ZM5.177,126.321V19.8H19.8V5.177H76.193V9.739a6.258,6.258,0,0,0-4.177,5.882V44.862a6.258,6.258,0,0,0,4.177,5.882v17.48a6.258,6.258,0,0,0-4.177,5.882v29.242a6.258,6.258,0,0,0,4.177,5.882v17.092ZM126.321,74.1v29.242a2.092,2.092,0,0,1-2.089,2.089H111.7v7.49a.9.9,0,0,1-1.477.612l-8.1-8.1H78.281a2.092,2.092,0,0,1-2.089-2.089V74.1a2.092,2.092,0,0,1,2.089-2.089h45.955a2.089,2.089,0,0,1,2.084,2.089ZM78.281,46.951a2.092,2.092,0,0,1-2.089-2.089V15.621a2.092,2.092,0,0,1,2.089-2.089h45.951a2.092,2.092,0,0,1,2.089,2.089V44.862a2.092,2.092,0,0,1-2.089,2.089h-23.84l-8.1,8.1a.9.9,0,0,1-1.477-.612v-7.49Z" transform="translate(-1 -1)" fill="#707070"/>
          <path id="Path_982" data-name="Path 982" d="M74.417,12.351,71.606,9.26,50.1,28.808,45.246,23.95,42.293,26.9l7.674,7.674Z" transform="translate(43.955 7.993)" fill="#707070"/>
          <path id="Path_983" data-name="Path 983" d="M50.951,35H5V51.709H50.951ZM46.774,47.532H9.177V39.177h37.6Z" transform="translate(3.355 36.015)" fill="#707070"/>
          <path id="Path_984" data-name="Path 984" d="M5,45H50.951v4.177H5Z" transform="translate(3.355 46.902)" fill="#707070"/>
          <path id="Path_985" data-name="Path 985" d="M5,49H59.306v4.177H5Z" transform="translate(3.355 51.257)" fill="#707070"/>
          <path id="Path_986" data-name="Path 986" d="M5,53H59.306v4.177H5Z" transform="translate(3.355 55.611)" fill="#707070"/>
          <path id="Path_987" data-name="Path 987" d="M5,57H17.532v4.177H5Z" transform="translate(3.355 59.966)" fill="#707070"/>
          <path id="Path_988" data-name="Path 988" d="M13,57H25.532v4.177H13Z" transform="translate(12.064 59.966)" fill="#707070"/>
          <path id="Path_989" data-name="Path 989" d="M21,57H33.532v4.177H21Z" transform="translate(20.774 59.966)" fill="#707070"/>
          <path id="Path_990" data-name="Path 990" d="M34.153,7A27.153,27.153,0,1,0,61.306,34.153,27.184,27.184,0,0,0,34.153,7Zm0,50.128a22.888,22.888,0,0,1-16.613-7.15,19.327,19.327,0,0,1,6.2-6.464L34.153,53.8,44.569,43.514a19.327,19.327,0,0,1,6.2,6.464,22.888,22.888,0,0,1-16.613,7.15ZM25.8,27.887a8.355,8.355,0,1,1,8.355,8.355A8.363,8.363,0,0,1,25.8,27.887Zm1.928,13.7a18.333,18.333,0,0,1,12.854,0l-6.427,6.345Zm25.8,4.871a23.731,23.731,0,0,0-11.5-8.829,12.532,12.532,0,1,0-15.744,0,23.73,23.73,0,0,0-11.5,8.829,22.976,22.976,0,1,1,38.745,0Z" transform="translate(5.532 5.532)" fill="#707070"/>
          <path id="Path_991" data-name="Path 991" d="M46.246,61.133l8.967-8.967,8.967,8.967,2.953-2.953-8.967-8.967,8.967-8.967L64.18,37.293,55.213,46.26l-8.967-8.967-2.953,2.953,8.967,8.967L43.293,58.18Z" transform="translate(45.044 38.512)" fill="#707070"/>
        </g>
        <g id="power" transform="translate(-3980 7583.898)">
          <path id="Path_992" data-name="Path 992" d="M98.591,31.8a30.8,30.8,0,0,0-32-30.775A31.2,31.2,0,0,0,37.009,31.075a30.527,30.527,0,0,0,8.618,22.064,20.872,20.872,0,0,1,3.17,4.236A7.046,7.046,0,0,0,51.341,69.3,16.6,16.6,0,0,0,65.426,83.724v16.77H60.688v4.738h9.476V83.722A16.6,16.6,0,0,0,84.25,69.3a7.045,7.045,0,0,0,2.513-11.954,19.221,19.221,0,0,1,3.018-4.02A30.568,30.568,0,0,0,98.591,31.8ZM67.8,79.174A11.867,11.867,0,0,1,56.19,69.7H79.4A11.867,11.867,0,0,1,67.8,79.174ZM82.009,64.96H53.582a2.369,2.369,0,0,1,0-4.738H82.009a2.369,2.369,0,0,1,0,4.738ZM65.426,31.8A2.369,2.369,0,1,1,67.8,34.164,2.373,2.373,0,0,1,65.426,31.8ZM82.009,55.484H70.164V38.466a7.107,7.107,0,1,0-4.738,0V55.484H53.582c-.137,0-.265.033-.4.04a25.576,25.576,0,0,0-4.146-5.676,25.842,25.842,0,0,1-7.292-18.665A26.4,26.4,0,0,1,66.772,5.758,26.035,26.035,0,0,1,86.4,50.007a23.807,23.807,0,0,0-4.037,5.512C82.243,55.515,82.13,55.484,82.009,55.484Z" transform="translate(48.519 -1)" fill="#707070"/>
          <path id="Path_993" data-name="Path 993" d="M114.845,126.465a2.371,2.371,0,0,1-2.369,2.369H50.884a2.371,2.371,0,0,1-2.369-2.369v-7.107H91.393l-7.2-75.805h-7.5a16.388,16.388,0,0,1-7.18-18.108l1.014-3.9-3.9,1.016a16.486,16.486,0,0,1-18.433-7.63l-2.044-3.48L44.1,14.927a16.484,16.484,0,0,1-18.428,7.637l-3.9-1.014,1.016,3.9a16.379,16.379,0,0,1-7.159,18.1H8.1L.9,119.358H43.777v7.107a7.115,7.115,0,0,0,7.107,7.107h61.592a7.115,7.115,0,0,0,7.107-7.107v-7.107h4.738V114.62h-9.476ZM64.873,114.62l-1.9-18.951h21.4l1.8,18.951ZM36.446,71.98h19.4l1.9,18.951H34.55ZM29.789,90.931H8.362l1.8-18.951H31.684Zm4.757-47.378a11.822,11.822,0,0,1,23.177,0H34.546Zm18.932,4.738,1.9,18.951H36.919l1.9-18.951Zm7.13,23.689H82.13l1.8,18.951H62.5ZM81.68,67.242H60.135l-1.9-18.951H79.88ZM26.446,37.768a21.037,21.037,0,0,0,1.53-10.009,21.225,21.225,0,0,0,18.165-7.526,21.229,21.229,0,0,0,18.167,7.519,21.24,21.24,0,0,0,5.114,15.8H62.551a16.558,16.558,0,0,0-32.8,0H22.874A21.131,21.131,0,0,0,26.446,37.768Zm7.607,10.523-1.9,18.951H10.613l1.8-18.951ZM6.112,114.62l1.8-18.951h21.4l-1.9,18.951ZM34.077,95.669H58.216l1.9,18.951H32.182Z" transform="translate(-0.9 13.3)" fill="#707070"/>
          <rect id="Rectangle_288" data-name="Rectangle 288" width="14.213" height="4.738" transform="translate(109.207 118.445)" fill="#707070"/>
          <rect id="Rectangle_289" data-name="Rectangle 289" width="14.213" height="4.738" transform="translate(109.207 108.969)" fill="#707070"/>
        </g>
        <g id="repair" transform="translate(-3976 8157.214)">
          <path id="Path_994" data-name="Path 994" d="M454.751,456a6.751,6.751,0,1,0,6.751,6.751A6.76,6.76,0,0,0,454.751,456Zm0,9a2.25,2.25,0,1,1,2.25-2.25A2.253,2.253,0,0,1,454.751,465Zm0,0" transform="translate(-321.974 -327.724)" fill="#707070"/>
          <path id="Path_995" data-name="Path 995" d="M13.5,6.751A6.751,6.751,0,1,0,6.751,13.5,6.76,6.76,0,0,0,13.5,6.751Zm-9,0A2.25,2.25,0,1,1,6.751,9,2.255,2.255,0,0,1,4.5,6.751Zm0,0" fill="#707070"/>
          <path id="Path_996" data-name="Path 996" d="M149.645,94.933,145.2,86.044a49.868,49.868,0,0,0,2.414-5.77l9.41-3.137V51.386l-9.41-3.137a49.48,49.48,0,0,0-2.414-5.77l4.449-8.9L131.443,15.374l-8.9,4.449a49.488,49.488,0,0,0-5.77-2.414L113.638,8H87.887L84.75,17.41a49.488,49.488,0,0,0-5.77,2.414l-8.9-4.449L51.875,33.581l4.449,8.9a49.485,49.485,0,0,0-2.414,5.77L44.5,51.386V77.135l9.41,3.136a49.254,49.254,0,0,0,2.39,5.724l-2.894,5.272H40v45.009H55.753v-6.751H72.825l6.751,6.751H91.761v2.25a9,9,0,1,0,18,0v-2.25H125.52a6.723,6.723,0,0,0,5-11.252,6.65,6.65,0,0,0,0-9,6.7,6.7,0,0,0,1.652-3.472ZM60.842,85a45.05,45.05,0,0,1-3-7.181l-.346-1.093L49,73.891V54.63l8.491-2.83.344-1.1a44.7,44.7,0,0,1,3-7.179l.53-1.02L57.351,34.47,70.969,20.852l8.036,4.017,1.02-.529a44.79,44.79,0,0,1,7.179-3l1.1-.344L91.133,12.5h19.261l2.83,8.491,1.1.344a44.7,44.7,0,0,1,7.179,3l1.02.53,8.036-4.017,13.618,13.618L140.154,42.5l.529,1.02a44.785,44.785,0,0,1,3,7.179l.344,1.1,8.493,2.834V73.893l-8.491,2.83-.346,1.093a45.039,45.039,0,0,1-3,7.181l-.529,1.02,4.022,8.041-13.3,13.4c-.114-.151-.236-.3-.361-.438a6.695,6.695,0,0,0-4.376-11.19,40.515,40.515,0,1,0-50.82-.063H56.071l5.326-9.7Zm66.928,35.526a2.253,2.253,0,0,1-2.25,2.25H107.514a2.25,2.25,0,1,1,0-4.5H125.52A2.253,2.253,0,0,1,127.77,120.523ZM95.33,64.262H106.2l3.569-3.569V50.759a4.505,4.505,0,0,1,4.5,4.5V65.58l-7.683,7.683H94.943L87.26,65.58V55.26a4.505,4.505,0,0,1,4.5-4.5v9.934Zm.932,13.5h9v9h-9Zm13.5-1.319,9-9V55.26a9.011,9.011,0,0,0-9-9h-4.5V58.829l-.932.932H97.193l-.932-.932V46.258h-4.5a9.011,9.011,0,0,0-9,9V67.444l9,9v10.32H86.328l-.142.142a26.992,26.992,0,1,1,29.4-.142h-5.82Zm22.5-12.184a31.506,31.506,0,1,0-49.36,25.923l-3.241,3.241a36,36,0,1,1,43.491-.977,6.7,6.7,0,0,0-2.242-4.005A31.3,31.3,0,0,0,132.269,64.262Zm-6.749,36.007a2.25,2.25,0,1,1,0,4.5H107.514a2.25,2.25,0,1,1,0-4.5Zm-18.006,13.5a2.25,2.25,0,0,1,0-4.5H125.52a2.25,2.25,0,0,1,0,4.5Zm-56.262,18H44.5V95.768h6.751Zm30.188,0-6.751-6.751H55.753V100.269H79.19l9-9h28.324a2.25,2.25,0,1,1,0,4.5H93.079l-9.661,9.661,3.182,3.182,5.16-5.16v28.324Zm19.322,11.252a4.505,4.505,0,0,1-4.5-4.5V100.269h4.915a6.544,6.544,0,0,0,1.341,6.751,6.649,6.649,0,0,0,0,9,6.649,6.649,0,0,0,0,9,6.69,6.69,0,0,0,2.746,10.838v2.665A4.505,4.505,0,0,1,100.762,143.028Zm24.757-11.252H107.514a2.25,2.25,0,1,1,0-4.5H125.52a2.25,2.25,0,1,1,0,4.5Zm0,0" transform="translate(-28.748 -5.75)" fill="#707070"/>
          <path id="Path_997" data-name="Path 997" d="M16,72h4.5v4.5H16Zm0,0" transform="translate(-11.499 -51.746)" fill="#707070"/>
          <path id="Path_998" data-name="Path 998" d="M16,112h4.5v4.5H16Zm0,0" transform="translate(-11.499 -80.494)" fill="#707070"/>
          <path id="Path_999" data-name="Path 999" d="M16,152h4.5v4.5H16Zm0,0" transform="translate(-11.499 -109.241)" fill="#707070"/>
          <path id="Path_1000" data-name="Path 1000" d="M464,336h4.5v4.5H464Zm0,0" transform="translate(-333.473 -241.481)" fill="#707070"/>
          <path id="Path_1001" data-name="Path 1001" d="M464,376h4.5v4.5H464Zm0,0" transform="translate(-333.473 -270.228)" fill="#707070"/>
          <path id="Path_1002" data-name="Path 1002" d="M464,416h4.5v4.5H464Zm0,0" transform="translate(-333.473 -298.976)" fill="#707070"/>
        </g>
        <rect id="Rectangle_992" data-name="Rectangle 992" width="634.834" height="306.953" transform="translate(-2525 7531.319)" fill="#f3e2df"/>
        <rect id="Rectangle_987" data-name="Rectangle 987" width="634.834" height="306.953" transform="translate(-3434 8720.762)" fill="#f3e2df"/>
        <rect id="Rectangle_986" data-name="Rectangle 986" width="634.834" height="306.953" transform="translate(-3434 8127.784)" fill="#e8dec3"/>
        <rect id="Rectangle_984" data-name="Rectangle 984" width="634.834" height="306.953" transform="translate(-3434 6934.854)" fill="#f3e2df"/>
        <rect id="Rectangle_998" data-name="Rectangle 998" width="634.834" height="306.953" transform="translate(-2525 6345.591)" fill="#e4fcff"/>
        <rect id="Rectangle_985" data-name="Rectangle 985" width="634.834" height="306.953" transform="translate(-3434 7531.319)" fill="#bde8c6"/>
        <rect id="Rectangle_993" data-name="Rectangle 993" width="634.834" height="306.953" transform="translate(-2525 8124.296)" fill="#bde8c6"/>
        <rect id="Rectangle_241" data-name="Rectangle 241" width="634.834" height="306.953" transform="translate(-3434 6345.591)" fill="#e4fcff"/>
        <text id="Complaint_request_submitted" data-name="Complaint
request
submitted" transform="translate(-3436 6398.984)" fill="#21232a" font-size="54" font-family="OpenSans-Regular, Open Sans"><tspan x="189.382" y="58">Complaint</tspan><tspan x="222.315" y="116">request</tspan><tspan x="190.463" y="174">submitted</tspan></text>
        <text id="Electronic_confirmation_to_customer" data-name="Electronic
confirmation
to customer" transform="translate(-2448 6395.96)" fill="#21232a" font-size="54" font-family="OpenSans-Regular, Open Sans"><tspan x="117.454" y="58">Electronic</tspan><tspan x="78.312" y="116">confirmation</tspan><tspan x="88.133" y="174">to customer</tspan></text>
        <text id="Notification_to_site_in-charge" data-name="Notification to
site in-charge" transform="translate(-2426 7011.104)" fill="#21232a" font-size="54" font-family="OpenSans-Regular, Open Sans"><tspan x="39.45" y="58">Notification to</tspan><tspan x="49.522" y="116">site in-charge</tspan></text>
        <text id="Job_assigned_to_technical_team_member" data-name="Job assigned to
technical team
member" transform="translate(-3409 6992.223)" fill="#21232a" font-size="54" font-family="OpenSans-Regular, Open Sans"><tspan x="102.405" y="58">Job assigned to</tspan><tspan x="108.971" y="116">technical team</tspan><tspan x="184.908" y="174">member</tspan></text>
        <text id="Site_in-charge_re-assigns_if_required" data-name="Site in-charge
re-assigns
if required" transform="translate(-3354 7585.688)" fill="#21232a" font-size="54" font-family="OpenSans-Regular, Open Sans"><tspan x="66.358" y="58">Site in-charge</tspan><tspan x="110.483" y="116">re-assigns</tspan><tspan x="105.368" y="174">if required</tspan></text>
        <text id="Job_re-assigned_to_technical_team_member" data-name="Job re-assigned
to technical team
member" transform="translate(-2499 7582.712)" fill="#21232a" font-size="54" font-family="OpenSans-Regular, Open Sans"><tspan x="98.657" y="58">Job re-assigned</tspan><tspan x="74.373" y="116">to technical team</tspan><tspan x="183.164" y="174">member</tspan></text>
        <text id="Technical_team_visits_customer_completes_the_job" data-name="Technical team
visits customer &amp;
completes the job" transform="translate(-3399 8172.76)" fill="#21232a" font-size="54" font-family="OpenSans-Regular, Open Sans"><tspan x="93.101" y="58">Technical team</tspan><tspan x="66.892" y="116">visits customer &amp;</tspan><tspan x="57.215" y="174">completes the job</tspan></text>
        <text id="Technical_team_marks_job_as_complete" data-name="Technical team
marks job as
complete" transform="translate(-2463 8183.665)" fill="#21232a" font-size="54" font-family="OpenSans-Regular, Open Sans"><tspan x="65.196" y="58">Technical team</tspan><tspan x="94.82" y="116">marks job as</tspan><tspan x="137.152" y="174">complete</tspan></text>
        <text id="Notification_to_customer" data-name="Notification
to customer" transform="translate(-1521.047 8206.522)" fill="#21232a" font-size="54" font-family="OpenSans-Regular, Open Sans"><tspan x="59.018" y="58">Notification</tspan><tspan x="52.848" y="116">to customer</tspan></text>
        <text id="Performance_metrics_update" data-name="Performance
metrics
update" transform="translate(-3375 8769.131)" fill="#21232a" font-size="54" font-family="OpenSans-Regular, Open Sans"><tspan x="94.511" y="58">Performance</tspan><tspan x="164.74" y="116">metrics</tspan><tspan x="168.761" y="174">update</tspan></text>
        <line id="Line_268" data-name="Line 268" y1="2998.859" transform="translate(-3569.938 6203.26)" fill="none" stroke="rgba(112,112,112,0.53)" stroke-width="1" opacity="0.498"/>
        <line id="Line_35" data-name="Line 35" x1="2534.105" transform="translate(-4228.099 6793.585)" fill="none" stroke="rgba(112,112,112,0.53)" stroke-width="1" opacity="0.505"/>
        <path id="Path_5464" data-name="Path 5464" d="M0,2998.859V0" transform="translate(-2663.031 6203.26)" fill="none" stroke="rgba(112,112,112,0.53)" stroke-width="1" opacity="0.498"/>
        <line id="Line_270" data-name="Line 270" y1="2998.859" transform="translate(-1756.125 6203.26)" fill="none" stroke="rgba(112,112,112,0.53)" stroke-width="1" opacity="0.498"/>
        <line id="Line_271" data-name="Line 271" x1="2534.105" transform="translate(-4228.099 7386.563)" fill="none" stroke="rgba(112,112,112,0.53)" stroke-width="1" opacity="0.505"/>
        <line id="Line_272" data-name="Line 272" x1="3347.487" transform="translate(-4228.099 7979.54)" fill="none" stroke="rgba(112,112,112,0.53)" stroke-width="1" opacity="0.505"/>
        <line id="Line_273" data-name="Line 273" x1="3378.88" transform="translate(-4228.099 8572.518)" fill="none" stroke="rgba(112,112,112,0.53)" stroke-width="1" opacity="0.505"/>
        <g id="Group_3087" data-name="Group 3087" transform="translate(-3568.194 6554.65)">
          <path id="Polygon_9" data-name="Polygon 9" d="M20.929,0,41.857,34.881H0Z" transform="translate(34.881) rotate(90)" fill="#707070" opacity="0.303"/>
          <path id="Polygon_22" data-name="Polygon 22" d="M20.929,0,41.857,34.881H0Z" transform="translate(941.787) rotate(90)" fill="#707070" opacity="0.303"/>
        </g>
        <g id="Group_3088" data-name="Group 3088" transform="translate(-3568.194 7067.401)">
          <path id="Polygon_9-2" data-name="Polygon 9" d="M20.929,0,41.857,34.881H0Z" transform="translate(34.881) rotate(90)" fill="#707070" opacity="0.303"/>
          <path id="Polygon_22-2" data-name="Polygon 22" d="M20.929,0,41.857,34.881H0Z" transform="translate(941.787) rotate(90)" fill="#707070" opacity="0.303"/>
          <path id="Path_5465" data-name="Path 5465" d="M41.857,0h0Z" transform="translate(1813.813) rotate(90)" fill="#707070" opacity="0.303"/>
        </g>
        <g id="Group_3089" data-name="Group 3089" transform="translate(-3568.194 7663.867)">
          <path id="Polygon_9-3" data-name="Polygon 9" d="M20.929,0,41.857,34.881H0Z" transform="translate(34.881) rotate(90)" fill="#707070" opacity="0.303"/>
          <path id="Polygon_22-3" data-name="Polygon 22" d="M20.929,0,41.857,34.881H0Z" transform="translate(941.787) rotate(90)" fill="#707070" opacity="0.303"/>
        </g>
        <g id="Group_3090" data-name="Group 3090" transform="translate(-3568.194 8256.844)">
          <path id="Polygon_9-4" data-name="Polygon 9" d="M20.929,0,41.857,34.881H0Z" transform="translate(34.881) rotate(90)" fill="#707070" opacity="0.303"/>
          <path id="Polygon_22-4" data-name="Polygon 22" d="M20.929,0,41.857,34.881H0Z" transform="translate(941.787) rotate(90)" fill="#707070" opacity="0.303"/>
          <path id="Path_5466" data-name="Path 5466" d="M41.857,0h0Z" transform="translate(1813.813) rotate(90)" fill="#707070" opacity="0.303"/>
        </g>
        <g id="Group_3091" data-name="Group 3091" transform="translate(-3568.194 8818.428)">
          <path id="Polygon_9-5" data-name="Polygon 9" d="M20.929,0,41.857,34.881H0Z" transform="translate(34.881) rotate(90)" fill="#707070" opacity="0.303"/>
          <path id="Polygon_22-5" data-name="Polygon 22" d="M20.929,0,41.857,34.881H0Z" transform="translate(941.787) rotate(90)" fill="#707070" opacity="0.303"/>
        </g>
      </g>
    </g>
  </g>
</svg>
