<svg xmlns="http://www.w3.org/2000/svg" width="1420.599" height="1418.995" viewBox="0 0 1420.599 1418.995">
  <g id="Group_3103" data-name="Group 3103" transform="translate(-250 -1691.828)">
    <ellipse id="Ellipse_23" data-name="Ellipse 23" cx="710.299" cy="41.542" rx="710.299" ry="41.542" transform="translate(250 3027.738)" fill="#e0e0e0"/>
    <rect id="Rectangle_17" data-name="Rectangle 17" width="1338.876" height="1356.433" rx="20.42" transform="translate(291 1714.024)" fill="#f2f2f2"/>
    <g id="Group_3079" data-name="Group 3079" transform="translate(290.697 1691.828)">
      <path id="Path_86" data-name="Path 86" d="M1522.179,312.929v16.2H183V306.1c0-15.778,14.68-21.737,32.789-21.737h1273.6C1507.5,284.36,1522.179,297.151,1522.179,312.929Z" transform="translate(-183 -284.36)" fill="#3f3d56"/>
      <ellipse id="Ellipse_24" data-name="Ellipse 24" cx="8.394" cy="8.394" rx="8.394" ry="8.394" transform="translate(21.685 14.69)" fill="#00bfa6"/>
      <ellipse id="Ellipse_25" data-name="Ellipse 25" cx="8.394" cy="8.394" rx="8.394" ry="8.394" transform="translate(42.671 14.69)" fill="#00bfa6"/>
      <ellipse id="Ellipse_26" data-name="Ellipse 26" cx="8.394" cy="8.394" rx="8.394" ry="8.394" transform="translate(63.657 14.69)" fill="#00bfa6"/>
    </g>
    <path id="Path_87" data-name="Path 87" d="M347.5,503.86" transform="translate(417 1725.624)" fill="none" stroke="#f2f2f2" stroke-miterlimit="10" stroke-width="2"/>
    <path id="Path_88" data-name="Path 88" d="M333.5,502.86" transform="translate(431 1726.624)" fill="none" stroke="#f2f2f2" stroke-miterlimit="10" stroke-width="2"/>
    <text id="Portfolio_Performance_Monitoring" data-name="Portfolio Performance
Monitoring" transform="translate(323 1852)" fill="#21232a" font-size="32" font-family="OpenSans-Bold, Open Sans" font-weight="700"><tspan x="0" y="34">Portfolio Performance</tspan><tspan x="0" y="68">Monitoring</tspan></text>
    <text id="Customer_Management" data-name="Customer
Management" transform="translate(765 2164)" fill="#21232a" font-size="32" font-family="OpenSans-Bold, Open Sans" font-weight="700"><tspan x="0" y="34">Customer</tspan><tspan x="0" y="68">Management</tspan></text>
    <text id="Remote_Monitoring_Control" data-name="Remote Monitoring &amp; 
Control" transform="translate(1205 2503)" fill="#21232a" font-size="32" font-family="OpenSans-Bold, Open Sans" font-weight="700"><tspan x="0" y="34">Remote Monitoring &amp; </tspan><tspan x="0" y="68">Control</tspan></text>
    <text id="Customer_Service" data-name="Customer
Service" transform="translate(1205 2170)" fill="#21232a" font-size="32" font-family="OpenSans-Bold, Open Sans" font-weight="700"><tspan x="0" y="34">Customer</tspan><tspan x="0" y="68">Service</tspan></text>
    <text id="Plant_Maintenance_" data-name="Plant 
Maintenance " transform="translate(323 2830)" fill="#21232a" font-size="32" font-family="OpenSans-Bold, Open Sans" font-weight="700"><tspan x="0" y="34">Plant </tspan><tspan x="0" y="68">Maintenance </tspan></text>
    <text id="Technical_Analysis" data-name="Technical Analysis" transform="translate(1205 1852)" fill="#21232a" font-size="32" font-family="OpenSans-Bold, Open Sans" font-weight="700"><tspan x="0" y="34">Technical </tspan><tspan x="0" y="68">Analysis</tspan></text>
    <text id="Tariffs_and_Management" data-name="Tariffs and
Management" transform="translate(323 2510)" fill="#21232a" font-size="32" font-family="OpenSans-Bold, Open Sans" font-weight="700"><tspan x="0" y="34">Tariffs and</tspan><tspan x="0" y="68">Management</tspan></text>
    <text id="Installation_Commissioning" data-name="Installation &amp;
Commissioning" transform="translate(765 2830)" fill="#21232a" font-size="32" font-family="OpenSans-Bold, Open Sans" font-weight="700"><tspan x="0" y="34">Installation &amp;</tspan><tspan x="0" y="68">Commissioning</tspan></text>
    <text id="Field_Force_Management" data-name="Field Force
Management" transform="translate(323 2164)" fill="#21232a" font-size="32" font-family="OpenSans-Bold, Open Sans" font-weight="700"><tspan x="0" y="34">Field Force</tspan><tspan x="0" y="68">Management</tspan></text>
    <text id="Inventory_Management" data-name="Inventory
Management" transform="translate(765 2510)" fill="#21232a" font-size="32" font-family="OpenSans-Bold, Open Sans" font-weight="700"><tspan x="0" y="34">Inventory</tspan><tspan x="0" y="68">Management</tspan></text>
    <text id="Standardised_Reports" data-name="Standardised
Reports" transform="translate(1205 2830)" fill="#21232a" font-size="32" font-family="OpenSans-Bold, Open Sans" font-weight="700"><tspan x="0" y="34">Standardised</tspan><tspan x="0" y="68">Reports</tspan></text>
    <g id="Group_3080" data-name="Group 3080" transform="translate(323 1768.71)">
      <g id="Group_6" data-name="Group 6" transform="translate(0)">
        <g id="Group_5" data-name="Group 5">
          <path id="Path_123" data-name="Path 123" d="M72.237,35.424C72.237,15.892,56.034,0,36.118,0A36.562,36.562,0,0,0,18.4,4.571H13.981V0H6.991V14.5A34.655,34.655,0,0,0,0,35.424C0,54.958,16.2,70.848,36.118,70.848A36.588,36.588,0,0,0,49,68.527a15.333,15.333,0,0,0,17.989-1.286l-1.523-1.73a12.962,12.962,0,0,1-8.371,3.051,12.572,12.572,0,1,1,12.816-12.57,12.286,12.286,0,0,1-2.825,7.874L68.9,65.3a14.726,14.726,0,0,0,3.339-9.307,14.548,14.548,0,0,0-2.369-7.943A34.683,34.683,0,0,0,72.237,35.424Zm-53.6-24h2.33v16h-2.33Zm-4.66-4.571h2.33V27.425h-2.33ZM9.321,2.285h2.33v25.14H9.321ZM34.953,68.534c-17.705-.593-31.989-14.6-32.594-31.967H34.953Zm0-34.253H2.377A32.282,32.282,0,0,1,6.991,18.664V29.711H32.623V18.283h-4.66V13.713H23.3V9.142h-4.66V7.076a34.126,34.126,0,0,1,16.312-4.75ZM23.3,27.425V16h2.33V27.425Zm4.66,0V20.569h2.33v6.856Zm41.915,6.856H59.9l8.568-8.4A32.387,32.387,0,0,1,69.878,34.281ZM64.007,16.741,50.993,29.5l1.647,1.616,12.641-12.4a32.826,32.826,0,0,1,2.343,4.755L56.608,34.281H49.417L50.924,32.8l-1.647-1.616-3.154,3.093H38.931L60.8,12.829A33.651,33.651,0,0,1,64.007,16.741ZM37.284,2.314a34.214,34.214,0,0,1,8.568,1.379l-8.568,8.4Zm0,23.3,14.16-13.887L49.8,10.11,37.284,22.381V15.328L48.3,4.523a33.788,33.788,0,0,1,4.848,2.3L51.272,8.662l1.647,1.616,2.249-2.205a33.954,33.954,0,0,1,3.988,3.141L37.284,32.666ZM57.09,41.138A15.02,15.02,0,0,0,41.944,55.993,14.674,14.674,0,0,0,46.81,66.87a34.176,34.176,0,0,1-9.526,1.666V36.567h32.6a32.4,32.4,0,0,1-1.7,9.339A15.225,15.225,0,0,0,57.09,41.138Z" transform="translate(0)" fill="#747284"/>
        </g>
      </g>
      <g id="Group_8" data-name="Group 8" transform="translate(13.954 40.146)">
        <g id="Group_7" data-name="Group 7" transform="translate(0 0)">
          <rect id="Rectangle_19" data-name="Rectangle 19" width="21.638" height="2.55" transform="translate(0 15.3) rotate(-45)" fill="#747284"/>
        </g>
      </g>
      <g id="Group_10" data-name="Group 10" transform="translate(23.067 49.656)">
        <g id="Group_9" data-name="Group 9">
          <path id="Path_124" data-name="Path 124" d="M163.825,352a3.825,3.825,0,1,0,3.825,3.825A3.83,3.83,0,0,0,163.825,352Zm0,5.1a1.275,1.275,0,1,1,1.275-1.275A1.276,1.276,0,0,1,163.825,357.1Z" transform="translate(-160 -352)" fill="#747284"/>
        </g>
      </g>
      <g id="Group_12" data-name="Group 12" transform="translate(13.84 40.627)">
        <g id="Group_11" data-name="Group 11">
          <path id="Path_125" data-name="Path 125" d="M99.825,288a3.825,3.825,0,1,0,3.825,3.825A3.83,3.83,0,0,0,99.825,288Zm0,5.1a1.275,1.275,0,1,1,1.275-1.275A1.276,1.276,0,0,1,99.825,293.1Z" transform="translate(-96 -288)" fill="#747284"/>
        </g>
      </g>
      <g id="Group_14" data-name="Group 14" transform="translate(50.562 42.798)">
        <g id="Group_13" data-name="Group 13">
          <path id="Path_126" data-name="Path 126" d="M365.1,330.2a2.55,2.55,0,1,1,2.55-2.55h2.55a5.1,5.1,0,0,0-3.825-4.919V320h-2.55v2.731A5.089,5.089,0,0,0,365.1,332.75a2.55,2.55,0,1,1-2.55,2.55H360a5.094,5.094,0,0,0,3.825,4.919v2.731h2.55v-2.731A5.089,5.089,0,0,0,365.1,330.2Z" transform="translate(-360 -320)" fill="#747284"/>
        </g>
      </g>
      <g id="Group_16" data-name="Group 16" transform="translate(65.726 49.127)">
        <g id="Group_15" data-name="Group 15" transform="translate(0 0)">
          <rect id="Rectangle_20" data-name="Rectangle 20" width="2.189" height="2.189" fill="#747284"/>
        </g>
      </g>
      <g id="Group_18" data-name="Group 18" transform="translate(46.233 53.046)">
        <g id="Group_17" data-name="Group 17" transform="translate(0 0)">
          <rect id="Rectangle_21" data-name="Rectangle 21" width="2.364" height="2.364" fill="#747284"/>
        </g>
      </g>
    </g>
    <g id="Group_3076" data-name="Group 3076" transform="translate(1205 1768.964)">
      <path id="Path_127" data-name="Path 127" d="M175.769,90.378a13.308,13.308,0,1,0-13.31-13.306A13.323,13.323,0,0,0,175.769,90.378Zm0-23.77A10.462,10.462,0,1,1,165.3,77.072,10.476,10.476,0,0,1,175.769,66.608Z" transform="translate(-141.961 -54.689)" fill="#707688"/>
      <path id="Path_128" data-name="Path 128" d="M247.423,115.443a1.423,1.423,0,0,0,1.423-1.423v-5.088a1.423,1.423,0,1,0-2.846,0v5.088A1.423,1.423,0,0,0,247.423,115.443Z" transform="translate(-213.615 -92.212)" fill="#707688"/>
      <path id="Path_129" data-name="Path 129" d="M247.423,189.891A1.424,1.424,0,1,0,246,188.466v0A1.421,1.421,0,0,0,247.423,189.891Z" transform="translate(-213.615 -160.429)" fill="#707688"/>
      <path id="Path_130" data-name="Path 130" d="M81.687,18.645H74.241a3.078,3.078,0,0,0-2.725-1.653h-.624a19.266,19.266,0,0,0-1.663-4.007l.438-.439a3.074,3.074,0,0,0,0-4.351L66.4,4.918a3.081,3.081,0,0,0-4.349,0l-.443.443A19.172,19.172,0,0,0,57.6,3.7V3.075A3.079,3.079,0,0,0,54.524,0H49.893a3.079,3.079,0,0,0-3.075,3.075V3.7a19.168,19.168,0,0,0-4.007,1.662l-.443-.443a3.081,3.081,0,0,0-4.349,0L34.751,8.19a3.074,3.074,0,0,0,0,4.35l.443.444a19.258,19.258,0,0,0-1.663,4.007H32.9a3.078,3.078,0,0,0-2.725,1.653H22.7a4.318,4.318,0,0,0-4.3,4.33V55.461a4.335,4.335,0,0,0,4.33,4.33H42.549l-2.12,4.516H38.8a4.28,4.28,0,0,0-4.275,4.275v2.848a1.423,1.423,0,0,0,1.423,1.423H68.466a1.423,1.423,0,0,0,1.423-1.423V68.581a4.28,4.28,0,0,0-4.275-4.275H63.989l-2.12-4.516H81.687a4.335,4.335,0,0,0,4.33-4.33V22.974a4.334,4.334,0,0,0-4.329-4.33ZM32.672,20.068a.236.236,0,0,1,.23-.23H34.63a1.423,1.423,0,0,0,1.388-1.112,16.455,16.455,0,0,1,2.159-5.205,1.423,1.423,0,0,0-.195-1.765l-1.226-1.23a.219.219,0,0,1-.064-.159.224.224,0,0,1,.068-.163L40.032,6.93a.235.235,0,0,1,.324,0L41.58,8.154a1.422,1.422,0,0,0,1.769.2,16.359,16.359,0,0,1,5.2-2.158A1.423,1.423,0,0,0,49.664,4.8V3.075a.233.233,0,0,1,.23-.23h4.631a.233.233,0,0,1,.23.23V4.8a1.423,1.423,0,0,0,1.112,1.388,16.361,16.361,0,0,1,5.2,2.158,1.423,1.423,0,0,0,1.769-.2L64.061,6.93a.236.236,0,0,1,.323,0l3.276,3.28a.219.219,0,0,1,.064.159.225.225,0,0,1-.069.164l-1.221,1.225a1.423,1.423,0,0,0-.195,1.765A16.452,16.452,0,0,1,68.4,18.726a1.423,1.423,0,0,0,1.388,1.112h1.728a.236.236,0,0,1,.23.23v4.627a.236.236,0,0,1-.23.23H69.787A1.423,1.423,0,0,0,68.4,26.035a16.465,16.465,0,0,1-2.159,5.209,1.423,1.423,0,0,0,.2,1.767l1.221,1.22a.233.233,0,0,1,0,.328l-3.272,3.272a.235.235,0,0,1-.324,0l-1.225-1.225a1.423,1.423,0,0,0-1.769-.2,16.36,16.36,0,0,1-5.2,2.158,1.423,1.423,0,0,0-1.112,1.388v1.728a.233.233,0,0,1-.23.23H49.893a.233.233,0,0,1-.23-.23V39.958a1.423,1.423,0,0,0-1.112-1.388,16.361,16.361,0,0,1-5.2-2.158,1.423,1.423,0,0,0-1.769.2l-1.225,1.225a.235.235,0,0,1-.324,0L36.76,34.56a.233.233,0,0,1,0-.328l1.221-1.221a1.423,1.423,0,0,0,.2-1.767,16.46,16.46,0,0,1-2.159-5.209,1.423,1.423,0,0,0-1.388-1.112H32.9a.236.236,0,0,1-.23-.23ZM67.043,68.581v1.425H37.374V68.581A1.431,1.431,0,0,1,38.8,67.152H65.614A1.431,1.431,0,0,1,67.043,68.581Zm-6.2-4.275H43.573l2.12-4.516H58.725Zm20.842-7.361H22.731a1.486,1.486,0,0,1-1.484-1.484V53.037H60.363a1.423,1.423,0,1,0,0-2.846H21.247V22.974A1.469,1.469,0,0,1,22.7,21.49h7.129v3.2A3.079,3.079,0,0,0,32.9,27.769h.624a19.277,19.277,0,0,0,1.662,4.01l-.44.44a3.082,3.082,0,0,0,0,4.353l3.272,3.272a3.081,3.081,0,0,0,4.349,0l.443-.443a19.176,19.176,0,0,0,4.007,1.662v.624a3.079,3.079,0,0,0,3.075,3.075h4.631A3.079,3.079,0,0,0,57.6,41.686v-.624A19.168,19.168,0,0,0,61.606,39.4l.443.443a3.081,3.081,0,0,0,4.349,0l3.272-3.272a3.082,3.082,0,0,0,0-4.353l-.44-.44a19.276,19.276,0,0,0,1.662-4.01h.624a3.079,3.079,0,0,0,3.075-3.075v-3.2h7.1a1.486,1.486,0,0,1,1.484,1.484V50.191H73.65a1.423,1.423,0,1,0,0,2.846h9.52v2.423A1.485,1.485,0,0,1,81.687,56.945Z" transform="translate(-18.401 0)" fill="#707688"/>
      <path id="Path_131" data-name="Path 131" d="M351.421,352.742a1.423,1.423,0,1,0,0,2.846h0a1.423,1.423,0,1,0,0-2.846Z" transform="translate(-302.815 -302.551)" fill="#707688"/>
    </g>
    <g id="Outline" transform="translate(323 2080.771)" opacity="0.698" style="isolation: isolate">
      <rect id="Rectangle_22" data-name="Rectangle 22" width="2.228" height="2.228" transform="translate(4.327 13.868)" fill="#3f3d56"/>
      <rect id="Rectangle_23" data-name="Rectangle 23" width="2.228" height="2.228" transform="translate(8.783 13.868)" fill="#3f3d56"/>
      <rect id="Rectangle_24" data-name="Rectangle 24" width="2.228" height="2.228" transform="translate(15.466 13.868)" fill="#3f3d56"/>
      <path id="Path_132" data-name="Path 132" d="M140.816,168a4.816,4.816,0,1,0,4.816,4.816A4.816,4.816,0,0,0,140.816,168Zm0,7.224a2.408,2.408,0,1,1,2.408-2.408A2.408,2.408,0,0,1,140.816,175.224Z" transform="translate(-117.941 -145.125)" fill="#3f3d56"/>
      <path id="Path_133" data-name="Path 133" d="M81,58.463l-7.294-1.038-2.327-1.219V51.281c.12-.087.237-.175.35-.265a10.853,10.853,0,0,0,3.839-5.9,20.2,20.2,0,0,0,.592-3.838H76.2a4.816,4.816,0,0,0,1.311-9.449,4.8,4.8,0,0,0-.107-2.8V24.428A8.428,8.428,0,0,0,68.974,16H59.342a8.428,8.428,0,0,0-8.428,8.428h-30.1A4.821,4.821,0,0,0,16,29.243V61.75a4.821,4.821,0,0,0,4.816,4.816H33.593l-1.605,4.816h-1.54a3.612,3.612,0,0,0,0,7.224h9.632v8.428h2.408V76.2h7.224V87.033h2.408V70.178H49.711V73.79H42.487V66.807a6.062,6.062,0,0,1,5.165-5.96l6.357-.9L55.751,69.2a1.2,1.2,0,0,0,1.183.981,2.825,2.825,0,0,0,1.08-.4l4.939-2.47V77.4h2.408V67.31l5.481,2.741a1.2,1.2,0,0,0,1.722-.854l1.744-9.254,6.351.9a6.064,6.064,0,0,1,5.17,5.96V73.79H78.605V70.178H76.2V87.033h2.408V76.2h7.224V87.033h2.408V66.807A8.486,8.486,0,0,0,81,58.463ZM64.158,63.29l-4.816-6.742V52.587c.284.109.572.207.865.29a10.466,10.466,0,0,0,3.048.446h1.806a10.77,10.77,0,0,0,3.913-.733v3.959Zm9.078-18.763a8.436,8.436,0,0,1-2.989,4.592l-.021.016a6.312,6.312,0,0,1-.675.473l-.021.013a8.3,8.3,0,0,1-4.47,1.292H63.255A8.059,8.059,0,0,1,60.9,50.57l-.025-.007a7.931,7.931,0,0,1-2.1-.945,8.344,8.344,0,0,1-3.7-5.093,17.949,17.949,0,0,1-.552-4.445V35.356a4.9,4.9,0,0,0,1.777.029l.736-.123a1.806,1.806,0,1,0,3.117-.514,27.618,27.618,0,0,1,8,0,1.807,1.807,0,1,0,3.117.515c.1.283,2.135.167,2.523.1-.058,1.565-.01,3.149-.01,4.719A17.952,17.952,0,0,1,73.236,44.527Zm-22.818-6.36a2.405,2.405,0,0,1,1.689-4.108l.012.012v4.8A2.424,2.424,0,0,1,50.418,38.168Zm-4.98,10.384,1.1,1.1-1.7,1.7-1.1-1.1a1.2,1.2,0,0,0-1.425-.207,7.172,7.172,0,0,1-1.371.564,1.2,1.2,0,0,0-.861,1.154v1.558H37.671V51.765a1.2,1.2,0,0,0-.86-1.154,7.174,7.174,0,0,1-1.371-.564,1.2,1.2,0,0,0-1.425.207l-1.1,1.1-1.7-1.7,1.1-1.1a1.2,1.2,0,0,0,.207-1.425,7.179,7.179,0,0,1-.564-1.371,1.2,1.2,0,0,0-1.154-.861H29.243V42.487H30.8a1.2,1.2,0,0,0,1.154-.86,7.181,7.181,0,0,1,.564-1.371,1.2,1.2,0,0,0-.207-1.425l-1.1-1.1,1.7-1.7,1.1,1.1a1.2,1.2,0,0,0,1.425.207,7.179,7.179,0,0,1,1.371-.564,1.2,1.2,0,0,0,.861-1.154V34.059h2.408v1.558a1.2,1.2,0,0,0,.861,1.154,7.18,7.18,0,0,1,1.371.564,1.2,1.2,0,0,0,1.425-.207l1.1-1.1,1.7,1.7-1.1,1.1a1.2,1.2,0,0,0-.207,1.425,7.182,7.182,0,0,1,.564,1.371,1.2,1.2,0,0,0,1.154.861h1.558v2.408H46.949a1.2,1.2,0,0,0-1.154.86,7.179,7.179,0,0,1-.564,1.371A1.2,1.2,0,0,0,45.438,48.552ZM47.8,40.079l-.06-.148.548-.548a4.771,4.771,0,0,0,.424.488c.072.072.147.141.224.208Zm26.911-7.948a2.416,2.416,0,0,1-2.306.879l-3.3-.55a30.028,30.028,0,0,0-9.9,0l-3.3.55a2.45,2.45,0,0,1-2.845-2.562h22.19a2.417,2.417,0,0,1-.539,1.684Zm3.891,4.336A2.413,2.413,0,0,1,76.2,38.875v-4.8l.015-.014A2.41,2.41,0,0,1,78.605,36.467ZM53.322,24.428a6.02,6.02,0,0,1,6.02-6.02h9.632a6.02,6.02,0,0,1,6.02,6.02v3.612H53.322ZM36.131,66.566h3.954c0,.08-.006.16-.006.241v4.575H34.526ZM30.447,76.2a1.205,1.205,0,0,1-1.2-1.2,1.152,1.152,0,0,1,.346-.835l.023-.023a1.152,1.152,0,0,1,.834-.346h9.632V76.2ZM40.513,64.158h-19.7a2.411,2.411,0,0,1-2.408-2.408v-1.2H42.892a8.533,8.533,0,0,0-2.378,3.612Zm14.071-6.722-4.969.7H18.408V29.243a2.411,2.411,0,0,1,2.408-2.408h30.1v2.2a4.8,4.8,0,0,0-.107,2.8,4.833,4.833,0,0,0-3.348,3.414l-1.774-1.774a1.2,1.2,0,0,0-1.7,0l-1.348,1.348-.148-.06V32.855a1.2,1.2,0,0,0-1.2-1.2H36.467a1.2,1.2,0,0,0-1.2,1.2v1.907l-.148.06-1.348-1.348a1.2,1.2,0,0,0-1.7,0L28.659,36.88a1.2,1.2,0,0,0,0,1.7l1.348,1.348q-.031.074-.06.148H28.039a1.2,1.2,0,0,0-1.2,1.2V46.1a1.2,1.2,0,0,0,1.2,1.2h1.908l.06.147L28.659,48.8a1.2,1.2,0,0,0,0,1.7l3.405,3.405a1.2,1.2,0,0,0,1.7,0l1.348-1.348.148.06v1.908a1.2,1.2,0,0,0,1.2,1.2h4.816a1.2,1.2,0,0,0,1.2-1.2V52.619l.148-.06,1.348,1.348a1.2,1.2,0,0,0,1.7,0L49.09,50.5a1.2,1.2,0,0,0,0-1.7L47.742,47.45q.031-.073.06-.147h1.908a1.2,1.2,0,0,0,1.2-1.2V41.283a1.213,1.213,0,0,0-.012-.16,4.769,4.769,0,0,0,1.216.16h.036a20.152,20.152,0,0,0,.589,3.829,10.715,10.715,0,0,0,4.191,6.166v4.928Zm3.237,9.747-1.5-7.941,1.442-.755,4.591,6.428Zm12.672,0-4.537-2.269,4.591-6.428,1.442.755Z" transform="translate(-16 -16)" fill="#3f3d56"/>
      <path id="Path_134" data-name="Path 134" d="M313.693,185.6H312v2.408h1.693a16.943,16.943,0,0,0,5.96-1.032l-.856-2.25A14.522,14.522,0,0,1,313.693,185.6Z" transform="translate(-267.454 -159.332)" fill="#3f3d56"/>
      <rect id="Rectangle_25" data-name="Rectangle 25" width="8.911" height="2.228" transform="translate(42.198 7.185)" fill="#3f3d56"/>
      <rect id="Rectangle_26" data-name="Rectangle 26" height="2.228" transform="translate(42.198 56.194)" fill="#3f3d56"/>
    </g>
    <g id="Browser-Management-Gear-Profile-Online" transform="translate(765 2084.162)" opacity="0.701">
      <path id="Path_137" data-name="Path 137" d="M43.189,68.933H8.436a3.861,3.861,0,0,1-3.861-3.861v-50.2H68.933v29.6h2.574V8.436A6.444,6.444,0,0,0,65.071,2H8.436A6.444,6.444,0,0,0,2,8.436V65.071a6.444,6.444,0,0,0,6.436,6.436H43.189ZM8.436,4.574H65.071a3.861,3.861,0,0,1,3.861,3.861V12.3H4.574V8.436A3.861,3.861,0,0,1,8.436,4.574Z" transform="translate(-2 -2)" fill="#3f3d56"/>
      <path id="Path_138" data-name="Path 138" d="M8,6h2.574V8.574H8Z" transform="translate(-0.277 -0.851)" fill="#3f3d56"/>
      <path id="Path_139" data-name="Path 139" d="M12,6h2.574V8.574H12Z" transform="translate(0.872 -0.851)" fill="#3f3d56"/>
      <path id="Path_140" data-name="Path 140" d="M16,6h2.574V8.574H16Z" transform="translate(2.02 -0.851)" fill="#3f3d56"/>
      <path id="Path_141" data-name="Path 141" d="M24.3,28.892,20.73,26.524a5.078,5.078,0,0,0,1.429-3.514V19.149a5.149,5.149,0,0,0-10.3,0V23.01a5.086,5.086,0,0,0,1.416,3.527L9.725,28.892A3.869,3.869,0,0,0,8,32.11v3.771a1.287,1.287,0,0,0,1.287,1.287H24.733a1.287,1.287,0,0,0,1.287-1.287V32.11A3.869,3.869,0,0,0,24.3,28.892Zm-9.86-9.744a2.574,2.574,0,0,1,5.071-.618l-.3-.3a1.3,1.3,0,0,0-1.828,0L15.569,20.05a1.287,1.287,0,0,1-.914.386h-.219Zm.219,3.861A3.861,3.861,0,0,0,17.4,21.877l.9-.914,1.287,1.287v.759a2.55,2.55,0,0,1-.862,1.918,2.618,2.618,0,0,1-3.424,0l-.1-.1a2.552,2.552,0,0,1-.759-1.815Zm3.9,5.149-1.545,1.03-1.545-1.03.283-.18a4.505,4.505,0,0,0,2.523,0Zm4.891,6.436H10.574V32.11a1.287,1.287,0,0,1,.579-1.068l2-1.339L16.3,31.8a1.255,1.255,0,0,0,1.416,0l3.154-2.1,2,1.339a1.287,1.287,0,0,1,.579,1.068Z" transform="translate(-0.277 1.446)" fill="#3f3d56"/>
      <path id="Path_142" data-name="Path 142" d="M24.3,48.892,20.73,46.524a5.078,5.078,0,0,0,1.429-3.514V39.149a5.149,5.149,0,1,0-10.3,0V43.01a5.086,5.086,0,0,0,1.416,3.527L9.725,48.892A3.869,3.869,0,0,0,8,52.11v3.771a1.287,1.287,0,0,0,1.287,1.287H24.733a1.287,1.287,0,0,0,1.287-1.287V52.11A3.869,3.869,0,0,0,24.3,48.892Zm-9.86-9.744a2.574,2.574,0,0,1,5.071-.618l-.3-.3a1.3,1.3,0,0,0-1.828,0L15.569,40.05a1.287,1.287,0,0,1-.914.386h-.219Zm.219,3.861A3.861,3.861,0,0,0,17.4,41.877l.9-.914,1.287,1.287v.759a2.55,2.55,0,0,1-.862,1.918,2.618,2.618,0,0,1-3.424,0l-.1-.1a2.553,2.553,0,0,1-.759-1.815Zm3.9,5.149-1.545,1.03-1.545-1.03.283-.18a4.5,4.5,0,0,0,2.523,0Zm4.891,6.436H10.574V52.11a1.287,1.287,0,0,1,.579-1.068l2-1.339L16.3,51.8a1.255,1.255,0,0,0,1.416,0l3.154-2.1,2,1.339a1.287,1.287,0,0,1,.579,1.068Z" transform="translate(-0.277 7.189)" fill="#3f3d56"/>
      <path id="Path_143" data-name="Path 143" d="M27,60H39.872v2.574H27Z" transform="translate(5.179 14.656)" fill="#3f3d56"/>
      <path id="Path_144" data-name="Path 144" d="M23,60h2.574v2.574H23Z" transform="translate(4.03 14.656)" fill="#3f3d56"/>
      <path id="Path_145" data-name="Path 145" d="M60,34h2.574v2.574H60Z" transform="translate(14.656 7.189)" fill="#3f3d56"/>
      <path id="Path_146" data-name="Path 146" d="M60,22h2.574V34.872H60Z" transform="translate(14.656 3.743)" fill="#3f3d56"/>
      <path id="Path_147" data-name="Path 147" d="M27,28H45.02v2.574H27Z" transform="translate(5.179 5.466)" fill="#3f3d56"/>
      <path id="Path_148" data-name="Path 148" d="M27,24H45.02v2.574H27Z" transform="translate(5.179 4.318)" fill="#3f3d56"/>
      <path id="Path_149" data-name="Path 149" d="M31,20H43.872v2.574H31Z" transform="translate(6.328 3.169)" fill="#3f3d56"/>
      <path id="Path_150" data-name="Path 150" d="M27,20h2.574v2.574H27Z" transform="translate(5.179 3.169)" fill="#3f3d56"/>
      <path id="Path_151" data-name="Path 151" d="M27,48h6.436v2.574H27Z" transform="translate(5.179 11.21)" fill="#3f3d56"/>
      <path id="Path_152" data-name="Path 152" d="M27,44h6.436v2.574H27Z" transform="translate(5.179 10.061)" fill="#3f3d56"/>
      <path id="Path_153" data-name="Path 153" d="M31,40h5.149v2.574H31Z" transform="translate(6.328 8.912)" fill="#3f3d56"/>
      <path id="Path_154" data-name="Path 154" d="M27,40h2.574v2.574H27Z" transform="translate(5.179 8.912)" fill="#3f3d56"/>
      <path id="Path_155" data-name="Path 155" d="M68.936,48.172l-3.452-.493a13.981,13.981,0,0,0-.874-2.11L66.7,42.781a1.287,1.287,0,0,0-.12-1.682l-3.64-3.64a1.287,1.287,0,0,0-1.681-.12l-2.789,2.09a14.032,14.032,0,0,0-2.11-.873L55.869,35.1A1.287,1.287,0,0,0,54.595,34H49.446a1.287,1.287,0,0,0-1.274,1.1l-.493,3.452a13.972,13.972,0,0,0-2.11.873l-2.789-2.09a1.287,1.287,0,0,0-1.681.12l-3.64,3.64a1.287,1.287,0,0,0-.12,1.682l2.092,2.788a13.982,13.982,0,0,0-.874,2.11l-3.452.493A1.287,1.287,0,0,0,34,49.446v5.149a1.287,1.287,0,0,0,1.1,1.274l3.452.493a13.982,13.982,0,0,0,.874,2.11L37.339,61.26a1.287,1.287,0,0,0,.12,1.682l3.64,3.64a1.287,1.287,0,0,0,1.681.12l2.789-2.09a13.971,13.971,0,0,0,2.11.873l.493,3.452a1.287,1.287,0,0,0,1.274,1.1h5.149a1.287,1.287,0,0,0,1.274-1.1l.493-3.452a14.029,14.029,0,0,0,2.11-.873l2.789,2.09a1.287,1.287,0,0,0,1.681-.12l3.64-3.64a1.287,1.287,0,0,0,.12-1.682L64.61,58.472a13.98,13.98,0,0,0,.874-2.11l3.452-.493a1.287,1.287,0,0,0,1.1-1.274V49.446a1.287,1.287,0,0,0-1.1-1.274Zm-1.47,5.307-3.17.453a1.287,1.287,0,0,0-1.064.955,11.485,11.485,0,0,1-1.258,3.034,1.287,1.287,0,0,0,.079,1.43l1.92,2.561-2.059,2.059-2.563-1.92a1.287,1.287,0,0,0-1.429-.077,11.4,11.4,0,0,1-3.033,1.255,1.287,1.287,0,0,0-.958,1.066l-.453,3.172H50.562L50.11,64.3a1.287,1.287,0,0,0-.958-1.066,11.4,11.4,0,0,1-3.033-1.255,1.287,1.287,0,0,0-1.429.077l-2.563,1.92-2.059-2.059,1.92-2.561a1.287,1.287,0,0,0,.079-1.43,11.485,11.485,0,0,1-1.258-3.034,1.287,1.287,0,0,0-1.064-.955l-3.172-.454V50.562l3.17-.453a1.287,1.287,0,0,0,1.064-.955,11.485,11.485,0,0,1,1.258-3.034,1.287,1.287,0,0,0-.078-1.43l-1.92-2.561,2.059-2.059,2.563,1.92a1.287,1.287,0,0,0,1.429.077,11.4,11.4,0,0,1,3.033-1.255,1.287,1.287,0,0,0,.958-1.066l.453-3.172h2.917l.452,3.17a1.287,1.287,0,0,0,.958,1.066,11.4,11.4,0,0,1,3.033,1.255,1.287,1.287,0,0,0,1.429-.077l2.563-1.92,2.059,2.059-1.92,2.561a1.287,1.287,0,0,0-.079,1.43,11.485,11.485,0,0,1,1.258,3.034,1.287,1.287,0,0,0,1.064.955l3.172.454Z" transform="translate(7.189 7.189)" fill="#3f3d56"/>
      <path id="Path_156" data-name="Path 156" d="M49.723,42a7.723,7.723,0,1,0,7.723,7.723A7.723,7.723,0,0,0,49.723,42Zm0,12.872a5.149,5.149,0,1,1,5.149-5.149A5.149,5.149,0,0,1,49.723,54.872Z" transform="translate(9.487 9.487)" fill="#3f3d56"/>
      <path id="Path_157" data-name="Path 157" d="M47,38h2.574v2.574H47Z" transform="translate(10.922 8.338)" fill="#3f3d56"/>
      <path id="Path_158" data-name="Path 158" d="M0,0H2.574V2.574H0Z" transform="translate(49.187 51.005) rotate(-45)" fill="#3f3d56"/>
      <path id="Path_159" data-name="Path 159" d="M38,47h2.574v2.574H38Z" transform="translate(8.338 10.922)" fill="#3f3d56"/>
      <path id="Path_160" data-name="Path 160" d="M0,0H2.574V2.574H0Z" transform="translate(49.185 67.399) rotate(-45)" fill="#3f3d56"/>
      <path id="Path_161" data-name="Path 161" d="M47,56h2.574v2.574H47Z" transform="translate(10.922 13.507)" fill="#3f3d56"/>
      <path id="Path_162" data-name="Path 162" d="M0,0H2.574V2.574H0Z" transform="translate(65.566 67.384) rotate(-45)" fill="#3f3d56"/>
      <path id="Path_163" data-name="Path 163" d="M56,47h2.574v2.574H56Z" transform="translate(13.507 10.922)" fill="#3f3d56"/>
      <path id="Path_164" data-name="Path 164" d="M0,0H2.574V2.574H0Z" transform="translate(65.569 51.035) rotate(-45)" fill="#3f3d56"/>
    </g>
    <g id="Page-1" transform="translate(765 2425.782)" opacity="0.701">
      <g id="_023---Inventory" data-name="023---Inventory" transform="translate(0 0)">
        <path id="Shape" d="M66.845,0H3.518A3.518,3.518,0,0,0,0,3.518V66.845a3.518,3.518,0,0,0,3.518,3.518H66.845a3.518,3.518,0,0,0,3.518-3.518V3.518A3.518,3.518,0,0,0,66.845,0Zm1.173,66.845a1.173,1.173,0,0,1-1.173,1.173H3.518a1.173,1.173,0,0,1-1.173-1.173V3.518A1.173,1.173,0,0,1,3.518,2.345H66.845a1.173,1.173,0,0,1,1.173,1.173Z" transform="translate(0 0)" fill="#3f3d56"/>
        <path id="Shape-2" data-name="Shape" d="M56.349,4.344a1.173,1.173,0,0,0-1.658,0l-.344.344L54,4.344A1.173,1.173,0,0,0,52.346,6l.344.344-.344.344A1.173,1.173,0,1,0,54,8.347L54.348,8l.344.344a1.173,1.173,0,0,0,1.658-1.658l-.344-.344L56.349,6A1.173,1.173,0,0,0,56.349,4.344Z" transform="translate(8.979 0.691)" fill="#3f3d56"/>
        <path id="Shape-3" data-name="Shape" d="M22.764,4H6.345A2.345,2.345,0,0,0,4,6.345V22.764a2.345,2.345,0,0,0,2.345,2.345H22.764a2.345,2.345,0,0,0,2.345-2.345V6.345A2.345,2.345,0,0,0,22.764,4ZM6.345,22.764V6.345H22.764V22.764Z" transform="translate(0.691 0.691)" fill="#3f3d56"/>
        <path id="Shape-4" data-name="Shape" d="M25.173,7.345H35.727a1.173,1.173,0,1,0,0-2.345H25.173a1.173,1.173,0,1,0,0,2.345Z" transform="translate(4.145 0.864)" fill="#3f3d56"/>
        <path id="Shape-5" data-name="Shape" d="M25.173,13.345h3.518a1.173,1.173,0,0,0,0-2.345H25.173a1.173,1.173,0,1,0,0,2.345Z" transform="translate(4.145 1.9)" fill="#3f3d56"/>
        <path id="Shape-6" data-name="Shape" d="M31,12.173a1.173,1.173,0,0,0,1.173,1.173h8.209a1.173,1.173,0,1,0,0-2.345H32.173A1.173,1.173,0,0,0,31,12.173Z" transform="translate(5.354 1.9)" fill="#3f3d56"/>
        <path id="Shape-7" data-name="Shape" d="M43.936,15H25.173a1.173,1.173,0,1,0,0,2.345H43.936a1.173,1.173,0,0,0,0-2.345Z" transform="translate(4.145 2.591)" fill="#3f3d56"/>
        <path id="Shape-8" data-name="Shape" d="M28.691,21.345a1.173,1.173,0,0,0,0-2.345H25.173a1.173,1.173,0,1,0,0,2.345Z" transform="translate(4.145 3.282)" fill="#3f3d56"/>
        <path id="Shape-9" data-name="Shape" d="M40.382,19H32.173a1.173,1.173,0,1,0,0,2.345h8.209a1.173,1.173,0,1,0,0-2.345Z" transform="translate(5.354 3.282)" fill="#3f3d56"/>
        <path id="Shape-10" data-name="Shape" d="M18.073,24H6.345A2.345,2.345,0,0,0,4,26.345V38.073a2.345,2.345,0,0,0,2.345,2.345H18.073a2.345,2.345,0,0,0,2.345-2.345V26.345A2.345,2.345,0,0,0,18.073,24ZM6.345,38.073V26.345H18.073V38.073Z" transform="translate(0.691 4.145)" fill="#3f3d56"/>
        <path id="Shape-11" data-name="Shape" d="M37.073,24H25.345A2.345,2.345,0,0,0,23,26.345V38.073a2.345,2.345,0,0,0,2.345,2.345H37.073a2.345,2.345,0,0,0,2.345-2.345V26.345A2.345,2.345,0,0,0,37.073,24ZM25.345,38.073V26.345H37.073V38.073Z" transform="translate(3.973 4.145)" fill="#3f3d56"/>
        <path id="Shape-12" data-name="Shape" d="M56.073,24H44.345A2.345,2.345,0,0,0,42,26.345V38.073a2.345,2.345,0,0,0,2.345,2.345H56.073a2.345,2.345,0,0,0,2.345-2.345V26.345A2.345,2.345,0,0,0,56.073,24ZM44.345,38.073V26.345H56.073V38.073Z" transform="translate(7.254 4.145)" fill="#3f3d56"/>
        <path id="Shape-13" data-name="Shape" d="M18.073,42H6.345A2.345,2.345,0,0,0,4,44.345V56.073a2.345,2.345,0,0,0,2.345,2.345H18.073a2.345,2.345,0,0,0,2.345-2.345V44.345A2.345,2.345,0,0,0,18.073,42ZM6.345,56.073V44.345H18.073V56.073Z" transform="translate(0.691 7.254)" fill="#3f3d56"/>
        <path id="Shape-14" data-name="Shape" d="M37.073,42H25.345A2.345,2.345,0,0,0,23,44.345V56.073a2.345,2.345,0,0,0,2.345,2.345H37.073a2.345,2.345,0,0,0,2.345-2.345V44.345A2.345,2.345,0,0,0,37.073,42ZM25.345,56.073V44.345H37.073V56.073Z" transform="translate(3.973 7.254)" fill="#3f3d56"/>
        <path id="Shape-15" data-name="Shape" d="M56.073,42H44.345A2.345,2.345,0,0,0,42,44.345V56.073a2.345,2.345,0,0,0,2.345,2.345H56.073a2.345,2.345,0,0,0,2.345-2.345V44.345A2.345,2.345,0,0,0,56.073,42ZM44.345,56.073V44.345H56.073V56.073Z" transform="translate(7.254 7.254)" fill="#3f3d56"/>
        <path id="Shape-16" data-name="Shape" d="M18.557,8h-4.1a5.283,5.283,0,0,0-5.277,5.277,5.227,5.227,0,0,0,.821,2.8l-1.65,1.65A1.173,1.173,0,1,0,10,19.384l1.65-1.65a5.227,5.227,0,0,0,2.8.821,5.283,5.283,0,0,0,5.277-5.277v-4.1A1.173,1.173,0,0,0,18.557,8Zm-1.173,5.277A2.932,2.932,0,0,1,12.4,15.362s-.007-.012-.012-.018-.013-.006-.018-.012a2.932,2.932,0,0,1,2.085-4.988h2.932Z" transform="translate(1.38 1.382)" fill="#3f3d56"/>
        <path id="Shape-17" data-name="Shape" d="M13.037,28.341,8.346,33.032A1.173,1.173,0,1,0,10,34.691L14.695,30a1.173,1.173,0,0,0-1.658-1.658Z" transform="translate(1.38 4.838)" fill="#3f3d56"/>
        <path id="Shape-18" data-name="Shape" d="M32.037,28.341l-4.691,4.691A1.173,1.173,0,1,0,29,34.691L33.695,30a1.173,1.173,0,0,0-1.658-1.658Z" transform="translate(4.661 4.838)" fill="#3f3d56"/>
      </g>
    </g>
    <g id="support" transform="translate(1205 2087.162)" opacity="0.701">
      <g id="Group_24" data-name="Group 24" transform="translate(0.001 12.456)">
        <g id="Group_23" data-name="Group 23">
          <path id="Path_165" data-name="Path 165" d="M63.165,134.808l-2.884-8.652a8.72,8.72,0,0,0-6.713-5.821l-8.325-1.515v-.645a12.536,12.536,0,0,0,3.713-3.3h2.515a3.741,3.741,0,0,0,3.737-3.737V96.193a16.193,16.193,0,1,0-32.387,0v8.719a4.991,4.991,0,0,0,3.972,4.879,12.48,12.48,0,0,0,5.993,8.383v.645l-8.326,1.515a8.718,8.718,0,0,0-6.712,5.821l-.5,1.5-4.243-4.243a1.248,1.248,0,0,1,0-1.763l4.92-4.919-9.235-9.235-5.561,5.561a8.72,8.72,0,0,0,0,12.331l16.835,16.835a8.715,8.715,0,0,0,12.292.037l6.068-5.559-1.892-1.888ZM52.718,111.141a1.247,1.247,0,0,1-1.246,1.246H50.424a12.374,12.374,0,0,0,.812-2.595,4.934,4.934,0,0,0,1.481-.589Zm-1.246-4.083v-4.29a2.47,2.47,0,0,1,0,4.29Zm-24.913,0a2.47,2.47,0,0,1,0-4.29Zm0-8.373v1.422a4.942,4.942,0,0,0-1.246.516V96.193a13.7,13.7,0,1,1,27.4,0v4.429a4.9,4.9,0,0,0-1.246-.516V98.685H50.226a13.705,13.705,0,0,1-9.752-4.04l-1.459-1.459-1.459,1.459a13.705,13.705,0,0,1-9.752,4.04ZM29.05,107.4v-6.276A16.15,16.15,0,0,0,39.015,96.7a16.143,16.143,0,0,0,9.965,4.427V107.4a9.89,9.89,0,0,1-1.348,4.983H39.015v2.491h6.57A9.949,9.949,0,0,1,29.05,107.4Zm13.7,11.882v.059l-3.737,3.737-3.737-3.737v-.059a12.446,12.446,0,0,0,7.474,0Zm-22.641,7.657a6.23,6.23,0,0,1,4.794-4.159l8.707-1.582,5.4,5.4,5.4-5.4,8.706,1.582a6.228,6.228,0,0,1,4.794,4.159l1.792,5.372H33.944l-4.852-4.852L23.7,132.342a1.272,1.272,0,0,1-1.761,0l-2.72-2.72ZM8.693,111.015l5.713,5.713-1.353,1.353L7.34,112.368ZM30.535,140.46a6.23,6.23,0,0,1-8.808,0L4.892,123.624a6.23,6.23,0,0,1,0-8.808l.685-.685,5.713,5.713-.045.045a3.743,3.743,0,0,0,0,5.285l8.932,8.932a3.717,3.717,0,0,0,2.643,1.095,3.668,3.668,0,0,0,2.6-1.051l.093-.083L31.25,139.8Zm2.554-2.342-5.726-5.726,1.645-1.487,5.716,5.716Z" transform="translate(-0.58 -80)" fill="#3f3d56"/>
        </g>
      </g>
      <g id="Group_26" data-name="Group 26" transform="translate(52.139)">
        <g id="Group_25" data-name="Group 25">
          <path id="Path_166" data-name="Path 166" d="M356.6,0H339.165a3.741,3.741,0,0,0-3.737,3.737V13.7a3.741,3.741,0,0,0,3.737,3.737h3.327L341.2,24.951l12.02-7.512H356.6a3.741,3.741,0,0,0,3.737-3.737V3.737A3.741,3.741,0,0,0,356.6,0Zm1.246,13.7a1.248,1.248,0,0,1-1.246,1.246h-4.095L344.6,19.892l.848-4.944h-6.282a1.248,1.248,0,0,1-1.245-1.246V3.737a1.248,1.248,0,0,1,1.245-1.246H356.6a1.248,1.248,0,0,1,1.246,1.246Z" transform="translate(-335.428)" fill="#3f3d56"/>
        </g>
      </g>
      <g id="Group_28" data-name="Group 28" transform="translate(57.121 4.983)">
        <g id="Group_27" data-name="Group 27">
          <rect id="Rectangle_27" data-name="Rectangle 27" width="14.948" height="2.491" fill="#3f3d56"/>
        </g>
      </g>
      <g id="Group_30" data-name="Group 30" transform="translate(57.121 9.965)">
        <g id="Group_29" data-name="Group 29">
          <rect id="Rectangle_28" data-name="Rectangle 28" width="9.965" height="2.491" fill="#3f3d56"/>
        </g>
      </g>
      <g id="Group_32" data-name="Group 32" transform="translate(69.578 9.965)">
        <g id="Group_31" data-name="Group 31">
          <rect id="Rectangle_29" data-name="Rectangle 29" width="2.491" height="2.491" fill="#3f3d56"/>
        </g>
      </g>
      <g id="Group_34" data-name="Group 34" transform="translate(0 3.737)">
        <g id="Group_33" data-name="Group 33">
          <path id="Path_167" data-name="Path 167" d="M39.009,24A34.856,34.856,0,0,0,5.069,50.962l-2.36-3.935L.572,48.309,4.95,55.6l7.3-4.378L10.964,49.09,7.589,51.115A32.4,32.4,0,0,1,48.605,27.936l.737-2.379A34.855,34.855,0,0,0,39.009,24Z" transform="translate(-0.572 -24)" fill="#3f3d56"/>
        </g>
      </g>
      <g id="Group_36" data-name="Group 36" transform="translate(63.6 23.203)">
        <g id="Group_35" data-name="Group 35">
          <path id="Path_168" data-name="Path 168" d="M421.882,153.394l-7.3-4.378-4.377,7.3,2.136,1.282,2.18-3.634a32.413,32.413,0,0,1-5.489,30.858l1.934,1.57a34.883,34.883,0,0,0,5.969-33.054l3.661,2.2Z" transform="translate(-409.036 -149.016)" fill="#3f3d56"/>
        </g>
      </g>
    </g>
    <g id="Outline-2" data-name="Outline" transform="translate(323 2425.725)" opacity="0.701">
      <path id="Path_169" data-name="Path 169" d="M83.421,16H20.816A4.821,4.821,0,0,0,16,20.816V83.421a4.821,4.821,0,0,0,4.816,4.816H83.421a4.821,4.821,0,0,0,4.816-4.816V20.816A4.821,4.821,0,0,0,83.421,16ZM20.816,18.408H83.421a2.411,2.411,0,0,1,2.408,2.408v4.816H18.408V20.816A2.411,2.411,0,0,1,20.816,18.408ZM83.421,85.829H20.816a2.411,2.411,0,0,1-2.408-2.408V28.039H85.829V83.421A2.411,2.411,0,0,1,83.421,85.829Z" transform="translate(-16 -16)" fill="#3f3d56"/>
      <path id="Path_170" data-name="Path 170" d="M48,48h2.408v2.408H48Z" transform="translate(-43.184 -43.184)" fill="#3f3d56"/>
      <path id="Path_171" data-name="Path 171" d="M80,48h2.408v2.408H80Z" transform="translate(-70.368 -43.184)" fill="#3f3d56"/>
      <path id="Path_172" data-name="Path 172" d="M112,48h2.408v2.408H112Z" transform="translate(-97.553 -43.184)" fill="#3f3d56"/>
      <path id="Path_173" data-name="Path 173" d="M346.059,120H329.2a1.2,1.2,0,0,0-1.2,1.2v16.855a1.2,1.2,0,0,0,1.2,1.2h16.855a1.2,1.2,0,0,0,1.2-1.2V121.2A1.2,1.2,0,0,0,346.059,120Zm-10.836,2.408h4.816v3.612h-4.816Zm9.632,14.447H330.408V122.408h2.408v4.816a1.2,1.2,0,0,0,1.2,1.2h7.224a1.2,1.2,0,0,0,1.2-1.2v-4.816h2.408Z" transform="translate(-281.046 -104.349)" fill="#3f3d56"/>
      <path id="Path_174" data-name="Path 174" d="M408,200h2.408v2.408H408Z" transform="translate(-349.006 -172.309)" fill="#3f3d56"/>
      <path id="Path_175" data-name="Path 175" d="M158.02,136.855a1.2,1.2,0,0,0,.851-.353c.211-.211,5.168-5.229,5.168-10.483a6.02,6.02,0,1,0-12.039,0c0,5.254,4.957,10.272,5.168,10.483A1.2,1.2,0,0,0,158.02,136.855Zm0-14.447a3.616,3.616,0,0,1,3.612,3.612c0,3.078-2.317,6.278-3.612,7.827-1.3-1.549-3.612-4.75-3.612-7.827A3.616,3.616,0,0,1,158.02,122.408Z" transform="translate(-131.533 -104.349)" fill="#3f3d56"/>
      <path id="Path_176" data-name="Path 176" d="M144.428,211.974c4.725,0,8.428-2.644,8.428-6.02a4.859,4.859,0,0,0-1.261-3.2l-1.819,1.578a2.456,2.456,0,0,1,.672,1.619c0,1.958-2.757,3.612-6.02,3.612s-6.02-1.654-6.02-3.612a2.455,2.455,0,0,1,.672-1.619l-1.819-1.578a4.859,4.859,0,0,0-1.261,3.2C136,209.33,139.7,211.974,144.428,211.974Z" transform="translate(-117.941 -174.651)" fill="#3f3d56"/>
      <path id="Path_177" data-name="Path 177" d="M294.02,296.855a1.2,1.2,0,0,0,.851-.353c.211-.211,5.168-5.229,5.168-10.483a6.02,6.02,0,0,0-12.039,0c0,5.254,4.957,10.272,5.168,10.483A1.2,1.2,0,0,0,294.02,296.855Zm0-14.447a3.616,3.616,0,0,1,3.612,3.612c0,3.078-2.317,6.278-3.612,7.827-1.3-1.55-3.612-4.75-3.612-7.827A3.616,3.616,0,0,1,294.02,282.408Z" transform="translate(-247.066 -240.27)" fill="#3f3d56"/>
      <path id="Path_178" data-name="Path 178" d="M280.428,371.974c4.725,0,8.428-2.644,8.428-6.02a4.859,4.859,0,0,0-1.261-3.2l-1.819,1.578a2.455,2.455,0,0,1,.672,1.619c0,1.958-2.757,3.612-6.02,3.612s-6.02-1.654-6.02-3.612a2.455,2.455,0,0,1,.672-1.619l-1.819-1.578a4.859,4.859,0,0,0-1.261,3.2C272,369.329,275.7,371.974,280.428,371.974Z" transform="translate(-233.474 -310.572)" fill="#3f3d56"/>
      <path id="Path_179" data-name="Path 179" d="M248,160h4.816v2.408H248Z" transform="translate(-213.086 -138.329)" fill="#3f3d56"/>
      <path id="Path_180" data-name="Path 180" d="M296,160h2.408v2.408H296Z" transform="translate(-253.862 -138.329)" fill="#3f3d56"/>
      <path id="Path_181" data-name="Path 181" d="M77.671,335.224h1.2a1.2,1.2,0,0,0,1.168-1.5l-1.2-4.816A1.2,1.2,0,0,0,77.671,328H58.408a1.2,1.2,0,0,0-1.168.912l-1.2,4.816a1.2,1.2,0,0,0,1.168,1.5h1.2v9.632H56v2.408H80.079v-2.408H77.671Zm-18.323-4.815H76.731l.6,2.408H58.746Zm1.468,4.815H75.263v9.632H71.651v-2.408a3.612,3.612,0,1,0-7.224,0v2.408H60.816Zm8.428,9.632H66.836v-2.408a1.2,1.2,0,1,1,2.408,0Z" transform="translate(-49.98 -281.046)" fill="#3f3d56"/>
      <path id="Path_182" data-name="Path 182" d="M64.762,180.821l23.673.986.1-2.406-23.673-.986a8.013,8.013,0,1,1,.334-16.022l1.618,0v-2.408H65.2a10.421,10.421,0,1,0-.434,20.837Z" transform="translate(-48.755 -138.315)" fill="#3f3d56"/>
      <path id="Path_183" data-name="Path 183" d="M281.141,293.017l-.235-.01-.1,2.406.235.01a9.856,9.856,0,1,1-.411,19.708l-16.63,0v2.408h16.63a12.264,12.264,0,1,0,.512-24.522Z" transform="translate(-226.678 -251.319)" fill="#3f3d56"/>
      <path id="Path_184" data-name="Path 184" d="M232,440h2.408v2.408H232Z" transform="translate(-199.493 -376.191)" fill="#3f3d56"/>
    </g>
    <g id="maintenance" transform="translate(323 2752.757)" opacity="0.701">
      <path id="Path_187" data-name="Path 187" d="M50.454,34.671a15.678,15.678,0,0,0-7.365,1.835V30.732a15.783,15.783,0,1,0-6.737-21L25.62,1.828a4.368,4.368,0,0,0-5.046,0L1,16.252v5.792H3.1V42.613a15.776,15.776,0,1,0,29.462,7.841,15.845,15.845,0,0,0-.318-3.157h2.741A15.783,15.783,0,1,0,50.454,34.671Zm0-31.566A13.679,13.679,0,1,1,36.775,16.783,13.694,13.694,0,0,1,50.454,3.1ZM34.724,17.835a15.733,15.733,0,0,0,.265,2.1H24.149v-2.1ZM28.928,6.88l-2.675,3.209v3.538h2.1V12.172l2.686,1.343.942-1.882-3.02-1.51,1.66-1.993,4.89,3.6a15.672,15.672,0,0,0-.79,4H24.149V3.411a1.918,1.918,0,0,1,.223.112ZM21.821,3.523a1.838,1.838,0,0,1,.223-.112V15.731H5.253l7.664-5.647,1.012,2.361,5.8,1.162.414-2.063L15.429,10.6l-.771-1.8ZM3.1,17.835h18.94v2.1H3.1Zm2.1,4.209H22.044V35.591a15.563,15.563,0,0,0-2.1-.6V24.149H7.313V37.857a15.9,15.9,0,0,0-2.1,1.9Zm12.626,12.68c-.349-.023-.7-.054-1.052-.054a15.678,15.678,0,0,0-7.365,1.835V26.253h8.418ZM16.783,64.132A13.679,13.679,0,1,1,30.462,50.454,13.694,13.694,0,0,1,16.783,64.132Zm14.862-18.94a15.847,15.847,0,0,0-7.5-8.687V22.044H35.591a15.753,15.753,0,0,0,2.265,4.209h-11.6V36.775H38.879v-9.3a15.9,15.9,0,0,0,2.1,1.9v8.478a15.826,15.826,0,0,0-5.393,7.335Zm5.13-16.835v6.313H28.357V28.357ZM50.454,64.132A13.679,13.679,0,1,1,64.132,50.454,13.694,13.694,0,0,1,50.454,64.132Z" transform="translate(-1 -1)" fill="#3f3d56"/>
      <path id="Path_188" data-name="Path 188" d="M22.783,39H14.365A3.152,3.152,0,0,0,11.4,41.1H7v6.083l8.418,2.1V51.82a3.152,3.152,0,0,0-2.1,2.963v2.1a3.157,3.157,0,0,0,6.313,0v-2.1a3.152,3.152,0,0,0-2.1-2.963V47.647L9.1,45.543V43.209h2.3a3.152,3.152,0,0,0,2.963,2.1h8.418a3.157,3.157,0,1,0,0-6.313ZM17.522,56.888a1.052,1.052,0,0,1-2.1,0v-2.1a1.052,1.052,0,0,1,2.1,0Zm5.261-13.679H14.365a1.052,1.052,0,1,1,0-2.1h8.418a1.052,1.052,0,0,1,0,2.1Z" transform="translate(-0.687 0.984)" fill="#3f3d56"/>
      <path id="Path_189" data-name="Path 189" d="M44.313,19.626a6.107,6.107,0,0,0,1.628-.222l5.61,5.61a3.156,3.156,0,1,0,4.463-4.463l-5.61-5.61a6.144,6.144,0,0,0,.222-1.628A6.32,6.32,0,0,0,44.313,7h-.436l-2.1,2.1,2.5,2.5a2.108,2.108,0,0,1-1.668,1.669l-2.5-2.5-2.1,2.1v.436a6.32,6.32,0,0,0,6.313,6.313Zm-2.54-4.209h.436a4.213,4.213,0,0,0,4.209-4.209v-.436L44.774,9.129a4.183,4.183,0,0,1,3.449,5.713l-.253.641,6.556,6.555a1.053,1.053,0,0,1,0,1.489,1.067,1.067,0,0,1-1.488,0l-6.555-6.555-.641.251a4.183,4.183,0,0,1-5.713-3.449Z" transform="translate(0.932 -0.687)" fill="#3f3d56"/>
      <path id="Path_190" data-name="Path 190" d="M45.3,42.03l-1.86.742,4.6,4.594L45.6,49.8a3.235,3.235,0,0,0-3.573.6l-2.1,2.1a3.156,3.156,0,1,0,4.462,4.463l2.1-2.1a3.118,3.118,0,0,0,.609-3.584l2.42-2.42,4.593,4.593.744-1.858a28.275,28.275,0,0,0,2.029-10.537V40H55.835A28.221,28.221,0,0,0,45.3,42.03ZM45,53.37l-2.1,2.1a1.067,1.067,0,0,1-1.488,0,1.052,1.052,0,0,1,0-1.488l2.1-2.1A1.052,1.052,0,1,1,45,53.37Zm8.321-3.69-6.119-6.119a26.086,26.086,0,0,1,7.555-1.435,26.121,26.121,0,0,1-1.436,7.554Z" transform="translate(0.984 1.036)" fill="#3f3d56"/>
    </g>
    <g id="investor" transform="translate(765 2747.836)" opacity="0.702" style="isolation: isolate">
      <path id="Path_185" data-name="Path 185" d="M42.613,82.186l-4.24-3.18V46.62h12.2a1.932,1.932,0,0,0,1.93-1.93,1.908,1.908,0,0,0-.049-.426H63.105a1.178,1.178,0,0,0,1.178-1.178V28.955a1.178,1.178,0,0,0-1.178-1.178h-5.04l-.909-2.728a1.178,1.178,0,0,0-1.117-.805H48.973a1.178,1.178,0,0,0-1.117.805l-.909,2.728h-5.04a1.178,1.178,0,0,0-1.178,1.178v2l-1.155-1.732A5.876,5.876,0,0,0,34.691,26.6a4.7,4.7,0,0,0,.149-1.178V22.166l.852-1.7A3.083,3.083,0,0,0,32.935,16H30.13a4.716,4.716,0,0,0-4.711,4.711v4.711a4.7,4.7,0,0,0,.149,1.178H24.435a8.438,8.438,0,0,0-5.491,14.844l.587.5V85.483a1.178,1.178,0,0,0,1.178,1.178h21.2a1.178,1.178,0,0,0,1.178-1.178V83.128a1.178,1.178,0,0,0-.471-.942ZM32.419,79.35,31.306,55.985a1.178,1.178,0,0,0-2.341-.119L25.555,78.6l-3.669.734V50.153H36.018V78.63Zm-2.311.978-2.229-1.337,1.644-10.957Zm11.8-36.063V39.3l3.354-.838L44.386,40.2a1.178,1.178,0,0,0,.447,1.537l4.205,2.523Zm7.785-2.355-2.711-1.627L47.57,39.1a2.13,2.13,0,0,0-1.906-3.083,3.007,3.007,0,0,0-.728.09l-1.852.463V32.312L45.7,35.579a1.177,1.177,0,0,0,.92.442h2.355v2.355a1.178,1.178,0,0,0,1.178,1.178h4.711a1.178,1.178,0,0,0,1.178-1.178V36.021h2.355a1.178,1.178,0,0,0,.92-.442l2.613-3.267v9.6Zm5.17-10.6H50.151a1.178,1.178,0,0,0-1.178,1.178v1.178H47.184l-2.826-3.533h16.3l-2.826,3.533H56.039V32.488a1.178,1.178,0,0,0-1.178-1.178Zm-1.178,2.355V37.2H51.328V33.665ZM49.822,26.6H55.19l.393,1.178H49.429ZM37.615,30.528,40.729,35.2v1.963l-.145.036H33.307l-.764-3.409.521-1.163,1.07.8,1.413-1.884-2.879-2.159a4.74,4.74,0,0,0,.572-.432h1.434A3.526,3.526,0,0,1,37.615,30.528Zm-5.129-5.106a2.355,2.355,0,1,1-4.711,0v-.69l1.665-1.665h3.045ZM30.13,30.427l1,.752-.587,1.309H29.68l-.627-1.254Zm-.258,4.416h.493l.528,2.355h-1.61Zm.258-16.488h2.805a.728.728,0,0,1,.651,1.053l-.651,1.3H28.952a1.178,1.178,0,0,0-.833.345l-.345.345v-.69A2.358,2.358,0,0,1,30.13,18.355ZM18.353,35.037a6.089,6.089,0,0,1,6.082-6.082h2.584a4.739,4.739,0,0,0,.572.432l-2.879,2.159,1.413,1.884,1.012-.759L27.7,33.8l-.568,2.27-3.24-3.24L22.231,34.5l4.711,4.711a1.178,1.178,0,0,0,.833.345H39.551v4.711H27.6a4.714,4.714,0,0,1-3.066-1.134l-4.055-3.475A6.075,6.075,0,0,1,18.353,35.037ZM23,44.919a7.071,7.071,0,0,0,4.6,1.7h8.421V47.8H21.886V43.965ZM21.886,84.306V81.738l4.5-.9,4.926,2.956v.511Zm18.843,0H33.663V83.128a1.178,1.178,0,0,0-.572-1.01l-.606-.363v-.017l4.425-.885,3.818,2.864Z" transform="translate(-15.997 -16)" fill="#3f3d56"/>
      <path id="Path_186" data-name="Path 186" d="M256.041,240H217.178A1.178,1.178,0,0,0,216,241.178v35.331a1.178,1.178,0,0,0,1.178,1.178h38.864a1.178,1.178,0,0,0,1.178-1.178V241.178A1.178,1.178,0,0,0,256.041,240Zm-1.178,21.2H243.087v-2.355h5.888a1.178,1.178,0,0,0,1.178-1.178,1.179,1.179,0,0,1,1.178-1.178,1.178,1.178,0,0,0,1.178-1.178v-7.066a1.178,1.178,0,0,0-1.178-1.178,1.179,1.179,0,0,1-1.178-1.178,1.178,1.178,0,0,0-1.178-1.178h-5.888v-2.355h11.777Zm-11.777,7.066h11.777v2.355H243.087Zm0-2.355v-2.355h11.777v2.355Zm0-12.955h3.533V250.6h-3.533v-3.533H248a3.55,3.55,0,0,0,2.154,2.154v5.114A3.55,3.55,0,0,0,248,256.488h-4.913Zm-2.355-10.6V261.2h-7.066V242.355ZM231.31,250.6h-3.533v2.355h3.533v3.533h-6.09a3.55,3.55,0,0,0-2.154-2.154V249.22a3.551,3.551,0,0,0,2.154-2.154h6.09Zm0-8.244v2.355h-7.066a1.178,1.178,0,0,0-1.178,1.178,1.179,1.179,0,0,1-1.178,1.178,1.178,1.178,0,0,0-1.178,1.178v7.066a1.178,1.178,0,0,0,1.178,1.178,1.179,1.179,0,0,1,1.178,1.178,1.178,1.178,0,0,0,1.178,1.178h7.066V261.2H218.355V242.355Zm0,23.554h-9.421v2.355h9.421v2.355H218.355v-7.066H231.31Zm-12.954,7.066H231.31v2.355H218.355Zm15.31,2.355V263.554h7.066v11.777Zm9.421,0v-2.355h11.777v2.355Z" transform="translate(-186.557 -207.025)" fill="#3f3d56"/>
    </g>
    <g id="research" transform="translate(1205 2431.037)" opacity="0.701">
      <g id="Group_38" data-name="Group 38" transform="translate(0)">
        <g id="Group_37" data-name="Group 37">
          <path id="Path_191" data-name="Path 191" d="M55.839,0H4.528A4.527,4.527,0,0,0,0,4.527V40.746a4.527,4.527,0,0,0,4.527,4.527H24.147V42.256H4.528a1.509,1.509,0,0,1-1.509-1.509V4.527A1.509,1.509,0,0,1,4.528,3.018h51.31a1.509,1.509,0,0,1,1.509,1.509V31.692h3.018V4.527A4.527,4.527,0,0,0,55.839,0Z" transform="translate(-0.001)" fill="#3f3d56"/>
        </g>
      </g>
      <g id="Group_40" data-name="Group 40" transform="translate(18.11 43.765)">
        <g id="Group_39" data-name="Group 39">
          <rect id="Rectangle_30" data-name="Rectangle 30" width="3.018" height="9.055" fill="#3f3d56"/>
        </g>
      </g>
      <g id="Group_42" data-name="Group 42" transform="translate(6.037 31.692)">
        <g id="Group_41" data-name="Group 41">
          <path id="Path_192" data-name="Path 192" d="M47.2,228.527a1.509,1.509,0,0,1-1.509-1.509V224H42.668v3.018a4.527,4.527,0,0,0,4.527,4.527h3.018v-3.018Z" transform="translate(-42.668 -224)" fill="#3f3d56"/>
        </g>
      </g>
      <g id="Group_44" data-name="Group 44" transform="translate(6.037 25.655)">
        <g id="Group_43" data-name="Group 43">
          <rect id="Rectangle_31" data-name="Rectangle 31" width="3.018" height="3.018" fill="#3f3d56"/>
        </g>
      </g>
      <g id="Group_46" data-name="Group 46" transform="translate(27.162 27.163)">
        <g id="Group_45" data-name="Group 45">
          <path id="Path_193" data-name="Path 193" d="M219.978,196.793a16.4,16.4,0,1,0,0,23.188A16.4,16.4,0,0,0,219.978,196.793Zm-11.6,24.973a13.378,13.378,0,1,1,13.383-13.374A13.378,13.378,0,0,1,208.374,221.766Z" transform="translate(-191.986 -191.989)" fill="#3f3d56"/>
        </g>
      </g>
      <g id="Group_48" data-name="Group 48" transform="translate(55.737 55.735)">
        <g id="Group_47" data-name="Group 47">
          <path id="Path_194" data-name="Path 194" d="M410.215,403.854l-9.473-9.47a1.508,1.508,0,0,0-2.134,0l-4.21,4.21a1.509,1.509,0,0,0,0,2.134l9.473,9.474a1.508,1.508,0,0,0,1.067.442h0A1.508,1.508,0,0,0,406,410.2l4.21-4.211A1.509,1.509,0,0,0,410.215,403.854ZM404.938,407l-7.339-7.34,2.076-2.077,7.339,7.341Z" transform="translate(-393.956 -393.942)" fill="#3f3d56"/>
        </g>
      </g>
      <g id="Group_50" data-name="Group 50" transform="translate(53.02 53.019)">
        <g id="Group_49" data-name="Group 49" transform="translate(0 0)">
          <rect id="Rectangle_32" data-name="Rectangle 32" width="3.018" height="7.443" transform="translate(0 2.134) rotate(-45)" fill="#3f3d56"/>
        </g>
      </g>
      <g id="Group_52" data-name="Group 52" transform="translate(43.765 33.201)">
        <g id="Group_51" data-name="Group 51">
          <path id="Path_195" data-name="Path 195" d="M309.334,234.667v3.018a7.554,7.554,0,0,1,7.546,7.546H319.9A10.576,10.576,0,0,0,309.334,234.667Z" transform="translate(-309.334 -234.667)" fill="#3f3d56"/>
        </g>
      </g>
      <g id="Group_54" data-name="Group 54" transform="translate(15.091 51.31)">
        <g id="Group_53" data-name="Group 53">
          <rect id="Rectangle_33" data-name="Rectangle 33" width="12.073" height="3.018" fill="#3f3d56"/>
        </g>
      </g>
      <g id="Group_56" data-name="Group 56" transform="translate(18.11 6.037)">
        <g id="Group_55" data-name="Group 55">
          <path id="Path_196" data-name="Path 196" d="M132.528,42.667a4.527,4.527,0,1,0,4.527,4.527A4.527,4.527,0,0,0,132.528,42.667Zm0,6.036a1.509,1.509,0,1,1,1.509-1.509A1.509,1.509,0,0,1,132.528,48.7Z" transform="translate(-128.001 -42.667)" fill="#3f3d56"/>
        </g>
      </g>
      <g id="Group_58" data-name="Group 58" transform="translate(28.673 16.6)">
        <g id="Group_57" data-name="Group 57">
          <path id="Path_197" data-name="Path 197" d="M207.2,117.333a4.527,4.527,0,1,0,4.527,4.527A4.527,4.527,0,0,0,207.2,117.333Zm0,6.037a1.509,1.509,0,1,1,1.509-1.509A1.509,1.509,0,0,1,207.2,123.37Z" transform="translate(-202.668 -117.333)" fill="#3f3d56"/>
        </g>
      </g>
      <g id="Group_60" data-name="Group 60" transform="translate(12.515 11.006)">
        <g id="Group_59" data-name="Group 59" transform="translate(0 0)">
          <rect id="Rectangle_34" data-name="Rectangle 34" width="10.671" height="3.018" transform="translate(0 7.545) rotate(-45)" fill="#3f3d56"/>
        </g>
      </g>
      <g id="Group_62" data-name="Group 62" transform="translate(23.072 11.01)">
        <g id="Group_61" data-name="Group 61" transform="translate(0 0)">
          <rect id="Rectangle_35" data-name="Rectangle 35" width="3.018" height="10.671" transform="translate(0 2.134) rotate(-45)" fill="#3f3d56"/>
        </g>
      </g>
      <g id="Group_64" data-name="Group 64" transform="translate(39.237 6.037)">
        <g id="Group_63" data-name="Group 63">
          <path id="Path_198" data-name="Path 198" d="M281.861,42.667a4.527,4.527,0,1,0,4.527,4.527A4.527,4.527,0,0,0,281.861,42.667Zm0,6.036a1.509,1.509,0,1,1,1.509-1.509A1.509,1.509,0,0,1,281.861,48.7Z" transform="translate(-277.334 -42.667)" fill="#3f3d56"/>
        </g>
      </g>
      <g id="Group_66" data-name="Group 66" transform="translate(33.642 11.012)">
        <g id="Group_65" data-name="Group 65" transform="translate(0 0)">
          <rect id="Rectangle_36" data-name="Rectangle 36" width="10.671" height="3.018" transform="translate(0 7.545) rotate(-45)" fill="#3f3d56"/>
        </g>
      </g>
    </g>
    <g id="seo-report" transform="translate(1205 2749.627)" opacity="0.702" style="isolation: isolate">
      <g id="Group_68" data-name="Group 68" transform="translate(0 0)">
        <g id="Group_67" data-name="Group 67">
          <path id="Path_199" data-name="Path 199" d="M70.834,29.455H61.8a1.411,1.411,0,0,0-1.411,1.411v7.126a1.411,1.411,0,1,0,2.822,0V32.277h6.209V69.423H63.214V48.575a1.411,1.411,0,1,0-2.822,0V69.423H57.57V40.215A1.411,1.411,0,0,0,56.159,38.8H47.129a1.411,1.411,0,0,0-1.411,1.411V69.423H42.9V50.092a1.411,1.411,0,0,0-1.411-1.411H32.454a1.411,1.411,0,0,0-1.411,1.411V69.423H28.221V58.188a1.411,1.411,0,0,0-1.411-1.411H17.779a1.411,1.411,0,0,0-1.411,1.411V69.423H4.233a1.413,1.413,0,0,1-1.411-1.411V4.233A1.413,1.413,0,0,1,4.233,2.822h36.4v9.313a4.238,4.238,0,0,0,4.233,4.233H54.18V33.724a1.411,1.411,0,1,0,2.822,0V14.957a1.411,1.411,0,0,0-.413-1L43.043.413a1.411,1.411,0,0,0-1-.413H4.233A4.238,4.238,0,0,0,0,4.233V68.012a4.238,4.238,0,0,0,4.233,4.233h66.6a1.411,1.411,0,0,0,1.411-1.411V30.866A1.411,1.411,0,0,0,70.834,29.455ZM43.456,4.818l8.729,8.729H44.867a1.413,1.413,0,0,1-1.411-1.411ZM25.4,69.423H19.19V59.6H25.4Zm14.675,0H33.865V51.5h6.209Zm14.675,0H48.54v-27.8h6.209Z" fill="#3f3d56"/>
        </g>
      </g>
      <g id="Group_70" data-name="Group 70" transform="translate(60.392 41.61)">
        <g id="Group_69" data-name="Group 69">
          <path id="Path_200" data-name="Path 200" d="M430.409,295.3a1.411,1.411,0,1,0,.413,1A1.416,1.416,0,0,0,430.409,295.3Z" transform="translate(-428 -294.89)" fill="#3f3d56"/>
        </g>
      </g>
      <g id="Group_72" data-name="Group 72" transform="translate(7.563 7.722)">
        <g id="Group_71" data-name="Group 71">
          <path id="Path_201" data-name="Path 201" d="M66.58,54.729a1.411,1.411,0,0,0-1.411,1.411v2.538A12.978,12.978,0,1,0,79.482,72.991H82.02a1.411,1.411,0,0,0,1.411-1.411A16.87,16.87,0,0,0,66.58,54.729Zm0,27.007a10.156,10.156,0,0,1-1.411-20.214V71.58a1.411,1.411,0,0,0,1.411,1.411H76.638A10.172,10.172,0,0,1,66.58,81.736Zm1.411-11.567h0V57.621A14.056,14.056,0,0,1,80.539,70.169Z" transform="translate(-53.602 -54.729)" fill="#3f3d56"/>
        </g>
      </g>
      <g id="Group_74" data-name="Group 74" transform="translate(7.62 41.52)">
        <g id="Group_73" data-name="Group 73">
          <path id="Path_202" data-name="Path 202" d="M82.362,294.25H55.411a1.411,1.411,0,1,0,0,2.822H82.362a1.411,1.411,0,1,0,0-2.822Z" transform="translate(-54 -294.25)" fill="#3f3d56"/>
        </g>
      </g>
      <g id="Group_76" data-name="Group 76" transform="translate(7.62 48.328)">
        <g id="Group_75" data-name="Group 75">
          <path id="Path_203" data-name="Path 203" d="M64.442,342.5H55.411a1.411,1.411,0,1,0,0,2.822h9.031a1.411,1.411,0,1,0,0-2.822Z" transform="translate(-54 -342.5)" fill="#3f3d56"/>
        </g>
      </g>
      <g id="Group_78" data-name="Group 78" transform="translate(23.717 48.328)">
        <g id="Group_77" data-name="Group 77">
          <path id="Path_204" data-name="Path 204" d="M170.489,342.913a1.41,1.41,0,1,0,.413,1A1.422,1.422,0,0,0,170.489,342.913Z" transform="translate(-168.08 -342.5)" fill="#3f3d56"/>
        </g>
      </g>
    </g>
    <line id="Line_262" data-name="Line 262" y2="1291.925" transform="translate(726.754 1762.86)" fill="none" stroke="#e0e0e0" stroke-width="1"/>
    <line id="Line_264" data-name="Line 264" y2="1291.925" transform="translate(1167.412 1761.562)" fill="none" stroke="#e0e0e0" stroke-width="1"/>
    <line id="Line_265" data-name="Line 265" x2="1318.809" transform="translate(301 2055.136)" fill="none" stroke="#d0cece" stroke-width="1"/>
    <line id="Line_266" data-name="Line 266" x2="1318.809" transform="translate(301 2389.568)" fill="none" stroke="#d0cece" stroke-width="1"/>
    <line id="Line_267" data-name="Line 267" x2="1318.809" transform="translate(301 2722)" fill="none" stroke="#d0cece" stroke-width="1"/>
    <text id="At-a-glance_metrics_for_a_single_plant_or_a_mini-grid_portfolio" data-name="At-a-glance metrics for a single plant or a mini-grid portfolio" transform="translate(323 1932)" fill="#21232a" font-size="28" font-family="OpenSans-Regular, Open Sans"><tspan x="0" y="30">At-a-glance metrics for a </tspan><tspan x="0" y="60">single plant or a mini-grid </tspan><tspan x="0" y="90">portfolio</tspan></text>
    <text id="Allocation_of_roles_responsibilities_personnel_performance" data-name="Allocation of roles &amp;
responsibilities, &amp; personnel
performance" transform="translate(323 2246)" fill="#21232a" font-size="28" font-family="OpenSans-Regular, Open Sans"><tspan x="0" y="30">Allocation of roles &amp;</tspan><tspan x="0" y="60">responsibilities, &amp; personnel</tspan><tspan x="0" y="90">performance</tspan></text>
    <text id="Financial_Reporting" data-name="Financial Reporting" transform="translate(765 1852)" fill="#21232a" font-size="32" font-family="OpenSans-Bold, Open Sans" font-weight="700"><tspan x="0" y="34">Financial </tspan><tspan x="0" y="68">Reporting</tspan></text>
    <g id="Group_3077" data-name="Group 3077" transform="translate(765 1768.964)">
      <g id="Group_20" data-name="Group 20" transform="translate(8.462 0)">
        <g id="Group_19" data-name="Group 19">
          <path id="Path_135" data-name="Path 135" d="M100.016,8.2v2.69h4.376L79.283,38.556,67.094,25.108,51.6,42.18l1.712,1.9,13.782-15.17,12.19,13.431,26.835-29.552V17.6h2.441V8.2Z" transform="translate(-51.6 -8.2)" fill="#707688"/>
        </g>
      </g>
      <g id="Group_22" data-name="Group 22" transform="translate(0 18.811)">
        <g id="Group_21" data-name="Group 21">
          <path id="Path_136" data-name="Path 136" d="M75.006,174.59h0V122.9H62.51v51.69h-2.5V129.954h-12.5V174.6h-2.5V146.4H32.5V174.59H30V139.346H17.5V174.59H15V158.144H2.5V174.59H0v2.352H77.508V174.59Zm-62.495,0H5V160.5h7.507Zm15,0H20V141.7h7.507Zm15,.014H35V148.752h7.507Zm15,0H50v-42.3h7.507Zm15.013-.014H65.012V125.251h7.507Z" transform="translate(0 -122.9)" fill="#707688"/>
        </g>
      </g>
    </g>
    <text id="Details_on_plant_revenues_expenses_business-level_P_L_statements" data-name="Details on plant revenues &amp; expenses, business-level P&amp;L statements" transform="translate(765 1932)" fill="#21232a" font-size="28" font-family="OpenSans-Regular, Open Sans"><tspan x="0" y="30">Details on plant revenues &amp; </tspan><tspan x="0" y="60">expenses, business-level </tspan><tspan x="0" y="90">P&amp;L statements</tspan></text>
    <text id="Benchmarking_monitoring_equipment_performance_to_safeguard_smooth_operation" data-name="Benchmarking &amp; monitoring equipment performance to
safeguard smooth operation" transform="translate(1205 1932)" fill="#21232a" font-size="28" font-family="OpenSans-Regular, Open Sans"><tspan x="0" y="30">Benchmarking &amp; monitoring </tspan><tspan x="0" y="60">equipment performance to</tspan><tspan x="0" y="90">safeguard smooth operation</tspan></text>
    <text id="Portal_for_communications_between_customers_the_company_with_service_quality_monitoring" data-name="Portal for communications
between customers &amp; the
company, with service quality
monitoring" transform="translate(1205 2246)" fill="#21232a" font-size="28" font-family="OpenSans-Regular, Open Sans"><tspan x="0" y="30">Portal for communications</tspan><tspan x="0" y="60">between customers &amp; the</tspan><tspan x="0" y="90">company, with service quality</tspan><tspan x="0" y="120">monitoring</tspan></text>
    <text id="Customer_profiles_consumption_payment_information" data-name="Customer profiles,
consumption, &amp; payment
information" transform="translate(765 2246)" fill="#21232a" font-size="28" font-family="OpenSans-Regular, Open Sans"><tspan x="0" y="30">Customer profiles,</tspan><tspan x="0" y="60">consumption, &amp; payment</tspan><tspan x="0" y="90">information</tspan></text>
    <text id="Allows_customers_to_select_from_a_range_of_energy_service_options_suited_to_their_needs" data-name="Allows customers to select
from a range of energy service options suited to their needs" transform="translate(323 2591)" fill="#21232a" font-size="28" font-family="OpenSans-Regular, Open Sans"><tspan x="0" y="30">Allows customers to select</tspan><tspan x="0" y="60">from a range of energy </tspan><tspan x="0" y="90">service options suited to </tspan><tspan x="0" y="120">their needs</tspan></text>
    <text id="Hardware_control_access_for_manual_override_of_electrical_equipment_and_meters" data-name="Hardware control access for
manual override of electrical
equipment and meters" transform="translate(1205 2591)" fill="#21232a" font-size="28" font-family="OpenSans-Regular, Open Sans"><tspan x="0" y="30">Hardware control access for</tspan><tspan x="0" y="60">manual override of electrical</tspan><tspan x="0" y="90">equipment and meters</tspan></text>
    <text id="Tracking_assets_equipment_stored_in_company_warehouses" data-name="Tracking assets &amp; equipment
stored in company warehouses" transform="translate(765 2591)" fill="#21232a" font-size="28" font-family="OpenSans-Regular, Open Sans"><tspan x="0" y="30">Tracking assets &amp; equipment</tspan><tspan x="0" y="60">stored in company </tspan><tspan x="0" y="90">warehouses</tspan></text>
    <text id="Logging_and_automated_scheduling_of_asset_maintenance_and_servicing" data-name="Logging and automated
scheduling of asset
maintenance and servicing" transform="translate(323 2916)" fill="#21232a" font-size="28" font-family="OpenSans-Regular, Open Sans"><tspan x="0" y="30">Logging and automated</tspan><tspan x="0" y="60">scheduling of asset</tspan><tspan x="0" y="90">maintenance and servicing</tspan></text>
    <text id="Customisable_report_templates_for_managers_investors_other_stakeholders" data-name="Customisable report templates for managers, investors, &amp; other stakeholders" transform="translate(1205 2916)" fill="#21232a" font-size="28" font-family="OpenSans-Regular, Open Sans"><tspan x="0" y="30">Customisable report </tspan><tspan x="0" y="60">templates for managers, </tspan><tspan x="0" y="90">investors, &amp; other </tspan><tspan x="0" y="120">stakeholders</tspan></text>
    <text id="Tracks_plant_development_from_site_selection_to_final_commissioning" data-name="Tracks plant development from site selection to final
commissioning" transform="translate(765 2916)" fill="#21232a" font-size="28" font-family="OpenSans-Regular, Open Sans"><tspan x="0" y="30">Tracks plant development </tspan><tspan x="0" y="60">from site selection to final</tspan><tspan x="0" y="90">commissioning</tspan></text>
  </g>
</svg>
