<svg xmlns="http://www.w3.org/2000/svg" width="1321" height="636" viewBox="0 0 1321 636">
  <g id="Group_3187" data-name="Group 3187" transform="translate(-302 -1317)">
    <g id="Group_3186" data-name="Group 3186">
      <rect id="Rectangle_1041" data-name="Rectangle 1041" width="1321" height="636" transform="translate(302 1317)" fill="#fff"/>
    </g>
    <g id="Group_3108" data-name="Group 3108" transform="translate(6.709 1)">
      <text id="Automatic_meter_reading_to_facilitate_billing_and_collection_activities" data-name="Automatic meter reading to facilitate billing and collection activities" transform="translate(413 1368)" fill="#21232a" font-size="32" font-family="OpenSans-Bold, Open Sans" font-weight="700"><tspan x="0" y="34">Automatic meter </tspan><tspan x="0" y="64">reading to </tspan><tspan x="0" y="94">facilitate billing </tspan><tspan x="0" y="124">and collection </tspan><tspan x="0" y="154">activities</tspan></text>
      <text id="Remotely_adjustable_load_limits_and_ability_to_switch_meters_on_and_off" data-name="Remotely adjustable load limits and ability to switch meters on and off" transform="translate(865 1359)" fill="#21232a" font-size="32" font-family="OpenSans-Bold, Open Sans" font-weight="700"><tspan x="0" y="34">Remotely </tspan><tspan x="0" y="64">adjustable load </tspan><tspan x="0" y="94">limits and ability </tspan><tspan x="0" y="124">to switch meters </tspan><tspan x="0" y="154">on and off</tspan></text>
      <text id="Programmable_electricity_packages_including_multiple_time_of_day_slots" data-name="Programmable electricity packages including multiple time of day slots" transform="translate(1289 1342)" fill="#21232a" font-size="32" font-family="OpenSans-Bold, Open Sans" font-weight="700"><tspan x="0" y="34">Programmable </tspan><tspan x="0" y="64">electricity </tspan><tspan x="0" y="94">packages </tspan><tspan x="0" y="124">including </tspan><tspan x="0" y="154">multiple time of </tspan><tspan x="0" y="184">day slots</tspan></text>
      <text id="Usage_and_credit_limitations_with_automated_shutdown_for_non-paying_customers" data-name="Usage and credit
limitations, with
automated shutdown
for non-paying customers" transform="translate(413 1724)" fill="#21232a" font-size="32" font-family="OpenSans-Bold, Open Sans" font-weight="700"><tspan x="0" y="34">Usage and credit</tspan><tspan x="0" y="64">limitations, with</tspan><tspan x="0" y="94">automated </tspan><tspan x="0" y="124">shutdown</tspan><tspan x="0" y="154">for non-paying </tspan><tspan x="0" y="184">customers</tspan></text>
      <text id="Tracking_of_customer_power_usage_patterns" data-name="Tracking of customer power usage patterns" transform="translate(865 1758)" fill="#21232a" font-size="32" font-family="OpenSans-Bold, Open Sans" font-weight="700"><tspan x="0" y="34">Tracking of </tspan><tspan x="0" y="64">customer power </tspan><tspan x="0" y="94">usage patterns</tspan></text>
      <text id="Detailed_monitoring_of_parameters_related_to_power_supply_quality" data-name="Detailed monitoring of
parameters related to power supply quality" transform="translate(1289 1728)" fill="#21232a" font-size="32" font-family="OpenSans-Bold, Open Sans" font-weight="700"><tspan x="0" y="34">Detailed </tspan><tspan x="0" y="68">monitoring of</tspan><tspan x="0" y="102">parameters </tspan><tspan x="0" y="136">related to power </tspan><tspan x="0" y="170">supply quality</tspan></text>
      <path id="Path_666" data-name="Path 666" d="M132.36,158.046H487.735V383.378H132.36V353.987" transform="translate(222.429 1172.954)" fill="none" stroke="#707070" stroke-miterlimit="10" stroke-width="1"/>
      <path id="Path_667" data-name="Path 667" d="M132.36,158.046H487.735V383.378H132.36V353.987" transform="translate(670.884 1172.954)" fill="none" stroke="#707070" stroke-miterlimit="10" stroke-width="1"/>
      <path id="Path_668" data-name="Path 668" d="M132.36,158.046H487.735V383.378H132.36V353.987" transform="translate(1109.922 1172.954)" fill="none" stroke="#707070" stroke-miterlimit="10" stroke-width="1"/>
      <path id="Path_669" data-name="Path 669" d="M132.36,158.046H487.735V383.378H132.36V353.987" transform="translate(222.903 1552.831)" fill="none" stroke="#707070" stroke-miterlimit="10" stroke-width="1"/>
      <path id="Path_670" data-name="Path 670" d="M132.36,158.046H487.735V383.378H132.36V353.987" transform="translate(671.412 1552.831)" fill="none" stroke="#707070" stroke-miterlimit="10" stroke-width="1"/>
      <path id="Path_671" data-name="Path 671" d="M132.36,158.046H487.735V383.378H132.36V353.987" transform="translate(1109.922 1552.831)" fill="none" stroke="#707070" stroke-miterlimit="10" stroke-width="1"/>
      <g id="speedometer" transform="translate(313.291 1395.823)">
        <path id="Path_690" data-name="Path 690" d="M43.928,2A41.928,41.928,0,1,0,85.856,43.928,41.928,41.928,0,0,0,43.928,2Zm0,81.061A39.133,39.133,0,1,1,83.061,43.928,39.133,39.133,0,0,1,43.928,83.061Z" transform="translate(-2 -2)" fill="#707070"/>
        <path id="Path_691" data-name="Path 691" d="M44.964,47H25.4A1.4,1.4,0,0,0,24,48.4V59.578a1.4,1.4,0,0,0,1.4,1.4H44.964a1.4,1.4,0,0,0,1.4-1.4V48.4A1.4,1.4,0,0,0,44.964,47Zm-1.4,11.181H26.8V49.8H43.566Z" transform="translate(6.747 15.892)" fill="#707070"/>
        <path id="Path_692" data-name="Path 692" d="M41.94,7A34.971,34.971,0,0,0,7,41.94a1.4,1.4,0,0,0,1.4,1.4H19.578a1.4,1.4,0,0,0,1.4-1.4A20.956,20.956,0,0,1,55.2,25.714l-9.07,7.407a9.839,9.839,0,1,0,4.626,4.626l7.407-9.07A20.856,20.856,0,0,1,62.9,41.94a1.4,1.4,0,0,0,1.4,1.4H75.483a1.4,1.4,0,0,0,1.4-1.4A34.971,34.971,0,0,0,41.94,7ZM18.223,40.542h-8.4A32.06,32.06,0,0,1,13.429,27.1l7.3,4.207A23.4,23.4,0,0,0,18.223,40.542Zm3.9-11.656L14.841,24.68a32.237,32.237,0,0,1,9.839-9.839l4.193,7.268a23.986,23.986,0,0,0-6.75,6.778Zm18.42-10.636A23.6,23.6,0,0,0,31.3,20.71L27.1,13.429A32.06,32.06,0,0,1,40.543,9.823Zm1.4,30.677a6.988,6.988,0,1,1,0-13.976,7.569,7.569,0,0,1,1.691.21l-4.556,3.718a.646.646,0,0,0-.1.1A4.193,4.193,0,1,0,44.9,44.9a.646.646,0,0,0,.1-.1l3.718-4.556a7.569,7.569,0,0,1,.21,1.691A6.988,6.988,0,0,1,41.94,48.928Zm.95-5.954a1.455,1.455,0,0,1-1.943-.042,1.384,1.384,0,0,1-.405-.992,1.417,1.417,0,0,1,.363-.95l10.762-8.777Zm.447-24.724V9.823a32.06,32.06,0,0,1,13.445,3.606L52.576,20.71a23.6,23.6,0,0,0-9.238-2.46Zm18.42,10.636a23.432,23.432,0,0,0-1.8-2.4l2.627-3.228A1.389,1.389,0,0,0,60.626,21.3l-3.242,2.641a24.982,24.982,0,0,0-2.376-1.831L59.2,14.841A32.237,32.237,0,0,1,69.04,24.68Zm3.9,11.656a23.4,23.4,0,0,0-2.5-9.238l7.3-4.207a32.06,32.06,0,0,1,3.606,13.445Z" transform="translate(-0.012 -0.012)" fill="#707070"/>
        <path id="Path_693" data-name="Path 693" d="M45.193,39a4.193,4.193,0,1,0,4.193,4.193A4.193,4.193,0,0,0,45.193,39Zm0,5.59a1.4,1.4,0,1,1,1.4-1.4A1.4,1.4,0,0,1,45.193,44.59Z" transform="translate(13.507 12.711)" fill="#707070"/>
        <path id="Path_694" data-name="Path 694" d="M53.193,39a4.193,4.193,0,1,0,4.193,4.193A4.193,4.193,0,0,0,53.193,39Zm0,5.59a1.4,1.4,0,1,1,1.4-1.4A1.4,1.4,0,0,1,53.193,44.59Z" transform="translate(16.687 12.711)" fill="#707070"/>
        <path id="Path_695" data-name="Path 695" d="M21.193,39a4.193,4.193,0,1,0,4.193,4.193A4.193,4.193,0,0,0,21.193,39Zm0,5.59a1.4,1.4,0,1,1,1.4-1.4A1.4,1.4,0,0,1,21.193,44.59Z" transform="translate(3.964 12.711)" fill="#707070"/>
        <path id="Path_696" data-name="Path 696" d="M13.193,39a4.193,4.193,0,1,0,4.193,4.193A4.193,4.193,0,0,0,13.193,39Zm0,5.59a1.4,1.4,0,1,1,1.4-1.4A1.4,1.4,0,0,1,13.193,44.59Z" transform="translate(0.783 12.711)" fill="#707070"/>
        <path id="Path_697" data-name="Path 697" d="M25,41h2.8v2.8H25Z" transform="translate(7.145 13.507)" fill="#707070"/>
        <path id="Path_698" data-name="Path 698" d="M29,41h6.988v2.8H29Z" transform="translate(8.735 13.507)" fill="#707070"/>
        <path id="Path_699" data-name="Path 699" d="M36,41h2.8v2.8H36Z" transform="translate(11.518 13.507)" fill="#707070"/>
      </g>
      <g id="switch" transform="translate(762.579 1395.823)">
        <path id="Path_700" data-name="Path 700" d="M82.5,75.74H71.683V31.107H79.8a1.352,1.352,0,0,0,.812-2.434L42.74.27a1.351,1.351,0,0,0-1.623,0l-37.87,28.4a1.352,1.352,0,0,0,.812,2.434h8.115V75.74H1.353A1.353,1.353,0,0,0,0,77.093V82.5a1.353,1.353,0,0,0,1.353,1.353H82.5A1.353,1.353,0,0,0,83.856,82.5v-5.41A1.353,1.353,0,0,0,82.5,75.74ZM41.928,3.042,75.741,28.4H8.115ZM14.878,31.107h54.1V75.74h-54.1ZM81.151,81.15H2.705V78.445H81.151Zm0,0" transform="translate(0 0.001)" fill="#707070"/>
        <path id="Path_701" data-name="Path 701" d="M174.123,230.089a1.353,1.353,0,1,0-.981,2.521,13.525,13.525,0,1,1-9.839,0,1.353,1.353,0,0,0-.981-2.521,16.23,16.23,0,1,0,11.8,0Zm0,0" transform="translate(-126.294 -191.112)" fill="#707070"/>
        <path id="Path_702" data-name="Path 702" d="M241.353,221.525a1.353,1.353,0,0,0,1.353-1.353v-10.82a1.353,1.353,0,0,0-2.705,0v10.82A1.353,1.353,0,0,0,241.353,221.525Zm0,0" transform="translate(-199.424 -172.834)" fill="#707070"/>
      </g>
      <g id="app_1_" data-name="app (1)" transform="translate(1218.906 1393.3)">
        <g id="Group_216" data-name="Group 216" transform="translate(0)">
          <g id="Group_215" data-name="Group 215">
            <path id="Path_672" data-name="Path 672" d="M148.245,0H108.066A5.672,5.672,0,0,0,102.4,5.665V80.186a5.673,5.673,0,0,0,5.666,5.666h40.179a5.673,5.673,0,0,0,5.666-5.666V5.665A5.672,5.672,0,0,0,148.245,0Zm2.8,80.186a2.809,2.809,0,0,1-2.8,2.8H108.066a2.809,2.809,0,0,1-2.8-2.8V74.405H151.05v5.781Zm0-8.642H105.262V14.309H151.05V71.544Zm0-60.1H105.262V5.665a2.807,2.807,0,0,1,2.8-2.8h40.179a2.807,2.807,0,0,1,2.8,2.8Z" transform="translate(-102.4)" fill="#707070"/>
            <path id="Path_673" data-name="Path 673" d="M214.765,463.663h11.447a1.431,1.431,0,1,0,0-2.862H214.765a1.431,1.431,0,0,0,0,2.862Z" transform="translate(-194.733 -383.534)" fill="#707070"/>
            <path id="Path_674" data-name="Path 674" d="M163.565,386.863h4.293a1.431,1.431,0,1,0,0-2.862h-4.293a1.431,1.431,0,1,0,0,2.862Z" transform="translate(-152.118 -319.612)" fill="#707070"/>
            <path id="Path_675" data-name="Path 675" d="M227.59,384H223.3a1.431,1.431,0,1,0,0,2.862h4.293a1.431,1.431,0,0,0,0-2.862Z" transform="translate(-201.835 -319.611)" fill="#707070"/>
            <path id="Path_676" data-name="Path 676" d="M288.893,341.729l-7.154,7.154a1.431,1.431,0,1,0,2.023,2.018l7.154-7.154a1.429,1.429,0,1,0-2.023-2.017Z" transform="translate(-251.271 -284.079)" fill="#707070"/>
            <path id="Path_677" data-name="Path 677" d="M179.58,137.366v0h9.557l-2.289,10.792a1.431,1.431,0,0,0,2.55,1.145l14.575-19.674a1.431,1.431,0,0,0-1.145-2.282h-7.212l5.676-12.278a1.431,1.431,0,0,0-1.3-2.03H188.6a1.431,1.431,0,0,0-1.319.876l-9.025,21.463a1.431,1.431,0,0,0,1.319,1.986Zm9.975-21.459h8.2l-5.676,12.277a1.431,1.431,0,0,0,1.3,2.032h6.608l-8.974,12.114,1.288-6.094a1.431,1.431,0,0,0-1.4-1.727h-9.165Z" transform="translate(-165.447 -94.086)" fill="#707070"/>
            <path id="Path_678" data-name="Path 678" d="M282.487,344.037a.906.906,0,0,0,.258.086,2.139,2.139,0,0,0,.286.033,1.431,1.431,0,0,0,1.016-2.447c-.072-.057-.143-.114-.229-.172a.813.813,0,0,0-.243-.133.873.873,0,0,0-.273-.086,1.22,1.22,0,0,0-.557,0,.912.912,0,0,0-.258.086,1.118,1.118,0,0,0-.259.129l-.213.172a1.451,1.451,0,0,0,0,2.032l.213.172A1.117,1.117,0,0,0,282.487,344.037Z" transform="translate(-251.552 -284.059)" fill="#707070"/>
            <path id="Path_679" data-name="Path 679" d="M326.484,384.22a.823.823,0,0,0-.243-.13.834.834,0,0,0-.273-.084,1.178,1.178,0,0,0-.557,0,.861.861,0,0,0-.258.084,1.126,1.126,0,0,0-.259.13l-.213.172a1.451,1.451,0,0,0,0,2.032l.213.17a1.126,1.126,0,0,0,.259.13,1.007,1.007,0,0,0,.258.086,2.4,2.4,0,0,0,.286.029,1.431,1.431,0,0,0,1.016-2.447C326.641,384.335,326.568,384.277,326.484,384.22Z" transform="translate(-287.063 -319.588)" fill="#707070"/>
          </g>
        </g>
      </g>
      <g id="battery_1_" data-name="battery (1)" transform="translate(322.785 1764.061)">
        <path id="Path_680" data-name="Path 680" d="M141.746,57.214h4.326l-5.918,14.795a1.715,1.715,0,0,0,2.852,1.8l20.575-22.29a1.715,1.715,0,0,0-1.26-2.878H155.6l4.629-5.787a1.715,1.715,0,0,0-1.339-2.786h-12a1.715,1.715,0,0,0-1.606,1.113L140.14,54.9a1.715,1.715,0,0,0,1.606,2.317ZM148.078,43.5h7.247l-4.629,5.787a1.715,1.715,0,0,0,1.338,2.786H158.4L146.788,64.654l3.408-8.518a1.715,1.715,0,0,0-1.592-2.351H144.22Z" transform="translate(-124.599 -31.48)" fill="#707070"/>
        <path id="Path_681" data-name="Path 681" d="M162.892,301.785a6.858,6.858,0,1,0-6.858-6.858A6.858,6.858,0,0,0,162.892,301.785Zm0-10.288a3.429,3.429,0,1,1-3.429,3.429A3.429,3.429,0,0,1,162.892,291.5Z" transform="translate(-137.173 -226.327)" fill="#707070"/>
        <path id="Path_682" data-name="Path 682" d="M140.048,65.17V60.026h-3.429V65.17h-3.429V60.026H129.76V65.17a1.715,1.715,0,0,0-1.715,1.715v5.144a6.871,6.871,0,0,0,5.144,6.641V90.889a5.15,5.15,0,0,1-5.144,5.144h-8.573v-58.3a1.715,1.715,0,0,0-1.715-1.715h-1.612a24.969,24.969,0,1,0-44.785,0H69.749a1.715,1.715,0,0,0-1.715,1.715v63.441a1.715,1.715,0,0,0,1.715,1.715h48.009a1.715,1.715,0,0,0,1.715-1.715V99.462h8.573a8.583,8.583,0,0,0,8.573-8.573V78.67a6.871,6.871,0,0,0,5.144-6.641V66.884A1.715,1.715,0,0,0,140.048,65.17ZM93.753,3.444a21.54,21.54,0,1,1-21.54,21.54A21.54,21.54,0,0,1,93.753,3.444ZM80.036,99.462H71.463V39.451h1.95a25.177,25.177,0,0,0,6.623,6.387Zm17.146,0H90.324V96.033h6.858Zm0-6.858H90.324V89.174h6.858Zm0-6.858H90.324V82.316h6.858Zm6.858,13.717h-3.429V80.6A1.715,1.715,0,0,0,98.9,78.887H88.609A1.715,1.715,0,0,0,86.895,80.6V99.462H83.466V58.311h20.575Zm0-44.58H83.466V47.734a24.956,24.956,0,0,0,20.575,0Zm12,44.58H107.47V45.838a25.177,25.177,0,0,0,6.623-6.387h1.95Zm22.29-27.434a3.429,3.429,0,0,1-6.858,0V68.6h6.858Z" transform="translate(-68.034 0)" fill="#707070"/>
      </g>
      <g id="battery" transform="translate(755.507 1786.723)">
        <path id="Path_683" data-name="Path 683" d="M80.051,45.4V38.881a8.844,8.844,0,0,0,8.589-8.835V24.582a2.77,2.77,0,0,0,2.752-2.767V15.254a2.77,2.77,0,0,0-2.767-2.768H86.008V1.687a1.687,1.687,0,1,0-3.374,0v10.8h-8.54V1.687a1.687,1.687,0,1,0-3.374,0v10.8H68.107a2.773,2.773,0,0,0-2.772,2.768v6.561a2.772,2.772,0,0,0,2.752,2.767v5.463a8.844,8.844,0,0,0,8.589,8.835V45.4a14.985,14.985,0,0,0,0,29.776v1.331A6.5,6.5,0,0,1,70.19,83H40.066a6.5,6.5,0,0,1-6.486-6.5V71.735H48.665a4.632,4.632,0,0,0,4.625-4.628V47.184a1.687,1.687,0,1,0-3.374,0V67.107a1.269,1.269,0,0,1-1.251,1.254H15.125a1.269,1.269,0,0,1-1.251-1.254v-55a1.269,1.269,0,0,1,1.251-1.254h33.54a1.269,1.269,0,0,1,1.251,1.254V32.035a1.687,1.687,0,1,0,3.374,0V12.107a4.632,4.632,0,0,0-4.625-4.628h-3.19V5.427A5.431,5.431,0,0,0,40.052,0H23.733a5.431,5.431,0,0,0-5.423,5.427V7.479H15.125A4.632,4.632,0,0,0,10.5,12.107v55a4.632,4.632,0,0,0,4.625,4.628h15.08v4.773a9.876,9.876,0,0,0,9.861,9.869H70.19a9.876,9.876,0,0,0,9.861-9.869V75.178a14.985,14.985,0,0,0,0-29.776ZM21.685,5.427a2.053,2.053,0,0,1,2.048-2.052H40.052A2.053,2.053,0,0,1,42.1,5.427V7.479H21.685ZM68.71,15.86H88.017v5.349H68.71Zm2.752,14.185V24.583h13.8v5.462a5.467,5.467,0,0,1-5.455,5.467H76.916A5.467,5.467,0,0,1,71.462,30.045Zm6.9,41.855a11.61,11.61,0,1,1,11.6-11.612A11.616,11.616,0,0,1,78.364,71.9Z" transform="translate(-10.5 0)" fill="#707070"/>
        <path id="Path_684" data-name="Path 684" d="M393.529,313.041h-2.847l2.25-4.524a1.687,1.687,0,0,0-3.021-1.5l-3.463,6.963a1.7,1.7,0,0,0,1.514,2.438h2.846l-2.249,4.531a1.687,1.687,0,1,0,3.022,1.5l3.459-6.968a1.693,1.693,0,0,0-1.511-2.437Z" transform="translate(-322.881 -254.44)" fill="#707070"/>
        <path id="Path_685" data-name="Path 685" d="M54.15,86.342a1.687,1.687,0,0,0-1.687,1.687v46.707a1.687,1.687,0,0,0,1.687,1.687H79.406a1.687,1.687,0,0,0,1.687-1.687V88.029a1.687,1.687,0,0,0-1.687-1.687Zm23.569,46.707H55.837v-8.094H77.719Zm0-11.468H55.837v-7.52H77.719Zm0-10.894H55.837v-8.514H77.719Zm0-11.888H55.837V89.716H77.719Z" transform="translate(-45.384 -71.775)" fill="#707070"/>
        <path id="Path_686" data-name="Path 686" d="M245.818,224.783a1.687,1.687,0,0,0-1.687,1.687v0a1.687,1.687,0,1,0,1.687-1.692Z" transform="translate(-204.716 -186.86)" fill="#707070"/>
      </g>
      <g id="flash-off" transform="translate(1203.27 1774.524)">
        <g id="Group_218" data-name="Group 218" transform="translate(20.757)">
          <g id="Group_217" data-name="Group 217">
            <path id="Path_687" data-name="Path 687" d="M165.781,31.91a1.72,1.72,0,0,0-1.442-.778H153.166l12.754-28.7A1.733,1.733,0,0,0,164.339,0H129.748a1.724,1.724,0,0,0-1.723,1.861l.885,11.567a1.766,1.766,0,0,0,1.858,1.591,1.731,1.731,0,0,0,1.591-1.858l-.744-9.7h30.06l-12.754,28.7a1.733,1.733,0,0,0,1.581,2.435h11.214l-3.21,7.482a1.729,1.729,0,0,0,.91,2.269,1.7,1.7,0,0,0,.681.142,1.731,1.731,0,0,0,1.591-1.048l4.241-9.893A1.737,1.737,0,0,0,165.781,31.91Z" transform="translate(-128.02 0)" fill="#707070"/>
          </g>
        </g>
        <g id="Group_220" data-name="Group 220" transform="translate(22.463 22.485)">
          <g id="Group_219" data-name="Group 219">
            <path id="Path_688" data-name="Path 688" d="M166.937,164.764a1.731,1.731,0,0,0-2.283.879l-11.183,25.165-2.812-28.095a1.727,1.727,0,0,0-1.719-1.557h-5.317l-1.633-20.893a1.728,1.728,0,1,0-3.445.273l1.754,22.484a1.725,1.725,0,0,0,1.723,1.595h5.355l3.3,33.034a1.722,1.722,0,0,0,1.446,1.536,1.825,1.825,0,0,0,.273.021,1.729,1.729,0,0,0,1.581-1.027l13.836-31.132A1.731,1.731,0,0,0,166.937,164.764Z" transform="translate(-138.539 -138.673)" fill="#707070"/>
          </g>
        </g>
        <g id="Group_222" data-name="Group 222" transform="translate(0 0.003)">
          <g id="Group_221" data-name="Group 221">
            <path id="Path_689" data-name="Path 689" d="M82.516,80.081,2.957.522A1.729,1.729,0,0,0,.511,2.968L80.07,82.527a1.729,1.729,0,0,0,2.446-2.446Z" transform="translate(-0.005 -0.016)" fill="#707070"/>
          </g>
        </g>
      </g>
    </g>
  </g>
</svg>
