<svg xmlns="http://www.w3.org/2000/svg" width="1385" height="1163" viewBox="0 0 1385 1163">
  <g id="Group_3183" data-name="Group 3183" transform="translate(-271 -5672)">
    <rect id="Rectangle_1039" data-name="Rectangle 1039" width="1385" height="1163" transform="translate(271 5672)" fill="#fff"/>
    <g id="Group_3102" data-name="Group 3102">
      <line id="Line_21" data-name="Line 21" x2="254" transform="translate(733.5 5684.5)" fill="none" stroke="#4bff83" stroke-width="2"/>
      <path id="Path_5467" data-name="Path 5467" d="M5.281.048H263.607" transform="translate(987.854 5684.5)" fill="none" stroke="#24bcff" stroke-width="2"/>
      <g id="undraw_online_articles_79ff" transform="translate(532 5870)">
        <rect id="Rectangle_54" data-name="Rectangle 54" width="182" height="332" transform="translate(615.007 108)" fill="#e6e6e6"/>
        <path id="Path_538" data-name="Path 538" d="M788,596.61H936v-298H788Z" transform="translate(-155.997 -173.61)" fill="#fff"/>
        <rect id="Rectangle_55" data-name="Rectangle 55" width="43.223" height="4.014" transform="translate(688.874 188.915)" fill="#e6e6e6"/>
        <rect id="Rectangle_56" data-name="Rectangle 56" width="75.335" height="4.014" transform="translate(688.874 202.8)" fill="#e6e6e6"/>
        <rect id="Rectangle_57" data-name="Rectangle 57" width="75.261" height="4.014" transform="translate(688.874 216.685)" fill="#e6e6e6"/>
        <rect id="Rectangle_58" data-name="Rectangle 58" width="32.111" height="32.111" transform="translate(647.805 188.974)" fill="#e6e6e6"/>
        <rect id="Rectangle_59" data-name="Rectangle 59" width="43.223" height="4.014" transform="translate(688.874 257.915)" fill="#e6e6e6"/>
        <rect id="Rectangle_60" data-name="Rectangle 60" width="75.335" height="4.014" transform="translate(688.874 271.8)" fill="#e6e6e6"/>
        <rect id="Rectangle_61" data-name="Rectangle 61" width="75.261" height="4.014" transform="translate(688.874 285.685)" fill="#e6e6e6"/>
        <rect id="Rectangle_62" data-name="Rectangle 62" width="32.111" height="32.111" transform="translate(647.805 257.974)" fill="#e6e6e6"/>
        <rect id="Rectangle_63" data-name="Rectangle 63" width="43.223" height="4.014" transform="translate(688.874 326.915)" fill="#e6e6e6"/>
        <rect id="Rectangle_64" data-name="Rectangle 64" width="75.335" height="4.014" transform="translate(688.874 340.8)" fill="#e6e6e6"/>
        <rect id="Rectangle_65" data-name="Rectangle 65" width="75.261" height="4.014" transform="translate(688.874 354.685)" fill="#e6e6e6"/>
        <rect id="Rectangle_66" data-name="Rectangle 66" width="32.111" height="32.111" transform="translate(647.805 326.974)" fill="#e6e6e6"/>
        <rect id="Rectangle_67" data-name="Rectangle 67" width="182" height="332" transform="translate(107.007 108)" fill="#e6e6e6"/>
        <path id="Path_539" data-name="Path 539" d="M280,596.61H428v-298H280Z" transform="translate(-155.997 -173.61)" fill="#fff"/>
        <rect id="Rectangle_68" data-name="Rectangle 68" width="43.223" height="4.014" transform="translate(180.874 188.915)" fill="#e6e6e6"/>
        <rect id="Rectangle_69" data-name="Rectangle 69" width="75.335" height="4.014" transform="translate(180.874 202.8)" fill="#e6e6e6"/>
        <rect id="Rectangle_70" data-name="Rectangle 70" width="75.261" height="4.014" transform="translate(180.874 216.685)" fill="#e6e6e6"/>
        <rect id="Rectangle_71" data-name="Rectangle 71" width="32.111" height="32.111" transform="translate(139.805 188.974)" fill="#e6e6e6"/>
        <rect id="Rectangle_72" data-name="Rectangle 72" width="43.223" height="4.014" transform="translate(180.874 257.915)" fill="#e6e6e6"/>
        <rect id="Rectangle_73" data-name="Rectangle 73" width="75.335" height="4.014" transform="translate(180.874 271.8)" fill="#e6e6e6"/>
        <rect id="Rectangle_74" data-name="Rectangle 74" width="75.261" height="4.014" transform="translate(180.874 285.685)" fill="#e6e6e6"/>
        <rect id="Rectangle_75" data-name="Rectangle 75" width="32.111" height="32.111" transform="translate(139.805 257.974)" fill="#e6e6e6"/>
        <rect id="Rectangle_76" data-name="Rectangle 76" width="43.223" height="4.014" transform="translate(180.874 326.915)" fill="#e6e6e6"/>
        <rect id="Rectangle_77" data-name="Rectangle 77" width="75.335" height="4.014" transform="translate(180.874 340.8)" fill="#e6e6e6"/>
        <rect id="Rectangle_78" data-name="Rectangle 78" width="75.261" height="4.014" transform="translate(180.874 354.685)" fill="#e6e6e6"/>
        <rect id="Rectangle_79" data-name="Rectangle 79" width="32.111" height="32.111" transform="translate(139.805 326.974)" fill="#e6e6e6"/>
        <ellipse id="Ellipse_66" data-name="Ellipse 66" cx="444.003" cy="18" rx="444.003" ry="18" transform="translate(0 431)" fill="#e6e6e6"/>
        <rect id="Rectangle_80" data-name="Rectangle 80" width="247.783" height="452" transform="translate(328.115)" fill="#3f3d56"/>
        <path id="Path_540" data-name="Path 540" d="M494.82,614.11H721.188v-429H494.82Z" transform="translate(-155.997 -173.61)" fill="#fff"/>
        <rect id="Rectangle_81" data-name="Rectangle 81" width="58.846" height="5.465" transform="translate(428.681 110.161)" fill="#849281"/>
        <rect id="Rectangle_82" data-name="Rectangle 82" width="102.564" height="5.465" transform="translate(428.681 129.065)" fill="#e6e6e6"/>
        <rect id="Rectangle_83" data-name="Rectangle 83" width="102.463" height="5.465" transform="translate(428.681 147.969)" fill="#e6e6e6"/>
        <rect id="Rectangle_84" data-name="Rectangle 84" width="43.718" height="43.718" transform="translate(372.768 110.242)" fill="#849281"/>
        <rect id="Rectangle_85" data-name="Rectangle 85" width="58.846" height="5.465" transform="translate(428.681 204.101)" fill="#849281"/>
        <rect id="Rectangle_86" data-name="Rectangle 86" width="102.564" height="5.465" transform="translate(428.681 223.005)" fill="#e6e6e6"/>
        <rect id="Rectangle_87" data-name="Rectangle 87" width="102.463" height="5.465" transform="translate(428.681 241.909)" fill="#e6e6e6"/>
        <rect id="Rectangle_88" data-name="Rectangle 88" width="43.718" height="43.718" transform="translate(372.768 204.182)" fill="#849281"/>
        <rect id="Rectangle_89" data-name="Rectangle 89" width="58.846" height="5.465" transform="translate(428.681 298.04)" fill="#849281"/>
        <rect id="Rectangle_90" data-name="Rectangle 90" width="102.564" height="5.465" transform="translate(428.681 316.944)" fill="#e6e6e6"/>
        <rect id="Rectangle_91" data-name="Rectangle 91" width="102.463" height="5.465" transform="translate(428.681 335.849)" fill="#e6e6e6"/>
        <rect id="Rectangle_92" data-name="Rectangle 92" width="43.718" height="43.718" transform="translate(372.768 298.121)" fill="#849281"/>
      </g>
      <line id="Line_24" data-name="Line 24" x2="510" transform="translate(733.5 6395.5)" fill="none" stroke="#707070" stroke-width="1"/>
      <g id="Group_143" data-name="Group 143" transform="translate(60 -532)">
        <line id="Line_20" data-name="Line 20" y1="223.36" transform="translate(673.5 6216.5)" fill="none" stroke="#4bff83" stroke-width="2"/>
        <path id="Polygon_1" data-name="Polygon 1" d="M3.5,0,7,6H0Z" transform="translate(677 6445) rotate(180)" fill="#4bfe83"/>
      </g>
      <g id="Group_144" data-name="Group 144" transform="translate(60 -532)">
        <line id="Line_22" data-name="Line 22" y1="223.349" transform="translate(1190.5 6216.5)" fill="none" stroke="#24bcff" stroke-width="2"/>
        <g id="Polygon_2" data-name="Polygon 2" transform="translate(1194 6445) rotate(180)" fill="#727a7a">
          <path d="M 5.258962631225586 5 L 1.741037487983704 5 L 3.5 1.984635710716248 L 5.258962631225586 5 Z" stroke="none"/>
          <path d="M 3.5 0 L 7 6 L 0 6 L 3.5 0 Z" stroke="none" fill="#24bcff"/>
        </g>
      </g>
      <g id="Group_142" data-name="Group 142" transform="translate(983.503 5684.5)">
        <line id="Line_23" data-name="Line 23" y1="67.857" transform="translate(3.5)" fill="none" stroke="#49fe87" stroke-width="2"/>
        <path id="Polygon_3" data-name="Polygon 3" d="M3.5,0,7,5.293H0Z" transform="translate(7 71.978) rotate(180)" fill="#47fe8b"/>
      </g>
      <text id="Web-based_Centralised_Dashboard_" data-name="Web-based Centralised Dashboard*" transform="translate(737 6352)" fill="#707070" font-size="25" font-family="OpenSans-Bold, Open Sans" font-weight="700"><tspan x="30.949" y="27">Web-based Centralised Dashboard*</tspan></text>
      <text id="Web-based_Centralised_Dashboard_2" data-name="Web-based Centralised Dashboard*" transform="translate(746 5765)" fill="#21232a" font-size="32" font-family="OpenSans-Bold, Open Sans" font-weight="700"><tspan x="68.992" y="34">Web-based Centralised </tspan><tspan x="156.219" y="68">Dashboard*</tspan></text>
      <text id="Customer_App" data-name="Customer App" transform="translate(1129 5929)" fill="#21232a" font-size="32" font-family="OpenSans-Bold, Open Sans" font-weight="700"><tspan x="8.109" y="34">Customer App</tspan></text>
      <text id="Field-_Agent_App" data-name="Field- Agent App" transform="translate(592 5927)" fill="#21232a" font-size="32" font-family="OpenSans-Bold, Open Sans" font-weight="700"><tspan x="2.133" y="34">Field- Agent App</tspan></text>
      <g id="Group_145" data-name="Group 145" transform="translate(1407 12612.248) rotate(180)">
        <line id="Line_20-2" data-name="Line 20" y1="45.109" transform="translate(673.5 6216.5)" fill="none" stroke="#707070" stroke-width="1"/>
        <path id="Polygon_1-2" data-name="Polygon 1" d="M3.5,0,7,6H0Z" transform="translate(677 6266.749) rotate(180)" fill="#727a7a"/>
      </g>
      <g id="Group_146" data-name="Group 146" transform="translate(1917 12612.248) rotate(180)">
        <line id="Line_20-3" data-name="Line 20" y1="45.109" transform="translate(673.5 6216.5)" fill="none" stroke="#707070" stroke-width="2"/>
        <path id="Polygon_1-3" data-name="Polygon 1" d="M3.5,0,7,6H0Z" transform="translate(677 6266.749) rotate(180)" fill="#727a7a"/>
      </g>
      <g id="Group_147" data-name="Group 147" transform="translate(990.503 5684.5)">
        <line id="Line_23-2" data-name="Line 23" y1="67.857" transform="translate(3.5)" fill="none" stroke="#24bcff" stroke-width="2"/>
        <g id="Polygon_3-2" data-name="Polygon 3" transform="translate(7 71.978) rotate(180)" fill="#23beff">
          <path d="M 5.139915466308594 4.293081760406494 L 1.860084652900696 4.293081760406494 L 3.5 1.813023805618286 L 5.139915466308594 4.293081760406494 Z" stroke="none"/>
          <path d="M 3.5 1.9073486328125e-06 L 7 5.293081760406494 L 0 5.293081760406494 L 3.5 1.9073486328125e-06 Z" stroke="none" fill="#24bcff"/>
        </g>
      </g>
      <text id="View_Connection_profile_Pending_payment_balance_etc._Request_for_Package_Change_Log-in_Complaints" data-name="View Connection profile, Pending payment, balance, etc.

Request for Package Change

Log-in Complaints" transform="translate(1379 5973)" fill="#21232a" font-size="30" font-family="OpenSans-Regular, Open Sans"><tspan x="0" y="32">View Connection </tspan><tspan x="0" y="64">profile, Pending </tspan><tspan x="0" y="96">payment, balance, </tspan><tspan x="0" y="128">etc.</tspan><tspan x="0" y="160"></tspan><tspan x="0" y="192">Request for </tspan><tspan x="0" y="224">Package Change</tspan><tspan x="0" y="256"></tspan><tspan x="0" y="288">Log-in Complaints</tspan></text>
      <text id="Plant_Related_Data_Entry_Input_Supply_side_generation_data_Input_demand_side_transactional_data_Customer_Related_Transactions_Add_delete_upgrade_customers_View_customer_and_plant_level_dues" data-name="Plant Related Data Entry

Input Supply side, generation data

Input demand side &amp; transactional data

Customer Related Transactions

Add/delete/upgrade
customers

View customer and plant level dues" transform="translate(321 5973)" fill="#21232a" font-size="30" font-family="OpenSans-Bold, Open Sans" font-weight="700"><tspan x="0" y="32">Plant Related Data </tspan><tspan x="0" y="66">Entry</tspan><tspan font-family="OpenSans-Regular, Open Sans" font-weight="400"><tspan x="0" y="100"></tspan><tspan x="0" y="134">Input Supply side, </tspan><tspan x="0" y="168">generation data</tspan><tspan x="0" y="202"></tspan><tspan x="0" y="236">Input demand side </tspan><tspan x="0" y="270">&amp; transactional data</tspan><tspan x="0" y="304"></tspan></tspan><tspan x="0" y="338">Customer Related </tspan><tspan x="0" y="372">Transactions</tspan><tspan font-family="OpenSans-Regular, Open Sans" font-weight="400"><tspan x="0" y="406"></tspan><tspan x="0" y="440">Add/delete/upgrade</tspan><tspan x="0" y="474">customers</tspan><tspan x="0" y="508"></tspan><tspan x="0" y="542">View customer and </tspan><tspan x="0" y="576">plant level dues</tspan></tspan></text>
      <text id="Monitor_plant_cluster_portfolio_level_performance_Monitor_total_billing_collection_dues_Monitor_generation_consumption_losses_Monitor_on-going_schemes_Monitor_performance_targets_and_gaps_for_each_field_agent_Monitor_operational_costs_Monitor_on-g" data-name="Monitor plant/cluster/portfolio level performance

Monitor total billing, collection dues

Monitor generation, consumption, losses

Monitor on-going schemes

Monitor performance targets and gaps for each field agent

Monitor operational costs

Monitor on-g" transform="translate(686 6414)" fill="#21232a" font-size="30" font-family="OpenSans-Regular, Open Sans"><tspan x="0" y="32">Monitor plant/cluster/portfolio level performance</tspan><tspan x="0" y="62"></tspan><tspan x="0" y="92">Monitor total billing, collection dues</tspan><tspan x="0" y="122"></tspan><tspan x="0" y="152">Monitor generation, consumption, losses</tspan><tspan x="0" y="182"></tspan><tspan x="0" y="212">Monitor on-going schemes</tspan><tspan x="0" y="242"></tspan><tspan x="0" y="272">Monitor performance targets and gaps for each field agent</tspan><tspan x="0" y="302"></tspan><tspan x="0" y="332">Monitor operational costs</tspan><tspan x="0" y="362"></tspan><tspan x="0" y="392">Monitor on-ground team performance against set metrics</tspan></text>
      <circle id="Ellipse_375" data-name="Ellipse 375" cx="4" cy="4" r="4" transform="translate(1348 5991)" fill="#707070"/>
      <circle id="Ellipse_376" data-name="Ellipse 376" cx="4" cy="4" r="4" transform="translate(1348 6155)" fill="#707070"/>
      <circle id="Ellipse_377" data-name="Ellipse 377" cx="4" cy="4" r="4" transform="translate(1348 6249)" fill="#707070"/>
      <circle id="Ellipse_379" data-name="Ellipse 379" cx="4" cy="4" r="4" transform="translate(290 6092)" fill="#707070"/>
      <circle id="Ellipse_380" data-name="Ellipse 380" cx="4" cy="4" r="4" transform="translate(290 6195)" fill="#707070"/>
      <circle id="Ellipse_382" data-name="Ellipse 382" cx="4" cy="4" r="4" transform="translate(657 6433)" fill="#707070"/>
      <circle id="Ellipse_383" data-name="Ellipse 383" cx="4" cy="4" r="4" transform="translate(657 6493)" fill="#707070"/>
      <circle id="Ellipse_384" data-name="Ellipse 384" cx="4" cy="4" r="4" transform="translate(657 6553)" fill="#707070"/>
      <circle id="Ellipse_385" data-name="Ellipse 385" cx="4" cy="4" r="4" transform="translate(657 6613)" fill="#707070"/>
      <circle id="Ellipse_386" data-name="Ellipse 386" cx="4" cy="4" r="4" transform="translate(657 6672)" fill="#707070"/>
      <circle id="Ellipse_387" data-name="Ellipse 387" cx="4" cy="4" r="4" transform="translate(657 6732)" fill="#707070"/>
      <circle id="Ellipse_472" data-name="Ellipse 472" cx="4" cy="4" r="4" transform="translate(290 6395)" fill="#707070"/>
      <circle id="Ellipse_473" data-name="Ellipse 473" cx="4" cy="4" r="4" transform="translate(290 6502)" fill="#707070"/>
      <circle id="Ellipse_474" data-name="Ellipse 474" cx="4" cy="4" r="4" transform="translate(657 6792)" fill="#707070"/>
    </g>
  </g>
</svg>
