<svg xmlns="http://www.w3.org/2000/svg" width="3140" height="3821" viewBox="0 0 3140 3821">
  <g id="Group_3192" data-name="Group 3192" transform="translate(4667 1478)">
    <path id="Path_5510" data-name="Path 5510" d="M0,0H3140V3821H0Z" transform="translate(-4667 -1478)" fill="#fff"/>
    <g id="Group_3191" data-name="Group 3191" transform="translate(-262.001 -166.449)">
      <rect id="Rectangle_1001" data-name="Rectangle 1001" width="500" height="300" transform="translate(-2287 1535)" fill="rgba(252,195,28,0.16)"/>
      <rect id="Rectangle_997" data-name="Rectangle 997" width="500" height="300" transform="translate(-2975 2000)" fill="#bde8c6"/>
      <rect id="Rectangle_996" data-name="Rectangle 996" width="500" height="300" transform="translate(-2975 1535)" fill="#e4fcff"/>
      <rect id="Rectangle_995" data-name="Rectangle 995" width="500" height="300" transform="translate(-2975 1093)" fill="#bde8c6"/>
      <rect id="Rectangle_994" data-name="Rectangle 994" width="500" height="300" transform="translate(-2975 650)" fill="#e4fcff"/>
      <rect id="Rectangle_1002" data-name="Rectangle 1002" width="500" height="300" transform="translate(-2287 2000)" fill="#e4fcff"/>
      <rect id="Rectangle_990" data-name="Rectangle 990" width="500" height="300" transform="translate(-3669 2000)" fill="#e4fcff"/>
      <rect id="Rectangle_989" data-name="Rectangle 989" width="500" height="300" transform="translate(-3669 1535)" fill="#e4fcff"/>
      <rect id="Rectangle_988" data-name="Rectangle 988" width="500" height="300" transform="translate(-3669 1093)" fill="#e4fcff"/>
      <rect id="Rectangle_987" data-name="Rectangle 987" width="500" height="300" transform="translate(-3669 650)" fill="#e4fcff"/>
      <rect id="Rectangle_993" data-name="Rectangle 993" width="500" height="300" transform="translate(-2975 194)" fill="rgba(252,195,28,0.16)"/>
      <rect id="Rectangle_986" data-name="Rectangle 986" width="500" height="300" transform="translate(-3669 197)" fill="#e4fcff"/>
      <rect id="Rectangle_1000" data-name="Rectangle 1000" width="500" height="300" transform="translate(-2287 -259)" fill="#e4fcff"/>
      <rect id="Rectangle_992" data-name="Rectangle 992" width="500" height="300" transform="translate(-2975 -259)" fill="#bde8c6"/>
      <rect id="Rectangle_984" data-name="Rectangle 984" width="500" height="300" transform="translate(-3669 -705)" fill="rgba(252,195,28,0.16)"/>
      <rect id="Rectangle_985" data-name="Rectangle 985" width="500" height="300" transform="translate(-3669 -259)" fill="rgba(252,195,28,0.16)"/>
      <rect id="Rectangle_241" data-name="Rectangle 241" width="500" height="300" transform="translate(-3669 -1162)" fill="rgba(252,195,28,0.16)"/>
      <rect id="Rectangle_998" data-name="Rectangle 998" width="500" height="300" transform="translate(-2975 -1162)" fill="rgba(252,195,28,0.16)"/>
      <rect id="Rectangle_999" data-name="Rectangle 999" width="500" height="300" transform="translate(-2287 -1162)" fill="#e4fcff"/>
      <text id="Customer_given_hard_copy_of_supplier_s_commitments" data-name="Customer given
hard copy of
supplier’s
commitments" transform="translate(-2964 215)" fill="#21232a" font-size="54" font-family="OpenSans-Regular, Open Sans"><tspan x="44.51" y="58">Customer given</tspan><tspan x="84.047" y="116">hard copy of</tspan><tspan x="122.161" y="174">supplier’s</tspan><tspan x="67.001" y="232">commitments</tspan></text>
      <text id="Survey_potential_Customers_within_30m_of_Distribution_poles" data-name="Survey potential
Customers within
30m of
Distribution poles" transform="translate(-3646 -1141)" fill="#21232a" font-size="54" font-family="OpenSans-Regular, Open Sans"><tspan x="20.984" y="58">Survey potential</tspan><tspan x="4.162" y="116">Customers within</tspan><tspan x="136.538" y="174">30m of</tspan><tspan x="1.143" y="232">Distribution poles</tspan></text>
      <text id="Data_entry_templates_on_the_field_force_app" data-name="Data entry
templates on the
field force app" transform="translate(-2259 -1108)" fill="#21232a" font-size="54" font-family="OpenSans-Regular, Open Sans"><tspan x="92.861" y="58">Data entry</tspan><tspan x="11.096" y="116">templates on the</tspan><tspan x="43.884" y="174">field force app</tspan></text>
      <text id="Identify_customer_segments_and_asses_requirements" data-name="Identify customer
segments
and asses
requirements" transform="translate(-2957 -1144)" fill="#21232a" font-size="54" font-family="OpenSans-Regular, Open Sans"><tspan x="8.147" y="58">Identify customer</tspan><tspan x="107.433" y="116">segments</tspan><tspan x="105.548" y="174">and asses</tspan><tspan x="57.968" y="232">requirements</tspan></text>
      <text id="Door-to-door_group_Discussion_leaflets_Word-of-mouth" data-name="Door-to-door,
group Discussion,
leaflets
Word-of-mouth" transform="translate(-3653 -687)" fill="#21232a" font-size="54" font-family="OpenSans-Regular, Open Sans"><tspan x="59.162" y="58">Door-to-door,</tspan><tspan x="9.341" y="116">group Discussion,</tspan><tspan x="141.968" y="174">leaflets</tspan><tspan x="36.697" y="232">Word-of-mouth</tspan></text>
      <text id="In-person_acquisition_during_field_personnel_visit" data-name="In-person
acquisition
during field
personnel visit" transform="translate(-3641 -240)" fill="#21232a" font-size="54" font-family="OpenSans-Regular, Open Sans"><tspan x="99.237" y="58">In-person</tspan><tspan x="83.733" y="116">acquisition</tspan><tspan x="76.654" y="174">during field</tspan><tspan x="36.866" y="232">personnel visit</tspan></text>
      <text id="or_referral_self-referral_through_customer_app" data-name="or referral 
 self-referral
through
‘customer app" transform="translate(-2936 -237)" fill="#21232a" font-size="54" font-family="OpenSans-Regular, Open Sans"><tspan x="85.302" y="58">or referral </tspan><tspan x="59.937" y="116" xml:space="preserve"> self-referral</tspan><tspan x="112.631" y="174">through</tspan><tspan x="34.861" y="232">‘customer app</tspan></text>
      <text id="Connection_request_assigned_to_sales_team" data-name="Connection
request assigned
to sales team" transform="translate(-2259 -208)" fill="#21232a" font-size="54" font-family="OpenSans-Regular, Open Sans"><tspan x="81.272" y="58">Connection</tspan><tspan x="10.477" y="116">request assigned</tspan><tspan x="57.568" y="174">to sales team</tspan></text>
      <text id="Required_info_KYC_ID_Proof_entered_into_field_force_app" data-name="Required info,
KYC, ID Proof
entered into field
force app" transform="translate(-3651 223)" fill="#21232a" font-size="54" font-family="OpenSans-Regular, Open Sans"><tspan x="55.51" y="58">Required info,</tspan><tspan x="66.875" y="116">KYC, ID Proof</tspan><tspan x="15.617" y="174">entered into field</tspan><tspan x="112.898" y="232">force app</tspan></text>
      <text id="Assign_package_to_customer_using_field_force_app" data-name="Assign package
to customer
using field
force app" transform="translate(-3638 676)" fill="#21232a" font-size="54" font-family="OpenSans-Regular, Open Sans"><tspan x="26.903" y="58">Assign package</tspan><tspan x="66.216" y="116">to customer</tspan><tspan x="89.34" y="174">using field</tspan><tspan x="98.898" y="232">force app</tspan></text>
      <text id="Security_deposit_and_activation_charge_notifications" data-name="Security deposit
and activation
charge
notifications" transform="translate(-2927 678)" fill="#21232a" font-size="54" font-family="OpenSans-Regular, Open Sans"><tspan x="0.818" y="58">Security deposit</tspan><tspan x="24.839" y="116">and activation</tspan><tspan x="116.597" y="174">charge</tspan><tspan x="46.79" y="232">notifications</tspan></text>
      <text id="Customer_profile_created_with_unique_ID" data-name="Customer profile
created with
unique ID" transform="translate(-3648 1142)" fill="#21232a" font-size="54" font-family="OpenSans-Regular, Open Sans"><tspan x="16.546" y="58">Customer profile</tspan><tspan x="72.788" y="116">created with</tspan><tspan x="106.538" y="174">unique ID</tspan></text>
      <text id="Customer_profile_pushed_to_customer_app" data-name="Customer profile
pushed to
customer app" transform="translate(-2943 1140)" fill="#21232a" font-size="54" font-family="OpenSans-Regular, Open Sans"><tspan x="7.546" y="58">Customer profile</tspan><tspan x="92.884" y="116">pushed to</tspan><tspan x="45.449" y="174">customer app</tspan></text>
      <text id="Sales_team_submit_connection_details_to_technical_team" data-name="Sales team
submit connection
details to
technical team" transform="translate(-3659 1559)" fill="#21232a" font-size="54" font-family="OpenSans-Regular, Open Sans"><tspan x="105.484" y="58">Sales team</tspan><tspan x="7.965" y="116">submit connection</tspan><tspan x="126.367" y="174">details to</tspan><tspan x="57.97" y="232">technical team</tspan></text>
      <text id="Meter_ID_selected_from_inventory_and_assigned_to_customer" data-name="Meter ID selected
from inventory
and assigned
to customer" transform="translate(-2967 1559)" fill="#21232a" font-size="54" font-family="OpenSans-Regular, Open Sans"><tspan x="23.452" y="58">Meter ID selected</tspan><tspan x="56.279" y="116">from inventory</tspan><tspan x="78.19" y="174">and assigned</tspan><tspan x="91.716" y="232">to customer</tspan></text>
      <text id="Meter_installed_by_technical_team" data-name="Meter installed
by
technical team" transform="translate(-2256 1593)" fill="#21232a" font-size="54" font-family="OpenSans-Regular, Open Sans"><tspan x="31.08" y="58">Meter installed</tspan><tspan x="189.349" y="116">by</tspan><tspan x="35.47" y="174">technical team</tspan></text>
      <text id="Technical_team_confirm_connection_using_field_force_app" data-name="Technical team
confirm
connection using
field force app" transform="translate(-3636 2016)" fill="#21232a" font-size="54" font-family="OpenSans-Regular, Open Sans"><tspan x="28.065" y="58">Technical team</tspan><tspan x="119.651" y="116">confirm</tspan><tspan x="3.293" y="174">connection using</tspan><tspan x="36.384" y="232">field force app</tspan></text>
      <text id="Customer_account_activated" data-name="Customer
account
activated" transform="translate(-2902 2052)" fill="#21232a" font-size="54" font-family="OpenSans-Regular, Open Sans"><tspan x="44.391" y="58">Customer</tspan><tspan x="68.292" y="116">account</tspan><tspan x="54.001" y="174">activated</tspan></text>
      <text id="Customer_added_to_plant_register" data-name="Customer added
to plant register" transform="translate(-2252 2074)" fill="#21232a" font-size="54" font-family="OpenSans-Regular, Open Sans"><tspan x="5.077" y="58">Customer added</tspan><tspan x="14.767" y="116">to plant register</tspan></text>
      <text id="Catchment_Survey" data-name="Catchment
Survey" transform="translate(-4022 -939)" fill="#21232a" font-size="54" font-family="OpenSans-Bold, Open Sans" font-weight="700"><tspan x="-148.79" y="0">Catchment</tspan><tspan x="-91.547" y="74">Survey</tspan></text>
      <text id="Marketing" transform="translate(-4021 -460)" fill="#21232a" font-size="54" font-family="OpenSans-Bold, Open Sans" font-weight="700"><tspan x="-139.68" y="0">Marketing</tspan></text>
      <text id="Customer_Acquisition" data-name="Customer
Acquisition" transform="translate(-4019 -43)" fill="#21232a" font-size="55" font-family="OpenSans-Bold, Open Sans" font-weight="700"><tspan x="-133.969" y="0">Customer</tspan><tspan x="-154.473" y="75">Acquisition</tspan></text>
      <text id="Customer_KYC" data-name="Customer
KYC" transform="translate(-4018 417)" fill="#21232a" font-size="55" font-family="OpenSans-Bold, Open Sans" font-weight="700"><tspan x="-133.969" y="0">Customer</tspan><tspan x="-52.946" y="75">KYC</tspan></text>
      <text id="Package_Assignment" data-name="Package
Assignment" transform="translate(-4022 822)" fill="#21232a" font-size="54" font-family="OpenSans-Bold, Open Sans" font-weight="700"><tspan x="-111.401" y="0">Package</tspan><tspan x="-158.638" y="74">Assignment</tspan></text>
      <text id="Meter_Installation" data-name="Meter
Installation" transform="translate(-4022 1744)" fill="#21232a" font-size="54" font-family="OpenSans-Bold, Open Sans" font-weight="700"><tspan x="-81.343" y="0">Meter</tspan><tspan x="-155.342" y="74">Installation</tspan></text>
      <text id="Customer_Activation" data-name="Customer
Activation" transform="translate(-4017 2210)" fill="#21232a" font-size="55" font-family="OpenSans-Bold, Open Sans" font-weight="700"><tspan x="-133.969" y="0">Customer</tspan><tspan x="-141.125" y="75">Activation</tspan></text>
      <g id="survey_1_" data-name="survey (1)" transform="translate(-4066.891 -1146.827)">
        <path id="Path_935" data-name="Path 935" d="M34.142,25A19.142,19.142,0,1,0,53.285,44.142,19.165,19.165,0,0,0,34.142,25Zm0,34.8A15.662,15.662,0,1,1,49.8,44.142,15.68,15.68,0,0,1,34.142,59.8Z" transform="translate(9.363 16.765)" fill="#707070"/>
        <path id="Path_936" data-name="Path 936" d="M81.05,67.128V75.6l12.709-8.471h2.953a8.711,8.711,0,0,0,8.7-8.7V37.545a8.711,8.711,0,0,0-8.7-8.7H87.4a10.424,10.424,0,0,0-19.664,0h-9.31a8.693,8.693,0,0,0-1.74.176V16.662a8.711,8.711,0,0,0-8.7-8.7h-9.31a10.424,10.424,0,0,0-19.664,0H9.7a8.711,8.711,0,0,0-8.7,8.7V37.545a8.711,8.711,0,0,0,8.7,8.7h13.97A25.928,25.928,0,0,0,22.629,76.1l-2.487,2.487-1.74-1.74L3.313,91.94A7.893,7.893,0,0,0,14.475,103.1L29.564,88.011l-1.74-1.74,2.487-2.487A26.063,26.063,0,0,0,70.083,67.128Zm6.961-34.8h8.7a5.227,5.227,0,0,1,5.221,5.221V58.427a5.227,5.227,0,0,1-5.221,5.221H92.7L84.531,69.1v-5.45H70.52c.038-.578.089-1.152.089-1.74s-.05-1.162-.089-1.74H94.972v-3.48A17.42,17.42,0,0,0,84,40.533,10.422,10.422,0,0,0,88.011,32.324ZM82.658,56.687,81.595,43.364a13.944,13.944,0,0,1,9.9,13.323Zm-4.6-13.9,1.11,13.9H75.974l1.109-13.892c.164-.005.324-.03.487-.03S77.893,42.784,78.055,42.79Zm-5.574,13.9h-2.4a25.9,25.9,0,0,0-3.454-8.569,13.876,13.876,0,0,1,6.916-4.733ZM77.57,25.363a6.961,6.961,0,1,1-6.961,6.961A6.968,6.968,0,0,1,77.57,25.363ZM67.128,32.324a10.423,10.423,0,0,0,4,8.205,17.379,17.379,0,0,0-6.613,4.652,26.18,26.18,0,0,0-11.292-7.845,5.216,5.216,0,0,1,5.2-5.012ZM39.285,11.441h8.7a5.227,5.227,0,0,1,5.221,5.221V30.629a8.656,8.656,0,0,0-3.36,5.731,25.777,25.777,0,0,0-3.6-.465V35.8A17.42,17.42,0,0,0,35.275,19.65,10.422,10.422,0,0,0,39.285,11.441ZM14.922,35.8a13.943,13.943,0,0,1,9.9-13.323L23.755,35.8Zm13.436-13.9c.162-.005.322-.024.486-.024s.324.019.486.024l1.11,13.9H27.248Zm4.509.574a13.943,13.943,0,0,1,9.9,13.323H33.932Zm-4.023-18a6.961,6.961,0,1,1-6.961,6.961A6.968,6.968,0,0,1,28.844,4.48ZM4.48,37.545V16.662A5.227,5.227,0,0,1,9.7,11.441h8.7a10.422,10.422,0,0,0,4.009,8.209A17.42,17.42,0,0,0,11.441,35.8v3.48h20.1a26.2,26.2,0,0,0-4.719,3.48H9.7A5.227,5.227,0,0,1,4.48,37.545Zm7.533,63.1a4.413,4.413,0,1,1-6.24-6.24L18.4,81.771l6.24,6.24ZM25.363,83.81,22.6,81.05l2.139-2.139a26.489,26.489,0,0,0,2.76,2.76Zm19.142.72A22.623,22.623,0,1,1,67.128,61.908,22.649,22.649,0,0,1,44.506,84.531Z" transform="translate(-1 -1)" fill="#707070"/>
        <path id="Path_937" data-name="Path 937" d="M75.545,45H44.221A5.227,5.227,0,0,0,39,50.221V71.1a5.227,5.227,0,0,0,5.221,5.221H75.545A5.227,5.227,0,0,0,80.765,71.1V50.221A5.227,5.227,0,0,0,75.545,45Zm1.74,26.1a1.742,1.742,0,0,1-1.74,1.74H44.221a1.742,1.742,0,0,1-1.74-1.74V50.221a1.742,1.742,0,0,1,1.74-1.74H75.545a1.742,1.742,0,0,1,1.74,1.74Z" transform="translate(27.128 31.57)" fill="#707070"/>
        <path id="Path_938" data-name="Path 938" d="M67.363,52.48h-3.48V62.922H60.4V55.961h-3.48v6.961h-3.48v-3.48h-3.48v3.48H46.48V49H43V66.4H70.844v-3.48h-3.48Z" transform="translate(30.089 34.531)" fill="#707070"/>
        <path id="Path_939" data-name="Path 939" d="M55,21h3.48v3.48H55Z" transform="translate(38.972 13.804)" fill="#707070"/>
        <path id="Path_940" data-name="Path 940" d="M55,25h3.48v3.48H55Z" transform="translate(38.972 16.765)" fill="#707070"/>
        <path id="Path_941" data-name="Path 941" d="M5,9H8.48v3.48H5Z" transform="translate(1.961 4.922)" fill="#707070"/>
        <path id="Path_942" data-name="Path 942" d="M5,13H8.48v3.48H5Z" transform="translate(1.961 7.883)" fill="#707070"/>
      </g>
      <path id="marketing-2" data-name="marketing" d="M92.8,46.827A11.87,11.87,0,0,0,81.089,26.536L73.678,13.7A8.007,8.007,0,0,0,59.97,13.43a117.783,117.783,0,0,1-35.68,36.09,1.914,1.914,0,0,0-.64,2.518c.078.143,12.355,21.4,12.436,21.545A1.913,1.913,0,0,0,39.4,71.67L27.887,51.729A121.548,121.548,0,0,0,63.206,15.47a4.181,4.181,0,0,1,7.158.142L96.9,61.579a4.181,4.181,0,0,1-3.457,6.27A121.613,121.613,0,0,0,42.759,81.121c-.067.034-17.965,10.369-19.2,11.081a6.706,6.706,0,0,1-9.152-2.452L4.721,72.967a6.707,6.707,0,0,1,2.452-9.152l11.661-6.732a1.913,1.913,0,0,0-1.913-3.313L5.261,60.5A10.537,10.537,0,0,0,1.408,74.88L11.1,91.662a10.537,10.537,0,0,0,14.378,3.852l.441-.255,11.962,20.719a6.216,6.216,0,0,0,8.5,2.276l4.2-2.422a6.215,6.215,0,0,0,2.276-8.5L44.367,92.653a1.913,1.913,0,0,0-3.313,1.913l8.478,14.684a2.392,2.392,0,0,1-.876,3.269l-4.2,2.422a2.392,2.392,0,0,1-3.269-.876L29.229,93.347,44.545,84.5A117.779,117.779,0,0,1,93.6,71.671a8.006,8.006,0,0,0,6.62-12.006Zm-.546-13.211a8.058,8.058,0,0,1-1.4,9.833L83.039,29.913A8.043,8.043,0,0,1,92.258,33.616Zm18.709-8.5-4.949,2.857a1.913,1.913,0,1,1-1.913-3.313l4.949-2.857a1.913,1.913,0,0,1,1.913,3.313ZM89.682,14.21l1.207-4.5a1.913,1.913,0,1,1,3.7.99l-1.207,4.5a1.913,1.913,0,1,1-3.7-.99ZM114.7,45.536a1.914,1.914,0,0,1-1.847,1.418c-.346,0-.1.039-5-1.272a1.913,1.913,0,1,1,.99-3.7l4.5,1.207a1.913,1.913,0,0,1,1.353,2.343Z" transform="translate(-4072.205 -680.545)" fill="#707070"/>
      <g id="mentor" transform="translate(-4069.548 -257.754)">
        <path id="Path_879" data-name="Path 879" d="M67.839,52.978a12.066,12.066,0,1,0-13.756,0A18.983,18.983,0,0,0,42,70.646V82.712a1.729,1.729,0,0,0,1.724,1.724H78.2a1.729,1.729,0,0,0,1.724-1.724V70.646A18.983,18.983,0,0,0,67.839,52.978Zm-10.532-2.1a6.875,6.875,0,0,0,3.654-6.085H57.514a3.458,3.458,0,0,1-3.447,3.448,8.517,8.517,0,0,1-1.724-5.171,8.611,8.611,0,1,1,4.964,7.809ZM76.475,80.989H45.447V70.646a15.514,15.514,0,1,1,31.027,0Z" transform="translate(30.397 18.989)" fill="#707070"/>
        <path id="Path_880" data-name="Path 880" d="M56.866,52.978A12.066,12.066,0,1,0,38.422,39.619H32.751v3.447h5.171a12.063,12.063,0,0,0,5.188,9.912,19.022,19.022,0,0,0-8.653,6.792A18.867,18.867,0,0,0,25.822,53a12.07,12.07,0,1,0-13.738-.017A18.624,18.624,0,0,0,5.55,57.235,18.826,18.826,0,0,0,0,70.646V82.712a1.729,1.729,0,0,0,1.724,1.724h65.5a1.729,1.729,0,0,0,1.724-1.724V70.646A18.983,18.983,0,0,0,56.866,52.978ZM10.342,43.066a8.619,8.619,0,0,1,17.237,0,8.517,8.517,0,0,1-1.724,5.171,3.458,3.458,0,0,1-3.447-3.448H18.961a6.875,6.875,0,0,0,3.654,6.085,8.624,8.624,0,0,1-12.273-7.809Zm20.685,27.58V80.989H3.447V70.646a15.5,15.5,0,0,1,29.1-7.464A19.18,19.18,0,0,0,31.027,70.646Zm18.961-36.2A8.668,8.668,0,0,1,57.9,39.619H42.077A8.668,8.668,0,0,1,49.989,34.447Zm-6.895,13.79a8.517,8.517,0,0,1-1.724-5.171H58.607a8.624,8.624,0,0,1-12.273,7.809,6.875,6.875,0,0,0,3.654-6.085H46.541a3.458,3.458,0,0,1-3.447,3.448ZM65.5,80.989H34.475V70.646a15.514,15.514,0,1,1,31.027,0Z" transform="translate(0 18.989)" fill="#707070"/>
        <path id="Path_881" data-name="Path 881" d="M52,47h3.448v3.447H52Z" transform="translate(37.635 30.569)" fill="#707070"/>
        <path id="Path_882" data-name="Path 882" d="M52,51h3.448v3.447H52Z" transform="translate(37.635 33.464)" fill="#707070"/>
        <path id="Path_883" data-name="Path 883" d="M15.895,47v3.447H14.171V60.79H10.724V50.447H9V47Z" transform="translate(6.514 30.569)" fill="#707070"/>
        <path id="Path_884" data-name="Path 884" d="M36.342,18.066H32.895V14.619a1.724,1.724,0,0,1,1.3-1.672l5.59-1.4v-2.1H29.447v1.724H26V7.724A1.723,1.723,0,0,1,27.724,6h13.79a1.723,1.723,0,0,1,1.724,1.724v5.171a1.724,1.724,0,0,1-1.3,1.672l-5.59,1.4Z" transform="translate(18.817 0.895)" fill="#707070"/>
        <path id="Path_885" data-name="Path 885" d="M30,15h3.447v3.447H30Z" transform="translate(21.712 7.409)" fill="#707070"/>
        <path id="Path_886" data-name="Path 886" d="M34.066,45.094a1.7,1.7,0,0,1-.66-.131,1.725,1.725,0,0,1-1.064-1.593V34.751H23.724A1.723,1.723,0,0,1,22,33.027V3.724A1.723,1.723,0,0,1,23.724,2H51.3a1.723,1.723,0,0,1,1.724,1.724v29.3A1.723,1.723,0,0,1,51.3,34.751H45.122l-9.837,9.837A1.724,1.724,0,0,1,34.066,45.094ZM25.447,31.3h8.619a1.723,1.723,0,0,1,1.724,1.724v6.181l7.4-7.4a1.719,1.719,0,0,1,1.219-.505H49.58V5.447H25.447Z" transform="translate(15.922 -2)" fill="#707070"/>
        <path id="Path_887" data-name="Path 887" d="M59.514,46.817a1.721,1.721,0,0,1-1.5-.869l-6.4-11.2h-5.9A1.723,1.723,0,0,1,44,33.027V3.724A1.723,1.723,0,0,1,45.724,2H73.3a1.723,1.723,0,0,1,1.724,1.724v29.3A1.723,1.723,0,0,1,73.3,34.751h-5.9l-6.4,11.2a1.721,1.721,0,0,1-1.5.869ZM47.447,31.3h5.171a1.721,1.721,0,0,1,1.5.869l5.4,9.446,5.4-9.446a1.721,1.721,0,0,1,1.5-.869H71.58V5.447H47.447Z" transform="translate(31.845 -2)" fill="#707070"/>
        <path id="Path_888" data-name="Path 888" d="M17.514,45.094a1.725,1.725,0,0,1-1.324-.619l-8.1-9.724H3.724A1.723,1.723,0,0,1,2,33.027V3.724A1.723,1.723,0,0,1,3.724,2H31.3a1.723,1.723,0,0,1,1.724,1.724v29.3A1.723,1.723,0,0,1,31.3,34.751H19.237V43.37a1.726,1.726,0,0,1-1.724,1.724ZM5.447,31.3H8.895a1.727,1.727,0,0,1,1.324.619l5.571,6.686V33.027A1.723,1.723,0,0,1,17.514,31.3H29.58V5.447H5.447Z" transform="translate(1.447 -2)" fill="#707070"/>
        <path id="Path_889" data-name="Path 889" d="M11.683,21.578a1.719,1.719,0,0,1-1.219-.505L5.293,15.9,7.73,13.464l3.953,3.953,9.124-9.124,2.437,2.437L12.9,21.073a1.719,1.719,0,0,1-1.219.505Z" transform="translate(3.831 2.555)" fill="#707070"/>
        <path id="Path_890" data-name="Path 890" d="M49,8h3.447v3.447H49Z" transform="translate(35.464 2.342)" fill="#707070"/>
        <path id="Path_891" data-name="Path 891" d="M55,8h3.448v3.447H55Z" transform="translate(39.806 2.342)" fill="#707070"/>
        <path id="Path_892" data-name="Path 892" d="M55.895,18.895A6.9,6.9,0,0,1,49,12h3.447a3.447,3.447,0,0,0,6.895,0H62.79A6.9,6.9,0,0,1,55.895,18.895Z" transform="translate(35.464 5.237)" fill="#707070"/>
      </g>
      <text id="Customer_Account_Creation" data-name="Customer
Account
Creation" transform="translate(-4018 1259)" fill="#21232a" font-size="55" font-family="OpenSans-Bold, Open Sans" font-weight="700"><tspan x="-133.969" y="0">Customer</tspan><tspan x="-112.363" y="75">Account</tspan><tspan x="-118.298" y="150">Creation</tspan></text>
      <g id="report" transform="translate(-4066.891 212.548)">
        <path id="Path_907" data-name="Path 907" d="M99.081,50.38H83.967V14.419L69.548,0H0V104.119H83.967V94.043H99.081A5.045,5.045,0,0,0,104.119,89V55.418A5.045,5.045,0,0,0,99.081,50.38ZM73.891,16.793V26.869H43.663V10.076H67.173v6.717Zm-3.359-3.359v-7.7l7.7,7.7ZM80.608,100.76H3.359V3.359H67.173V6.717H40.3V30.228H77.249V16.793h3.359V50.38H45.342A5.045,5.045,0,0,0,40.3,55.418V89a5.045,5.045,0,0,0,5.038,5.038H80.608ZM100.76,89a1.682,1.682,0,0,1-1.679,1.679H45.342A1.682,1.682,0,0,1,43.663,89V55.418a1.682,1.682,0,0,1,1.679-1.679H99.081a1.682,1.682,0,0,1,1.679,1.679Zm0,0" fill="#707070"/>
        <path id="Path_908" data-name="Path 908" d="M254.228,275.359A3.362,3.362,0,0,0,250.869,272H227.359A3.362,3.362,0,0,0,224,275.359v10.076a3.362,3.362,0,0,0,3.359,3.359h23.511a3.362,3.362,0,0,0,3.359-3.359Zm-3.359,10.076H227.359l0-10.076h23.512Zm0,0" transform="translate(-176.979 -214.903)" fill="#707070"/>
        <path id="Path_909" data-name="Path 909" d="M384,272h16.793v3.359H384Zm0,0" transform="translate(-303.392 -214.903)" fill="#707070"/>
        <path id="Path_910" data-name="Path 910" d="M384,304h16.793v3.359H384Zm0,0" transform="translate(-303.392 -240.185)" fill="#707070"/>
        <path id="Path_911" data-name="Path 911" d="M224,368h6.717v3.359H224Zm0,0" transform="translate(-176.979 -290.75)" fill="#707070"/>
        <path id="Path_912" data-name="Path 912" d="M272,368h6.717v3.359H272Zm0,0" transform="translate(-214.903 -290.75)" fill="#707070"/>
        <path id="Path_913" data-name="Path 913" d="M320,368h6.717v3.359H320Zm0,0" transform="translate(-252.827 -290.75)" fill="#707070"/>
        <path id="Path_914" data-name="Path 914" d="M224,400h26.869v3.359H224Zm0,0" transform="translate(-176.979 -316.033)" fill="#707070"/>
        <path id="Path_915" data-name="Path 915" d="M381.435,352a6.523,6.523,0,0,0-1.173.119c-.119.022-.234.044-.351.072a6.928,6.928,0,0,0-.886.276c-.178.069-.348.152-.519.235-.143.071-.29.134-.43.215a6.628,6.628,0,0,0-3.359-.917,6.717,6.717,0,0,0,0,13.435,6.642,6.642,0,0,0,3.359-.915c.139.08.285.144.43.215.171.083.341.166.519.235a6.822,6.822,0,0,0,.886.276c.116.026.234.05.351.072A6.711,6.711,0,1,0,381.435,352Zm-10.076,6.717a3.362,3.362,0,0,1,3.359-3.359,3.216,3.216,0,0,1,.863.133,6.458,6.458,0,0,0,0,6.452,3.212,3.212,0,0,1-.863.133A3.362,3.362,0,0,1,371.359,358.717Zm10.076,3.359a3.186,3.186,0,0,1-1.118-.207c-.026-.008-.052-.015-.077-.024a3.43,3.43,0,0,1-1.038-.646l-.2-.176a3.327,3.327,0,0,1,0-4.618l.188-.17a3.427,3.427,0,0,1,1.04-.645c.027-.011.053-.016.08-.025a3.352,3.352,0,1,1,1.117,6.511Zm0,0" transform="translate(-290.75 -278.109)" fill="#707070"/>
        <path id="Path_916" data-name="Path 916" d="M60.945,314.832l-6.6,7.8H32v23.511H58.869V322.634h-.125L63.511,317Zm-5.434,27.954H35.359V325.993H51.5l-7.849,9.276-3.747-3.746L37.532,333.9l6.329,6.33,11.651-13.771v16.33Zm0,0" transform="translate(-25.283 -248.743)" fill="#707070"/>
        <path id="Path_917" data-name="Path 917" d="M68.945,67.295a8.432,8.432,0,0,0-6.091-8.074L57.19,57.6v-.857a11.743,11.743,0,0,0,5.038-9.632V43.755a11.755,11.755,0,0,0-23.511,0v3.359a11.74,11.74,0,0,0,5.038,9.632V57.6l-5.664,1.619A8.428,8.428,0,0,0,32,67.295V72.3H68.945ZM42.076,47.114V43.755a8.4,8.4,0,0,1,16.793,0v3.359a8.4,8.4,0,1,1-16.793,0ZM53.561,58.445l-3.088,3.088-3.088-3.088a11.438,11.438,0,0,0,6.176,0Zm12.026,10.5H35.359V67.295a5.061,5.061,0,0,1,3.654-4.845l5.933-1.694,5.527,5.527L56,60.755l5.933,1.694a5.064,5.064,0,0,1,3.654,4.845Zm0,0" transform="translate(-25.283 -25.283)" fill="#707070"/>
        <path id="Path_918" data-name="Path 918" d="M32,240H62.228v3.359H32Zm0,0" transform="translate(-25.283 -189.62)" fill="#707070"/>
        <path id="Path_919" data-name="Path 919" d="M32,272H62.228v3.359H32Zm0,0" transform="translate(-25.283 -214.903)" fill="#707070"/>
        <path id="Path_920" data-name="Path 920" d="M32,304H52.152v3.359H32Zm0,0" transform="translate(-25.283 -240.185)" fill="#707070"/>
        <path id="Path_921" data-name="Path 921" d="M224,208h30.228v3.359H224Zm0,0" transform="translate(-176.979 -164.337)" fill="#707070"/>
        <path id="Path_922" data-name="Path 922" d="M224,176h30.228v3.359H224Zm0,0" transform="translate(-176.979 -139.055)" fill="#707070"/>
      </g>
      <g id="Delivery" transform="translate(-4064.234 637.679)">
        <path id="Path_872" data-name="Path 872" d="M101.016,7H12.342L7.883,2.535A1.675,1.675,0,1,0,5.513,4.9l34.806,34.8L14.26,65.766,4.581,56.088a1.675,1.675,0,1,0-2.369,2.369l6.675,6.675V92.423A1.675,1.675,0,0,0,10.563,94.1h29.66l6.018,6.018a4.915,4.915,0,0,0,3.467,1.461h.131a4.931,4.931,0,0,0,3.518-1.462,4.986,4.986,0,0,0,1.057-1.556,5.058,5.058,0,0,0,7.107-2.365,4.893,4.893,0,0,0,2.471.648,5.193,5.193,0,0,0,3.578-1.461,5.025,5.025,0,0,0,.988-1.4A5.047,5.047,0,0,0,74.9,94.1h26.114a1.675,1.675,0,0,0,1.675-1.675V8.671A1.675,1.675,0,0,0,101.016,7Zm-38.526,3.35V27.1h-13.4V10.346Zm-50.251,80.4V68.482l.838.838a1.675,1.675,0,0,0,2.369,0l2.369-2.369.441.441a8.4,8.4,0,0,1,2.178,3.8l.295,1.137a11.741,11.741,0,0,0,3.055,5.328L36.873,90.748Zm59.543,1.065a1.732,1.732,0,0,1-1.159-.479L67.56,88.271h0a1.675,1.675,0,1,0-2.37,2.369,1.675,1.675,0,0,1,0,2.369,1.608,1.608,0,0,1-1.209.481,1.707,1.707,0,0,1-1.161-.479l-2.369-2.369a1.675,1.675,0,0,0-2.367,2.368h0a1.675,1.675,0,0,1,0,2.363,1.752,1.752,0,0,1-1.206.481,1.439,1.439,0,0,1-1.162-.481l-2.369-2.363a1.675,1.675,0,0,0-2.37,2.369,1.675,1.675,0,0,1,0,2.369,1.546,1.546,0,0,1-1.206.481,1.653,1.653,0,0,1-1.162-.481L26.163,75.291a8.375,8.375,0,0,1-2.178-3.8l-.3-1.137a11.747,11.747,0,0,0-3.054-5.327l-.441-.441L37.948,46.815,39.637,48.5a5.015,5.015,0,0,0,2.427,1.34l8.375,1.923a25.173,25.173,0,0,1,14.441,9.38l8.56,11.367-.156.156a3.32,3.32,0,0,1-2.367.982h0a3.335,3.335,0,0,1-2.369-.983L64.36,68.478a4.082,4.082,0,0,0-2.911-1.209h0a4.214,4.214,0,0,0-2.958,7.189L72.868,88.835a1.814,1.814,0,0,1,.238,2.389h0a1.765,1.765,0,0,1-1.325.59Zm27.56-1.065H76.757a5.307,5.307,0,0,0-1.531-4.286L60.85,72.085a.853.853,0,0,1-.248-.6.908.908,0,0,1,.293-.647.769.769,0,0,1,1.087,0l4.188,4.188a6.663,6.663,0,0,0,4.737,1.965h0a6.648,6.648,0,0,0,4.735-1.963l1.184-1.184a1.675,1.675,0,0,0,.154-2.193L67.545,59.121A28.519,28.519,0,0,0,51.179,48.5L42.8,46.575a1.685,1.685,0,0,1-.812-.451L40.3,44.436l3.554-3.554a1.675,1.675,0,0,0,0-2.369L15.692,10.346H45.739V28.771a1.675,1.675,0,0,0,1.675,1.675h16.75a1.675,1.675,0,0,0,1.675-1.675V10.346h33.5Z" transform="translate(-1.722 -2.044)" fill="#707070"/>
        <path id="Path_873" data-name="Path 873" d="M48.675,48.35H57.05a1.675,1.675,0,1,0,0-3.35H48.675a1.675,1.675,0,0,0,0,3.35Z" transform="translate(28.843 26.954)" fill="#707070"/>
        <path id="Path_874" data-name="Path 874" d="M56.675,48.35H58.35a1.675,1.675,0,1,0,0-3.35H56.675a1.675,1.675,0,1,0,0,3.35Z" transform="translate(34.243 26.954)" fill="#707070"/>
        <path id="Path_875" data-name="Path 875" d="M48.675,44.35H57.05a1.675,1.675,0,1,0,0-3.35H48.675a1.675,1.675,0,0,0,0,3.35Z" transform="translate(28.843 24.254)" fill="#707070"/>
        <path id="Path_876" data-name="Path 876" d="M56.675,44.35H58.35a1.675,1.675,0,1,0,0-3.35H56.675a1.675,1.675,0,1,0,0,3.35Z" transform="translate(34.243 24.254)" fill="#707070"/>
        <path id="Path_877" data-name="Path 877" d="M58.4,49H46.675a1.675,1.675,0,0,0,0,3.35H58.4a1.675,1.675,0,0,0,0-3.35Z" transform="translate(27.493 29.654)" fill="#707070"/>
        <path id="Path_878" data-name="Path 878" d="M56.675,52.35H58.35a1.675,1.675,0,1,0,0-3.35H56.675a1.675,1.675,0,1,0,0,3.35Z" transform="translate(34.243 29.654)" fill="#707070"/>
      </g>
      <g id="profile" transform="translate(-4061.577 1068.125)">
        <path id="Path_900" data-name="Path 900" d="M89.648,28.481H6.923A6.938,6.938,0,0,0,0,35.419v73.148a5.736,5.736,0,0,0,5.718,5.741H90.853a5.736,5.736,0,0,0,5.718-5.741V35.419a6.938,6.938,0,0,0-6.923-6.938ZM3.772,35.419a3.162,3.162,0,0,1,3.151-3.166H89.648A3.162,3.162,0,0,1,92.8,35.419v11.21H3.772ZM92.8,108.567a1.96,1.96,0,0,1-1.946,1.968H5.718a1.959,1.959,0,0,1-1.946-1.968V50.4H92.8Z" transform="translate(0 -28.481)" fill="#707070"/>
        <path id="Path_901" data-name="Path 901" d="M309.959,76.589h-2.534a1.886,1.886,0,1,0,0,3.772h2.534a1.886,1.886,0,0,0,0-3.772Z" transform="translate(-247.91 -67.515)" fill="#707070"/>
        <path id="Path_902" data-name="Path 902" d="M372.091,76.589h-2.534a1.886,1.886,0,1,0,0,3.772h2.534a1.886,1.886,0,1,0,0-3.772Z" transform="translate(-298.323 -67.515)" fill="#707070"/>
        <path id="Path_903" data-name="Path 903" d="M434.223,76.589h-2.534a1.886,1.886,0,0,0,0,3.772h2.534a1.886,1.886,0,1,0,0-3.772Z" transform="translate(-348.736 -67.515)" fill="#707070"/>
        <path id="Path_904" data-name="Path 904" d="M81.439,76.589H63.153a1.886,1.886,0,1,0,0,3.772H81.439a1.886,1.886,0,1,0,0-3.772Z" transform="translate(-49.711 -67.515)" fill="#707070"/>
        <path id="Path_905" data-name="Path 905" d="M143.714,218.842a26.1,26.1,0,1,0-26.1-26.1A26.132,26.132,0,0,0,143.714,218.842Zm0-48.432a22.33,22.33,0,1,1-22.33,22.33A22.355,22.355,0,0,1,143.714,170.41Z" transform="translate(-95.429 -140.579)" fill="#707070"/>
        <path id="Path_906" data-name="Path 906" d="M194.289,251.876h20.218a1.886,1.886,0,0,0,1.886-1.886v-6.465a8.513,8.513,0,0,0-4.453-7.45,9.717,9.717,0,1,0-15.086,0,8.5,8.5,0,0,0-4.451,7.451v6.465A1.887,1.887,0,0,0,194.289,251.876ZM204.4,224.01a5.945,5.945,0,1,1-5.945,5.945A5.952,5.952,0,0,1,204.4,224.01Zm-8.223,19.515a4.712,4.712,0,0,1,4.3-4.681,9.715,9.715,0,0,0,7.849,0,4.716,4.716,0,0,1,4.3,4.681V248.1H196.176v-4.578Z" transform="translate(-156.113 -184.07)" fill="#707070"/>
      </g>
      <g id="meter" transform="translate(-4064.234 1543.742)">
        <path id="Path_893" data-name="Path 893" d="M86.183,14.786a50.485,50.485,0,0,0-71.4,71.4,50.485,50.485,0,0,0,71.4-71.4ZM83.394,83.394a46.526,46.526,0,0,1-77.022-18.1H41.628a1.972,1.972,0,1,0,0-3.944H5.245a46.53,46.53,0,1,1,90.481,0H59.337a1.972,1.972,0,1,0,0,3.944H94.6A46.255,46.255,0,0,1,83.394,83.394Z" transform="translate(-0.001 0)" fill="#707070"/>
        <path id="Path_894" data-name="Path 894" d="M91.514,61.433a1.972,1.972,0,1,0,3.944,0V52.576a35.751,35.751,0,0,1,9.955,1.98l-1.305,3.155a1.972,1.972,0,1,0,3.645,1.508l1.3-3.151a36.1,36.1,0,0,1,8.182,5.432L111,67.736a1.972,1.972,0,0,0,2.788,2.79l6.267-6.263a36.124,36.124,0,0,1,5.866,8.668l-3.151,1.3a1.972,1.972,0,1,0,1.508,3.645l3.155-1.305a35.745,35.745,0,0,1,1.98,9.955h-8.857a1.972,1.972,0,0,0,0,3.944h10.884a1.4,1.4,0,0,0,.147-.007A1.971,1.971,0,0,0,133.41,88.5a39.92,39.92,0,1,0-79.841,0,1.972,1.972,0,0,0,1.972,1.972H66.425a1.972,1.972,0,0,0,0-3.944H57.568a35.745,35.745,0,0,1,1.98-9.955L62.7,77.879a1.972,1.972,0,0,0,1.508-3.645l-3.152-1.3a36.112,36.112,0,0,1,5.865-8.668l6.262,6.262a1.972,1.972,0,0,0,2.789-2.789L69.739,61.5a36.1,36.1,0,0,1,8.18-5.432l1.308,3.153a1.972,1.972,0,1,0,3.643-1.512l-1.308-3.153a35.738,35.738,0,0,1,9.953-1.98v8.857Z" transform="translate(-43.005 -38.997)" fill="#707070"/>
        <path id="Path_895" data-name="Path 895" d="M231.265,174.968l-.016-.039L226.2,163.105a1.972,1.972,0,0,0-1.813-1.2h0a1.972,1.972,0,0,0-1.813,1.2l-5.048,11.823-.021.051a9.09,9.09,0,0,0-.881,3.563,7.766,7.766,0,1,0,15.532,0A9.125,9.125,0,0,0,231.265,174.968Zm-6.883,7.4a3.826,3.826,0,0,1-3.819-3.825,5.721,5.721,0,0,1,.593-2.085l3.227-7.558,3.231,7.558a5.72,5.72,0,0,1,.593,2.084A3.83,3.83,0,0,1,224.382,182.368Z" transform="translate(-173.901 -129.979)" fill="#707070"/>
        <path id="Path_896" data-name="Path 896" d="M237.859,358.947h-3.419l2.686-5.4a1.972,1.972,0,1,0-3.532-1.756l-4.1,8.251a1.993,1.993,0,0,0,1.771,2.85h3.413l-2.686,5.4a1.972,1.972,0,1,0,3.532,1.756l4.1-8.251a1.98,1.98,0,0,0-1.766-2.85Z" transform="translate(-184.074 -281.537)" fill="#707070"/>
        <path id="Path_897" data-name="Path 897" d="M158.8,385.451h-7a1.972,1.972,0,1,0,0,3.944h7a1.972,1.972,0,1,0,0-3.944Z" transform="translate(-120.286 -309.438)" fill="#707070"/>
        <path id="Path_898" data-name="Path 898" d="M315.619,385.451h-7a1.972,1.972,0,0,0,0,3.944h7a1.972,1.972,0,1,0,0-3.944Z" transform="translate(-246.176 -309.438)" fill="#707070"/>
        <path id="Path_899" data-name="Path 899" d="M247.969,315.042a1.978,1.978,0,1,0-.011,0Z" transform="translate(-197.477 -249.748)" fill="#707070"/>
      </g>
      <g id="Group_352" data-name="Group 352" transform="translate(-4072.206 1987.473)">
        <g id="Outline">
          <path id="Path_927" data-name="Path 927" d="M41.785,162.775h7.14V196.69H52.5V162.775h71.4V196.69h3.57V162.775h7.14a1.785,1.785,0,0,0,1.706-2.31l-7.14-23.2a1.785,1.785,0,0,0-1.706-1.26H122.11v3.57h4.037l6.041,19.635H44.2l6.041-19.635H54.28V136H48.925a1.785,1.785,0,0,0-1.706,1.26l-7.14,23.205a1.785,1.785,0,0,0,1.706,2.31Z" transform="translate(-36.428 -95.94)" fill="#707070"/>
          <rect id="Rectangle_216" data-name="Rectangle 216" width="3.199" height="3.998" transform="translate(48.242 91.652)" fill="#707070"/>
          <path id="Path_928" data-name="Path 928" d="M120,305.785v17.85a1.785,1.785,0,0,0,1.785,1.785h10.71a1.785,1.785,0,0,0,1.785-1.785v-17.85A1.785,1.785,0,0,0,132.495,304h-10.71A1.785,1.785,0,0,0,120,305.785Zm3.57,16.065v-3.57h7.14v3.57Zm7.14-14.28v7.14h-7.14v-7.14Z" transform="translate(-98.578 -226.455)" fill="#707070"/>
          <path id="Path_929" data-name="Path 929" d="M328,305.785v17.85a1.785,1.785,0,0,0,1.785,1.785h10.71a1.785,1.785,0,0,0,1.785-1.785v-17.85A1.785,1.785,0,0,0,340.495,304h-10.71A1.785,1.785,0,0,0,328,305.785Zm3.57,16.065v-3.57h7.14v3.57Zm7.14-14.28v7.14h-7.14v-7.14Z" transform="translate(-260.168 -226.455)" fill="#707070"/>
          <rect id="Rectangle_217" data-name="Rectangle 217" width="3.998" height="3.998" transform="translate(26.651 70.062)" fill="#707070"/>
          <rect id="Rectangle_218" data-name="Rectangle 218" width="3.998" height="3.998" transform="translate(73.031 70.062)" fill="#707070"/>
          <path id="Path_930" data-name="Path 930" d="M105.785,104.13h64.26a1.785,1.785,0,0,0,1.732-2.218l-7.14-28.56A1.785,1.785,0,0,0,162.9,72h-49.98a1.785,1.785,0,0,0-1.732,1.352l-7.14,28.56a1.785,1.785,0,0,0,1.732,2.218Zm40.278-14.28h8.126l1.339,10.71h-8.8Zm-2.908,10.71h-10.48l.669-10.71h9.141Zm2.685-14.28-.669-10.71H152.4l1.339,10.71Zm-3.577,0h-8.695l.669-10.71h7.356Zm-12.272,0h-7.9l1.339-10.71h7.234Zm-.223,3.57-.669,10.71h-8.8l1.339-10.71Zm29.358,10.71-1.339-10.71h7.294l2.677,10.71Zm5.063-14.28h-6.848L156,75.57h5.509Zm-49.87-10.71h5.509l-1.339,10.71h-6.848Zm-3.57,14.28h7.294L116.7,100.56h-8.633Z" transform="translate(-86.148 -46.22)" fill="#707070"/>
          <path id="Path_931" data-name="Path 931" d="M287.362,19.57a26.792,26.792,0,0,1,24.829,36.816l3.309,1.339a30.349,30.349,0,0,0-49-33.415l2.454,2.592A26.663,26.663,0,0,1,287.362,19.57Z" transform="translate(-201.762 -16)" fill="#707070"/>
          <path id="Path_932" data-name="Path 932" d="M118.6,322.775a8.957,8.957,0,0,0-7.279,3.763,7.135,7.135,0,0,0-7.826,10.517H94.711L91.635,330.9a1.785,1.785,0,0,0-1.6-.987h-3.57v-23.2a10.71,10.71,0,1,0-21.42,0v23.2h-3.57a1.785,1.785,0,0,0-1.6.987l-3.077,6.153H48.024A7.136,7.136,0,0,0,40.2,326.538a8.925,8.925,0,1,0-7.28,14.087H118.6a8.925,8.925,0,0,0,0-17.85ZM68.618,306.71a7.14,7.14,0,1,1,14.28,0v23.2H68.618Zm-6.037,26.775H88.935l1.785,3.57H60.8Zm-20.738,3.57H32.918a5.355,5.355,0,1,1,4.866-7.591,1.785,1.785,0,0,0,2.435.842,3.527,3.527,0,0,1,1.624-.391,3.57,3.57,0,1,1,0,7.14Zm76.755,0h-8.925a3.57,3.57,0,1,1,0-7.14,3.527,3.527,0,0,1,1.624.391,1.785,1.785,0,0,0,2.435-.842,5.355,5.355,0,1,1,4.866,7.591Z" transform="translate(-23.992 -220.24)" fill="#707070"/>
        </g>
        <g id="security_1_" data-name="security (1)" transform="translate(81.692 17.853)">
          <path id="Path_934" data-name="Path 934" d="M21.209,31.076a2.031,2.031,0,0,1-1.438-.6l-5.425-5.425a2.035,2.035,0,1,1,2.878-2.878l3.89,3.887L34.491,14.193a2.036,2.036,0,0,1,3.063,2.683L22.745,30.384a2.064,2.064,0,0,1-1.468.692Z" transform="translate(-13.75 -13.501)" fill="#707070"/>
        </g>
      </g>
      <line id="Line_268" data-name="Line 268" y1="3655.725" transform="translate(-3765.313 -1229.551)" fill="none" stroke="rgba(112,112,112,0.53)" stroke-width="1" opacity="0.497"/>
      <line id="Line_35" data-name="Line 35" x1="2561.418" transform="translate(-4313.999 -779.869)" fill="none" stroke="rgba(112,112,112,0.53)" stroke-width="1" opacity="0.502"/>
      <path id="Path_5464" data-name="Path 5464" d="M0,3655.725V0" transform="translate(-3074.474 -1229.551)" fill="none" stroke="rgba(112,112,112,0.53)" stroke-width="1" opacity="0.497"/>
      <line id="Line_270" data-name="Line 270" y1="3655.725" transform="translate(-2383.635 -1229.551)" fill="none" stroke="rgba(112,112,112,0.53)" stroke-width="1" opacity="0.497"/>
      <line id="Line_271" data-name="Line 271" x1="2561.418" transform="translate(-4313.999 -328.167)" fill="none" stroke="rgba(112,112,112,0.53)" stroke-width="1" opacity="0.502"/>
      <line id="Line_272" data-name="Line 272" x1="2561.418" transform="translate(-4313.999 123.536)" fill="none" stroke="rgba(112,112,112,0.53)" stroke-width="1" opacity="0.502"/>
      <line id="Line_273" data-name="Line 273" x1="1930.364" transform="translate(-4313.999 575.238)" fill="none" stroke="rgba(112,112,112,0.53)" stroke-width="1" opacity="0.502"/>
      <line id="Line_274" data-name="Line 274" x1="1930.364" transform="translate(-4313.999 1026.941)" fill="none" stroke="rgba(112,112,112,0.53)" stroke-width="1" opacity="0.502"/>
      <line id="Line_275" data-name="Line 275" x1="1930.364" transform="translate(-4313.999 1478.643)" fill="none" stroke="rgba(112,112,112,0.53)" stroke-width="1" opacity="0.502"/>
      <line id="Line_276" data-name="Line 276" x1="2561.418" transform="translate(-4313.999 1930.346)" fill="none" stroke="rgba(112,112,112,0.53)" stroke-width="1" opacity="0.502"/>
      <rect id="Rectangle_258" data-name="Rectangle 258" width="346" height="165" transform="translate(-2232 674)" fill="rgba(252,195,28,0.16)"/>
      <rect id="Rectangle_259" data-name="Rectangle 259" width="346" height="164" transform="translate(-2232 861)" fill="#bde8c6" opacity="0.646"/>
      <rect id="Rectangle_260" data-name="Rectangle 260" width="346" height="161" transform="translate(-2232 1056)" fill="rgba(219,249,255,0.55)"/>
      <text id="Manual" transform="translate(-2060 771)" fill="#21232a" font-size="40" font-family="OpenSans-Bold, Open Sans" font-weight="700"><tspan x="-75.41" y="0">Manual</tspan></text>
      <text id="Automated_Customer_App_" data-name="Automated
(Customer App)" transform="translate(-2061 935)" fill="#21232a" font-size="40" font-family="OpenSans-Bold, Open Sans" font-weight="700"><tspan x="-112.881" y="0">Automated</tspan><tspan x="-155.293" y="49">(Customer App)</tspan></text>
      <text id="Automated_Field_Force_App_" data-name="Automated
(Field Force App)" transform="translate(-2061 1126)" fill="#21232a" font-size="40" font-family="OpenSans-Bold, Open Sans" font-weight="700"><tspan x="-112.881" y="0">Automated</tspan><tspan x="-165.254" y="49">(Field Force App)</tspan></text>
      <text id="LEGENDS" transform="translate(-2059 627)" fill="#21232a" font-size="46" font-family="OpenSans-Bold, Open Sans" font-weight="700" letter-spacing="0.2em"><tspan x="-131.403" y="0">LEGENDS</tspan></text>
      <g id="Group_3087" data-name="Group 3087" transform="translate(-3763.923 -961.386)">
        <path id="Polygon_9" data-name="Polygon 9" d="M15.5,0,31,26H0Z" transform="translate(25.923 0.386) rotate(90)" fill="#707070" opacity="0.303"/>
        <path id="Polygon_22" data-name="Polygon 22" d="M15.5,0,31,28H0Z" transform="translate(717.923 0.386) rotate(90)" fill="#707070" opacity="0.303"/>
        <path id="Polygon_23" data-name="Polygon 23" d="M15.5,0,31,26H0Z" transform="translate(1407.923 0.386) rotate(90)" fill="#707070" opacity="0.303"/>
      </g>
      <g id="Group_3088" data-name="Group 3088" transform="translate(-3763.923 -571.569)">
        <path id="Polygon_9-2" data-name="Polygon 9" d="M16,0,32,26H0Z" transform="translate(25.923 -0.431) rotate(90)" fill="#707070" opacity="0.303"/>
        <path id="Polygon_22-2" data-name="Polygon 22" d="M16,0,32,28H0Z" transform="translate(717.923 -0.431) rotate(90)" fill="#707070" opacity="0.303"/>
        <path id="Path_5465" data-name="Path 5465" d="M31.885,0h0Z" transform="translate(1381.616 0.28) rotate(90)" fill="#707070" opacity="0.303"/>
      </g>
      <g id="Group_3089" data-name="Group 3089" transform="translate(-3763.923 -116.781)">
        <path id="Polygon_9-3" data-name="Polygon 9" d="M16,0,32,26H0Z" transform="translate(25.923 -0.219) rotate(90)" fill="#707070" opacity="0.303"/>
        <path id="Polygon_22-3" data-name="Polygon 22" d="M16,0,32,28H0Z" transform="translate(717.923 -0.219) rotate(90)" fill="#707070" opacity="0.303"/>
        <path id="Polygon_23-2" data-name="Polygon 23" d="M16,0,32,26H0Z" transform="translate(1407.923 -0.219) rotate(90)" fill="#707070" opacity="0.303"/>
      </g>
      <g id="Group_3090" data-name="Group 3090" transform="translate(-3763.923 334.773)">
        <path id="Polygon_9-4" data-name="Polygon 9" d="M16,0,32,26H0Z" transform="translate(25.923 0.227) rotate(90)" fill="#707070" opacity="0.303"/>
        <path id="Polygon_22-4" data-name="Polygon 22" d="M16,0,32,28H0Z" transform="translate(717.923 0.227) rotate(90)" fill="#707070" opacity="0.303"/>
        <path id="Path_5466" data-name="Path 5466" d="M31.885,0h0Z" transform="translate(1381.616 0) rotate(90)" fill="#707070" opacity="0.303"/>
      </g>
      <g id="Group_3091" data-name="Group 3091" transform="translate(-3763.923 762.474)">
        <path id="Polygon_9-5" data-name="Polygon 9" d="M16,0,32,26H0Z" transform="translate(25.923 -0.473) rotate(90)" fill="#707070" opacity="0.303"/>
        <path id="Polygon_22-5" data-name="Polygon 22" d="M16,0,32,28H0Z" transform="translate(717.923 -0.473) rotate(90)" fill="#707070" opacity="0.303"/>
      </g>
      <g id="Group_3092" data-name="Group 3092" transform="translate(-3763.923 1227.367)">
        <path id="Polygon_9-6" data-name="Polygon 9" d="M16,0,32,26H0Z" transform="translate(25.923 -0.367) rotate(90)" fill="#707070" opacity="0.303"/>
        <path id="Polygon_22-6" data-name="Polygon 22" d="M16,0,32,28H0Z" transform="translate(717.923 -0.367) rotate(90)" fill="#707070" opacity="0.303"/>
      </g>
      <g id="Group_3093" data-name="Group 3093" transform="translate(-3763.923 1666.273)">
        <path id="Polygon_9-7" data-name="Polygon 9" d="M16,0,32,26H0Z" transform="translate(25.923 -0.273) rotate(90)" fill="#707070" opacity="0.303"/>
        <path id="Polygon_22-7" data-name="Polygon 22" d="M16,0,32,28H0Z" transform="translate(717.923 -0.273) rotate(90)" fill="#707070" opacity="0.303"/>
        <path id="Polygon_23-3" data-name="Polygon 23" d="M16,0,32,26H0Z" transform="translate(1407.923 -0.273) rotate(90)" fill="#707070" opacity="0.303"/>
      </g>
      <g id="Group_3094" data-name="Group 3094" transform="translate(-3763.923 2131.167)">
        <path id="Polygon_9-8" data-name="Polygon 9" d="M16,0,32,26H0Z" transform="translate(25.923 -0.166) rotate(90)" fill="#707070" opacity="0.303"/>
        <path id="Polygon_22-8" data-name="Polygon 22" d="M16,0,32,28H0Z" transform="translate(717.923 -0.166) rotate(90)" fill="#707070" opacity="0.303"/>
        <path id="Polygon_23-4" data-name="Polygon 23" d="M16,0,32,26H0Z" transform="translate(1407.923 -0.166) rotate(90)" fill="#707070" opacity="0.303"/>
      </g>
      <g id="Group_3095" data-name="Group 3095" transform="translate(-3763.943 1153.054)" opacity="0.197">
        <g id="Group_349" data-name="Group 349" transform="translate(2155.187)">
          <g id="Group_348" data-name="Group 348">
            <g id="Group_346" data-name="Group 346" transform="translate(50.183)">
              <path id="Path_821" data-name="Path 821" d="M653.141,104.689a34.628,34.628,0,0,0-34.525,34.529V273.876a34.529,34.529,0,0,0,69.059,0V139.219A34.633,34.633,0,0,0,653.141,104.689Zm-1.552,55.588A16.811,16.811,0,1,1,668.4,143.465,16.865,16.865,0,0,1,651.589,160.277Z" transform="translate(-618.616 -104.689)" fill="#77718c"/>
              <path id="Path_822" data-name="Path 822" d="M676.846,104.689h0a34.63,34.63,0,0,0-34.534,34.529V273.876A34.629,34.629,0,0,0,676.846,308.4h0a34.624,34.624,0,0,0,34.525-34.525V139.219A34.625,34.625,0,0,0,676.846,104.689Zm0,55.588a16.811,16.811,0,1,1,16.807-16.811A16.859,16.859,0,0,1,676.846,160.277Z" transform="translate(-540.456 -104.689)" fill="#77718c"/>
            </g>
            <g id="Group_347" data-name="Group 347" transform="translate(39.733)">
              <path id="Path_823" data-name="Path 823" d="M650.719,104.689a34.633,34.633,0,0,0-34.534,34.529V273.876a34.532,34.532,0,0,0,69.064,0V139.219A34.627,34.627,0,0,0,650.719,104.689Zm-1.56,55.588a16.811,16.811,0,1,1,16.815-16.811A16.857,16.857,0,0,1,649.159,160.277Z" transform="translate(-616.185 -104.689)" fill="#8780a0"/>
              <path id="Path_824" data-name="Path 824" d="M674.408,104.689h0a34.625,34.625,0,0,0-34.525,34.529V273.876A34.624,34.624,0,0,0,674.408,308.4h0a34.624,34.624,0,0,0,34.525-34.525V139.219A34.625,34.625,0,0,0,674.408,104.689Zm0,55.588a16.811,16.811,0,1,1,16.811-16.811A16.861,16.861,0,0,1,674.408,160.277Z" transform="translate(-538.018 -104.689)" fill="#8780a0"/>
            </g>
            <path id="Path_825" data-name="Path 825" d="M809.516,161.362a98.026,98.026,0,1,1-196.053,0Z" transform="translate(-585.43 82.245)" fill="#fff"/>
            <path id="Rectangle_154" data-name="Rectangle 154" d="M2.04,0H250.08a2.039,2.039,0,0,1,2.039,2.039V106.908a2.04,2.04,0,0,1-2.04,2.04H2.04A2.04,2.04,0,0,1,0,106.907V2.04A2.04,2.04,0,0,1,2.04,0Z" transform="translate(0 134.658)" fill="#2a1768"/>
          </g>
          <path id="Rectangle_155" data-name="Rectangle 155" d="M2.066,0h98.305a0,0,0,0,1,0,0V108.947a0,0,0,0,1,0,0H2.066A2.066,2.066,0,0,1,0,106.882V2.066A2.066,2.066,0,0,1,2.066,0Z" transform="translate(0 134.658)" fill="#170c4e"/>
          <path id="Path_826" data-name="Path 826" d="M674.952,161.362s1.737,34.62,24.922,57.393c14.735,14.477,38.149,24.166,75.3,17.121,0,0-64.658,57.371-133.841-6.074,0,0-27.867-24.536-27.867-68.44Z" transform="translate(-585.43 82.245)" fill="#c6d5f2"/>
        </g>
        <path id="Path_827" data-name="Path 827" d="M2571,178.434v880.93c0,41.815-51.93,75.713-115.973,75.713H289.753" transform="translate(-289.753 138.555)" fill="none" stroke="#c6d5f2" stroke-miterlimit="10" stroke-width="3"/>
      </g>
    </g>
  </g>
</svg>
