<svg xmlns="http://www.w3.org/2000/svg" width="800" height="1088" viewBox="0 0 800 1088">
  <g id="Group_3197" data-name="Group 3197" transform="translate(-17422 -10247)">
    <rect id="Rectangle_1046" data-name="Rectangle 1046" width="800" height="1088" transform="translate(17422 10247)" fill="#fff"/>
    <g id="Group_3116" data-name="Group 3116" transform="translate(-8.5 -38.5)">
      <line id="Line_278" data-name="Line 278" y2="1047" transform="translate(17637.5 10306.5)" fill="none" stroke="#707070" stroke-width="1"/>
      <line id="Line_279" data-name="Line 279" x2="744.115" transform="translate(17456.5 10478.5)" fill="none" stroke="#707070" stroke-width="1"/>
      <line id="Line_280" data-name="Line 280" x2="744.115" transform="translate(17456.5 10653.5)" fill="none" stroke="#707070" stroke-width="1"/>
      <line id="Line_281" data-name="Line 281" x2="744.115" transform="translate(17456.5 10828.5)" fill="none" stroke="#707070" stroke-width="1"/>
      <line id="Line_282" data-name="Line 282" x2="744.115" transform="translate(17456.5 11003.5)" fill="none" stroke="#707070" stroke-width="1"/>
      <line id="Line_283" data-name="Line 283" x2="744.115" transform="translate(17460.885 11178.5)" fill="none" stroke="#707070" stroke-width="1"/>
      <text id="Home" transform="translate(17697 10354)" fill="#21232a" font-size="54" font-family="OpenSans-Bold, Open Sans" font-weight="700"><tspan x="0" y="58">Home</tspan></text>
      <text id="Dashboard" transform="translate(17697 10527)" fill="#21232a" font-size="54" font-family="OpenSans-Bold, Open Sans" font-weight="700"><tspan x="0" y="58">Dashboard</tspan></text>
      <text id="Cash_Register" data-name="Cash Register" transform="translate(17697 10700)" fill="#21232a" font-size="54" font-family="OpenSans-Bold, Open Sans" font-weight="700"><tspan x="0" y="58">Cash Register</tspan></text>
      <text id="Spark_Server" data-name="Spark Server" transform="translate(17697 10873)" fill="#21232a" font-size="54" font-family="OpenSans-Bold, Open Sans" font-weight="700"><tspan x="0" y="58">Spark Server</tspan></text>
      <text id="Receivable" transform="translate(17697 11053)" fill="#21232a" font-size="54" font-family="OpenSans-Bold, Open Sans" font-weight="700"><tspan x="0" y="58">Receivable</tspan></text>
      <text id="Contacts" transform="translate(17697 11226)" fill="#21232a" font-size="54" font-family="OpenSans-Bold, Open Sans" font-weight="700"><tspan x="0" y="58">Contacts</tspan></text>
      <g id="invoice" transform="translate(17423.791 10704)">
        <g id="Group_2816" data-name="Group 2816" transform="translate(135.068 11.429)">
          <g id="Group_2815" data-name="Group 2815" transform="translate(0)">
            <path id="Path_5043" data-name="Path 5043" d="M324.572,80.161h-2.857a1.069,1.069,0,1,0,0,2.139h2.857a1.069,1.069,0,1,0,0-2.139Z" transform="translate(-320.645 -80.161)" fill="#707070"/>
          </g>
        </g>
        <g id="Group_2818" data-name="Group 2818" transform="translate(135.068 17.144)">
          <g id="Group_2817" data-name="Group 2817" transform="translate(0)">
            <path id="Path_5044" data-name="Path 5044" d="M324.572,120.242h-2.857a1.069,1.069,0,0,0,0,2.139h2.857a1.069,1.069,0,0,0,0-2.139Z" transform="translate(-320.645 -120.242)" fill="#707070"/>
          </g>
        </g>
        <g id="Group_2820" data-name="Group 2820" transform="translate(135.068 22.859)">
          <g id="Group_2819" data-name="Group 2819" transform="translate(0)">
            <path id="Path_5045" data-name="Path 5045" d="M324.572,160.322h-2.857a1.069,1.069,0,1,0,0,2.139h2.857a1.069,1.069,0,1,0,0-2.139Z" transform="translate(-320.645 -160.322)" fill="#707070"/>
          </g>
        </g>
        <g id="Group_2822" data-name="Group 2822" transform="translate(135.068 28.573)">
          <g id="Group_2821" data-name="Group 2821" transform="translate(0)">
            <path id="Path_5046" data-name="Path 5046" d="M324.572,200.4h-2.857a1.069,1.069,0,1,0,0,2.139h2.857a1.069,1.069,0,1,0,0-2.139Z" transform="translate(-320.645 -200.404)" fill="#707070"/>
          </g>
        </g>
        <g id="Group_2824" data-name="Group 2824" transform="translate(135.068 34.288)">
          <g id="Group_2823" data-name="Group 2823" transform="translate(0)">
            <path id="Path_5047" data-name="Path 5047" d="M324.572,240.484h-2.857a1.069,1.069,0,1,0,0,2.139h2.857a1.069,1.069,0,1,0,0-2.139Z" transform="translate(-320.645 -240.484)" fill="#707070"/>
          </g>
        </g>
        <g id="Group_2826" data-name="Group 2826" transform="translate(135.068 40.003)">
          <g id="Group_2825" data-name="Group 2825" transform="translate(0)">
            <path id="Path_5048" data-name="Path 5048" d="M324.572,280.565h-2.857a1.069,1.069,0,1,0,0,2.139h2.857a1.069,1.069,0,1,0,0-2.139Z" transform="translate(-320.645 -280.565)" fill="#707070"/>
          </g>
        </g>
        <g id="Group_2828" data-name="Group 2828" transform="translate(135.068 45.717)">
          <g id="Group_2827" data-name="Group 2827" transform="translate(0)">
            <path id="Path_5049" data-name="Path 5049" d="M324.572,320.646h-2.857a1.069,1.069,0,0,0,0,2.139h2.857a1.069,1.069,0,0,0,0-2.139Z" transform="translate(-320.645 -320.646)" fill="#707070"/>
          </g>
        </g>
        <g id="Group_2830" data-name="Group 2830" transform="translate(111.067 11.429)">
          <g id="Group_2829" data-name="Group 2829" transform="translate(0)">
            <path id="Path_5050" data-name="Path 5050" d="M165.948,80.161H153.376a1.069,1.069,0,1,0,0,2.139h12.572a1.069,1.069,0,1,0,0-2.139Z" transform="translate(-152.307 -80.161)" fill="#707070"/>
          </g>
        </g>
        <g id="Group_2832" data-name="Group 2832" transform="translate(111.067 17.144)">
          <g id="Group_2831" data-name="Group 2831" transform="translate(0)">
            <path id="Path_5051" data-name="Path 5051" d="M169.967,120.242H153.376a1.069,1.069,0,0,0,0,2.139h16.591a1.069,1.069,0,0,0,0-2.139Z" transform="translate(-152.307 -120.242)" fill="#707070"/>
          </g>
        </g>
        <g id="Group_2834" data-name="Group 2834" transform="translate(111.067 22.859)">
          <g id="Group_2833" data-name="Group 2833" transform="translate(0)">
            <path id="Path_5052" data-name="Path 5052" d="M162.52,160.322h-9.143a1.069,1.069,0,1,0,0,2.139h9.143a1.069,1.069,0,1,0,0-2.139Z" transform="translate(-152.307 -160.322)" fill="#707070"/>
          </g>
        </g>
        <g id="Group_2836" data-name="Group 2836" transform="translate(111.067 28.573)">
          <g id="Group_2835" data-name="Group 2835" transform="translate(0)">
            <path id="Path_5053" data-name="Path 5053" d="M165.948,200.4H153.376a1.069,1.069,0,1,0,0,2.139h12.572a1.069,1.069,0,1,0,0-2.139Z" transform="translate(-152.307 -200.404)" fill="#707070"/>
          </g>
        </g>
        <g id="Group_2838" data-name="Group 2838" transform="translate(111.067 34.288)">
          <g id="Group_2837" data-name="Group 2837" transform="translate(0)">
            <path id="Path_5054" data-name="Path 5054" d="M170.52,240.484H153.376a1.069,1.069,0,0,0,0,2.139H170.52a1.069,1.069,0,1,0,0-2.139Z" transform="translate(-152.307 -240.484)" fill="#707070"/>
          </g>
        </g>
        <g id="Group_2840" data-name="Group 2840" transform="translate(111.067 40.003)">
          <g id="Group_2839" data-name="Group 2839" transform="translate(0)">
            <path id="Path_5055" data-name="Path 5055" d="M162.52,280.565h-9.143a1.069,1.069,0,0,0,0,2.139h9.143a1.069,1.069,0,1,0,0-2.139Z" transform="translate(-152.307 -280.565)" fill="#707070"/>
          </g>
        </g>
        <g id="Group_2842" data-name="Group 2842" transform="translate(111.067 45.717)">
          <g id="Group_2841" data-name="Group 2841" transform="translate(0)">
            <path id="Path_5056" data-name="Path 5056" d="M165.948,320.646H153.376a1.069,1.069,0,0,0,0,2.139h12.572a1.069,1.069,0,0,0,0-2.139Z" transform="translate(-152.307 -320.646)" fill="#707070"/>
          </g>
        </g>
        <g id="Group_2844" data-name="Group 2844" transform="translate(116.781 53.718)">
          <g id="Group_2843" data-name="Group 2843" transform="translate(0)">
            <path id="Path_5057" data-name="Path 5057" d="M209.457,376.758h-16a1.069,1.069,0,0,0,0,2.139h16a1.069,1.069,0,1,0,0-2.139Z" transform="translate(-192.387 -376.758)" fill="#707070"/>
          </g>
        </g>
        <g id="Group_2846" data-name="Group 2846" transform="translate(120.21 59.432)">
          <g id="Group_2845" data-name="Group 2845" transform="translate(0)">
            <path id="Path_5058" data-name="Path 5058" d="M226.649,416.839h-9.143a1.069,1.069,0,1,0,0,2.139h9.143a1.069,1.069,0,1,0,0-2.139Z" transform="translate(-216.436 -416.839)" fill="#707070"/>
          </g>
        </g>
        <g id="Group_2848" data-name="Group 2848" transform="translate(104.209 0)">
          <g id="Group_2847" data-name="Group 2847" transform="translate(0 0)">
            <path id="Path_5059" data-name="Path 5059" d="M146.951.139a1.07,1.07,0,0,0-1.077.014l-3.285,1.971L138.935.131a1.069,1.069,0,0,0-1.024,0l-3.679,2.006L130.554.131a1.069,1.069,0,0,0-1.024,0l-3.679,2.006L122.172.131a1.069,1.069,0,0,0-1.024,0L117.47,2.137,113.791.131a1.069,1.069,0,0,0-1.024,0l-3.653,1.993L105.829.153a1.069,1.069,0,0,0-1.62.917V71.931a1.069,1.069,0,0,0,1.62.917l3.285-1.971,3.653,1.993a1.069,1.069,0,0,0,1.024,0l3.679-2.007,3.679,2.007a1.07,1.07,0,0,0,1.024,0l3.679-2.007,3.679,2.007a1.069,1.069,0,0,0,1.024,0l3.679-2.007,3.679,2.007a1.069,1.069,0,0,0,1.024,0l3.653-1.993,3.285,1.971a1.07,1.07,0,0,0,1.62-.917V1.069A1.069,1.069,0,0,0,146.951.139Zm-1.6,69.9h0l-2.19-1.314a1.07,1.07,0,0,0-1.062-.022l-3.679,2.007-3.679-2.007a1.069,1.069,0,0,0-1.024,0l-3.679,2.007-3.679-2.007a1.069,1.069,0,0,0-1.024,0l-3.679,2.007-3.679-2.007a1.069,1.069,0,0,0-1.024,0l-3.679,2.007L109.6,68.706a1.069,1.069,0,0,0-1.062.022l-2.19,1.314V2.958l2.19,1.314a1.07,1.07,0,0,0,1.062.022l3.679-2.006,3.679,2.006a1.069,1.069,0,0,0,1.024,0l3.679-2.006,3.679,2.006a1.069,1.069,0,0,0,1.024,0l3.679-2.006,3.679,2.006a1.07,1.07,0,0,0,1.024,0l3.679-2.006L142.1,4.294a1.07,1.07,0,0,0,1.062-.022l2.19-1.314Z" transform="translate(-104.209 0)" fill="#707070"/>
          </g>
        </g>
      </g>
      <g id="home_1_" data-name="home (1)" transform="translate(17517 10534)">
        <g id="Group_2895" data-name="Group 2895" transform="translate(0 0)">
          <g id="Group_2894" data-name="Group 2894">
            <path id="Path_5221" data-name="Path 5221" d="M54.5,34.583a1.589,1.589,0,0,0-2.082.016l-4.338,3.882v-.509a1.078,1.078,0,1,0-2.155,0v2.439l-1.8,1.608a1.078,1.078,0,0,0,1.438,1.606l7.9-7.074,7.9,7.074a1.078,1.078,0,1,0,1.438-1.606Z" transform="translate(-38.376 -29.889)" fill="#707070"/>
            <path id="Path_5222" data-name="Path 5222" d="M74.8,119.52a1.078,1.078,0,0,0-1.078,1.078v7.544H62.942V120.6a1.078,1.078,0,1,0-2.155,0v8.228A1.49,1.49,0,0,0,62.3,130.3h12.07a1.494,1.494,0,0,0,1.509-1.474V120.6A1.078,1.078,0,0,0,74.8,119.52Z" transform="translate(-53.236 -104.432)" fill="#707070"/>
            <path id="Path_5223" data-name="Path 5223" d="M68.331,221.92a7.544,7.544,0,1,0,7.544,7.544A7.544,7.544,0,0,0,68.331,221.92Zm-5.389,7.544a5.4,5.4,0,0,1,4.311-5.281v4.67l-3.987,2.391A5.313,5.313,0,0,1,62.942,229.464Zm1.434,3.628,3.788-2.272,3.134,3.134A5.337,5.337,0,0,1,64.376,233.092Zm8.445-.662-3.413-3.412v-4.834a5.379,5.379,0,0,1,3.413,8.247Z" transform="translate(-53.236 -193.9)" fill="#707070"/>
            <path id="Path_5224" data-name="Path 5224" d="M268.007,49.275V45.586a1.7,1.7,0,0,0-1.7-1.7h-3.067a1.7,1.7,0,0,0-1.7,1.7v3.689h-2.155V42.518a1.867,1.867,0,0,0-1.864-1.864h-2.737a1.867,1.867,0,0,0-1.864,1.864v6.757h-2.155V37.42a2.155,2.155,0,0,0-2.155-2.155h-2.156A2.155,2.155,0,0,0,244.3,37.42V49.275H243.22a1.078,1.078,0,0,1-1.078-1.078V35.265a1.078,1.078,0,0,0-2.155,0V48.2a3.233,3.233,0,0,0,3.233,3.233h24.787a1.078,1.078,0,1,0,0-2.155Zm-19.4,0h-2.156V37.42h2.156Zm8.622,0h-2.155V42.809h2.155Zm8.622,0H263.7V46.042h2.155v3.233Z" transform="translate(-209.805 -29.876)" fill="#707070"/>
            <path id="Path_5225" data-name="Path 5225" d="M268.007,219.942H243.22a1.078,1.078,0,0,1-1.078-1.078v-1.709l3.549-3.549a1.1,1.1,0,0,1,1.524,0l1.263,1.263a3.233,3.233,0,0,0,4.572,0l4.5-4.5a1.1,1.1,0,0,1,1.524,0l1.263,1.264a3.24,3.24,0,0,0,4.572,0l3.865-3.865a1.078,1.078,0,0,0-1.524-1.524l-3.865,3.864a1.078,1.078,0,0,1-1.524,0l-1.263-1.263a3.311,3.311,0,0,0-4.572,0l-4.5,4.5a1.078,1.078,0,0,1-1.524,0l-1.262-1.263a3.312,3.312,0,0,0-4.573,0l-2.025,2.025v-8.176a1.078,1.078,0,1,0-2.155,0v12.932a3.233,3.233,0,0,0,3.233,3.233h24.787a1.078,1.078,0,1,0,0-2.155Z" transform="translate(-209.805 -178.989)" fill="#707070"/>
            <path id="Path_5226" data-name="Path 5226" d="M65.669,50.117V6.029A5.712,5.712,0,0,0,60.28.053H6.4A5.712,5.712,0,0,0,1.007,6.029V50.117A5.712,5.712,0,0,0,6.4,56.094H23.639v2.155H19.328a4.311,4.311,0,0,0-4.311,4.311v1.078a1.078,1.078,0,0,0,1.078,1.078H50.581a1.078,1.078,0,0,0,1.078-1.078V62.56a4.311,4.311,0,0,0-4.311-4.311H43.037V56.094H60.281A5.712,5.712,0,0,0,65.669,50.117ZM47.348,60.4A2.155,2.155,0,0,1,49.5,62.56H17.172A2.155,2.155,0,0,1,19.328,60.4ZM25.794,58.249V56.094H40.882v2.155ZM60.28,53.938H6.4a3.569,3.569,0,0,1-3.233-3.822V47.472H63.514v2.645A3.569,3.569,0,0,1,60.28,53.938ZM63.514,6.029V45.317H3.162V6.029A3.568,3.568,0,0,1,6.4,2.208H60.281A3.568,3.568,0,0,1,63.514,6.029Z" transform="translate(-1 -0.053)" fill="#707070"/>
          </g>
        </g>
      </g>
      <path id="home-2" data-name="home" d="M65.408,29.014l-.005-.005L38.192,1.8a6.14,6.14,0,0,0-8.685,0L2.31,29l-.027.028A6.138,6.138,0,0,0,6.369,39.486c.063.006.126.009.19.009H7.643V59.519a7.2,7.2,0,0,0,7.188,7.187H25.476a1.954,1.954,0,0,0,1.954-1.954v-15.7a3.283,3.283,0,0,1,3.28-3.279h6.279a3.283,3.283,0,0,1,3.279,3.279v15.7a1.954,1.954,0,0,0,1.954,1.954H52.868a7.2,7.2,0,0,0,7.188-7.187V39.495h1.006a6.142,6.142,0,0,0,4.346-10.481ZM62.64,34.932a2.219,2.219,0,0,1-1.579.654H58.1a1.954,1.954,0,0,0-1.954,1.954V59.519A3.282,3.282,0,0,1,52.868,62.8H44.177V49.052a7.2,7.2,0,0,0-7.188-7.188H30.71a7.2,7.2,0,0,0-7.188,7.188V62.8H14.83a3.283,3.283,0,0,1-3.279-3.279V37.54A1.954,1.954,0,0,0,9.6,35.586H6.688l-.092,0a2.23,2.23,0,0,1-1.537-3.808h0l0,0L32.271,4.563a2.231,2.231,0,0,1,3.156,0l27.2,27.2.013.012A2.237,2.237,0,0,1,62.64,34.932Zm0,0" transform="translate(17515.5 10362)" fill="#707070"/>
      <g id="phone-book" transform="translate(17525 11230)">
        <path id="Path_5227" data-name="Path 5227" d="M95.345,0H54.459a1.742,1.742,0,0,0-1.742,1.742V9.408H50.742a1.742,1.742,0,0,0,0,3.485h1.975V18.7H50.742a1.742,1.742,0,0,0,0,3.485h1.975v5.808H50.742a1.742,1.742,0,0,0,0,3.485h1.975v5.808H50.742a1.742,1.742,0,0,0,0,3.485h1.975v5.808H50.742a1.742,1.742,0,0,0,0,3.485h1.975v7.666a1.742,1.742,0,0,0,1.742,1.742H95.345a1.742,1.742,0,0,0,1.742-1.742V1.742A1.742,1.742,0,0,0,95.345,0ZM93.6,55.986H56.2V50.062h1.975a1.742,1.742,0,1,0,0-3.485H56.2V40.77h1.975a1.742,1.742,0,1,0,0-3.485H56.2V31.478h1.975a1.742,1.742,0,1,0,0-3.485H56.2V22.185h1.975a1.742,1.742,0,1,0,0-3.485H56.2V12.893h1.975a1.742,1.742,0,1,0,0-3.485H56.2V3.485H93.6Z" transform="translate(-49)" fill="#707070"/>
        <path id="Path_5228" data-name="Path 5228" d="M177,162.9a1.742,1.742,0,1,0,3.485,0c0-4.625,2.824-9.408,7.55-9.408s7.55,4.784,7.55,9.408a1.742,1.742,0,1,0,3.485,0c0-4.427-2.021-9.013-5.722-11.355a8.247,8.247,0,1,0-10.626,0C179.021,153.889,177,158.476,177,162.9Zm6.272-17.655a4.762,4.762,0,1,1,4.762,4.762A4.768,4.768,0,0,1,183.272,145.247Z" transform="translate(-162.132 -121.087)" fill="#707070"/>
      </g>
      <g id="server" transform="translate(17518 10883)">
        <g id="Group_2897" data-name="Group 2897">
          <g id="Group_2896" data-name="Group 2896">
            <path id="Path_5229" data-name="Path 5229" d="M59.483,18.784a3.131,3.131,0,0,0,3.131-3.131V3.131A3.131,3.131,0,0,0,59.483,0H3.131A3.131,3.131,0,0,0,0,3.131V15.653a3.131,3.131,0,0,0,3.131,3.131H6.261v3.131H3.131A3.131,3.131,0,0,0,0,25.045V37.568A3.131,3.131,0,0,0,3.131,40.7H6.261v3.131H3.131A3.131,3.131,0,0,0,0,46.96V59.483a3.131,3.131,0,0,0,3.131,3.131H59.483a3.131,3.131,0,0,0,3.131-3.131V46.96a3.131,3.131,0,0,0-3.131-3.131H56.352V40.7h3.131a3.131,3.131,0,0,0,3.131-3.131V25.045a3.131,3.131,0,0,0-3.131-3.131H56.352V18.784Zm0,27.132a1.044,1.044,0,0,1,1.044,1.044V59.483a1.044,1.044,0,0,1-1.044,1.044H3.131a1.044,1.044,0,0,1-1.044-1.044V46.96a1.044,1.044,0,0,1,1.044-1.044ZM8.348,43.829V40.7h2.087v3.131Zm4.174,0V40.7H50.091v3.131Zm39.655,0V40.7h2.087v3.131ZM59.483,24a1.044,1.044,0,0,1,1.044,1.044V37.568a1.044,1.044,0,0,1-1.044,1.044H3.131a1.044,1.044,0,0,1-1.044-1.044V25.045A1.044,1.044,0,0,1,3.131,24ZM8.348,21.915V18.784h2.087v3.131Zm4.174,0V18.784H50.091v3.131Zm39.655,0V18.784h2.087v3.131ZM3.131,16.7a1.044,1.044,0,0,1-1.044-1.044V3.131A1.044,1.044,0,0,1,3.131,2.087H59.483a1.044,1.044,0,0,1,1.044,1.044V15.653A1.044,1.044,0,0,1,59.483,16.7Z" fill="#707070"/>
          </g>
        </g>
        <g id="Group_2899" data-name="Group 2899" transform="translate(6.248 6.26)">
          <g id="Group_2898" data-name="Group 2898">
            <path id="Path_5230" data-name="Path 5230" d="M75.04,50.081H53.977a3.131,3.131,0,1,0,0,2.087H75.04a1.044,1.044,0,0,0,0-2.087Zm-24,2.087a1.044,1.044,0,1,1,1.044-1.044A1.044,1.044,0,0,1,51.039,52.169Z" transform="translate(-47.894 -47.994)" fill="#707070"/>
          </g>
        </g>
        <g id="Group_2901" data-name="Group 2901" transform="translate(45.881 4.047)">
          <g id="Group_2900" data-name="Group 2900" transform="translate(0 0)">
            <rect id="Rectangle_924" data-name="Rectangle 924" width="2" height="2" transform="translate(0.056 -0.112)" fill="#707070"/>
          </g>
        </g>
        <g id="Group_2903" data-name="Group 2903" transform="translate(52.156 4.047)">
          <g id="Group_2902" data-name="Group 2902" transform="translate(0 0)">
            <rect id="Rectangle_925" data-name="Rectangle 925" height="2" transform="translate(-0.218 -0.112)" fill="#707070"/>
          </g>
        </g>
        <g id="Group_2905" data-name="Group 2905" transform="translate(54.248 4.047)">
          <g id="Group_2904" data-name="Group 2904" transform="translate(0 0)">
            <rect id="Rectangle_926" data-name="Rectangle 926" width="2" height="2" transform="translate(-0.31 -0.112)" fill="#707070"/>
          </g>
        </g>
        <g id="Group_2907" data-name="Group 2907" transform="translate(43.79 4.047)">
          <g id="Group_2906" data-name="Group 2906" transform="translate(0 0)">
            <rect id="Rectangle_927" data-name="Rectangle 927" height="2" transform="translate(0.146 -0.112)" fill="#707070"/>
          </g>
        </g>
        <g id="Group_2909" data-name="Group 2909" transform="translate(37.517 4.047)">
          <g id="Group_2908" data-name="Group 2908" transform="translate(0 0)">
            <rect id="Rectangle_928" data-name="Rectangle 928" width="2" height="2" transform="translate(0.42 -0.112)" fill="#707070"/>
          </g>
        </g>
        <g id="Group_2911" data-name="Group 2911" transform="translate(45.881 8.23)">
          <g id="Group_2910" data-name="Group 2910" transform="translate(0 0)">
            <rect id="Rectangle_929" data-name="Rectangle 929" width="2" height="2" transform="translate(0.056 -0.296)" fill="#707070"/>
          </g>
        </g>
        <g id="Group_2913" data-name="Group 2913" transform="translate(52.156 8.23)">
          <g id="Group_2912" data-name="Group 2912" transform="translate(0 0)">
            <rect id="Rectangle_930" data-name="Rectangle 930" height="2" transform="translate(-0.218 -0.296)" fill="#707070"/>
          </g>
        </g>
        <g id="Group_2915" data-name="Group 2915" transform="translate(54.248 8.23)">
          <g id="Group_2914" data-name="Group 2914" transform="translate(0 0)">
            <rect id="Rectangle_931" data-name="Rectangle 931" width="2" height="2" transform="translate(-0.31 -0.296)" fill="#707070"/>
          </g>
        </g>
        <g id="Group_2917" data-name="Group 2917" transform="translate(43.79 8.23)">
          <g id="Group_2916" data-name="Group 2916" transform="translate(0 0)">
            <rect id="Rectangle_932" data-name="Rectangle 932" height="2" transform="translate(0.146 -0.296)" fill="#707070"/>
          </g>
        </g>
        <g id="Group_2919" data-name="Group 2919" transform="translate(37.517 8.23)">
          <g id="Group_2918" data-name="Group 2918" transform="translate(0 0)">
            <rect id="Rectangle_933" data-name="Rectangle 933" width="2" height="2" transform="translate(0.42 -0.296)" fill="#707070"/>
          </g>
        </g>
        <g id="Group_2921" data-name="Group 2921" transform="translate(45.881 10.32)">
          <g id="Group_2920" data-name="Group 2920" transform="translate(0)">
            <rect id="Rectangle_934" data-name="Rectangle 934" width="2" height="5" transform="translate(0.056 -0.385)" fill="#707070"/>
          </g>
        </g>
        <g id="Group_2923" data-name="Group 2923" transform="translate(52.156 10.32)">
          <g id="Group_2922" data-name="Group 2922" transform="translate(0)">
            <rect id="Rectangle_935" data-name="Rectangle 935" height="5" transform="translate(-0.218 -0.385)" fill="#707070"/>
          </g>
        </g>
        <g id="Group_2925" data-name="Group 2925" transform="translate(54.248 10.32)">
          <g id="Group_2924" data-name="Group 2924" transform="translate(0)">
            <rect id="Rectangle_936" data-name="Rectangle 936" width="2" height="5" transform="translate(-0.31 -0.385)" fill="#707070"/>
          </g>
        </g>
        <g id="Group_2927" data-name="Group 2927" transform="translate(43.79 10.32)">
          <g id="Group_2926" data-name="Group 2926" transform="translate(0)">
            <rect id="Rectangle_937" data-name="Rectangle 937" height="5" transform="translate(0.146 -0.385)" fill="#707070"/>
          </g>
        </g>
        <g id="Group_2929" data-name="Group 2929" transform="translate(37.517 10.32)">
          <g id="Group_2928" data-name="Group 2928" transform="translate(0)">
            <rect id="Rectangle_938" data-name="Rectangle 938" width="2" height="5" transform="translate(0.42 -0.385)" fill="#707070"/>
          </g>
        </g>
        <g id="Group_2931" data-name="Group 2931" transform="translate(6.248 28.175)">
          <g id="Group_2930" data-name="Group 2930">
            <path id="Path_5231" data-name="Path 5231" d="M75.04,218.082H53.977a3.131,3.131,0,1,0,0,2.087H75.04a1.044,1.044,0,1,0,0-2.087Zm-24,2.087a1.044,1.044,0,1,1,1.044-1.044A1.044,1.044,0,0,1,51.039,220.169Z" transform="translate(-47.894 -215.994)" fill="#707070"/>
          </g>
        </g>
        <g id="Group_2933" data-name="Group 2933" transform="translate(45.881 27.051)">
          <g id="Group_2932" data-name="Group 2932" transform="translate(0 0)">
            <rect id="Rectangle_939" data-name="Rectangle 939" width="2" transform="translate(0.056 -0.116)" fill="#707070"/>
          </g>
        </g>
        <g id="Group_2935" data-name="Group 2935" transform="translate(52.156 27.051)">
          <g id="Group_2934" data-name="Group 2934" transform="translate(0 0)">
            <rect id="Rectangle_940" data-name="Rectangle 940" transform="translate(-0.218 -0.116)" fill="#707070"/>
          </g>
        </g>
        <g id="Group_2937" data-name="Group 2937" transform="translate(54.248 27.051)">
          <g id="Group_2936" data-name="Group 2936" transform="translate(0 0)">
            <rect id="Rectangle_941" data-name="Rectangle 941" width="2" transform="translate(-0.31 -0.116)" fill="#707070"/>
          </g>
        </g>
        <g id="Group_2939" data-name="Group 2939" transform="translate(43.79 27.051)">
          <g id="Group_2938" data-name="Group 2938" transform="translate(0 0)">
            <rect id="Rectangle_942" data-name="Rectangle 942" transform="translate(0.146 -0.116)" fill="#707070"/>
          </g>
        </g>
        <g id="Group_2941" data-name="Group 2941" transform="translate(37.517 27.051)">
          <g id="Group_2940" data-name="Group 2940" transform="translate(0 0)">
            <rect id="Rectangle_943" data-name="Rectangle 943" width="2" transform="translate(0.42 -0.116)" fill="#707070"/>
          </g>
        </g>
        <g id="Group_2943" data-name="Group 2943" transform="translate(45.881 31.234)">
          <g id="Group_2942" data-name="Group 2942" transform="translate(0 0)">
            <rect id="Rectangle_944" data-name="Rectangle 944" width="2" height="2" transform="translate(0.056 -0.299)" fill="#707070"/>
          </g>
        </g>
        <g id="Group_2945" data-name="Group 2945" transform="translate(52.156 31.234)">
          <g id="Group_2944" data-name="Group 2944" transform="translate(0 0)">
            <rect id="Rectangle_945" data-name="Rectangle 945" height="2" transform="translate(-0.218 -0.299)" fill="#707070"/>
          </g>
        </g>
        <g id="Group_2947" data-name="Group 2947" transform="translate(54.248 31.234)">
          <g id="Group_2946" data-name="Group 2946" transform="translate(0 0)">
            <rect id="Rectangle_946" data-name="Rectangle 946" width="2" height="2" transform="translate(-0.31 -0.299)" fill="#707070"/>
          </g>
        </g>
        <g id="Group_2949" data-name="Group 2949" transform="translate(43.79 31.234)">
          <g id="Group_2948" data-name="Group 2948" transform="translate(0 0)">
            <rect id="Rectangle_947" data-name="Rectangle 947" height="2" transform="translate(0.146 -0.299)" fill="#707070"/>
          </g>
        </g>
        <g id="Group_2951" data-name="Group 2951" transform="translate(37.517 31.234)">
          <g id="Group_2950" data-name="Group 2950" transform="translate(0 0)">
            <rect id="Rectangle_948" data-name="Rectangle 948" width="2" height="2" transform="translate(0.42 -0.299)" fill="#707070"/>
          </g>
        </g>
        <g id="Group_2953" data-name="Group 2953" transform="translate(45.881 35.416)">
          <g id="Group_2952" data-name="Group 2952" transform="translate(0 0)">
            <rect id="Rectangle_949" data-name="Rectangle 949" width="2" transform="translate(0.056 -0.481)" fill="#707070"/>
          </g>
        </g>
        <g id="Group_2955" data-name="Group 2955" transform="translate(52.156 35.416)">
          <g id="Group_2954" data-name="Group 2954" transform="translate(0 0)">
            <rect id="Rectangle_950" data-name="Rectangle 950" transform="translate(-0.218 -0.481)" fill="#707070"/>
          </g>
        </g>
        <g id="Group_2957" data-name="Group 2957" transform="translate(54.248 35.416)">
          <g id="Group_2956" data-name="Group 2956" transform="translate(0 0)">
            <rect id="Rectangle_951" data-name="Rectangle 951" width="2" transform="translate(-0.31 -0.481)" fill="#707070"/>
          </g>
        </g>
        <g id="Group_2959" data-name="Group 2959" transform="translate(43.79 35.416)">
          <g id="Group_2958" data-name="Group 2958" transform="translate(0 0)">
            <rect id="Rectangle_952" data-name="Rectangle 952" transform="translate(0.146 -0.481)" fill="#707070"/>
          </g>
        </g>
        <g id="Group_2961" data-name="Group 2961" transform="translate(37.517 35.416)">
          <g id="Group_2960" data-name="Group 2960" transform="translate(0 0)">
            <rect id="Rectangle_953" data-name="Rectangle 953" width="2" transform="translate(0.42 -0.481)" fill="#707070"/>
          </g>
        </g>
        <g id="Group_2963" data-name="Group 2963" transform="translate(6.248 50.09)">
          <g id="Group_2962" data-name="Group 2962">
            <path id="Path_5232" data-name="Path 5232" d="M75.04,386.081H53.977a3.131,3.131,0,1,0,0,2.087H75.04a1.044,1.044,0,1,0,0-2.087Zm-24,2.087a1.044,1.044,0,1,1,1.044-1.044A1.044,1.044,0,0,1,51.039,388.169Z" transform="translate(-47.894 -383.993)" fill="#707070"/>
          </g>
        </g>
        <g id="Group_2965" data-name="Group 2965" transform="translate(45.881 50.058)">
          <g id="Group_2964" data-name="Group 2964" transform="translate(0 0)">
            <rect id="Rectangle_954" data-name="Rectangle 954" width="2" transform="translate(0.056 -0.123)" fill="#707070"/>
          </g>
        </g>
        <g id="Group_2967" data-name="Group 2967" transform="translate(52.156 50.058)">
          <g id="Group_2966" data-name="Group 2966" transform="translate(0 0)">
            <rect id="Rectangle_955" data-name="Rectangle 955" transform="translate(-0.218 -0.123)" fill="#707070"/>
          </g>
        </g>
        <g id="Group_2969" data-name="Group 2969" transform="translate(54.248 50.058)">
          <g id="Group_2968" data-name="Group 2968" transform="translate(0 0)">
            <rect id="Rectangle_956" data-name="Rectangle 956" width="2" transform="translate(-0.31 -0.123)" fill="#707070"/>
          </g>
        </g>
        <g id="Group_2971" data-name="Group 2971" transform="translate(43.79 50.058)">
          <g id="Group_2970" data-name="Group 2970" transform="translate(0 0)">
            <rect id="Rectangle_957" data-name="Rectangle 957" transform="translate(0.146 -0.123)" fill="#707070"/>
          </g>
        </g>
        <g id="Group_2973" data-name="Group 2973" transform="translate(37.517 50.058)">
          <g id="Group_2972" data-name="Group 2972" transform="translate(0 0)">
            <rect id="Rectangle_958" data-name="Rectangle 958" width="2" transform="translate(0.42 -0.123)" fill="#707070"/>
          </g>
        </g>
        <g id="Group_2975" data-name="Group 2975" transform="translate(45.881 52.147)">
          <g id="Group_2974" data-name="Group 2974" transform="translate(0 0)">
            <rect id="Rectangle_959" data-name="Rectangle 959" width="2" height="2" transform="translate(0.056 -0.213)" fill="#707070"/>
          </g>
        </g>
        <g id="Group_2977" data-name="Group 2977" transform="translate(52.156 52.147)">
          <g id="Group_2976" data-name="Group 2976" transform="translate(0 0)">
            <rect id="Rectangle_960" data-name="Rectangle 960" height="2" transform="translate(-0.218 -0.213)" fill="#707070"/>
          </g>
        </g>
        <g id="Group_2979" data-name="Group 2979" transform="translate(54.248 52.147)">
          <g id="Group_2978" data-name="Group 2978" transform="translate(0 0)">
            <rect id="Rectangle_961" data-name="Rectangle 961" width="2" height="2" transform="translate(-0.31 -0.213)" fill="#707070"/>
          </g>
        </g>
        <g id="Group_2981" data-name="Group 2981" transform="translate(43.79 52.147)">
          <g id="Group_2980" data-name="Group 2980" transform="translate(0 0)">
            <rect id="Rectangle_962" data-name="Rectangle 962" height="2" transform="translate(0.146 -0.213)" fill="#707070"/>
          </g>
        </g>
        <g id="Group_2983" data-name="Group 2983" transform="translate(37.517 52.147)">
          <g id="Group_2982" data-name="Group 2982" transform="translate(0 0)">
            <rect id="Rectangle_963" data-name="Rectangle 963" width="2" height="2" transform="translate(0.42 -0.213)" fill="#707070"/>
          </g>
        </g>
        <g id="Group_2985" data-name="Group 2985" transform="translate(45.881 56.331)">
          <g id="Group_2984" data-name="Group 2984" transform="translate(0 0)">
            <rect id="Rectangle_964" data-name="Rectangle 964" width="2" transform="translate(0.056 -0.396)" fill="#707070"/>
          </g>
        </g>
        <g id="Group_2987" data-name="Group 2987" transform="translate(52.156 56.331)">
          <g id="Group_2986" data-name="Group 2986" transform="translate(0 0)">
            <rect id="Rectangle_965" data-name="Rectangle 965" transform="translate(-0.218 -0.396)" fill="#707070"/>
          </g>
        </g>
        <g id="Group_2989" data-name="Group 2989" transform="translate(54.248 56.331)">
          <g id="Group_2988" data-name="Group 2988" transform="translate(0 0)">
            <rect id="Rectangle_966" data-name="Rectangle 966" width="2" transform="translate(-0.31 -0.396)" fill="#707070"/>
          </g>
        </g>
        <g id="Group_2991" data-name="Group 2991" transform="translate(43.79 56.331)">
          <g id="Group_2990" data-name="Group 2990" transform="translate(0 0)">
            <rect id="Rectangle_967" data-name="Rectangle 967" transform="translate(0.146 -0.396)" fill="#707070"/>
          </g>
        </g>
        <g id="Group_2993" data-name="Group 2993" transform="translate(37.517 56.331)">
          <g id="Group_2992" data-name="Group 2992" transform="translate(0 0)">
            <rect id="Rectangle_968" data-name="Rectangle 968" width="2" transform="translate(0.42 -0.396)" fill="#707070"/>
          </g>
        </g>
      </g>
      <g id="Page-1" transform="translate(17512 11051)">
        <g id="_072---Walkie-Talkie" data-name="072---Walkie-Talkie" transform="translate(0.001)">
          <path id="Shape" d="M26.333,0a3.7,3.7,0,0,0-3.7,3.7V15.027A3.7,3.7,0,0,0,20.167,18.5v1.233A6.174,6.174,0,0,0,14,25.9V67.833A6.174,6.174,0,0,0,20.167,74H47.3a6.174,6.174,0,0,0,6.167-6.167V25.9A6.174,6.174,0,0,0,47.3,19.733H32.5V18.5a3.7,3.7,0,0,0-2.467-3.473V3.7A3.7,3.7,0,0,0,26.333,0ZM25.1,3.7a1.233,1.233,0,0,1,2.467,0V14.8H25.1ZM16.467,67.833V52.744l2.5,1.5a2.48,2.48,0,0,1,1.2,2.118v15.17a3.7,3.7,0,0,1-3.7-3.7Zm30.833,3.7V56.363a2.48,2.48,0,0,1,1.2-2.115l2.5-1.5V67.833A3.7,3.7,0,0,1,47.3,71.533ZM51,25.9V49.868l-3.772,2.263a4.953,4.953,0,0,0-2.4,4.232v15.17h-22.2V56.363a4.953,4.953,0,0,0-2.4-4.229l-3.772-2.266V25.9a3.7,3.7,0,0,1,3.7-3.7H47.3A3.7,3.7,0,0,1,51,25.9ZM22.633,19.733V18.5a1.233,1.233,0,0,1,1.233-1.233H28.8A1.233,1.233,0,0,1,30.033,18.5v1.233Z" transform="translate(3.266)" fill="#707070"/>
          <path id="Shape-2" data-name="Shape" d="M30.7,41.4A3.7,3.7,0,1,0,27,37.7,3.7,3.7,0,0,0,30.7,41.4Zm0-4.933A1.233,1.233,0,1,1,29.467,37.7,1.233,1.233,0,0,1,30.7,36.467Z" transform="translate(6.299 7.933)" fill="#707070"/>
          <ellipse id="Oval" cx="2" cy="0.5" rx="2" ry="0.5" transform="translate(35 56.934)" fill="#707070"/>
          <ellipse id="Oval-2" data-name="Oval" cx="2" cy="1" rx="2" ry="1" transform="translate(35 61.934)" fill="#707070"/>
          <circle id="Oval-3" data-name="Oval" cx="1" cy="1" r="1" transform="translate(29 61.934)" fill="#707070"/>
          <circle id="Oval-4" data-name="Oval" cx="1" cy="1" r="1" transform="translate(43 61.934)" fill="#707070"/>
          <ellipse id="Oval-5" data-name="Oval" cx="2" cy="1" rx="2" ry="1" transform="translate(35 65.934)" fill="#707070"/>
          <circle id="Oval-6" data-name="Oval" cx="2" cy="2" r="2" transform="translate(31 57.934)" fill="#707070"/>
          <ellipse id="Oval-7" data-name="Oval" cx="2" cy="1" rx="2" ry="1" transform="translate(31 63.934)" fill="#707070"/>
          <ellipse id="Oval-8" data-name="Oval" cx="1" cy="2" rx="1" ry="2" transform="translate(39 57.934)" fill="#707070"/>
          <circle id="Oval-9" data-name="Oval" cx="1" cy="1" r="1" transform="translate(39 63.934)" fill="#707070"/>
          <path id="Shape-3" data-name="Shape" d="M21,23.7v7.4a3.7,3.7,0,0,0,3.7,3.7H39.5a3.7,3.7,0,0,0,3.7-3.7V23.7A3.7,3.7,0,0,0,39.5,20H24.7A3.7,3.7,0,0,0,21,23.7Zm2.467,7.4V23.7A1.233,1.233,0,0,1,24.7,22.467h4.662l-1.973,9.867H24.7A1.233,1.233,0,0,1,23.467,31.1Zm8.411-8.633H34.3l-1.973,9.867H29.9ZM40.733,23.7v7.4A1.233,1.233,0,0,1,39.5,32.333H34.838l1.973-9.867H39.5A1.233,1.233,0,0,1,40.733,23.7Z" transform="translate(4.899 4.667)" fill="#707070"/>
          <path id="Shape-4" data-name="Shape" d="M24.167,34H21.7a3.7,3.7,0,1,0,0,7.4h2.467a2.467,2.467,0,0,0,2.467-2.467V36.467A2.467,2.467,0,0,0,24.167,34ZM21.7,38.933a1.233,1.233,0,1,1,0-2.467h2.467v2.467Z" transform="translate(4.199 7.933)" fill="#707070"/>
          <path id="Shape-5" data-name="Shape" d="M37.467,34A2.467,2.467,0,0,0,35,36.467v2.467A2.467,2.467,0,0,0,37.467,41.4h2.467a3.7,3.7,0,0,0,0-7.4Zm3.7,3.7a1.233,1.233,0,0,1-1.233,1.233H37.467V36.467h2.467A1.233,1.233,0,0,1,41.167,37.7Z" transform="translate(8.166 7.933)" fill="#707070"/>
          <path id="Shape-6" data-name="Shape" d="M11.072,30.159a1.233,1.233,0,0,0-1.68.469,11.71,11.71,0,0,0,0,11.076,1.233,1.233,0,0,0,1.074.629,1.221,1.221,0,0,0,.6-.159,1.233,1.233,0,0,0,.469-1.68,9.25,9.25,0,0,1,0-8.654,1.233,1.233,0,0,0-.467-1.681Z" transform="translate(1.866 7)" fill="#707070"/>
          <path id="Shape-7" data-name="Shape" d="M8.368,27.2a1.233,1.233,0,0,0-1.706.37,17.571,17.571,0,0,0,0,18.6,1.233,1.233,0,1,0,2.073-1.334,15.111,15.111,0,0,1,0-15.931,1.233,1.233,0,0,0-.368-1.7Z" transform="translate(0.933 6.3)" fill="#707070"/>
          <path id="Shape-8" data-name="Shape" d="M3.912,24.541a23.64,23.64,0,0,0,0,26.049,1.234,1.234,0,1,0,2.044-1.384,21.17,21.17,0,0,1,0-23.281,1.234,1.234,0,1,0-2.042-1.384Z" transform="translate(-0.001 5.6)" fill="#707070"/>
          <path id="Shape-9" data-name="Shape" d="M49.629,42.176a1.233,1.233,0,0,0,1.681-.469,11.717,11.717,0,0,0,0-11.076,1.233,1.233,0,1,0-2.148,1.211,9.25,9.25,0,0,1,0,8.654A1.233,1.233,0,0,0,49.629,42.176Z" transform="translate(11.431 6.996)" fill="#707070"/>
          <path id="Shape-10" data-name="Shape" d="M52.567,46.537a1.233,1.233,0,0,0,1.7-.37,17.571,17.571,0,0,0,0-18.6A1.233,1.233,0,1,0,52.2,28.9a15.111,15.111,0,0,1,0,15.931A1.233,1.233,0,0,0,52.567,46.537Z" transform="translate(12.132 6.299)" fill="#707070"/>
          <path id="Shape-11" data-name="Shape" d="M55.543,24.212a1.233,1.233,0,0,0-.331,1.713,21.17,21.17,0,0,1,0,23.281,1.234,1.234,0,1,0,2.044,1.384,23.64,23.64,0,0,0,0-26.049,1.233,1.233,0,0,0-1.713-.329Z" transform="translate(12.832 5.6)" fill="#707070"/>
        </g>
      </g>
    </g>
  </g>
</svg>
