<svg xmlns="http://www.w3.org/2000/svg" width="1328" height="1129" viewBox="0 0 1328 1129">
  <g id="Group_3202" data-name="Group 3202" transform="translate(-19338 -13300)">
    <rect id="Rectangle_1051" data-name="Rectangle 1051" width="1328" height="1129" transform="translate(19338 13300)" fill="#fff"/>
    <g id="Group_3119" data-name="Group 3119" transform="translate(-29.499 12.5)">
      <line id="Line_297" data-name="Line 297" y2="1069" transform="translate(19573.5 13317.5)" fill="none" stroke="#707070" stroke-width="1"/>
      <line id="Line_298" data-name="Line 298" x2="1268.303" transform="translate(19392.5 13489.5)" fill="none" stroke="#707070" stroke-width="1"/>
      <line id="Line_299" data-name="Line 299" x2="1268.303" transform="translate(19392.5 13664.5)" fill="none" stroke="#707070" stroke-width="1"/>
      <line id="Line_300" data-name="Line 300" x2="1268.303" transform="translate(19392.5 13839.5)" fill="none" stroke="#707070" stroke-width="1"/>
      <line id="Line_301" data-name="Line 301" x2="1268.303" transform="translate(19392.5 14014.5)" fill="none" stroke="#707070" stroke-width="1"/>
      <line id="Line_302" data-name="Line 302" x2="1268.303" transform="translate(19402.5 14189.5)" fill="none" stroke="#707070" stroke-width="1"/>
      <text id="Gallery" transform="translate(19633 13333)" fill="#21232a" font-size="54" font-family="OpenSans-Bold, Open Sans" font-weight="700"><tspan x="0" y="58">Gallery</tspan></text>
      <text id="View_photos_taken_at_different_plants" data-name="View photos taken at different plants" transform="translate(19633 13401)" fill="#21232a" font-size="54" font-family="OpenSans-Regular, Open Sans"><tspan x="0" y="58">View photos taken at different plants</tspan></text>
      <text id="Add_Images" data-name="Add Images" transform="translate(19633 13504)" fill="#21232a" font-size="54" font-family="OpenSans-Bold, Open Sans" font-weight="700"><tspan x="0" y="58">Add Images</tspan></text>
      <text id="Upload_images_from_plants" data-name="Upload images from plants" transform="translate(19634 13576)" fill="#21232a" font-size="54" font-family="OpenSans-Regular, Open Sans"><tspan x="0" y="58">Upload images from plants</tspan></text>
      <text id="Contacts" transform="translate(19633 13679)" fill="#21232a" font-size="54" font-family="OpenSans-Bold, Open Sans" font-weight="700"><tspan x="0" y="58">Contacts</tspan></text>
      <text id="Search_for_employee_contact_details" data-name="Search for employee contact details" transform="translate(19634 13746)" fill="#21232a" font-size="54" font-family="OpenSans-Regular, Open Sans"><tspan x="0" y="58">Search for employee contact details</tspan></text>
      <text id="Notification" transform="translate(19633 13854)" fill="#21232a" font-size="54" font-family="OpenSans-Bold, Open Sans" font-weight="700"><tspan x="0" y="58">Notification</tspan></text>
      <text id="View_SMS_being_sent_or_received" data-name="View SMS being sent or received" transform="translate(19634 13920)" fill="#21232a" font-size="54" font-family="OpenSans-Regular, Open Sans"><tspan x="0" y="58">View SMS being sent or received</tspan></text>
      <text id="Plant_Shutdown_Message" data-name="Plant Shutdown Message" transform="translate(19633 14027)" fill="#21232a" font-size="54" font-family="OpenSans-Bold, Open Sans" font-weight="700"><tspan x="0" y="58">Plant Shutdown Message</tspan></text>
      <text id="Send_SMS_alerts_to_customers" data-name="Send SMS alerts to customers" transform="translate(19634 14092)" fill="#21232a" font-size="54" font-family="OpenSans-Regular, Open Sans"><tspan x="0" y="58">Send SMS alerts to customers</tspan></text>
      <text id="SUG" transform="translate(19633 14207)" fill="#21232a" font-size="54" font-family="OpenSans-Bold, Open Sans" font-weight="700"><tspan x="0" y="58">SUG</tspan></text>
      <text id="Information_to_be_added" data-name="Information to be added" transform="translate(19634 14272)" fill="#21232a" font-size="54" font-family="OpenSans-Regular, Open Sans"><tspan x="0" y="58">Information to be added</tspan></text>
      <g id="review_1_" data-name="review (1)" transform="translate(19441 14255.561)">
        <g id="Group_2583" data-name="Group 2583">
          <g id="Group_2582" data-name="Group 2582">
            <path id="Path_4370" data-name="Path 4370" d="M64.777,13.5a4.049,4.049,0,0,0-4.049-4.049h-5.4v2.7h5.4a1.35,1.35,0,0,1,1.35,1.35V49.513l-6.726-6.726a15.151,15.151,0,0,0-2.509-18.108c-.07-.07-.141-.138-.212-.207V1.35A1.35,1.35,0,0,0,51.282,0H22.942a1.351,1.351,0,0,0-.214.019l-.046.007L22.621.04c-.023.006-.046.01-.068.017L22.51.073c-.027.009-.055.018-.082.029L22.4.117c-.029.013-.059.026-.088.041l-.029.017c-.028.016-.057.032-.084.05s-.029.021-.043.032-.043.03-.064.047-.068.059-.1.091L12.541,9.842a1.349,1.349,0,0,0-.4.954V37.787h-2.7v2.7H27.871A15.147,15.147,0,0,0,49.541,48.6l4.03,4.035H4.049a1.35,1.35,0,0,1-1.35-1.35V13.5a1.35,1.35,0,0,1,1.35-1.35h5.4v-2.7h-5.4A4.049,4.049,0,0,0,0,13.5V51.282a4.049,4.049,0,0,0,4.049,4.049h19.5c-.657,6.487-6.039,6.741-6.682,6.748a1.35,1.35,0,0,0,0,2.7H47.908a1.35,1.35,0,0,0,0-2.7c-.254,0-6-.082-6.681-6.748h15.04l1.5,1.5a4.11,4.11,0,0,0,7.006-2.848h.007ZM41.416,62.078H23.362a10.685,10.685,0,0,0,2.957-6.748H38.459A10.684,10.684,0,0,0,41.416,62.078ZM14.845,37.787V11.355l6.748-6.748V9.447h-2.7v2.7h4.049a1.35,1.35,0,0,0,1.35-1.35V2.7H49.933V22.405a15.16,15.16,0,0,0-14.056-.813H18.893v2.7H31.829a15.2,15.2,0,0,0-3.1,4.049H18.893v2.7h8.731a15.227,15.227,0,0,0-.445,6.748H14.845Zm14.846-2.4a12.445,12.445,0,1,1,21.3,8.742l-.114.114a12.445,12.445,0,0,1-21.187-8.856Zm24.148,9.716,1.99,1.99-1.993,1.993-1.99-1.99Zm5.834,9.82L55.744,51,57.738,49l3.929,3.929a1.407,1.407,0,0,1,.412.99v.013a1.408,1.408,0,0,1-2.4.99Z" fill="#707070"/>
            <path id="Path_4371" data-name="Path 4371" d="M279.232,206.466l1.908,1.908a6.937,6.937,0,0,1,9.8,0l1.908-1.908A9.638,9.638,0,0,0,279.232,206.466Z" transform="translate(-243.904 -177.885)" fill="#707070"/>
            <path id="Path_4372" data-name="Path 4372" d="M42.667,341.333v5.4a1.35,1.35,0,0,0,1.35,1.35h5.4v-2.7H45.366v-4.049h-2.7Z" transform="translate(-37.269 -298.148)" fill="#707070"/>
            <rect id="Rectangle_713" data-name="Rectangle 713" width="2.699" height="2.699" transform="translate(14.845 47.233)" fill="#707070"/>
            <rect id="Rectangle_714" data-name="Rectangle 714" width="26.991" height="2.699" transform="translate(18.893 14.845)" fill="#707070"/>
          </g>
        </g>
      </g>
      <g id="add" transform="translate(19444 13535.389)">
        <path id="Path_5347" data-name="Path 5347" d="M119.636,0H71.378a5.321,5.321,0,0,0-5.315,5.315V53.734a5.321,5.321,0,0,0,5.315,5.315h4.455a1.163,1.163,0,0,0,0-2.325H71.378a2.993,2.993,0,0,1-2.99-2.99V5.315a2.994,2.994,0,0,1,2.99-2.99h48.257a2.993,2.993,0,0,1,2.99,2.99V53.734a2.993,2.993,0,0,1-2.99,2.99H105.649a13.578,13.578,0,0,0-20.285,0H81.2a1.163,1.163,0,0,0,0,2.325H83.69A13.6,13.6,0,1,0,107.857,71.47a1.163,1.163,0,0,0-2.111-.975,11.279,11.279,0,1,1,1.034-4.723,1.163,1.163,0,1,0,2.325,0,13.515,13.515,0,0,0-1.781-6.722h12.311a5.321,5.321,0,0,0,5.315-5.315V5.315A5.321,5.321,0,0,0,119.636,0Z" transform="translate(-66.063 0)" fill="#707070"/>
        <path id="Path_5348" data-name="Path 5348" d="M144.471,37.261a1.163,1.163,0,0,0,1.163-1.163V31.226a1.163,1.163,0,0,0-1.163-1.163H97.2a1.163,1.163,0,0,0-1.163,1.163V71.638A1.163,1.163,0,0,0,97.2,72.8h47.269a1.163,1.163,0,0,0,1.163-1.163V41.477a1.163,1.163,0,0,0-2.325,0V61.893L133.218,51.8a1.163,1.163,0,0,0-1.644,0l-6.811,6.812-10.5-10.5a1.163,1.163,0,0,0-1.644,0l-9.834,9.834H98.365V32.388h44.943V36.1a1.163,1.163,0,0,0,1.163,1.163Zm-41.2,23.016a1.163,1.163,0,0,0,.822-.341l9.352-9.352,10.5,10.5a1.163,1.163,0,0,0,1.644,0l6.811-6.812,10.913,10.913v5.294H98.365v-10.2Z" transform="translate(-91.393 -25.403)" fill="#707070"/>
        <path id="Path_5349" data-name="Path 5349" d="M241.177,80.257a6.111,6.111,0,1,0,6.111-6.111A6.118,6.118,0,0,0,241.177,80.257Zm9.9,0a3.785,3.785,0,1,1-3.785-3.785A3.79,3.79,0,0,1,251.073,80.257Z" transform="translate(-214.031 -62.652)" fill="#707070"/>
        <path id="Path_5350" data-name="Path 5350" d="M216.627,392.13a1.163,1.163,0,0,0,1.163-1.163v-4.9h4.9a1.163,1.163,0,0,0,0-2.325h-4.9v-4.9a1.163,1.163,0,1,0-2.325,0v4.9h-4.9a1.163,1.163,0,0,0,0,2.325h4.9v4.9A1.163,1.163,0,0,0,216.627,392.13Z" transform="translate(-187.183 -319.135)" fill="#707070"/>
      </g>
      <g id="attach" transform="translate(19442 13377.938)">
        <g id="Group_3029" data-name="Group 3029" transform="translate(0 0)">
          <g id="Group_3028" data-name="Group 3028">
            <path id="Path_5351" data-name="Path 5351" d="M334.622,131.063a6.28,6.28,0,1,0,6.28,6.28A6.287,6.287,0,0,0,334.622,131.063Zm0,10.122a3.843,3.843,0,1,1,3.843-3.843A3.847,3.847,0,0,1,334.622,141.185Z" transform="translate(-288.334 -115.708)" fill="#707070"/>
            <path id="Path_5352" data-name="Path 5352" d="M363.343,445.758a1.205,1.205,0,0,0-.112-.211,1.183,1.183,0,0,0-.336-.336,1.205,1.205,0,0,0-.211-.112,1.147,1.147,0,0,0-.228-.069,1.2,1.2,0,0,0-.475,0,1.146,1.146,0,0,0-.228.069,1.2,1.2,0,0,0-.211.112,1.183,1.183,0,0,0-.336.336,1.2,1.2,0,0,0-.112.211,1.143,1.143,0,0,0-.07.228,1.172,1.172,0,0,0,0,.475,1.143,1.143,0,0,0,.07.228,1.2,1.2,0,0,0,.112.211,1.167,1.167,0,0,0,.151.185c.028.028.057.055.088.08a1.128,1.128,0,0,0,.1.071,1.2,1.2,0,0,0,.211.112,1.148,1.148,0,0,0,.228.069,1.172,1.172,0,0,0,.475,0,1.149,1.149,0,0,0,.228-.069,1.205,1.205,0,0,0,.211-.112,1.159,1.159,0,0,0,.1-.071q.046-.038.088-.08a1.165,1.165,0,0,0,.151-.185,1.2,1.2,0,0,0,.112-.211,1.228,1.228,0,0,0,.071-.228,1.228,1.228,0,0,0,0-.475A1.229,1.229,0,0,0,363.343,445.758Z" transform="translate(-317.013 -391.398)" fill="#707070"/>
            <path id="Path_5353" data-name="Path 5353" d="M205.963,50.028a1.3,1.3,0,0,0-.112-.211,1.221,1.221,0,0,0-.151-.185,1.166,1.166,0,0,0-.185-.151,1.2,1.2,0,0,0-.211-.112,1.23,1.23,0,0,0-.228-.069,1.2,1.2,0,0,0-.475,0,1.272,1.272,0,0,0-.229.069,1.238,1.238,0,0,0-.21.112,1.169,1.169,0,0,0-.185.151,1.312,1.312,0,0,0-.152.185,1.288,1.288,0,0,0-.111.211,1.145,1.145,0,0,0-.069.228,1.176,1.176,0,0,0,0,.476,1.145,1.145,0,0,0,.069.228,1.288,1.288,0,0,0,.111.211,1.312,1.312,0,0,0,.152.185,1.168,1.168,0,0,0,.185.151,1.236,1.236,0,0,0,.21.112,1.272,1.272,0,0,0,.229.069,1.17,1.17,0,0,0,.475,0,1.23,1.23,0,0,0,.228-.069,1.2,1.2,0,0,0,.211-.112,1.165,1.165,0,0,0,.185-.151,1.222,1.222,0,0,0,.151-.185,1.3,1.3,0,0,0,.112-.211,1.144,1.144,0,0,0,.069-.228,1.176,1.176,0,0,0,0-.476A1.144,1.144,0,0,0,205.963,50.028Z" transform="translate(-178.809 -43.886)" fill="#707070"/>
            <path id="Path_5354" data-name="Path 5354" d="M55.578,10.439A7.018,7.018,0,0,0,48.76,5.044H10.53A10.542,10.542,0,0,0,0,15.574V53.8a7.014,7.014,0,0,0,6.808,7A7.018,7.018,0,0,0,13.626,66.2H55.378a7.015,7.015,0,0,0,7.007-7.007V17.441A7.014,7.014,0,0,0,55.578,10.439Zm4.371,48.755a4.576,4.576,0,0,1-4.57,4.57H13.626a4.573,4.573,0,0,1-4.57-4.57V52.729l13.979-23.7a2.3,2.3,0,0,1,3.995.068l6.019,11.052L41.8,56.212a1.219,1.219,0,0,0,2.14-1.166L41.1,49.833a5.026,5.026,0,0,0,3.449-1.156l5.48-4.546a2.305,2.305,0,0,1,3.018.075l.286.262L55.768,46.7l4.181,3.833Zm0-11.964L55.767,43.4,53.331,41.54a4.755,4.755,0,0,0-4.86.715L42.991,46.8a2.61,2.61,0,0,1-3.958-.76l-3.845-7.059L33.041,35.04h0L29.17,27.93a4.734,4.734,0,0,0-8.234-.141L9.055,47.932V17.441a4.576,4.576,0,0,1,4.57-4.57h7.529a1.218,1.218,0,1,0,0-2.437H13.626a7.015,7.015,0,0,0-7.007,7.007V58.357A4.576,4.576,0,0,1,2.437,53.8V15.574A8.1,8.1,0,0,1,10.53,7.481H48.76a4.577,4.577,0,0,1,4.274,2.953H30.9a1.218,1.218,0,0,0,0,2.437H53.33l2.437.018a4.576,4.576,0,0,1,4.182,4.553Z" transform="translate(0 -5.044)" fill="#707070"/>
          </g>
        </g>
      </g>
      <g id="Group_3031" data-name="Group 3031" transform="translate(18318.691 8742.637)">
        <path id="Path_5355" data-name="Path 5355" d="M105.547,161.6a1.027,1.027,0,0,0-1.027-1.027H75.907a1.027,1.027,0,1,0,0,2.055h28.612A1.027,1.027,0,0,0,105.547,161.6Z" transform="translate(1049.685 5190.077)" fill="#707070" stroke="#707070" stroke-width="0.3"/>
        <path id="Path_5356" data-name="Path 5356" d="M99.678,229.5H75.907a1.027,1.027,0,0,0,0,2.055h23.77a1.027,1.027,0,0,0,0-2.055Z" transform="translate(1049.685 5130.595)" fill="#707070" stroke="#707070" stroke-width="0.3"/>
        <path id="Path_5357" data-name="Path 5357" d="M99.678,298.419H75.907a1.027,1.027,0,1,0,0,2.055h23.77a1.027,1.027,0,0,0,0-2.055Z" transform="translate(1049.685 5071.113)" fill="#707070" stroke="#707070" stroke-width="0.3"/>
        <path id="Path_5359" data-name="Path 5359" d="M61.041,102.267a1.027,1.027,0,0,0-1.027,1.027v8.792a6.173,6.173,0,0,1-6.166,6.166H22.689a3.346,3.346,0,0,0-2.313.923L9.258,129.731l1.638-9.093A2.026,2.026,0,0,0,8.9,118.253H8.221a6.173,6.173,0,0,1-6.166-6.166V84.007a6.173,6.173,0,0,1,6.166-6.166H43.946a1.027,1.027,0,0,0,0-2.055H8.221A8.23,8.23,0,0,0,0,84.007v28.08a8.23,8.23,0,0,0,8.221,8.221h.646L7.1,130.115a1.806,1.806,0,0,0,3.02,1.629l11.671-11.079a1.3,1.3,0,0,1,.9-.358H53.847a8.23,8.23,0,0,0,8.221-8.221v-8.792a1.028,1.028,0,0,0-1.028-1.027Z" transform="translate(1114.308 5263.249)" fill="#707070" stroke="#707070" stroke-width="0.3"/>
        <g id="Group_3030" data-name="Group 3030" transform="translate(1159.554 5328)">
          <path id="Path_5390" data-name="Path 5390" d="M18.977,36.953A17.977,17.977,0,1,0,1,18.977,18,18,0,0,0,18.977,36.953ZM18.977,4A14.981,14.981,0,1,1,4,18.977,15,15,0,0,1,18.977,4Z" transform="translate(-1 -1)" fill="#707070"/>
          <path id="Path_5391" data-name="Path 5391" d="M16.984,28.585A11.985,11.985,0,0,0,22.121,5.771L20.837,8.478a8.987,8.987,0,1,1-7.7,0L11.848,5.771a11.985,11.985,0,0,0,5.137,22.814Z" transform="translate(0.992 1.376)" fill="#707070"/>
          <path id="Path_5392" data-name="Path 5392" d="M12,4h3v7.49H12Z" transform="translate(4.479 0.494)" fill="#707070"/>
        </g>
      </g>
      <g id="Communicate" transform="translate(19442 13722)">
        <path id="Path_5403" data-name="Path 5403" d="M26.682,21.154l-4.9-4.9a.99.99,0,0,0-1.4,0l-2.1,2.1a2.97,2.97,0,0,1-4.2,0l-.24-.24a2.97,2.97,0,0,1,0-4.2l2.1-2.1a.99.99,0,0,0,0-1.4l-4.9-4.9a.99.99,0,0,0-1.4,0l-2.1,2.1a8.921,8.921,0,0,0,0,12.6l4.44,4.44a8.921,8.921,0,0,0,12.6,0l2.1-2.1A.99.99,0,0,0,26.682,21.154Zm-5.6-2.8,3.5,3.5-.7.7-3.5-3.5ZM10.34,7.612l3.5,3.5-.7.7-3.5-3.5Zm3.04,15.643-4.44-4.441a6.942,6.942,0,0,1-.65-9.051l3.521,3.521a4.959,4.959,0,0,0,.631,6.231l.24.24a4.962,4.962,0,0,0,6.231.631L22.431,23.9a6.943,6.943,0,0,1-9.051-.65Z" transform="translate(-0.029 -0.032)" fill="#707070"/>
        <path id="Path_5404" data-name="Path 5404" d="M26.752,31.7H4.97A2.97,2.97,0,0,1,2,28.732V4.97A2.97,2.97,0,0,1,4.97,2H26.752a2.97,2.97,0,0,1,2.97,2.97V28.732A2.97,2.97,0,0,1,26.752,31.7ZM4.97,3.98a.99.99,0,0,0-.99.99V28.732a.99.99,0,0,0,.99.99H26.752a.99.99,0,0,0,.99-.99V4.97a.99.99,0,0,0-.99-.99Z" transform="translate(0 0)" fill="#707070"/>
        <path id="Path_5405" data-name="Path 5405" d="M26.752,61.722H4.97A2.97,2.97,0,0,1,2,58.752V36.97A2.97,2.97,0,0,1,4.97,34H26.752a2.97,2.97,0,0,1,2.97,2.97V58.752a2.97,2.97,0,0,1-2.97,2.97ZM4.97,35.98a.99.99,0,0,0-.99.99V58.752a.99.99,0,0,0,.99.99H26.752a.99.99,0,0,0,.99-.99V36.97a.99.99,0,0,0-.99-.99Z" transform="translate(0 -0.318)" fill="#707070"/>
        <path id="Path_5406" data-name="Path 5406" d="M24.811,41H6.99a.99.99,0,0,0-.99.99V53.871a.99.99,0,0,0,.99.99H24.811a.99.99,0,0,0,.99-.99V41.99A.99.99,0,0,0,24.811,41ZM15.9,48.574,9.6,42.98H22.2Zm-3.7-.635L7.98,51.673v-7.48Zm1.491,1.324.891.792a1.973,1.973,0,0,0,2.644,0l.891-.792L22.2,52.881H9.6Zm5.913-1.324,4.214-3.746v7.48Z" transform="translate(-0.04 -0.387)" fill="#707070"/>
        <path id="Path_5407" data-name="Path 5407" d="M58.752,2H36.97A2.97,2.97,0,0,0,34,4.97V28.732a2.97,2.97,0,0,0,2.97,2.97h4.95V44.116l-1.158-2.454a2.933,2.933,0,0,0-1.355-1.714,2.977,2.977,0,0,0-2.258-.3l-.912.246a1.98,1.98,0,0,0-1.364,2.535l4.133,12a.978.978,0,0,0,.18.317l2.682,3.168.053,2.516a.99.99,0,0,0,.99.969H56.772a.99.99,0,0,0,.99-.99V57.741l1.814-2.721a1,1,0,0,0,.166-.547V41.6a2.9,2.9,0,0,0-.865-2.087,3.028,3.028,0,0,0-3.2-.675,2.839,2.839,0,0,0-.762-1.3,3.03,3.03,0,0,0-3.2-.675,2.839,2.839,0,0,0-.762-1.3,3.023,3.023,0,0,0-3.095-.714V31.7H58.752a2.97,2.97,0,0,0,2.97-2.97V4.97A2.97,2.97,0,0,0,58.752,2Zm-9.9,34.653a.964.964,0,0,1,.7.3.948.948,0,0,1,.285.687v6.931a.99.99,0,1,0,1.98,0v-4.95a.99.99,0,0,1,.99-.99.964.964,0,0,1,.7.3.948.948,0,0,1,.285.687v4.95a.99.99,0,1,0,1.98,0V41.6a.99.99,0,0,1,.99-.99.964.964,0,0,1,.7.3.947.947,0,0,1,.285.687V54.177L55.948,56.9a1,1,0,0,0-.166.547v1.98H43.88l-.041-1.9a.99.99,0,0,0-.234-.62l-2.79-3.293L36.751,41.8l.9-.244a1.008,1.008,0,0,1,.76.1.97.97,0,0,1,.457.594c.015.058,3.141,6.7,3.141,6.7a.99.99,0,0,0,1.885-.413V28.843a1.071,1.071,0,0,1,.9-1.1.964.964,0,0,1,.8.3.947.947,0,0,1,.285.693V44.573a.99.99,0,1,0,1.98,0V37.643A.99.99,0,0,1,48.851,36.653Zm10.891-7.921a.99.99,0,0,1-.99.99H47.861v-.99A2.9,2.9,0,0,0,47,26.645a2.937,2.937,0,0,0-2.363-.872,3.046,3.046,0,0,0-2.712,3.07v.879H36.97a.99.99,0,0,1-.99-.99V4.97a.99.99,0,0,1,.99-.99H58.752a.99.99,0,0,1,.99.99Z" transform="translate(-0.318 0)" fill="#707070"/>
        <path id="Path_5408" data-name="Path 5408" d="M47.921,8a7.921,7.921,0,0,0,0,15.841h3.96a.99.99,0,1,0,0-1.98h-3.96a5.94,5.94,0,1,1,5.94-5.94v.99a.99.99,0,0,1-1.98,0v-.99a3.993,3.993,0,1,0-1.273,2.891,2.957,2.957,0,0,0,5.234-1.9v-.99A7.929,7.929,0,0,0,47.921,8Zm0,9.9a1.98,1.98,0,1,1,1.98-1.98A1.98,1.98,0,0,1,47.921,17.9Z" transform="translate(-0.377 -0.06)" fill="#707070"/>
      </g>
      <g id="chat" transform="translate(19438 13866.235)">
        <g id="Group_3033" data-name="Group 3033" transform="translate(0 24.089)">
          <path id="Path_5409" data-name="Path 5409" d="M105.529,161.6a1.027,1.027,0,0,0-1.027-1.027h-28.6a1.027,1.027,0,0,0,0,2.054h28.6A1.027,1.027,0,0,0,105.529,161.6Z" transform="translate(-64.628 -141.888)" fill="#707070"/>
          <path id="Path_5410" data-name="Path 5410" d="M99.663,229.5H75.907a1.027,1.027,0,1,0,0,2.054H99.663a1.027,1.027,0,0,0,0-2.054Z" transform="translate(-64.628 -201.375)" fill="#707070"/>
          <path id="Path_5411" data-name="Path 5411" d="M99.663,298.419H75.907a1.027,1.027,0,1,0,0,2.054H99.663a1.027,1.027,0,0,0,0-2.054Z" transform="translate(-64.628 -260.862)" fill="#707070"/>
          <path id="Path_5412" data-name="Path 5412" d="M318.412,50.208a14.533,14.533,0,0,1-5.434-11.363V37.627a8.961,8.961,0,0,0-4.7-7.879V28.338a4.249,4.249,0,0,0-8.5,0v1.411a8.961,8.961,0,0,0-4.7,7.879v1.217a14.533,14.533,0,0,1-5.433,11.363,2.378,2.378,0,0,0,1.484,4.235h6.564a6.669,6.669,0,0,0,12.677,0h6.564a2.378,2.378,0,0,0,1.485-4.235ZM301.83,28.338a2.2,2.2,0,1,1,4.39,0v.61a8.956,8.956,0,0,0-4.39,0Zm2.2,28.648a4.617,4.617,0,0,1-4.124-2.543h8.247A4.616,4.616,0,0,1,304.025,56.986Zm12.9-4.6h-25.8a.324.324,0,0,1-.2-.583,16.577,16.577,0,0,0,6.2-12.962V37.627a6.9,6.9,0,0,1,13.8,0v1.217a16.577,16.577,0,0,0,6.2,12.962A.324.324,0,0,1,316.928,52.389Z" transform="translate(-249.212 -24.089)" fill="#707070"/>
          <path id="Path_5413" data-name="Path 5413" d="M61,102.252a1.027,1.027,0,0,0-1.027,1.027v8.787a6.169,6.169,0,0,1-6.162,6.163H22.676a3.344,3.344,0,0,0-2.311.922L9.252,129.7l1.637-9.087A2.025,2.025,0,0,0,8.9,118.228h-.68a6.169,6.169,0,0,1-6.162-6.163V84A6.169,6.169,0,0,1,8.216,77.84h35.7a1.027,1.027,0,0,0,0-2.054H8.216A8.225,8.225,0,0,0,0,84v28.064a8.225,8.225,0,0,0,8.216,8.216h.646l-1.765,9.8a1.8,1.8,0,0,0,3.018,1.629L21.779,120.64a1.3,1.3,0,0,1,.9-.358H53.816a8.225,8.225,0,0,0,8.216-8.216v-8.787A1.027,1.027,0,0,0,61,102.252Z" transform="translate(0 -68.708)" fill="#707070"/>
        </g>
      </g>
    </g>
  </g>
</svg>
