<svg xmlns="http://www.w3.org/2000/svg" width="1524" height="1819" viewBox="0 0 1524 1819">
  <g id="Group_3200" data-name="Group 3200" transform="translate(-19441 -8143)">
    <rect id="Rectangle_1049" data-name="Rectangle 1049" width="1524" height="1819" transform="translate(19441 8143)" fill="#fff"/>
    <g id="Group_3117" data-name="Group 3117" transform="translate(-14.499 1.5)">
      <line id="Line_278" data-name="Line 278" y2="1737" transform="translate(19675.5 8182.5)" fill="none" stroke="#707070" stroke-width="1"/>
      <line id="Line_279" data-name="Line 279" x2="1266.973" transform="translate(19494.5 8354.5)" fill="none" stroke="#707070" stroke-width="1"/>
      <line id="Line_280" data-name="Line 280" x2="1266.973" transform="translate(19494.5 8529.5)" fill="none" stroke="#707070" stroke-width="1"/>
      <line id="Line_281" data-name="Line 281" x2="1266.973" transform="translate(19494.5 8704.5)" fill="none" stroke="#707070" stroke-width="1"/>
      <line id="Line_282" data-name="Line 282" x2="1266.973" transform="translate(19494.5 8879.5)" fill="none" stroke="#707070" stroke-width="1"/>
      <line id="Line_283" data-name="Line 283" x2="1266.973" transform="translate(19504.5 9054.5)" fill="none" stroke="#707070" stroke-width="1"/>
      <line id="Line_284" data-name="Line 284" x2="1266.973" transform="translate(19504.5 9229.5)" fill="none" stroke="#707070" stroke-width="1"/>
      <line id="Line_285" data-name="Line 285" x2="1266.973" transform="translate(19504.5 9404.5)" fill="none" stroke="#707070" stroke-width="1"/>
      <line id="Line_286" data-name="Line 286" x2="1266.973" transform="translate(19504.5 9579.5)" fill="none" stroke="#707070" stroke-width="1"/>
      <line id="Line_287" data-name="Line 287" x2="1266.973" transform="translate(19504.5 9754.5)" fill="none" stroke="#707070" stroke-width="1"/>
      <text id="Plant_Performance" data-name="Plant Performance" transform="translate(19735 8200)" fill="#21232a" font-size="54" font-family="OpenSans-Bold, Open Sans" font-weight="700"><tspan x="0" y="58">Plant Performance</tspan></text>
      <text id="Plant_technical_performance_metrics" data-name="Plant technical performance metrics" transform="translate(19736 8260)" fill="#21232a" font-size="54" font-family="OpenSans-Regular, Open Sans"><tspan x="0" y="58">Plant technical performance metrics</tspan></text>
      <g id="speed" transform="translate(19548 8222.076)">
        <path id="Path_5285" data-name="Path 5285" d="M84.577,15.039H83.012a10.128,10.128,0,0,0-20.05,0H59.876a14.487,14.487,0,0,0-28.829,0H27.961a10.128,10.128,0,0,0-20.05,0H6.346A4.359,4.359,0,0,0,2,19.385V84.577a4.359,4.359,0,0,0,4.346,4.346h78.23a4.359,4.359,0,0,0,4.346-4.346V19.385a4.359,4.359,0,0,0-4.346-4.346Zm-17.95-1.956L72.06,17.6l1.854-2.231-5.433-4.52a7.362,7.362,0,1,1-1.854,2.231ZM45.461,4.9a11.48,11.48,0,0,1,7.1,2.448l-8.127,8.113,2.057,2.057L54.6,9.389A11.576,11.576,0,1,1,45.461,4.9ZM17.936,9.244a7.358,7.358,0,0,1,2.724.536l-3.926,5.911,2.4,1.594,3.94-5.9a7.244,7.244,0,1,1-5.143-2.144ZM86.025,84.577a1.449,1.449,0,0,1-1.449,1.449H6.346A1.449,1.449,0,0,1,4.9,84.577V19.385a1.449,1.449,0,0,1,1.449-1.449H7.911a10.128,10.128,0,0,0,20.05,0h3.086a14.487,14.487,0,0,0,28.829,0h3.086a10.128,10.128,0,0,0,20.05,0h1.565a1.449,1.449,0,0,1,1.449,1.449Z" transform="translate(-2 -1.999)" fill="#707070"/>
        <path id="Path_5286" data-name="Path 5286" d="M39.628,24A24.628,24.628,0,1,0,64.256,48.628,24.628,24.628,0,0,0,39.628,24Zm0,46.359A21.731,21.731,0,1,1,61.359,48.628,21.731,21.731,0,0,1,39.628,70.359Z" transform="translate(3.833 7.873)" fill="#707070"/>
        <path id="Path_5287" data-name="Path 5287" d="M56.667,46.833a18.833,18.833,0,1,0-37.667,0h2.9a15.936,15.936,0,1,1,31.872,0Z" transform="translate(5.628 9.668)" fill="#707070"/>
        <path id="Path_5288" data-name="Path 5288" d="M42.76,33.811a1.449,1.449,0,0,0-1.84.319c-11.1,13.415-11.228,13.632-11.329,13.806a4.336,4.336,0,1,0,7.5,4.346,1.462,1.462,0,0,0,.1-.217l6.2-16.5A1.449,1.449,0,0,0,42.76,33.811ZM34.531,50.906a1.434,1.434,0,0,1-2.637-.8,1.524,1.524,0,0,1,.188-.7c.406-.522,2.811-3.433,5.549-6.751Z" transform="translate(10.118 12.187)" fill="#707070"/>
        <path id="Path_5289" data-name="Path 5289" d="M35,49h8.692v2.9H35Z" transform="translate(12.807 19.091)" fill="#707070"/>
        <path id="Path_5290" data-name="Path 5290" d="M23,49h8.692v2.9H23Z" transform="translate(7.423 19.091)" fill="#707070"/>
        <path id="Path_5291" data-name="Path 5291" d="M19,43h2.9v2.9H19Z" transform="translate(5.628 16.399)" fill="#707070"/>
        <path id="Path_5292" data-name="Path 5292" d="M43,43h2.9v2.9H43Z" transform="translate(16.397 16.399)" fill="#707070"/>
        <path id="Path_5293" data-name="Path 5293" d="M46,52H57.59v2.9H46Z" transform="translate(17.743 20.437)" fill="#707070"/>
        <path id="Path_5294" data-name="Path 5294" d="M56,52h2.9v2.9H56Z" transform="translate(22.23 20.437)" fill="#707070"/>
        <path id="Path_5295" data-name="Path 5295" d="M56,21h2.9v2.9H56Z" transform="translate(22.23 6.527)" fill="#707070"/>
        <path id="Path_5296" data-name="Path 5296" d="M46,56h5.795v2.9H46Z" transform="translate(17.743 22.232)" fill="#707070"/>
        <path id="Path_5297" data-name="Path 5297" d="M52,56h8.692v2.9H52Z" transform="translate(20.436 22.232)" fill="#707070"/>
        <path id="Path_5298" data-name="Path 5298" d="M10,52H21.59v2.9H10Z" transform="translate(1.59 20.437)" fill="#707070"/>
        <path id="Path_5299" data-name="Path 5299" d="M6,52H8.9v2.9H6Z" transform="translate(-0.205 20.437)" fill="#707070"/>
        <path id="Path_5300" data-name="Path 5300" d="M14,56h5.795v2.9H14Z" transform="translate(3.385 22.232)" fill="#707070"/>
        <path id="Path_5301" data-name="Path 5301" d="M6,56h8.692v2.9H6Z" transform="translate(-0.205 22.232)" fill="#707070"/>
        <path id="Path_5302" data-name="Path 5302" d="M46,21H57.59v2.9H46Z" transform="translate(17.743 6.527)" fill="#707070"/>
        <path id="Path_5303" data-name="Path 5303" d="M46,25h5.795v2.9H46Z" transform="translate(17.743 8.322)" fill="#707070"/>
        <path id="Path_5304" data-name="Path 5304" d="M52,25h8.692v2.9H52Z" transform="translate(20.436 8.322)" fill="#707070"/>
        <path id="Path_5305" data-name="Path 5305" d="M10,21H21.59v2.9H10Z" transform="translate(1.59 6.527)" fill="#707070"/>
        <path id="Path_5306" data-name="Path 5306" d="M6,21H8.9v2.9H6Z" transform="translate(-0.205 6.527)" fill="#707070"/>
        <path id="Path_5307" data-name="Path 5307" d="M14,25h5.795v2.9H14Z" transform="translate(3.385 8.322)" fill="#707070"/>
        <path id="Path_5308" data-name="Path 5308" d="M6,25h8.692v2.9H6Z" transform="translate(-0.205 8.322)" fill="#707070"/>
      </g>
      <g id="personal-information" transform="translate(19554 8402.424)">
        <path id="Path_5191" data-name="Path 5191" d="M77.924,86.577H34.8a3.809,3.809,0,0,1-3.8-3.8V19.311a3.809,3.809,0,0,1,3.8-3.8h7.29a1.268,1.268,0,1,1,0,2.536H34.8a1.27,1.27,0,0,0-1.268,1.268V82.772A1.27,1.27,0,0,0,34.8,84.04H77.924a1.27,1.27,0,0,0,1.268-1.268V53.265H50.023a3.809,3.809,0,0,1-3.8-3.8V3.8a3.809,3.809,0,0,1,3.8-3.8H88.069a3.809,3.809,0,0,1,3.8,3.8V16.487a1.268,1.268,0,0,1-2.536,0V3.8a1.27,1.27,0,0,0-1.268-1.268H50.023A1.27,1.27,0,0,0,48.755,3.8V49.46a1.27,1.27,0,0,0,1.268,1.268H88.069a1.27,1.27,0,0,0,1.268-1.268V21.56a1.268,1.268,0,0,1,1.268-1.268h7.609a1.268,1.268,0,0,1,0,2.536H91.874V27.9h6.341a1.268,1.268,0,1,1,0,2.536H91.874V35.51h6.341a1.268,1.268,0,0,1,0,2.536H91.874v5.073h6.341a1.268,1.268,0,1,1,0,2.536H91.874v3.8a3.789,3.789,0,0,1-.217,1.268h6.558a1.268,1.268,0,1,1,0,2.536H81.728v5.073H98.215a1.268,1.268,0,0,1,0,2.536H81.728v7.947h21.56a1.27,1.27,0,0,0,1.268-1.268V11.7a1.27,1.27,0,0,0-1.268-1.268H95.679a1.268,1.268,0,1,1,0-2.536h7.609a3.809,3.809,0,0,1,3.8,3.8V67.553a3.809,3.809,0,0,1-3.8,3.8H81.728v7.609h13.95A1.27,1.27,0,0,0,96.947,77.7V75.163a1.268,1.268,0,0,1,2.536,0V77.7a3.809,3.809,0,0,1-3.8,3.8H81.728v1.268A3.809,3.809,0,0,1,77.924,86.577Zm7.609-38.385H52.56a1.268,1.268,0,0,1-1.268-1.268V42.518c0-6.517,4.309-8.008,7.455-9.1,2.6-.9,4.071-1.5,4.331-3.457A10.606,10.606,0,0,1,58.437,21.2V15.969a10.609,10.609,0,0,1,21.218,0V21.2a10.606,10.606,0,0,1-4.639,8.766c.26,1.953,1.734,2.558,4.331,3.457C82.493,34.51,86.8,36,86.8,42.518v4.406A1.268,1.268,0,0,1,85.533,48.192ZM53.828,45.656H84.265V42.518c0-4.71-2.664-5.632-5.748-6.7-2.278-.788-5.024-1.739-5.84-4.651a10.619,10.619,0,0,1-7.263,0c-.816,2.912-3.562,3.863-5.84,4.651-3.084,1.068-5.748,1.989-5.748,6.7ZM69.046,7.9a8.082,8.082,0,0,0-8.073,8.073V21.2a8.073,8.073,0,0,0,16.146,0V15.969A8.082,8.082,0,0,0,69.046,7.9Z" transform="translate(-31)" fill="#707070" stroke="#707070" stroke-width="0.5"/>
      </g>
      <text id="Plant_Utilization" data-name="Plant Utilization" transform="translate(19735 8375)" fill="#21232a" font-size="54" font-family="OpenSans-Bold, Open Sans" font-weight="700"><tspan x="0" y="58">Plant Utilization</tspan></text>
      <text id="Plant_technical_performance_metrics-2" data-name="Plant technical performance metrics" transform="translate(19736 8435)" fill="#21232a" font-size="54" font-family="OpenSans-Regular, Open Sans"><tspan x="0" y="58">Plant technical performance metrics</tspan></text>
      <g id="survey_2_" data-name="survey (2)" transform="translate(19551 8571.601)">
        <g id="Group_3015" data-name="Group 3015" transform="translate(0 0)">
          <g id="Group_3014" data-name="Group 3014">
            <circle id="Ellipse_463" data-name="Ellipse 463" cx="1.695" cy="1.695" r="1.695" transform="translate(6.78 6.781)" fill="#707070"/>
            <circle id="Ellipse_464" data-name="Ellipse 464" cx="1.695" cy="1.695" r="1.695" transform="translate(13.561 6.781)" fill="#707070"/>
            <circle id="Ellipse_465" data-name="Ellipse 465" cx="1.695" cy="1.695" r="1.695" transform="translate(20.342 6.781)" fill="#707070"/>
            <path id="Path_5270" data-name="Path 5270" d="M108.361,216.723h37.293a1.7,1.7,0,0,0,0-3.39H108.361a1.7,1.7,0,1,0,0,3.39Z" transform="translate(-89.715 -182.82)" fill="#707070"/>
            <path id="Path_5271" data-name="Path 5271" d="M128.7,341.333H108.361a1.7,1.7,0,1,0,0,3.39H128.7a1.7,1.7,0,1,0,0-3.39Z" transform="translate(-89.715 -290.479)" fill="#707070"/>
            <path id="Path_5272" data-name="Path 5272" d="M74.878,41.675c-.1,0-.193.025-.291.029V28.114a6.788,6.788,0,0,0-6.781-6.781H6.781A6.788,6.788,0,0,0,0,28.114V89.139a6.788,6.788,0,0,0,6.781,6.781H67.806a6.788,6.788,0,0,0,6.781-6.781V57.632l4.88-4.879v0a6.489,6.489,0,0,0-4.589-11.077ZM3.39,28.114a3.394,3.394,0,0,1,3.39-3.39H67.806a3.394,3.394,0,0,1,3.39,3.39v6.781H3.39ZM71.2,89.139a3.394,3.394,0,0,1-3.39,3.39H6.781a3.394,3.394,0,0,1-3.39-3.39V38.285H71.2v4.548a6.377,6.377,0,0,0-.907.742L51.845,62.017h-33.2a1.7,1.7,0,1,0,0,3.39H49.125L47.5,73.55a1.7,1.7,0,0,0,1.662,2.028,1.731,1.731,0,0,0,.331-.033l8.472-1.7a1.685,1.685,0,0,0,.867-.464L71.2,61.022ZM56.8,70.626l-5.476,1.1,1.1-5.483L67.805,50.852l4.384,4.384ZM77.069,50.356l-2.483,2.483L70.2,48.454l2.484-2.484a3.1,3.1,0,0,1,4.384,4.385Z" transform="translate(0 -21.333)" fill="#707070"/>
          </g>
        </g>
      </g>
      <text id="Add_Generation_Data" data-name="Add Generation Data" transform="translate(19735 8542)" fill="#21232a" font-size="54" font-family="OpenSans-Bold, Open Sans" font-weight="700"><tspan x="0" y="58">Add Generation Data</tspan></text>
      <text id="Record_and_submit_plant_generation_data" data-name="Record and submit plant generation data" transform="translate(19736 8605)" fill="#21232a" font-size="54" font-family="OpenSans-Regular, Open Sans"><tspan x="0" y="58">Record and submit plant generation data</tspan></text>
      <g id="seo-report_2_" data-name="seo-report (2)" transform="translate(19557 8741.372)">
        <path id="Path_5177" data-name="Path 5177" d="M260.042,110.847h17.332a1.247,1.247,0,1,0,0-2.494H260.042a1.247,1.247,0,1,0,0,2.494Z" transform="translate(-223.836 -88.985)" fill="#707070"/>
        <path id="Path_5178" data-name="Path 5178" d="M258.8,142.235a1.247,1.247,0,0,0,1.247,1.247h17.332a1.247,1.247,0,0,0,0-2.494H260.042A1.247,1.247,0,0,0,258.8,142.235Z" transform="translate(-223.836 -115.787)" fill="#707070"/>
        <path id="Path_5179" data-name="Path 5179" d="M260.042,176.117h17.332a1.247,1.247,0,0,0,0-2.494H260.042a1.247,1.247,0,1,0,0,2.494Z" transform="translate(-223.836 -142.588)" fill="#707070"/>
        <path id="Path_5180" data-name="Path 5180" d="M284.227,357a1.247,1.247,0,0,0-1.247-1.247H266.868a1.247,1.247,0,0,0,0,2.494H282.98A1.247,1.247,0,0,0,284.227,357Z" transform="translate(-229.441 -292.163)" fill="#707070"/>
        <path id="Path_5181" data-name="Path 5181" d="M127.4,288.926a1.247,1.247,0,0,0-1.247-1.247H108.825a1.247,1.247,0,0,0,0,2.494h17.332A1.247,1.247,0,0,0,127.4,288.926Z" transform="translate(-99.648 -236.257)" fill="#707070"/>
        <path id="Path_5182" data-name="Path 5182" d="M108.825,257.539h17.332a1.247,1.247,0,0,0,0-2.494H108.825a1.247,1.247,0,0,0,0,2.494Z" transform="translate(-99.648 -209.456)" fill="#707070"/>
        <path id="Path_5183" data-name="Path 5183" d="M113,72.694a12.924,12.924,0,1,0,12.924,12.924A12.938,12.938,0,0,0,113,72.694Zm0,23.166a10.243,10.243,0,0,1-1.341-20.4V85.618A1.341,1.341,0,0,0,113,86.958H123.16A10.258,10.258,0,0,1,113,95.86Zm1.341-11.583V75.463a10.265,10.265,0,0,1,8.815,8.815Z" transform="translate(-93.491 -59.7)" fill="#707070"/>
        <path id="Path_5184" data-name="Path 5184" d="M236.417,234.874v11.971a2.174,2.174,0,0,0,2.172,2.172h20.823a2.174,2.174,0,0,0,2.172-2.172V234.874a2.174,2.174,0,0,0-2.172-2.172H238.589a2.174,2.174,0,0,0-2.172,2.172Zm2.681.509h19.8v10.952H239.1Z" transform="translate(-205.458 -191.107)" fill="#707070"/>
        <path id="Path_5185" data-name="Path 5185" d="M100.078,356.439a2.174,2.174,0,0,0,2.172,2.172h3.643a2.174,2.174,0,0,0,2.172-2.172V338.254a2.174,2.174,0,0,0-2.172-2.172H102.25a2.174,2.174,0,0,0-2.172,2.172Zm2.681-17.676h2.624v17.166h-2.624Z" transform="translate(-93.489 -276.008)" fill="#707070"/>
        <path id="Path_5186" data-name="Path 5186" d="M157.62,362.775a2.174,2.174,0,0,0-2.172,2.172V378.36a2.174,2.174,0,0,0,2.172,2.172h3.643a2.174,2.174,0,0,0,2.172-2.172V364.947a2.174,2.174,0,0,0-2.172-2.172Zm3.133,15.076h-2.624V365.456h2.624Z" transform="translate(-138.962 -297.93)" fill="#707070"/>
        <path id="Path_5187" data-name="Path 5187" d="M212.99,407.844h3.643a2.175,2.175,0,0,0,2.172-2.172V398.2a2.175,2.175,0,0,0-2.172-2.172H212.99a2.174,2.174,0,0,0-2.172,2.172v7.469A2.174,2.174,0,0,0,212.99,407.844Zm.509-9.132h2.624v6.45H213.5Z" transform="translate(-184.434 -325.242)" fill="#707070"/>
        <path id="Path_5188" data-name="Path 5188" d="M282.979,390.03H266.867a1.247,1.247,0,1,0,0,2.494h16.112a1.247,1.247,0,0,0,0-2.494Z" transform="translate(-229.441 -320.313)" fill="#707070"/>
        <path id="Path_5189" data-name="Path 5189" d="M282.979,424.307H266.867a1.247,1.247,0,1,0,0,2.494h16.112a1.247,1.247,0,0,0,0-2.494Z" transform="translate(-229.441 -348.463)" fill="#707070"/>
        <path id="Path_5190" data-name="Path 5190" d="M130.794,16.622a1.341,1.341,0,0,0,1.341-1.341V4.493A4.5,4.5,0,0,0,127.641,0H73.912a4.5,4.5,0,0,0-4.493,4.493V6.2H67.708A4.5,4.5,0,0,0,63.215,10.7V68.132a1.341,1.341,0,1,0,2.681,0V10.7a1.814,1.814,0,0,1,1.812-1.812h53.729a1.814,1.814,0,0,1,1.812,1.812V87.025a1.814,1.814,0,0,1-1.812,1.812H67.708A1.814,1.814,0,0,1,65.9,87.025V74.388a1.341,1.341,0,1,0-2.681,0V87.025a4.5,4.5,0,0,0,4.493,4.493h53.729a4.5,4.5,0,0,0,4.493-4.493V85.314h1.711a4.5,4.5,0,0,0,4.493-4.493V21.537a1.341,1.341,0,0,0-2.681,0V80.821a1.814,1.814,0,0,1-1.812,1.812H125.93V10.7A4.5,4.5,0,0,0,121.437,6.2H72.1V4.493a1.814,1.814,0,0,1,1.812-1.812h53.729a1.814,1.814,0,0,1,1.812,1.812V15.281a1.341,1.341,0,0,0,1.341,1.341Z" transform="translate(-63.215 0)" fill="#707070"/>
      </g>
      <text id="Add_Consumption_Data" data-name="Add Consumption Data" transform="translate(19735 8719)" fill="#21232a" font-size="54" font-family="OpenSans-Bold, Open Sans" font-weight="700"><tspan x="0" y="58">Add Consumption Data</tspan></text>
      <text id="Record_and_submit_plant_consumption_data" data-name="Record and submit plant consumption data" transform="translate(19736 8788)" fill="#21232a" font-size="54" font-family="OpenSans-Regular, Open Sans"><tspan x="0" y="58">Record and submit plant consumption data</tspan></text>
      <g id="seo-report_1_" data-name="seo-report (1)" transform="translate(19558 8923.584)">
        <g id="Group_2581" data-name="Group 2581">
          <path id="Path_4355" data-name="Path 4355" d="M132.627,0H68A1.333,1.333,0,0,0,66.67,1.333v63.31a1.333,1.333,0,1,0,2.666,0V2.666h61.959v8.379a1.333,1.333,0,1,0,2.666,0V1.333A1.333,1.333,0,0,0,132.627,0Z" transform="translate(-66.67)" fill="#707070"/>
          <path id="Path_4356" data-name="Path 4356" d="M132.627,89.65a1.333,1.333,0,0,0-1.333,1.333v71.056H69.336V144.581a1.333,1.333,0,0,0-2.666,0v18.791A1.333,1.333,0,0,0,68,164.7h64.625a1.333,1.333,0,0,0,1.333-1.333V90.983A1.333,1.333,0,0,0,132.627,89.65Z" transform="translate(-66.67 -73.719)" fill="#707070"/>
          <path id="Path_4357" data-name="Path 4357" d="M99,108.294A10.308,10.308,0,1,0,109.3,97.986,10.32,10.32,0,0,0,99,108.294Zm10.308,7.643a7.642,7.642,0,0,1-1.333-15.167v7.524a1.333,1.333,0,0,0,1.333,1.333h7.524A7.654,7.654,0,0,1,109.3,115.937Zm7.524-8.976h-6.191V100.77A7.66,7.66,0,0,1,116.828,106.962Z" transform="translate(-93.251 -80.573)" fill="#707070"/>
          <path id="Path_4358" data-name="Path 4358" d="M104.369,432.35a1.333,1.333,0,0,0-1.333,1.333v5.744a1.333,1.333,0,0,0,1.333,1.333h8.617a1.333,1.333,0,0,0,1.333-1.333v-5.744a1.333,1.333,0,0,0-1.333-1.333Zm7.284,5.744H105.7v-3.079h5.951Z" transform="translate(-96.574 -355.519)" fill="#707070"/>
          <path id="Path_4359" data-name="Path 4359" d="M185.183,400.889H193.8a1.333,1.333,0,0,0,1.333-1.333V385.195a1.333,1.333,0,0,0-1.333-1.333h-8.616a1.333,1.333,0,0,0-1.333,1.333v14.361A1.333,1.333,0,0,0,185.183,400.889Zm1.333-14.361h5.951v11.7h-5.951Z" transform="translate(-163.026 -315.647)" fill="#707070"/>
          <path id="Path_4360" data-name="Path 4360" d="M266,323.252a1.333,1.333,0,0,0-1.333,1.333v25.132A1.333,1.333,0,0,0,266,351.049h8.616a1.333,1.333,0,0,0,1.333-1.333V324.585a1.333,1.333,0,0,0-1.333-1.333Zm7.284,25.132h-5.951V325.918h5.951Z" transform="translate(-229.478 -265.808)" fill="#707070"/>
          <path id="Path_4361" data-name="Path 4361" d="M355.428,290.216a1.333,1.333,0,0,0,1.333-1.333v-4.7a1.333,1.333,0,0,0-1.333-1.333h-8.615a1.333,1.333,0,0,0-1.333,1.333v32.311a1.333,1.333,0,0,0,1.333,1.333h8.615a1.333,1.333,0,0,0,1.333-1.333V295.1a1.333,1.333,0,0,0-2.666,0v20.058h-5.949V285.516H354.1v3.368A1.333,1.333,0,0,0,355.428,290.216Z" transform="translate(-295.934 -232.586)" fill="#707070"/>
          <path id="Path_4362" data-name="Path 4362" d="M197.742,32.325H169.02a1.333,1.333,0,0,0-1.333,1.333V39.4a1.333,1.333,0,0,0,1.333,1.333h28.722a1.333,1.333,0,0,0,1.333-1.333V33.658A1.333,1.333,0,0,0,197.742,32.325Zm-1.333,5.744H170.353V34.991h26.057v3.079Z" transform="translate(-149.736 -26.581)" fill="#707070"/>
          <path id="Path_4363" data-name="Path 4363" d="M276.4,97.986H249.833a1.333,1.333,0,0,0,0,2.666H276.4a1.333,1.333,0,0,0,0-2.666Z" transform="translate(-216.188 -80.573)" fill="#707070"/>
          <path id="Path_4364" data-name="Path 4364" d="M276.4,131.658H249.833a1.333,1.333,0,0,0,0,2.666H276.4a1.333,1.333,0,0,0,0-2.666Z" transform="translate(-216.188 -108.262)" fill="#707070"/>
          <path id="Path_4365" data-name="Path 4365" d="M277.733,166.663a1.333,1.333,0,0,0-1.333-1.333H249.833a1.333,1.333,0,0,0,0,2.666H276.4A1.333,1.333,0,0,0,277.733,166.663Z" transform="translate(-216.188 -135.95)" fill="#707070"/>
          <path id="Path_4366" data-name="Path 4366" d="M266.963,200.335A1.333,1.333,0,0,0,265.63,199h-15.8a1.333,1.333,0,0,0,0,2.666h15.8A1.333,1.333,0,0,0,266.963,200.335Z" transform="translate(-216.188 -163.638)" fill="#707070"/>
          <path id="Path_4367" data-name="Path 4367" d="M137.695,248.5H113.461a1.333,1.333,0,0,0,0,2.666h24.234a1.333,1.333,0,0,0,0-2.666Z" transform="translate(-104.05 -204.34)" fill="#707070"/>
          <path id="Path_4368" data-name="Path 4368" d="M139.028,283.5a1.333,1.333,0,0,0-1.333-1.333H113.461a1.333,1.333,0,0,0,0,2.666h24.234A1.333,1.333,0,0,0,139.028,283.5Z" transform="translate(-104.05 -232.028)" fill="#707070"/>
          <path id="Path_4369" data-name="Path 4369" d="M128.257,317.177a1.333,1.333,0,0,0-1.333-1.333H113.461a1.333,1.333,0,1,0,0,2.666h13.464A1.333,1.333,0,0,0,128.257,317.177Z" transform="translate(-104.05 -259.717)" fill="#707070"/>
        </g>
      </g>
      <text id="Diesel_Consumption" data-name="Diesel Consumption" transform="translate(19735 8892)" fill="#21232a" font-size="54" font-family="OpenSans-Bold, Open Sans" font-weight="700"><tspan x="0" y="58">Diesel Consumption</tspan></text>
      <text id="Record_and_submit_diesel_consumption_data" data-name="Record and submit diesel consumption data" transform="translate(19736 8962)" fill="#21232a" font-size="54" font-family="OpenSans-Regular, Open Sans"><tspan x="0" y="58">Record and submit diesel consumption </tspan></text>
      <g id="deposit" transform="translate(19548 9081.315)">
        <path id="Path_4342" data-name="Path 4342" d="M63.842,31h-46.3A1.544,1.544,0,0,0,16,32.543v46.3a1.543,1.543,0,0,0,1.543,1.543h46.3a1.543,1.543,0,0,0,1.543-1.543v-46.3A1.544,1.544,0,0,0,63.842,31ZM62.3,77.3H19.087V34.087H62.3Z" transform="translate(2.52 15.299)" fill="#707070"/>
        <path id="Path_4343" data-name="Path 4343" d="M20.543,69.5v3.087a1.543,1.543,0,0,0,1.543,1.543h35.5a1.543,1.543,0,0,0,1.543-1.543V35.543A1.543,1.543,0,0,0,57.582,34h-35.5a1.543,1.543,0,0,0-1.543,1.543V38.63A1.543,1.543,0,0,0,19,40.173v9.26a1.543,1.543,0,0,0,1.543,1.543v6.173A1.543,1.543,0,0,0,19,58.693v9.26A1.543,1.543,0,0,0,20.543,69.5ZM22.087,47.89V41.716H23.63V47.89Zm1.543,3.087h1.543a1.543,1.543,0,0,0,1.543-1.543v-9.26a1.543,1.543,0,0,0-1.543-1.543H23.63V37.087H56.039V71.039H23.63V69.5h1.543a1.543,1.543,0,0,0,1.543-1.543v-9.26a1.543,1.543,0,0,0-1.543-1.543H23.63Zm-1.543,9.26H23.63v6.173H22.087Z" transform="translate(4.15 16.929)" fill="#707070"/>
        <path id="Path_4344" data-name="Path 4344" d="M37.89,65.779A13.89,13.89,0,1,0,24,51.89,13.906,13.906,0,0,0,37.89,65.779Zm0-24.693a10.8,10.8,0,1,1-10.8,10.8A10.816,10.816,0,0,1,37.89,41.087Z" transform="translate(6.866 19.102)" fill="#707070"/>
        <path id="Path_4345" data-name="Path 4345" d="M36.26,59.519A9.26,9.26,0,1,0,27,50.26,9.269,9.269,0,0,0,36.26,59.519Zm0-15.433a6.173,6.173,0,1,1-6.173,6.173A6.179,6.179,0,0,1,36.26,44.087Z" transform="translate(8.496 20.732)" fill="#707070"/>
        <path id="Path_4346" data-name="Path 4346" d="M21.543,44.212H55.5a1.544,1.544,0,0,0,1.543-1.543V1H53.952V41.126H23.087V1H20V42.669A1.544,1.544,0,0,0,21.543,44.212Z" transform="translate(4.693 -1)" fill="#707070"/>
        <path id="Path_4347" data-name="Path 4347" d="M32.26,18.346a6.179,6.179,0,0,0,6.173-6.173,3.087,3.087,0,1,1,3.087,3.087v3.087a6.168,6.168,0,0,0,5.954-4.63h3.306V10.63H47.474a6.16,6.16,0,0,0-12.127,1.543A3.087,3.087,0,1,1,32.26,9.087V6a6.168,6.168,0,0,0-5.954,4.63H23v3.087h3.306A6.168,6.168,0,0,0,32.26,18.346Z" transform="translate(6.323 1.716)" fill="#707070"/>
        <path id="Path_4348" data-name="Path 4348" d="M24.544,27.346a3.09,3.09,0,0,1,3.087,3.087,1.544,1.544,0,0,0,1.543,1.543H44.607a1.544,1.544,0,0,0,1.543-1.543,3.09,3.09,0,0,1,3.087-3.087A1.544,1.544,0,0,0,50.78,25.8V15H47.693v9.454a6.2,6.2,0,0,0-4.435,4.435H30.521a6.2,6.2,0,0,0-4.435-4.435V15H23V25.8a1.546,1.546,0,0,0,1.545,1.543Z" transform="translate(6.322 6.606)" fill="#707070"/>
        <path id="Path_4349" data-name="Path 4349" d="M31,15h3.087v3.087H31Z" transform="translate(10.669 6.606)" fill="#707070"/>
        <path id="Path_4350" data-name="Path 4350" d="M31,3h3.087V6.087H31Z" transform="translate(10.669 0.087)" fill="#707070"/>
        <path id="Path_4351" data-name="Path 4351" d="M67.489,16.755a1.546,1.546,0,0,0-1.426-.952h-4.63V5H58.346V17.346A1.544,1.544,0,0,0,59.89,18.89h2.448L56.8,24.424,51.269,18.89h2.448a1.544,1.544,0,0,0,1.543-1.543V5H52.173V15.8h-4.63a1.543,1.543,0,0,0-1.091,2.634l9.26,9.26a1.543,1.543,0,0,0,2.182,0l9.26-9.26a1.543,1.543,0,0,0,.335-1.682Z" transform="translate(18.818 1.173)" fill="#707070"/>
        <path id="Path_4352" data-name="Path 4352" d="M50,1h3.087V4.087H50Z" transform="translate(20.992 -1)" fill="#707070"/>
        <path id="Path_4353" data-name="Path 4353" d="M25.489,26.755a1.546,1.546,0,0,0-1.426-.952h-4.63V15H16.346V27.346A1.544,1.544,0,0,0,17.89,28.89h2.448L14.8,34.424,9.269,28.89h2.448a1.544,1.544,0,0,0,1.543-1.543V15H10.173V25.8H5.543a1.543,1.543,0,0,0-1.091,2.634l9.26,9.26a1.542,1.542,0,0,0,2.182,0l9.26-9.26A1.543,1.543,0,0,0,25.489,26.755Z" transform="translate(-4 6.606)" fill="#707070"/>
        <path id="Path_4354" data-name="Path 4354" d="M8,11h3.087v3.087H8Z" transform="translate(-1.827 4.433)" fill="#707070"/>
      </g>
      <text id="Bank_Deposit" data-name="Bank Deposit" transform="translate(19735 9072)" fill="#21232a" font-size="54" font-family="OpenSans-Bold, Open Sans" font-weight="700"><tspan x="0" y="58">Bank Deposit</tspan></text>
      <text id="Bank_deposits_and_plant_cash_balance" data-name="Bank deposits and plant cash balance" transform="translate(19736 9134)" fill="#21232a" font-size="54" font-family="OpenSans-Regular, Open Sans"><tspan x="0" y="58">Bank deposits and plant cash balance</tspan></text>
      <g id="knife-switch" transform="translate(19556 9277.787)">
        <path id="Path_5255" data-name="Path 5255" d="M88.141,218.966l-6.149-3.074,2.271-2.271a2.229,2.229,0,0,0-3.152-3.152l-4.457,4.457a2.23,2.23,0,0,0,.579,3.569l6.149,3.074-2.271,2.271c-2.091,2.091,1.094,5.21,3.152,3.152l4.457-4.457A2.23,2.23,0,0,0,88.141,218.966Z" transform="translate(-67.087 -178.616)" fill="#707070"/>
        <path id="Path_5256" data-name="Path 5256" d="M80.629,13.371A6.688,6.688,0,1,0,74.6,9.566L59.785,24.378A20.026,20.026,0,0,0,47.2,17.953v-6.81a6.693,6.693,0,0,0-6.686-6.686H20.457V2.229a2.229,2.229,0,0,0-4.457,0V73.84a2.229,2.229,0,0,0,4.457,0V71.314H40.514A6.693,6.693,0,0,0,47.2,64.629v-6.81A20.048,20.048,0,0,0,62.435,28.031L77.748,12.718a6.645,6.645,0,0,0,2.881.653ZM47.2,31.583a6.684,6.684,0,0,1,0,12.6ZM42.743,64.629a2.231,2.231,0,0,1-2.229,2.229H20.457V8.914H40.514a2.231,2.231,0,0,1,2.229,2.229Zm4.457-11.3V48.8a11.144,11.144,0,0,0,0-21.837V22.446a15.6,15.6,0,0,1,0,30.88ZM80.629,4.457A2.229,2.229,0,1,1,78.4,6.686,2.231,2.231,0,0,1,80.629,4.457Z" transform="translate(-16 0)" fill="#707070"/>
        <circle id="Ellipse_461" data-name="Ellipse 461" cx="1.781" cy="1.781" r="1.781" transform="translate(18.395 13.55)" fill="#707070"/>
        <ellipse id="Ellipse_462" data-name="Ellipse 462" cx="1.781" cy="2.671" rx="1.781" ry="2.671" transform="translate(18.395 58.074)" fill="#707070"/>
      </g>
      <text id="Plant_Shutdown_Information" data-name="Plant Shutdown Information" transform="translate(19735 9248)" fill="#21232a" font-size="54" font-family="OpenSans-Bold, Open Sans" font-weight="700"><tspan x="0" y="58">Plant Shutdown Information</tspan></text>
      <text id="Remote_access_to_plant_shutdowns" data-name="Remote access to plant shutdowns" transform="translate(19736 9309)" fill="#21232a" font-size="54" font-family="OpenSans-Regular, Open Sans"><tspan x="0" y="58">Remote access to plant shutdowns</tspan></text>
      <g id="work_time" data-name="work time" transform="translate(19560 9467.521)">
        <path id="Path_5261" data-name="Path 5261" d="M36.727,4.114h8.948V2H36.162a1.057,1.057,0,0,0-.88.471L33.168,5.642l1.759,1.173Z" transform="translate(-0.221 -2)" fill="#707070" stroke="#707070" stroke-width="0.25"/>
        <path id="Path_5262" data-name="Path 5262" d="M27.948,60.146H19V62.26h9.514a1.057,1.057,0,0,0,.88-.471l2.114-3.171-1.759-1.173Z" transform="translate(-1.03 1.165)" fill="#707070" stroke="#707070" stroke-width="0.25"/>
        <path id="Path_5263" data-name="Path 5263" d="M45.34,25.256a19.851,19.851,0,0,0-10.42,2.939l-.549-.768a14.906,14.906,0,0,0,.614-1.487l4.186-.7a1.057,1.057,0,0,0,.883-1.042V17.856a1.057,1.057,0,0,0-.883-1.042l-4.186-.7a14.9,14.9,0,0,0-.614-1.487l2.465-3.451a1.057,1.057,0,0,0-.113-1.362L32.239,5.331a1.057,1.057,0,0,0-1.362-.113L27.426,7.683a14.905,14.905,0,0,0-1.487-.609l-.7-4.186A1.057,1.057,0,0,0,24.2,2H17.856a1.057,1.057,0,0,0-1.042.883l-.7,4.186a14.9,14.9,0,0,0-1.487.614L11.178,5.218a1.057,1.057,0,0,0-1.362.113L5.331,9.816a1.057,1.057,0,0,0-.113,1.362l2.477,3.467a14.01,14.01,0,0,0-.606,1.468l-4.206.7A1.057,1.057,0,0,0,2,17.856V24.2a1.057,1.057,0,0,0,.883,1.042l4.205.7a15.7,15.7,0,0,0,.6,1.48L5.218,30.877a1.057,1.057,0,0,0,.113,1.362l4.485,4.485a1.057,1.057,0,0,0,1.362.113l3.451-2.465a14.905,14.905,0,0,0,1.487.614l.7,4.186a1.057,1.057,0,0,0,1.042.883H24.2a1.057,1.057,0,0,0,1.042-.883l.7-4.186a14.9,14.9,0,0,0,1.487-.614l.768.549a19.851,19.851,0,0,0-2.939,10.42A20.085,20.085,0,1,0,45.34,25.256ZM27.019,32.208a12.649,12.649,0,0,1-2.326.96,1.057,1.057,0,0,0-.74.838l-.65,3.934H18.752L18.1,34.006a1.057,1.057,0,0,0-.74-.838,12.649,12.649,0,0,1-2.326-.96,1.057,1.057,0,0,0-1.114.071L10.671,34.6,7.459,31.378l2.317-3.245a1.057,1.057,0,0,0,.071-1.114,14.283,14.283,0,0,1-.976-2.373,1.057,1.057,0,0,0-.821-.687L4.114,23.3V18.752L8.049,18.1a1.057,1.057,0,0,0,.821-.687,17.336,17.336,0,0,1,1-2.42,1.057,1.057,0,0,0-.1-1.068L7.459,10.677l3.218-3.218,3.245,2.317a1.057,1.057,0,0,0,1.114.071,12.649,12.649,0,0,1,2.326-.96,1.057,1.057,0,0,0,.74-.838l.65-3.934H23.3l.655,3.934a1.057,1.057,0,0,0,.74.838,12.649,12.649,0,0,1,2.326.96,1.057,1.057,0,0,0,1.114-.071l3.245-2.317L34.6,10.677l-2.317,3.245a1.057,1.057,0,0,0-.071,1.114,12.65,12.65,0,0,1,.96,2.326,1.057,1.057,0,0,0,.838.74l3.934.655v4.552l-3.934.655a1.057,1.057,0,0,0-.838.74,12.649,12.649,0,0,1-.96,2.326,1.057,1.057,0,0,0,.071,1.114L34.6,31.389l-3.218,3.218L28.138,32.29A1.057,1.057,0,0,0,27.019,32.208ZM46.4,63.257V60.139H44.283v3.117A17.964,17.964,0,0,1,27.424,46.4h3.117V44.283H27.409a17.7,17.7,0,0,1,2.507-8.132l.961.686a1.057,1.057,0,0,0,1.362-.113l4.485-4.485a1.057,1.057,0,0,0,.113-1.362l-.686-.961a17.7,17.7,0,0,1,8.132-2.507v3.132H46.4V27.424A17.964,17.964,0,0,1,63.257,44.283H60.139V46.4h3.117A17.964,17.964,0,0,1,46.4,63.257Z" transform="translate(-2 -2)" fill="#707070" stroke="#707070" stroke-width="0.25"/>
        <path id="Path_5264" data-name="Path 5264" d="M44.114,31H42V43.685a1.057,1.057,0,0,0,1.057,1.057h8.457V42.628h-7.4Z" transform="translate(0.283 -0.345)" fill="#707070" stroke="#707070" stroke-width="0.25"/>
        <path id="Path_5265" data-name="Path 5265" d="M25.628,17.4H21.4V11.057a1.057,1.057,0,0,0-2.019-.438L14.1,22.247a1.057,1.057,0,0,0,.962,1.495h4.228v6.342a1.057,1.057,0,0,0,.833,1.034,1.083,1.083,0,0,0,.224.023,1.057,1.057,0,0,0,.962-.619L26.59,18.894a1.057,1.057,0,0,0-.962-1.495ZM21.4,25.2V22.685a1.057,1.057,0,0,0-1.057-1.057H16.7l2.587-5.69v2.519a1.057,1.057,0,0,0,1.057,1.057h3.644Z" transform="translate(-1.315 -1.543)" fill="#707070" stroke="#707070" stroke-width="0.25"/>
        <rect id="Rectangle_976" data-name="Rectangle 976" width="3" height="3" transform="translate(17.425 3.479)" fill="#707070" stroke="#707070" stroke-width="0.25"/>
        <rect id="Rectangle_977" data-name="Rectangle 977" width="2.114" height="2.114" transform="translate(7.816 9.311) rotate(-45)" fill="#707070" stroke="#707070" stroke-width="0.25"/>
        <rect id="Rectangle_978" data-name="Rectangle 978" width="3" height="3" transform="translate(3.425 17.479)" fill="#707070" stroke="#707070" stroke-width="0.25"/>
        <rect id="Rectangle_979" data-name="Rectangle 979" width="2.114" height="2.114" transform="translate(7.815 28.744) rotate(-45)" fill="#707070" stroke="#707070" stroke-width="0.25"/>
        <rect id="Rectangle_980" data-name="Rectangle 980" width="3" height="3" transform="translate(17.425 31.479)" fill="#707070" stroke="#707070" stroke-width="0.25"/>
        <rect id="Rectangle_981" data-name="Rectangle 981" width="2.114" height="2.114" transform="translate(27.249 28.744) rotate(-45)" fill="#707070" stroke="#707070" stroke-width="0.25"/>
        <rect id="Rectangle_982" data-name="Rectangle 982" width="3" height="3" transform="translate(31.425 17.479)" fill="#707070" stroke="#707070" stroke-width="0.25"/>
        <rect id="Rectangle_983" data-name="Rectangle 983" width="2.114" height="2.114" transform="translate(27.25 9.311) rotate(-45)" fill="#707070" stroke="#707070" stroke-width="0.25"/>
        <path id="Path_5266" data-name="Path 5266" d="M53.228,7a4.228,4.228,0,1,0,4.228,4.228A4.228,4.228,0,0,0,53.228,7Zm0,6.342a2.114,2.114,0,1,1,2.114-2.114A2.114,2.114,0,0,1,53.228,13.342Z" transform="translate(0.683 -1.715)" fill="#707070" stroke="#707070" stroke-width="0.25"/>
        <path id="Path_5267" data-name="Path 5267" d="M62.227,8.374,61.52,8.2l.375-.625a1.057,1.057,0,0,0-.16-1.292L58.746,3.292a1.057,1.057,0,0,0-1.292-.16l-.625.375L56.653,2.8A1.057,1.057,0,0,0,55.628,2H51.4a1.057,1.057,0,0,0-1.025.8l-.177.707-.625-.375a1.057,1.057,0,0,0-1.292.16L45.292,6.281a1.057,1.057,0,0,0-.16,1.292l.375.625-.707.177A1.057,1.057,0,0,0,44,9.4v4.228a1.057,1.057,0,0,0,.8,1.025l.707.177-.375.625a1.057,1.057,0,0,0,.16,1.292l2.989,2.989a1.057,1.057,0,0,0,1.292.16l.625-.375.177.707a1.057,1.057,0,0,0,1.025.8h4.228a1.057,1.057,0,0,0,1.025-.8l.177-.707.625.375a1.057,1.057,0,0,0,1.292-.16l2.989-2.989a1.057,1.057,0,0,0,.16-1.292l-.375-.625.707-.177a1.057,1.057,0,0,0,.8-1.025V9.4a1.057,1.057,0,0,0-.8-1.025ZM60.913,12.8l-1.291.317a1.057,1.057,0,0,0-.649,1.57l.684,1.141-1.822,1.822-1.141-.684a1.057,1.057,0,0,0-1.57.649l-.322,1.3H52.225l-.317-1.291a1.057,1.057,0,0,0-1.57-.649l-1.141.684-1.822-1.822.684-1.141a1.057,1.057,0,0,0-.649-1.57l-1.3-.322V10.225L47.4,9.908a1.057,1.057,0,0,0,.649-1.57L47.37,7.2l1.822-1.822,1.141.684a1.057,1.057,0,0,0,1.57-.65l.317-1.29H54.8l.317,1.29a1.057,1.057,0,0,0,1.57.65l1.141-.684L59.647,7.2l-.684,1.141a1.057,1.057,0,0,0,.649,1.57l1.291.317Z" transform="translate(0.397 -2)" fill="#707070" stroke="#707070" stroke-width="0.25"/>
        <path id="Path_5268" data-name="Path 5268" d="M11.228,49a4.228,4.228,0,1,0,4.228,4.228A4.228,4.228,0,0,0,11.228,49Zm0,6.342a2.114,2.114,0,1,1,2.114-2.114A2.114,2.114,0,0,1,11.228,55.342Z" transform="translate(-1.715 0.683)" fill="#707070" stroke="#707070" stroke-width="0.25"/>
        <path id="Path_5269" data-name="Path 5269" d="M19.9,57.455l-.375-.625.707-.177a1.057,1.057,0,0,0,.8-1.025V51.4a1.057,1.057,0,0,0-.8-1.025L19.52,50.2l.375-.625a1.057,1.057,0,0,0-.16-1.292l-2.989-2.989a1.057,1.057,0,0,0-1.292-.16l-.625.375-.177-.707a1.057,1.057,0,0,0-1.025-.8H9.4a1.057,1.057,0,0,0-1.025.8l-.177.707-.625-.375a1.057,1.057,0,0,0-1.292.16L3.292,48.281a1.057,1.057,0,0,0-.16,1.292l.375.625-.707.177A1.057,1.057,0,0,0,2,51.4v4.228a1.057,1.057,0,0,0,.8,1.025l.707.177-.375.625a1.057,1.057,0,0,0,.16,1.292l2.989,2.989a1.057,1.057,0,0,0,1.292.16L8.2,61.52l.177.707a1.057,1.057,0,0,0,1.025.8h4.228a1.057,1.057,0,0,0,1.025-.8l.177-.707.625.375a1.057,1.057,0,0,0,1.292-.16l2.989-2.989A1.057,1.057,0,0,0,19.9,57.455ZM18.913,54.8l-1.291.317a1.057,1.057,0,0,0-.649,1.57l.684,1.141-1.822,1.822-1.141-.684a1.057,1.057,0,0,0-1.57.649l-.322,1.3H10.225l-.317-1.291a1.057,1.057,0,0,0-1.57-.649L7.2,59.657,5.37,57.835l.684-1.141a1.057,1.057,0,0,0-.649-1.57L4.114,54.8V52.225L5.4,51.908a1.057,1.057,0,0,0,.649-1.57L5.37,49.2l1.822-1.822,1.141.684a1.057,1.057,0,0,0,1.57-.65l.317-1.29H12.8l.317,1.29a1.057,1.057,0,0,0,1.57.65l1.141-.684L17.647,49.2l-.684,1.141a1.057,1.057,0,0,0,.649,1.57l1.291.317Z" transform="translate(-2 0.397)" fill="#707070" stroke="#707070" stroke-width="0.25"/>
      </g>
      <text id="Plant_Downtime" data-name="Plant Downtime" transform="translate(19735 9423)" fill="#21232a" font-size="54" font-family="OpenSans-Bold, Open Sans" font-weight="700"><tspan x="0" y="58">Plant Downtime</tspan></text>
      <text id="Overview_plant_downtime_details" data-name="Overview plant downtime details" transform="translate(19736 9485)" fill="#21232a" font-size="54" font-family="OpenSans-Regular, Open Sans"><tspan x="0" y="58">Overview plant downtime details</tspan></text>
      <g id="power-plant_4_" data-name="power-plant (4)" transform="translate(19549 9614.619)">
        <path id="Path_5273" data-name="Path 5273" d="M28.034,40.069A12.534,12.534,0,1,1,40.569,27.534,12.548,12.548,0,0,1,28.034,40.069Zm0-19.7A7.163,7.163,0,1,0,35.2,27.534,7.17,7.17,0,0,0,28.034,20.372Z" transform="translate(40.009 38.719)" fill="#8e8e8e"/>
        <path id="Path_5274" data-name="Path 5274" d="M20.936,33.034a2.687,2.687,0,0,1-2.686-2.686V23.186a2.686,2.686,0,0,1,5.372,0v7.163A2.687,2.687,0,0,1,20.936,33.034Z" transform="translate(47.108 52.916)" fill="#8e8e8e"/>
        <path id="Path_5275" data-name="Path 5275" d="M20.936,25.534a2.687,2.687,0,0,1-2.686-2.686V15.686a2.686,2.686,0,0,1,5.372,0v7.163A2.687,2.687,0,0,1,20.936,25.534Z" transform="translate(47.108 33.556)" fill="#8e8e8e"/>
        <path id="Path_5276" data-name="Path 5276" d="M23.319,24.331a2.685,2.685,0,0,1-1.268-5.053l6.7-3.581a2.686,2.686,0,0,1,2.532,4.738l-6.7,3.581a2.687,2.687,0,0,1-1.264.315Z" transform="translate(53.252 39.702)" fill="#8e8e8e"/>
        <path id="Path_5277" data-name="Path 5277" d="M16.689,28.071a2.685,2.685,0,0,1-1.268-5.053l6.7-3.581a2.686,2.686,0,0,1,2.532,4.738l-6.7,3.581a2.687,2.687,0,0,1-1.264.315Z" transform="translate(36.138 49.356)" fill="#8e8e8e"/>
        <path id="Path_5278" data-name="Path 5278" d="M23.381,24.332a2.687,2.687,0,0,1-1.264-.315l-6.7-3.581A2.686,2.686,0,1,1,17.951,15.7l6.7,3.581a2.685,2.685,0,0,1-1.268,5.053Z" transform="translate(36.136 39.701)" fill="#8e8e8e"/>
        <path id="Path_5279" data-name="Path 5279" d="M30.011,28.072a2.687,2.687,0,0,1-1.264-.315l-6.7-3.581a2.686,2.686,0,1,1,2.532-4.738l6.7,3.581a2.685,2.685,0,0,1-1.268,5.053Z" transform="translate(53.25 49.355)" fill="#8e8e8e"/>
        <path id="Path_5280" data-name="Path 5280" d="M15.558,17.872H10.186a2.686,2.686,0,0,1,0-5.372h5.372a2.686,2.686,0,0,1,0,5.372Z" transform="translate(19.359 32.266)" fill="#8e8e8e"/>
        <path id="Path_5281" data-name="Path 5281" d="M11.058,17.872H5.686a2.686,2.686,0,0,1,0-5.372h5.372a2.686,2.686,0,0,1,0,5.372Z" transform="translate(7.744 32.266)" fill="#8e8e8e"/>
        <path id="Path_5282" data-name="Path 5282" d="M40.289,44.813H2.686A2.687,2.687,0,0,1,0,42.127V18.848A9.857,9.857,0,0,1,9.848,9H49.242a9.857,9.857,0,0,1,9.848,9.848V22.43a2.686,2.686,0,1,1-5.372,0V18.848a4.483,4.483,0,0,0-4.477-4.477H9.848a4.483,4.483,0,0,0-4.477,4.477V39.441H40.289a2.686,2.686,0,0,1,0,5.372Z" transform="translate(0 23.231)" fill="#8e8e8e"/>
        <path id="Path_5283" data-name="Path 5283" d="M32.37,20.682A2.687,2.687,0,0,1,29.684,18V12.767a.9.9,0,0,0-.9-.9H9.916a2.686,2.686,0,0,1,0-5.372H28.789a6.274,6.274,0,0,1,6.267,6.267V18A2.687,2.687,0,0,1,32.37,20.682Z" transform="translate(18.662 16.778)" fill="#8e8e8e"/>
        <path id="Path_5284" data-name="Path 5284" d="M22.839,37.6a2.687,2.687,0,0,1-2.647-2.245L15.322,6.117a.9.9,0,0,0-.885-.745h-1.1a.9.9,0,0,0-.885.752L7.587,35.358a2.686,2.686,0,0,1-5.3-.881L7.157,5.236A6.255,6.255,0,0,1,13.342,0h1.1a6.251,6.251,0,0,1,6.181,5.232l4.871,29.245A2.683,2.683,0,0,1,22.839,37.6Z" transform="translate(5.807 0)" fill="#8e8e8e"/>
      </g>
      <text id="Plant_Maitenance" data-name="Plant Maitenance" transform="translate(19735 9597)" fill="#21232a" font-size="54" font-family="OpenSans-Bold, Open Sans" font-weight="700"><tspan x="0" y="58">Plant Maitenance</tspan></text>
      <text id="Record_plant_maintenance_activities" data-name="Record plant maintenance activities" transform="translate(19736 9658)" fill="#21232a" font-size="54" font-family="OpenSans-Regular, Open Sans"><tspan x="0" y="58">Record plant maintenance activities</tspan></text>
      <g id="customer-support" transform="translate(19559.465 9803.132)">
        <path id="Path_5195" data-name="Path 5195" d="M.451,5.968l4.288,7.5a1.071,1.071,0,0,0,.67.508l4,1L23.131,28.7l1.516-1.516L10.711,13.25a1.069,1.069,0,0,0-.5-.282L6.37,12,2.719,5.611l3.13-3.13,6.4,3.654.965,3.844a1.069,1.069,0,0,0,.282.5L27.427,24.414,28.942,22.9,15.221,9.177l-1-4a1.074,1.074,0,0,0-.508-.671L6.209.219A1.072,1.072,0,0,0,4.922.392L.635,4.68A1.072,1.072,0,0,0,.451,5.968Zm0,0" transform="translate(-0.31 -0.07)" fill="#707070" stroke="#707070" stroke-width="0.3"/>
        <path id="Path_5196" data-name="Path 5196" d="M199.08,175.234,175.5,198.818,173.98,197.3l23.584-23.583Zm0,0" transform="translate(-154.37 -154.107)" fill="#707070" stroke="#707070" stroke-width="0.3"/>
        <path id="Path_5197" data-name="Path 5197" d="M59.392,399.356a1.072,1.072,0,0,0-.919-.52H52.041a1.071,1.071,0,0,0-.919.52l-3.216,5.36a1.072,1.072,0,0,0,0,1.1l3.216,5.36a1.072,1.072,0,0,0,.919.52h6.432a1.072,1.072,0,0,0,.919-.52l3.216-5.36a1.072,1.072,0,0,0,0-1.1Zm-1.525,10.2H52.648l-2.573-4.288,2.573-4.288h5.219l2.573,4.288Zm0,0" transform="translate(-42.393 -353.81)" fill="#707070" stroke="#707070" stroke-width="0.3"/>
        <path id="Path_5198" data-name="Path 5198" d="M51.729,25.73A12.819,12.819,0,0,0,64.2,9.757a1.072,1.072,0,0,0-1.8-.5l-6.673,6.669-5.294-1.764L48.667,8.869,55.34,2.195a1.072,1.072,0,0,0-.5-1.8,12.824,12.824,0,0,0-15.973,12.47,12.583,12.583,0,0,0,.261,2.512L15.649,38.854a12.646,12.646,0,0,0-2.511-.261A12.864,12.864,0,1,0,26,51.458a12.615,12.615,0,0,0-.261-2.512l5.62-5.62,2.458,2.458a1.072,1.072,0,0,0,1.516,0l.536-.536a1.2,1.2,0,0,1,1.7,1.7l0,0-.536.536a1.072,1.072,0,0,0,0,1.516L49.823,61.787a8.652,8.652,0,1,0,12.291-12.18l-.055-.056L49.271,36.764a1.072,1.072,0,0,0-1.516,0l-.536.536a1.2,1.2,0,0,1-1.7-1.7l0,0,.536-.536a1.072,1.072,0,0,0,0-1.516L43.6,31.09l5.62-5.62A12.614,12.614,0,0,0,51.729,25.73Zm4.212,36.448a6.514,6.514,0,0,1-2.28-.416l8.372-8.373a6.5,6.5,0,0,1-6.092,8.788ZM43.8,34.316a3.345,3.345,0,0,0,4.716,4.71l12.03,12.041c.131.131.253.269.371.409l-9.165,9.165c-.141-.118-.279-.24-.41-.371L39.3,48.231a3.346,3.346,0,0,0-4.717-4.711l-1.715-1.715,9.214-9.2Zm4.329-10.782L23.807,47.848a1.074,1.074,0,0,0-.283,1.019,10.791,10.791,0,1,1-7.8-7.8,1.082,1.082,0,0,0,1.019-.283L41.059,16.475a1.071,1.071,0,0,0,.282-1.018,10.668,10.668,0,0,1,11-13.293L46.683,7.821a1.071,1.071,0,0,0-.259,1.1l2.144,6.432a1.073,1.073,0,0,0,.679.677l6.432,2.144a1.072,1.072,0,0,0,1.1-.258l5.655-5.655c.013.2.019.407.019.609A10.665,10.665,0,0,1,49.138,23.253a1.073,1.073,0,0,0-1.019.282h.006Zm0,0" transform="translate(-0.273 0)" fill="#707070" stroke="#707070" stroke-width="0.3"/>
        <path id="Path_5199" data-name="Path 5199" d="M395.126,393.344l-1.516,1.516-10.72-10.72,1.516-1.516Zm0,0" transform="translate(-339.696 -339.43)" fill="#707070" stroke="#707070" stroke-width="0.3"/>
      </g>
      <text id="Plant_Service" data-name="Plant Service" transform="translate(19736 9773)" fill="#21232a" font-size="54" font-family="OpenSans-Bold, Open Sans" font-weight="700"><tspan x="0" y="58">Plant Service</tspan></text>
      <text id="Overview_status_on_plant_service_request" data-name="Overview status on plant service request" transform="translate(19736 9830)" fill="#21232a" font-size="54" font-family="OpenSans-Regular, Open Sans"><tspan x="0" y="58">Overview status on plant service request</tspan></text>
    </g>
  </g>
</svg>
