<svg xmlns="http://www.w3.org/2000/svg" width="1611" height="1424" viewBox="0 0 1611 1424">
  <g id="Group_3201" data-name="Group 3201" transform="translate(-19324 -11199)">
    <rect id="Rectangle_1050" data-name="Rectangle 1050" width="1611" height="1424" transform="translate(19324 11199)" fill="#fff"/>
    <g id="Group_3120" data-name="Group 3120" transform="translate(-16.501 0.5)">
      <line id="Line_297" data-name="Line 297" y2="1336" transform="translate(19573.5 11242.5)" fill="none" stroke="#707070" stroke-width="1"/>
      <line id="Line_298" data-name="Line 298" x2="1497.916" transform="translate(19392.5 11436.5)" fill="none" stroke="#707070" stroke-width="1"/>
      <line id="Line_299" data-name="Line 299" x2="1497.916" transform="translate(19392.5 11620.5)" fill="none" stroke="#707070" stroke-width="1"/>
      <line id="Line_300" data-name="Line 300" x2="1497.916" transform="translate(19392.5 11804.5)" fill="none" stroke="#707070" stroke-width="1"/>
      <line id="Line_301" data-name="Line 301" x2="1497.916" transform="translate(19392.5 12172.5)" fill="none" stroke="#707070" stroke-width="1"/>
      <line id="Line_302" data-name="Line 302" x2="1497.916" transform="translate(19402.5 12356.5)" fill="none" stroke="#707070" stroke-width="1"/>
      <text id="Change_Meter" data-name="Change Meter" transform="translate(19633 11265)" fill="#21232a" font-size="54" font-family="OpenSans-Bold, Open Sans" font-weight="700"><tspan x="0" y="58">Change Meter</tspan></text>
      <text id="Review_a_meter_status" data-name="Review a meter status" transform="translate(19633 11333)" fill="#21232a" font-size="54" font-family="OpenSans-Regular, Open Sans"><tspan x="0" y="58">Review a meter status</tspan></text>
      <text id="Unreleased_Meter" data-name="Unreleased Meter" transform="translate(19633 11465)" fill="#21232a" font-size="54" font-family="OpenSans-Bold, Open Sans" font-weight="700"><tspan x="0" y="58">Unreleased Meter</tspan></text>
      <text id="Review_the_status_of_a_meter_replacement_issue" data-name="Review the status of a meter replacement issue" transform="translate(19634 11537)" fill="#21232a" font-size="54" font-family="OpenSans-Regular, Open Sans"><tspan x="0" y="58">Review the status of a meter replacement issue</tspan></text>
      <text id="Smart_Meter_Status" data-name="Smart Meter Status" transform="translate(19633 11640)" fill="#21232a" font-size="54" font-family="OpenSans-Bold, Open Sans" font-weight="700"><tspan x="0" y="58">Smart Meter Status</tspan></text>
      <text id="Review_the_status_of_a_Smart_meter" data-name="Review the status of a Smart meter" transform="translate(19634 11707)" fill="#21232a" font-size="54" font-family="OpenSans-Regular, Open Sans"><tspan x="0" y="58">Review the status of a Smart meter</tspan></text>
      <text id="Meter_Reading" data-name="Meter Reading" transform="translate(19633 12008)" fill="#21232a" font-size="54" font-family="OpenSans-Bold, Open Sans" font-weight="700"><tspan x="0" y="58">Meter Reading</tspan></text>
      <text id="Enter_diesel_consumption_data" data-name="Enter diesel consumption data" transform="translate(19634 12074)" fill="#21232a" font-size="54" font-family="OpenSans-Regular, Open Sans"><tspan x="0" y="58">Enter diesel consumption data</tspan></text>
      <text id="Meter_Reading_Review" data-name="Meter Reading Review" transform="translate(19633 12198)" fill="#21232a" font-size="54" font-family="OpenSans-Bold, Open Sans" font-weight="700"><tspan x="0" y="58">Meter Reading Review</tspan></text>
      <text id="Overview_proof_of_bank_deposits" data-name="Overview proof of bank deposits" transform="translate(19634 12263)" fill="#21232a" font-size="54" font-family="OpenSans-Regular, Open Sans"><tspan x="0" y="58">Overview proof of bank deposits</tspan></text>
      <text id="TERMS_Status" data-name="TERMS Status" transform="translate(19633 12381)" fill="#21232a" font-size="54" font-family="OpenSans-Bold, Open Sans" font-weight="700"><tspan x="0" y="58">TERMS Status</tspan></text>
      <text id="Review_all_TERMS_meters" data-name="Review all TERMS meters" transform="translate(19634 12446)" fill="#21232a" font-size="54" font-family="OpenSans-Regular, Open Sans"><tspan x="0" y="58">Review all TERMS meters</tspan></text>
      <g id="seo-report_1_" data-name="seo-report (1)" transform="translate(19394.33 12237)">
        <g id="Group_2581" data-name="Group 2581" transform="translate(66.67)">
          <path id="Path_4355" data-name="Path 4355" d="M114.211,0H67.631a.961.961,0,0,0-.961.961V46.593a.961.961,0,1,0,1.921,0V1.921h44.659V7.961a.961.961,0,1,0,1.921,0v-7A.961.961,0,0,0,114.211,0Z" transform="translate(-66.67)" fill="#707070"/>
          <path id="Path_4356" data-name="Path 4356" d="M114.211,89.65a.961.961,0,0,0-.961.961v51.216H68.591V129.243a.961.961,0,0,0-1.921,0v13.544a.961.961,0,0,0,.961.961h46.581a.961.961,0,0,0,.961-.961V90.611A.961.961,0,0,0,114.211,89.65Z" transform="translate(-66.67 -78.167)" fill="#707070"/>
          <path id="Path_4357" data-name="Path 4357" d="M99,105.416a7.43,7.43,0,1,0,7.43-7.43A7.438,7.438,0,0,0,99,105.416Zm7.43,5.509a5.508,5.508,0,0,1-.961-10.932v5.423a.961.961,0,0,0,.961.961h5.423A5.517,5.517,0,0,1,106.426,110.925Zm5.423-6.469h-4.463V99.993A5.521,5.521,0,0,1,111.849,104.455Z" transform="translate(-94.855 -85.435)" fill="#707070"/>
          <path id="Path_4358" data-name="Path 4358" d="M104,432.35a.961.961,0,0,0-.961.961v4.14a.961.961,0,0,0,.961.961h6.211a.961.961,0,0,0,.961-.961v-4.14a.961.961,0,0,0-.961-.961Zm5.25,4.14h-4.289v-2.219h4.289Z" transform="translate(-98.378 -376.971)" fill="#707070"/>
          <path id="Path_4359" data-name="Path 4359" d="M184.811,396.135h6.211a.961.961,0,0,0,.961-.961V384.823a.961.961,0,0,0-.961-.961h-6.211a.961.961,0,0,0-.961.961v10.351A.961.961,0,0,0,184.811,396.135Zm.961-10.351h4.289v8.43h-4.289Z" transform="translate(-168.841 -334.694)" fill="#707070"/>
          <path id="Path_4360" data-name="Path 4360" d="M265.624,323.252a.961.961,0,0,0-.961.961v18.115a.961.961,0,0,0,.961.961h6.211a.961.961,0,0,0,.961-.961V324.213a.961.961,0,0,0-.961-.961Zm5.25,18.115h-4.289V325.173h4.289Z" transform="translate(-239.302 -281.847)" fill="#707070"/>
          <path id="Path_4361" data-name="Path 4361" d="M352.65,288.159a.961.961,0,0,0,.961-.961v-3.388a.961.961,0,0,0-.961-.961h-6.21a.961.961,0,0,0-.961.961V307.1a.961.961,0,0,0,.961.961h6.21a.961.961,0,0,0,.961-.961V291.682a.961.961,0,0,0-1.921,0v14.457H347.4V284.771h4.288V287.2A.961.961,0,0,0,352.65,288.159Z" transform="translate(-309.768 -246.62)" fill="#707070"/>
          <path id="Path_4362" data-name="Path 4362" d="M189.35,32.325h-20.7a.961.961,0,0,0-.961.961v4.14a.961.961,0,0,0,.961.961h20.7a.961.961,0,0,0,.961-.961v-4.14A.961.961,0,0,0,189.35,32.325Zm-.961,4.14H169.608V34.246h18.781v2.219Z" transform="translate(-154.748 -28.185)" fill="#707070"/>
          <path id="Path_4363" data-name="Path 4363" d="M268.61,97.986h-19.15a.961.961,0,0,0,0,1.921h19.15a.961.961,0,0,0,0-1.921Z" transform="translate(-225.21 -85.435)" fill="#707070"/>
          <path id="Path_4364" data-name="Path 4364" d="M268.61,131.658h-19.15a.961.961,0,0,0,0,1.921h19.15a.961.961,0,0,0,0-1.921Z" transform="translate(-225.21 -114.794)" fill="#707070"/>
          <path id="Path_4365" data-name="Path 4365" d="M269.571,166.291a.961.961,0,0,0-.961-.961h-19.15a.961.961,0,0,0,0,1.921h19.15A.961.961,0,0,0,269.571,166.291Z" transform="translate(-225.21 -144.153)" fill="#707070"/>
          <path id="Path_4366" data-name="Path 4366" d="M261.808,199.963a.961.961,0,0,0-.961-.961H249.461a.961.961,0,0,0,0,1.921h11.386A.961.961,0,0,0,261.808,199.963Z" transform="translate(-225.21 -173.512)" fill="#707070"/>
          <path id="Path_4367" data-name="Path 4367" d="M130.556,248.5H113.089a.961.961,0,1,0,0,1.921h17.468a.961.961,0,0,0,0-1.921Z" transform="translate(-106.305 -216.67)" fill="#707070"/>
          <path id="Path_4368" data-name="Path 4368" d="M131.517,283.133a.961.961,0,0,0-.961-.961H113.089a.961.961,0,1,0,0,1.921h17.468A.961.961,0,0,0,131.517,283.133Z" transform="translate(-106.305 -246.029)" fill="#707070"/>
          <path id="Path_4369" data-name="Path 4369" d="M123.754,316.8a.961.961,0,0,0-.961-.961h-9.7a.961.961,0,1,0,0,1.921h9.7A.961.961,0,0,0,123.754,316.8Z" transform="translate(-106.305 -275.388)" fill="#707070"/>
        </g>
      </g>
      <g id="seo-report_2_" data-name="seo-report (2)" transform="translate(19460 11863)">
        <path id="Path_5177" data-name="Path 5177" d="M259.71,110.183h12.721a.915.915,0,1,0,0-1.83H259.71a.915.915,0,1,0,0,1.83Z" transform="translate(-233.136 -94.138)" fill="#707070"/>
        <path id="Path_5178" data-name="Path 5178" d="M258.8,141.9a.915.915,0,0,0,.915.915h12.721a.915.915,0,0,0,0-1.83H259.71A.915.915,0,0,0,258.8,141.9Z" transform="translate(-233.136 -122.491)" fill="#707070"/>
        <path id="Path_5179" data-name="Path 5179" d="M259.71,175.453h12.721a.915.915,0,1,0,0-1.83H259.71a.915.915,0,1,0,0,1.83Z" transform="translate(-233.136 -150.845)" fill="#707070"/>
        <path id="Path_5180" data-name="Path 5180" d="M279.277,356.668a.915.915,0,0,0-.915-.915H266.536a.915.915,0,1,0,0,1.83h11.826A.915.915,0,0,0,279.277,356.668Z" transform="translate(-239.067 -309.081)" fill="#707070"/>
        <path id="Path_5181" data-name="Path 5181" d="M122.13,288.594a.915.915,0,0,0-.915-.915H108.493a.915.915,0,0,0,0,1.83h12.721A.915.915,0,0,0,122.13,288.594Z" transform="translate(-101.758 -249.938)" fill="#707070"/>
        <path id="Path_5182" data-name="Path 5182" d="M108.493,256.875h12.721a.915.915,0,0,0,0-1.83H108.493a.915.915,0,0,0,0,1.83Z" transform="translate(-101.758 -221.585)" fill="#707070"/>
        <path id="Path_5183" data-name="Path 5183" d="M109.566,72.694a9.485,9.485,0,1,0,9.485,9.485,9.5,9.5,0,0,0-9.485-9.485Zm0,17a7.518,7.518,0,0,1-.984-14.971V82.18a.984.984,0,0,0,.984.984h7.453A7.529,7.529,0,0,1,109.566,89.7Zm.984-8.5v-6.47a7.534,7.534,0,0,1,6.47,6.47Z" transform="translate(-95.244 -63.157)" fill="#707070"/>
        <path id="Path_5184" data-name="Path 5184" d="M236.417,234.3v8.786a1.6,1.6,0,0,0,1.594,1.594h15.283a1.6,1.6,0,0,0,1.594-1.594V234.3a1.6,1.6,0,0,0-1.594-1.594H238.011a1.6,1.6,0,0,0-1.594,1.594Zm1.968.374h14.536v8.039H238.385Z" transform="translate(-213.694 -202.173)" fill="#707070"/>
        <path id="Path_5185" data-name="Path 5185" d="M100.078,351.023a1.6,1.6,0,0,0,1.594,1.594h2.674a1.6,1.6,0,0,0,1.594-1.594V337.676a1.6,1.6,0,0,0-1.594-1.594h-2.674a1.6,1.6,0,0,0-1.594,1.594Zm1.968-12.973h1.926v12.6h-1.926Z" transform="translate(-95.242 -291.99)" fill="#707070"/>
        <path id="Path_5186" data-name="Path 5186" d="M157.042,362.775a1.6,1.6,0,0,0-1.594,1.594v9.845a1.6,1.6,0,0,0,1.594,1.594h2.673a1.6,1.6,0,0,0,1.594-1.594v-9.845a1.6,1.6,0,0,0-1.594-1.594Zm2.3,11.065h-1.926v-9.1h1.926Z" transform="translate(-143.348 -315.181)" fill="#707070"/>
        <path id="Path_5187" data-name="Path 5187" d="M212.412,404.7h2.674a1.6,1.6,0,0,0,1.594-1.594v-5.482a1.6,1.6,0,0,0-1.594-1.594h-2.674a1.6,1.6,0,0,0-1.594,1.594v5.482A1.6,1.6,0,0,0,212.412,404.7Zm.374-6.7h1.926v4.734h-1.926Z" transform="translate(-191.454 -344.074)" fill="#707070"/>
        <path id="Path_5188" data-name="Path 5188" d="M278.361,390.03H266.535a.915.915,0,1,0,0,1.83h11.826a.915.915,0,0,0,0-1.83Z" transform="translate(-239.066 -338.861)" fill="#707070"/>
        <path id="Path_5189" data-name="Path 5189" d="M278.361,424.307H266.535a.915.915,0,1,0,0,1.83h11.826a.915.915,0,0,0,0-1.83Z" transform="translate(-239.066 -368.641)" fill="#707070"/>
        <path id="Path_5190" data-name="Path 5190" d="M112.815,12.2a.984.984,0,0,0,.984-.984V3.3A3.3,3.3,0,0,0,110.5,0H71.067a3.3,3.3,0,0,0-3.3,3.3V4.554H66.513a3.3,3.3,0,0,0-3.3,3.3V50.006a.984.984,0,1,0,1.968,0V7.852a1.332,1.332,0,0,1,1.33-1.33h39.435a1.332,1.332,0,0,1,1.33,1.33V63.873a1.332,1.332,0,0,1-1.33,1.33H66.513a1.332,1.332,0,0,1-1.33-1.33V54.6a.984.984,0,1,0-1.968,0v9.275a3.3,3.3,0,0,0,3.3,3.3h39.435a3.3,3.3,0,0,0,3.3-3.3V62.617H110.5a3.3,3.3,0,0,0,3.3-3.3V15.807a.984.984,0,0,0-1.968,0V59.319a1.332,1.332,0,0,1-1.33,1.33h-1.256V7.852a3.3,3.3,0,0,0-3.3-3.3H69.736V3.3a1.332,1.332,0,0,1,1.33-1.33H110.5a1.332,1.332,0,0,1,1.33,1.33v7.918A.984.984,0,0,0,112.815,12.2Z" transform="translate(-63.215 0)" fill="#707070"/>
      </g>
      <g id="speed" transform="translate(19450 11306.001)">
        <path id="Path_5285" data-name="Path 5285" d="M65.35,12h-1.2a7.77,7.77,0,0,0-15.382,0H46.4a11.114,11.114,0,0,0-22.117,0H21.916A7.77,7.77,0,0,0,6.535,12h-1.2A3.344,3.344,0,0,0,2,15.337V65.35a3.344,3.344,0,0,0,3.334,3.334H65.35a3.344,3.344,0,0,0,3.334-3.334V15.337A3.344,3.344,0,0,0,65.35,12ZM51.58,10.5l4.168,3.468,1.423-1.712L53,8.791A5.648,5.648,0,1,1,51.58,10.5ZM35.342,4.223A8.807,8.807,0,0,1,40.788,6.1l-6.235,6.224L36.131,13.9l6.224-6.235a8.881,8.881,0,1,1-7.013-3.445ZM14.225,7.557a5.645,5.645,0,0,1,2.089.411L13.3,12.5l1.845,1.223L18.171,9.2a5.557,5.557,0,1,1-3.945-1.645ZM66.462,65.35a1.111,1.111,0,0,1-1.111,1.111H5.334A1.111,1.111,0,0,1,4.223,65.35V15.337a1.111,1.111,0,0,1,1.111-1.111h1.2a7.77,7.77,0,0,0,15.382,0h2.367a11.114,11.114,0,0,0,22.117,0h2.367a7.77,7.77,0,0,0,15.382,0h1.2a1.111,1.111,0,0,1,1.111,1.111Z" transform="translate(0 0)" fill="#707070"/>
        <path id="Path_5286" data-name="Path 5286" d="M33.894,24A18.894,18.894,0,1,0,52.788,42.894,18.894,18.894,0,0,0,33.894,24Zm0,35.565A16.671,16.671,0,1,1,50.565,42.894,16.671,16.671,0,0,1,33.894,59.565Z" transform="translate(1.448 2.451)" fill="#707070"/>
        <path id="Path_5287" data-name="Path 5287" d="M47.9,42.448a14.448,14.448,0,1,0-28.9,0h2.223a12.225,12.225,0,1,1,24.451,0Z" transform="translate(1.894 2.897)" fill="#707070"/>
        <path id="Path_5288" data-name="Path 5288" d="M39.558,33.765a1.111,1.111,0,0,0-1.411.245C29.633,44.3,29.533,44.468,29.455,44.6a3.326,3.326,0,1,0,5.757,3.334,1.122,1.122,0,0,0,.078-.167L40.047,35.11A1.111,1.111,0,0,0,39.558,33.765ZM33.245,46.88a1.1,1.1,0,0,1-2.023-.611,1.169,1.169,0,0,1,.144-.533c.311-.4,2.156-2.634,4.257-5.179Z" transform="translate(3.009 3.522)" fill="#707070"/>
        <path id="Path_5289" data-name="Path 5289" d="M35,49h6.668v2.223H35Z" transform="translate(3.676 5.236)" fill="#707070"/>
        <path id="Path_5290" data-name="Path 5290" d="M23,49h6.668v2.223H23Z" transform="translate(2.34 5.236)" fill="#707070"/>
        <path id="Path_5291" data-name="Path 5291" d="M19,43h2.223v2.223H19Z" transform="translate(1.894 4.568)" fill="#707070"/>
        <path id="Path_5292" data-name="Path 5292" d="M43,43h2.223v2.223H43Z" transform="translate(4.568 4.568)" fill="#707070"/>
        <path id="Path_5293" data-name="Path 5293" d="M46,52h8.891v2.223H46Z" transform="translate(4.902 5.571)" fill="#707070"/>
        <path id="Path_5294" data-name="Path 5294" d="M56,52h2.223v2.223H56Z" transform="translate(6.016 5.571)" fill="#707070"/>
        <path id="Path_5295" data-name="Path 5295" d="M56,21h2.223v2.223H56Z" transform="translate(6.016 2.117)" fill="#707070"/>
        <path id="Path_5296" data-name="Path 5296" d="M46,56h4.446v2.223H46Z" transform="translate(4.902 6.016)" fill="#707070"/>
        <path id="Path_5297" data-name="Path 5297" d="M52,56h6.668v2.223H52Z" transform="translate(5.57 6.016)" fill="#707070"/>
        <path id="Path_5298" data-name="Path 5298" d="M10,52h8.891v2.223H10Z" transform="translate(0.891 5.571)" fill="#707070"/>
        <path id="Path_5299" data-name="Path 5299" d="M6,52H8.223v2.223H6Z" transform="translate(0.446 5.571)" fill="#707070"/>
        <path id="Path_5300" data-name="Path 5300" d="M14,56h4.446v2.223H14Z" transform="translate(1.337 6.016)" fill="#707070"/>
        <path id="Path_5301" data-name="Path 5301" d="M6,56h6.668v2.223H6Z" transform="translate(0.446 6.016)" fill="#707070"/>
        <path id="Path_5302" data-name="Path 5302" d="M46,21h8.891v2.223H46Z" transform="translate(4.902 2.117)" fill="#707070"/>
        <path id="Path_5303" data-name="Path 5303" d="M46,25h4.446v2.223H46Z" transform="translate(4.902 2.563)" fill="#707070"/>
        <path id="Path_5304" data-name="Path 5304" d="M52,25h6.668v2.223H52Z" transform="translate(5.57 2.563)" fill="#707070"/>
        <path id="Path_5305" data-name="Path 5305" d="M10,21h8.891v2.223H10Z" transform="translate(0.891 2.117)" fill="#707070"/>
        <path id="Path_5306" data-name="Path 5306" d="M6,21H8.223v2.223H6Z" transform="translate(0.446 2.117)" fill="#707070"/>
        <path id="Path_5307" data-name="Path 5307" d="M14,25h4.446v2.223H14Z" transform="translate(1.337 2.563)" fill="#707070"/>
        <path id="Path_5308" data-name="Path 5308" d="M6,25h6.668v2.223H6Z" transform="translate(0.446 2.563)" fill="#707070"/>
      </g>
      <path id="discuss-issue" d="M47.118,29.4c0,1.866-1.358,3-2.35,3.833-.376.315-1.075.891-1.073,1.106a1.5,1.5,0,0,1-1.514,1.517h-.013a1.508,1.508,0,0,1-1.527-1.492c-.013-1.654,1.193-2.644,2.163-3.458.761-.639,1.26-1.088,1.26-1.5a1.511,1.511,0,0,0-3.021,0,1.527,1.527,0,1,1-3.054,0,4.564,4.564,0,0,1,9.129-.006ZM42.21,37.263a1.5,1.5,0,0,0-1.493,1.527V38.8a1.494,1.494,0,0,0,1.493,1.521,1.53,1.53,0,0,0,0-3.06ZM11.433,47.9a1.527,1.527,0,1,0,0,3.054h.127a1.527,1.527,0,1,0,0-3.054Zm5.307,0a1.527,1.527,0,1,0,0,3.054h.127a1.527,1.527,0,1,0,0-3.054ZM61.584,23.512V40.7a7.34,7.34,0,0,1-7.332,7.371h-19.8c-.387,0-.706,0-.973-.008s-.594-.008-.717.006c-.128.085-.441.372-.743.65-.12.11-.255.231-.4.365l-5.6,5.106a1.562,1.562,0,0,1-2.6-1.128V36.872H7.417a4.375,4.375,0,0,0-4.363,4.34V58.4a4.308,4.308,0,0,0,4.363,4.261H29.536a1.533,1.533,0,0,1,1.018.432L35.118,67.3V52.787a1.527,1.527,0,1,1,3.054,0V70.759a1.505,1.505,0,0,1-.9,1.389,1.464,1.464,0,0,1-.6.122,1.543,1.543,0,0,1-1.03-.415l-6.694-6.142H7.417A7.365,7.365,0,0,1,0,58.4V41.212a7.432,7.432,0,0,1,7.417-7.394H23.412V23.512a7.406,7.406,0,0,1,7.443-7.338h23.4A7.311,7.311,0,0,1,61.584,23.512Zm-3.054,0a4.254,4.254,0,0,0-4.278-4.284h-23.4a4.349,4.349,0,0,0-4.389,4.284V49.6l3.07-2.774c.142-.13.3-.249.418-.356,1.4-1.292,1.76-1.5,3.589-1.461.249.005.546.007.908.007h19.8A4.283,4.283,0,0,0,58.53,40.7V23.512Z" transform="translate(19453 11489.196)" fill="#707070"/>
      <g id="power-plant_4_" data-name="power-plant (4)" transform="translate(19450 12046)">
        <path id="Path_5309" data-name="Path 5309" d="M25.916,35.832A10.416,10.416,0,1,1,36.332,25.416,10.428,10.428,0,0,1,25.916,35.832Zm0-16.368a5.952,5.952,0,1,0,5.952,5.952A5.958,5.958,0,0,0,25.916,19.464Z" transform="translate(30.629 29.641)" fill="#919191"/>
        <path id="Path_5310" data-name="Path 5310" d="M20.482,30.916a2.233,2.233,0,0,1-2.232-2.232V22.732a2.232,2.232,0,0,1,4.464,0v5.952A2.233,2.233,0,0,1,20.482,30.916Z" transform="translate(36.063 40.509)" fill="#919191"/>
        <path id="Path_5311" data-name="Path 5311" d="M20.482,23.416a2.233,2.233,0,0,1-2.232-2.232V15.232a2.232,2.232,0,0,1,4.464,0v5.952A2.233,2.233,0,0,1,20.482,23.416Z" transform="translate(36.063 25.689)" fill="#919191"/>
        <path id="Path_5312" data-name="Path 5312" d="M22.864,22.818a2.231,2.231,0,0,1-1.054-4.2l5.565-2.976a2.232,2.232,0,1,1,2.1,3.937l-5.565,2.976a2.233,2.233,0,0,1-1.051.262Z" transform="translate(40.767 30.394)" fill="#919191"/>
        <path id="Path_5313" data-name="Path 5313" d="M16.234,26.558a2.231,2.231,0,0,1-1.054-4.2l5.565-2.976a2.232,2.232,0,1,1,2.1,3.937L17.285,26.3a2.233,2.233,0,0,1-1.051.262Z" transform="translate(27.666 37.784)" fill="#919191"/>
        <path id="Path_5314" data-name="Path 5314" d="M21.8,22.819a2.233,2.233,0,0,1-1.051-.262L15.18,19.581a2.232,2.232,0,0,1,2.1-3.937l5.565,2.976a2.231,2.231,0,0,1-1.054,4.2Z" transform="translate(27.664 30.393)" fill="#919191"/>
        <path id="Path_5315" data-name="Path 5315" d="M28.425,26.559a2.233,2.233,0,0,1-1.051-.262L21.81,23.321a2.232,2.232,0,1,1,2.1-3.937l5.565,2.976a2.231,2.231,0,0,1-1.054,4.2Z" transform="translate(40.765 37.783)" fill="#919191"/>
        <path id="Path_5316" data-name="Path 5316" d="M14.2,16.964H9.732a2.232,2.232,0,0,1,0-4.464H14.2a2.232,2.232,0,1,1,0,4.464Z" transform="translate(14.821 24.701)" fill="#919191"/>
        <path id="Path_5317" data-name="Path 5317" d="M9.7,16.964H5.232a2.232,2.232,0,0,1,0-4.464H9.7a2.232,2.232,0,0,1,0,4.464Z" transform="translate(5.928 24.701)" fill="#919191"/>
        <path id="Path_5318" data-name="Path 5318" d="M33.481,38.761H2.232A2.233,2.233,0,0,1,0,36.529V17.184A8.191,8.191,0,0,1,8.184,9H40.921a8.191,8.191,0,0,1,8.184,8.184V20.16a2.232,2.232,0,0,1-4.464,0V17.184a3.725,3.725,0,0,0-3.72-3.72H8.184a3.725,3.725,0,0,0-3.72,3.72V34.3H33.481a2.232,2.232,0,0,1,0,4.464Z" transform="translate(0 17.785)" fill="#919191"/>
        <path id="Path_5319" data-name="Path 5319" d="M28.122,18.285a2.233,2.233,0,0,1-2.232-2.232V11.708a.744.744,0,0,0-.744-.744H9.462a2.232,2.232,0,1,1,0-4.464H25.146a5.214,5.214,0,0,1,5.208,5.208v4.345A2.233,2.233,0,0,1,28.122,18.285Z" transform="translate(14.287 12.844)" fill="#919191"/>
        <path id="Path_5320" data-name="Path 5320" d="M19.36,31.249a2.233,2.233,0,0,1-2.2-1.866l-4.047-24.3a.745.745,0,0,0-.735-.619h-.911a.744.744,0,0,0-.735.625L6.685,29.383a2.233,2.233,0,0,1-4.4-.732l4.047-24.3A5.2,5.2,0,0,1,11.467,0h.914a5.2,5.2,0,0,1,5.137,4.348l4.047,24.3a2.23,2.23,0,0,1-2.205,2.6Z" transform="translate(4.446)" fill="#919191"/>
      </g>
      <g id="Accept" transform="translate(19416 12413)">
        <path id="Path_5331" data-name="Path 5331" d="M70.414,464H65.069a1.069,1.069,0,0,0,0,2.138h5.345a1.069,1.069,0,0,0,0-2.138Z" transform="translate(-20.793 -395.071)" fill="#707070"/>
        <path id="Path_5332" data-name="Path 5332" d="M130.138,464h-1.069a1.069,1.069,0,0,0,0,2.138h1.069a1.069,1.069,0,0,0,0-2.138Z" transform="translate(-76.242 -395.071)" fill="#707070"/>
        <path id="Path_5333" data-name="Path 5333" d="M81.069,110.414h34.206a1.069,1.069,0,0,0,1.069-1.069v-4.276A1.069,1.069,0,0,0,115.275,104H81.069A1.069,1.069,0,0,0,80,105.069v4.276A1.069,1.069,0,0,0,81.069,110.414Zm1.069-4.276h32.068v2.138H82.138Z" transform="translate(-34.655 -83.173)" fill="#707070"/>
        <path id="Path_5334" data-name="Path 5334" d="M81.069,174.414h34.206a1.069,1.069,0,0,0,1.069-1.069v-4.276A1.069,1.069,0,0,0,115.275,168H81.069A1.069,1.069,0,0,0,80,169.069v4.276A1.069,1.069,0,0,0,81.069,174.414Zm1.069-4.276h32.068v2.138H82.138Z" transform="translate(-34.655 -138.621)" fill="#707070"/>
        <path id="Path_5335" data-name="Path 5335" d="M81.069,238.414h34.206a1.069,1.069,0,0,0,1.069-1.069v-4.276A1.069,1.069,0,0,0,115.275,232H81.069A1.069,1.069,0,0,0,80,233.069v4.276A1.069,1.069,0,0,0,81.069,238.414Zm1.069-4.276h32.068v2.138H82.138Z" transform="translate(-34.655 -194.07)" fill="#707070"/>
        <path id="Path_5336" data-name="Path 5336" d="M101.379,296H81.069a1.069,1.069,0,0,0,0,2.138h20.31a1.069,1.069,0,1,0,0-2.138Z" transform="translate(-34.655 -249.519)" fill="#707070"/>
        <path id="Path_5337" data-name="Path 5337" d="M94.965,320h-13.9a1.069,1.069,0,1,0,0,2.138h13.9a1.069,1.069,0,1,0,0-2.138Z" transform="translate(-34.655 -270.312)" fill="#707070"/>
        <path id="Path_5338" data-name="Path 5338" d="M83.207,346.138a1.069,1.069,0,0,0,0-2.138H81.069a1.069,1.069,0,1,0,0,2.138Z" transform="translate(-34.655 -291.105)" fill="#707070"/>
        <path id="Path_5339" data-name="Path 5339" d="M122.138,346.138a1.069,1.069,0,0,0,0-2.138h-1.069a1.069,1.069,0,1,0,0,2.138Z" transform="translate(-69.311 -291.105)" fill="#707070"/>
        <path id="Path_5340" data-name="Path 5340" d="M98.791,58.24A12.844,12.844,0,0,0,87.033,45.457V17.62a1.069,1.069,0,0,0-.313-.756L78.168,8.313A1.069,1.069,0,0,0,77.412,8H41.069A1.069,1.069,0,0,0,40,9.069V73.2a1.069,1.069,0,0,0,1.069,1.069H85.964A1.069,1.069,0,0,0,87.033,73.2V71.022A12.844,12.844,0,0,0,98.791,58.24Zm-20.31-46.59,4.9,4.9h-4.9ZM42.138,72.136v-62H76.344V17.62a1.069,1.069,0,0,0,1.069,1.069h7.482V45.457a12.827,12.827,0,0,0,0,25.564v1.114Zm43.826-3.207A10.689,10.689,0,1,1,96.653,58.24,10.689,10.689,0,0,1,85.964,68.929Z" transform="translate(0 0)" fill="#707070"/>
        <path id="Path_5341" data-name="Path 5341" d="M350.651,352.313a1.069,1.069,0,0,0-1.512,0l-6.892,6.892-4.629-2.777a1.069,1.069,0,1,0-1.1,1.833l5.345,3.207a1.069,1.069,0,0,0,1.306-.16l7.482-7.482A1.069,1.069,0,0,0,350.651,352.313Z" transform="translate(-256.449 -298.036)" fill="#707070"/>
      </g>
      <line id="Line_303" data-name="Line 303" x2="1497.916" transform="translate(19392.5 11988.5)" fill="none" stroke="#707070" stroke-width="1"/>
      <text id="Feeder_Status" data-name="Feeder Status" transform="translate(19633 11820)" fill="#21232a" font-size="54" font-family="OpenSans-Bold, Open Sans" font-weight="700"><tspan x="0" y="58">Feeder Status</tspan></text>
      <text id="Review_the_status_of_a_feeder" data-name="Review the status of a feeder" transform="translate(19634 11887)" fill="#21232a" font-size="54" font-family="OpenSans-Regular, Open Sans"><tspan x="0" y="58">Review the status of a feeder</tspan></text>
      <g id="report_1_" data-name="report (1)" transform="translate(19455 11682)">
        <path id="Path_5321" data-name="Path 5321" d="M255.425,251.143l-8.876-8.876a12,12,0,0,0,1.686-6.15,12.118,12.118,0,1,0-12.118,12.118,12,12,0,0,0,6.15-1.686l8.876,8.876a3.028,3.028,0,0,0,4.282-4.282ZM226.02,236.118a10.1,10.1,0,1,1,10.1,10.1A10.1,10.1,0,0,1,226.02,236.118ZM254,254a1.009,1.009,0,0,1-1.434,0l-8.634-8.634a12.088,12.088,0,0,0,1.434-1.434L254,252.568A1.009,1.009,0,0,1,254,254Zm0,0" transform="translate(-195.725 -195.725)" fill="#707070"/>
        <path id="Path_5322" data-name="Path 5322" d="M278.825,264.35a1.01,1.01,0,0,0-1.555,0l-5.049,6.059a1.01,1.01,0,0,0,.778,1.656h2.02v3.029a1.01,1.01,0,1,0,2.02,0v-4.039a1.01,1.01,0,0,0-1.01-1.01h-.879l2.9-3.474,2.9,3.474h-.879a1.01,1.01,0,0,0-1.01,1.01v4.039a1.01,1.01,0,1,0,2.02,0v-3.029h2.02a1.01,1.01,0,0,0,.778-1.656Zm0,0" transform="translate(-237.655 -230.663)" fill="#707070"/>
        <path id="Path_5323" data-name="Path 5323" d="M47.461,54.53a1.01,1.01,0,0,0-1.01,1.01,3.03,3.03,0,0,1-3.029,3.029H5.049A3.03,3.03,0,0,1,2.02,55.539V5.049A3.03,3.03,0,0,1,5.049,2.02H43.422a3.03,3.03,0,0,1,3.029,3.029V26.77a1.01,1.01,0,0,0,2.02,0V5.049A5.049,5.049,0,0,0,43.422,0H5.049A5.049,5.049,0,0,0,0,5.049v50.49a5.049,5.049,0,0,0,5.049,5.049H43.422a5.049,5.049,0,0,0,5.049-5.049A1.01,1.01,0,0,0,47.461,54.53Zm0,0" fill="#707070"/>
        <path id="Path_5324" data-name="Path 5324" d="M61.012,80.157h7.271a1.01,1.01,0,1,0,0-2.02H61.8a11.1,11.1,0,0,0,.424-3.029,1.01,1.01,0,0,0-1.01-1.01H52.126V65.01A1.01,1.01,0,0,0,51.116,64a11.108,11.108,0,1,0,9.9,16.157Zm-9.9,4.039a9.088,9.088,0,0,1-1.01-18.116v9.028a1.01,1.01,0,0,0,1.01,1.01h9.028a9.028,9.028,0,0,1-.454,2.02H56.165a1.01,1.01,0,1,0,0,2.02h2.5A9.087,9.087,0,0,1,51.116,84.2Zm0,0" transform="translate(-34.959 -55.922)" fill="#707070"/>
        <path id="Path_5325" data-name="Path 5325" d="M166.137,37.049H162.31A11.109,11.109,0,0,0,153.01,32,1.01,1.01,0,0,0,152,33.01v10.1a1.01,1.01,0,0,0,1.01,1.01h10.1a1.01,1.01,0,0,0,1.01-1.01,11.173,11.173,0,0,0-.757-4.039h2.777a1.01,1.01,0,0,0,0-2.02Zm-4.1,5.049H154.02V34.08a9.088,9.088,0,0,1,5.756,2.969h-1.717a1.01,1.01,0,0,0,0,2.02h3.09A8.773,8.773,0,0,1,162.037,42.1Zm0,0" transform="translate(-132.814 -27.961)" fill="#707070"/>
        <path id="Path_5326" data-name="Path 5326" d="M293.049,58.02a1.01,1.01,0,0,0,0-2.02H289.01A1.01,1.01,0,0,0,288,57.01v4.039a1.01,1.01,0,0,0,1.01,1.01h4.039a1.01,1.01,0,0,0,0-2.02H290.02V58.02Zm0,0" transform="translate(-251.647 -48.931)" fill="#707070"/>
        <path id="Path_5327" data-name="Path 5327" d="M293.049,160H289.01a1.01,1.01,0,0,0-1.01,1.01v4.039a1.01,1.01,0,0,0,1.01,1.01h4.039a1.01,1.01,0,0,0,1.01-1.01V161.01A1.01,1.01,0,0,0,293.049,160Zm-1.01,4.039h-2.02v-2.02h2.02Zm0,0" transform="translate(-251.647 -139.804)" fill="#707070"/>
        <path id="Path_5328" data-name="Path 5328" d="M69.049,370.1a1.01,1.01,0,0,0,1.01-1.01V361.01a1.01,1.01,0,0,0-1.01-1.01H65.01A1.01,1.01,0,0,0,64,361.01v8.078a1.01,1.01,0,1,0,2.02,0V362.02h2.02v7.069A1.01,1.01,0,0,0,69.049,370.1Zm0,0" transform="translate(-55.922 -314.559)" fill="#707070"/>
        <path id="Path_5329" data-name="Path 5329" d="M133.049,342.137a1.01,1.01,0,0,0,1.01-1.01V329.01a1.01,1.01,0,0,0-1.01-1.01H129.01a1.01,1.01,0,0,0-1.01,1.01v12.118a1.01,1.01,0,0,0,2.02,0V330.02h2.02v11.108A1.01,1.01,0,0,0,133.049,342.137Zm0,0" transform="translate(-111.843 -286.598)" fill="#707070"/>
        <path id="Path_5330" data-name="Path 5330" d="M61.076,267.837v1.212a1.01,1.01,0,0,0,2.02,0V265.01a1.01,1.01,0,0,0-1.01-1.01H58.047a1.01,1.01,0,1,0,0,2.02h2.02a12.643,12.643,0,0,1-10.987,4.039,1.017,1.017,0,0,0-.243,2.02,13.993,13.993,0,0,0,1.828.121A14.652,14.652,0,0,0,61.076,267.837Zm0,0" transform="translate(-41.89 -230.676)" fill="#707070"/>
      </g>
    </g>
  </g>
</svg>
