<svg xmlns="http://www.w3.org/2000/svg" width="1065" height="1313" viewBox="0 0 1065 1313">
  <g id="Group_3204" data-name="Group 3204" transform="translate(-19177 -14666)">
    <g id="Group_3203" data-name="Group 3203">
      <rect id="Rectangle_1052" data-name="Rectangle 1052" width="1065" height="1313" transform="translate(19177 14666)" fill="#fff"/>
      <g id="Group_3145" data-name="Group 3145" transform="translate(-21.499 -17.5)">
        <g id="personal-information" transform="translate(19273 14767)">
          <path id="Path_5191" data-name="Path 5191" d="M70.946,73.7H34.239A3.243,3.243,0,0,1,31,70.463V16.439A3.243,3.243,0,0,1,34.239,13.2h6.206a1.08,1.08,0,1,1,0,2.159H34.239a1.081,1.081,0,0,0-1.08,1.08V70.463a1.081,1.081,0,0,0,1.08,1.08H70.946a1.081,1.081,0,0,0,1.08-1.08V45.344H47.194a3.243,3.243,0,0,1-3.239-3.239V3.239A3.243,3.243,0,0,1,47.194,0H79.583a3.243,3.243,0,0,1,3.239,3.239v10.8a1.08,1.08,0,0,1-2.159,0V3.239a1.081,1.081,0,0,0-1.08-1.08H47.194a1.081,1.081,0,0,0-1.08,1.08V42.105a1.081,1.081,0,0,0,1.08,1.08H79.583a1.081,1.081,0,0,0,1.08-1.08V18.354a1.08,1.08,0,0,1,1.08-1.08H88.22a1.08,1.08,0,0,1,0,2.159h-5.4v4.318h5.4a1.08,1.08,0,1,1,0,2.159h-5.4v4.318h5.4a1.08,1.08,0,0,1,0,2.159h-5.4v4.318h5.4a1.08,1.08,0,0,1,0,2.159h-5.4v3.239a3.225,3.225,0,0,1-.185,1.08H88.22a1.08,1.08,0,1,1,0,2.159H74.185v4.318H88.22a1.08,1.08,0,0,1,0,2.159H74.185v6.766H92.538a1.081,1.081,0,0,0,1.08-1.08V9.961a1.081,1.081,0,0,0-1.08-1.08H86.061a1.08,1.08,0,0,1,0-2.159h6.478a3.243,3.243,0,0,1,3.239,3.239V57.508a3.243,3.243,0,0,1-3.239,3.239H74.185v6.478H86.061a1.081,1.081,0,0,0,1.08-1.08V63.986a1.08,1.08,0,0,1,2.159,0v2.159a3.243,3.243,0,0,1-3.239,3.239H74.185v1.08A3.243,3.243,0,0,1,70.946,73.7Zm6.478-32.677H49.354a1.08,1.08,0,0,1-1.08-1.08V36.2c0-5.548,3.668-6.817,6.346-7.744,2.21-.765,3.465-1.28,3.687-2.943a9.029,9.029,0,0,1-3.95-7.462V13.595a9.032,9.032,0,0,1,18.063,0v4.452a9.029,9.029,0,0,1-3.95,7.462c.221,1.663,1.476,2.178,3.687,2.943,2.678.927,6.346,2.2,6.346,7.744v3.75A1.08,1.08,0,0,1,77.424,41.026ZM50.433,38.866H76.344V36.2c0-4.01-2.267-4.795-4.893-5.7-1.939-.671-4.277-1.48-4.971-3.959a9.04,9.04,0,0,1-6.183,0c-.695,2.479-3.032,3.288-4.971,3.959-2.625.909-4.893,1.693-4.893,5.7ZM63.389,6.722a6.88,6.88,0,0,0-6.872,6.872v4.452a6.872,6.872,0,0,0,13.745,0V13.595a6.88,6.88,0,0,0-6.872-6.872Z" transform="translate(-31)" fill="#707070" stroke="#707070" stroke-width="0.5"/>
        </g>
        <g id="deposit" transform="translate(19265 15064)">
          <path id="Path_4342" data-name="Path 4342" d="M60.842,31h-43.4A1.447,1.447,0,0,0,16,32.447v43.4a1.446,1.446,0,0,0,1.447,1.447h43.4a1.446,1.446,0,0,0,1.447-1.447v-43.4A1.447,1.447,0,0,0,60.842,31ZM59.4,74.4h-40.5v-40.5H59.4Z" transform="translate(1.358 12.395)" fill="#707070"/>
          <path id="Path_4343" data-name="Path 4343" d="M20.447,67.27v2.893a1.446,1.446,0,0,0,1.447,1.447h33.27a1.446,1.446,0,0,0,1.447-1.447V35.447A1.446,1.446,0,0,0,55.163,34H21.893a1.446,1.446,0,0,0-1.447,1.447V38.34A1.446,1.446,0,0,0,19,39.786v8.679a1.446,1.446,0,0,0,1.447,1.447V55.7A1.446,1.446,0,0,0,19,57.144v8.679A1.446,1.446,0,0,0,20.447,67.27Zm1.447-20.251V41.233H23.34v5.786Zm1.447,2.893h1.447a1.446,1.446,0,0,0,1.447-1.447V39.786a1.446,1.446,0,0,0-1.447-1.447H23.34V36.893H53.716V68.716H23.34V67.27h1.447a1.446,1.446,0,0,0,1.447-1.447V57.144A1.446,1.446,0,0,0,24.786,55.7H23.34Zm-1.447,8.679H23.34v5.786H21.893Z" transform="translate(2.698 13.735)" fill="#707070"/>
          <path id="Path_4344" data-name="Path 4344" d="M37.019,64.037A13.019,13.019,0,1,0,24,51.019,13.034,13.034,0,0,0,37.019,64.037Zm0-23.144A10.126,10.126,0,1,1,26.893,51.019,10.138,10.138,0,0,1,37.019,40.893Z" transform="translate(4.931 15.521)" fill="#707070"/>
          <path id="Path_4345" data-name="Path 4345" d="M35.679,58.358A8.679,8.679,0,1,0,27,49.679,8.688,8.688,0,0,0,35.679,58.358Zm0-14.465a5.786,5.786,0,1,1-5.786,5.786A5.792,5.792,0,0,1,35.679,43.893Z" transform="translate(6.27 16.861)" fill="#707070"/>
          <path id="Path_4346" data-name="Path 4346" d="M21.447,41.5H53.27a1.447,1.447,0,0,0,1.447-1.447V1H51.823V38.609H22.893V1H20V40.056A1.447,1.447,0,0,0,21.447,41.5Z" transform="translate(3.145 -1)" fill="#707070"/>
          <path id="Path_4347" data-name="Path 4347" d="M31.679,17.572a5.792,5.792,0,0,0,5.786-5.786,2.893,2.893,0,1,1,2.893,2.893v2.893a5.781,5.781,0,0,0,5.581-4.34h3.1V10.34h-3.1a5.774,5.774,0,0,0-11.367,1.447,2.893,2.893,0,1,1-2.893-2.893V6A5.781,5.781,0,0,0,26.1,10.34H23v2.893h3.1A5.781,5.781,0,0,0,31.679,17.572Z" transform="translate(4.484 1.233)" fill="#707070"/>
          <path id="Path_4348" data-name="Path 4348" d="M24.447,26.572a2.9,2.9,0,0,1,2.893,2.893,1.447,1.447,0,0,0,1.447,1.447H43.252A1.447,1.447,0,0,0,44.7,29.465a2.9,2.9,0,0,1,2.893-2.893,1.447,1.447,0,0,0,1.447-1.447V15H46.145v8.861a5.81,5.81,0,0,0-4.157,4.157H30.049a5.81,5.81,0,0,0-4.157-4.157V15H23V25.126a1.449,1.449,0,0,0,1.448,1.447Z" transform="translate(4.484 5.251)" fill="#707070"/>
          <path id="Path_4349" data-name="Path 4349" d="M31,15h2.893v2.893H31Z" transform="translate(8.056 5.251)" fill="#707070"/>
          <path id="Path_4350" data-name="Path 4350" d="M31,3h2.893V5.893H31Z" transform="translate(8.056 -0.107)" fill="#707070"/>
          <path id="Path_4351" data-name="Path 4351" d="M66.141,16.018a1.449,1.449,0,0,0-1.337-.893h-4.34V5H57.572V16.572a1.447,1.447,0,0,0,1.447,1.447h2.294l-5.187,5.187-5.187-5.187h2.294a1.447,1.447,0,0,0,1.447-1.447V5H51.786V15.126h-4.34a1.446,1.446,0,0,0-1.023,2.469L55.1,26.274a1.446,1.446,0,0,0,2.045,0l8.679-8.679a1.446,1.446,0,0,0,.314-1.577Z" transform="translate(14.754 0.786)" fill="#707070"/>
          <path id="Path_4352" data-name="Path 4352" d="M50,1h2.893V3.893H50Z" transform="translate(16.54 -1)" fill="#707070"/>
          <path id="Path_4353" data-name="Path 4353" d="M24.141,26.018a1.449,1.449,0,0,0-1.337-.892h-4.34V15H15.572V26.572a1.447,1.447,0,0,0,1.447,1.447h2.294l-5.187,5.187L8.938,28.019h2.294a1.447,1.447,0,0,0,1.447-1.447V15H9.786V25.126H5.447a1.446,1.446,0,0,0-1.023,2.469L13.1,36.274a1.446,1.446,0,0,0,2.045,0l8.679-8.679A1.446,1.446,0,0,0,24.141,26.018Z" transform="translate(-4 5.251)" fill="#707070"/>
          <path id="Path_4354" data-name="Path 4354" d="M8,11h2.893v2.893H8Z" transform="translate(-2.214 3.465)" fill="#707070"/>
        </g>
        <g id="Smart_phone_shopping" data-name="Smart phone shopping" transform="translate(19267 15831)">
          <path id="Path_959" data-name="Path 959" d="M59.392,37.2l-6.938,4.011a3.581,3.581,0,0,0-3.372-2.425H43.666a1.219,1.219,0,0,1-.535-.12l-1.383-.693a3.605,3.605,0,0,0-1.6-.384h-6.22a3.605,3.605,0,0,0-1.136.184l-3.038,1.012h-1V36.392a1.2,1.2,0,0,0-1.2-1.2H20.373a1.2,1.2,0,0,0-1.2,1.2v1.2H14.392V34H12V55.531h2.392V51.943h4.785v1.2a1.2,1.2,0,0,0,1.2,1.2H27.55a1.2,1.2,0,0,0,1.2-1.2v-2.4l.908.01,1.641.821a3.605,3.605,0,0,0,1.6.378H47.245a3.589,3.589,0,0,0,1.794-.478l13.937-8.049a3.6,3.6,0,0,0,1.812-3.123A3.562,3.562,0,0,0,64.3,38.5,3.6,3.6,0,0,0,59.392,37.2Zm-45,12.352v-9.57h4.785v9.57Zm11.962,2.392H21.57V37.589h4.785ZM61.785,41.337,47.843,49.39a1.2,1.2,0,0,1-.6.16H32.9a1.219,1.219,0,0,1-.535-.12l-2.134-1.077-1.484-.013V41.177h1.2a1.2,1.2,0,0,0,.378-.061L33.54,40.04a1.212,1.212,0,0,1,.38-.059h6.22a1.219,1.219,0,0,1,.535.12l1.383.693a3.605,3.605,0,0,0,1.608.384h5.416a1.2,1.2,0,0,1,0,2.392H44.3a1.2,1.2,0,0,0,0,2.392h4.785a3.578,3.578,0,0,0,3.11-1.834l8.4-4.865a1.189,1.189,0,0,1,1.646.445,1.155,1.155,0,0,1,.161.584,1.2,1.2,0,0,1-.616,1.045Z" transform="translate(1.962 6.278)" fill="#707070"/>
          <path id="Path_960" data-name="Path 960" d="M41.474,60.613a1.2,1.2,0,0,0-1.2,1.2V64.2H4.392V11.57H40.278v1.2a1.2,1.2,0,1,0,2.392,0V10.373A8.383,8.383,0,0,0,34.3,2H10.373A8.383,8.383,0,0,0,2,10.373V65.4a8.383,8.383,0,0,0,8.373,8.373H34.3A8.383,8.383,0,0,0,42.671,65.4V61.81A1.2,1.2,0,0,0,41.474,60.613ZM10.373,4.392H34.3a5.992,5.992,0,0,1,5.861,4.785H4.512a5.992,5.992,0,0,1,5.861-4.785ZM34.3,71.379H10.373a5.992,5.992,0,0,1-5.861-4.785H40.159A5.992,5.992,0,0,1,34.3,71.379Z" fill="#707070"/>
          <path id="Path_961" data-name="Path 961" d="M16,5h2.392V7.392H16Z" transform="translate(2.747 0.589)" fill="#707070"/>
          <path id="Path_962" data-name="Path 962" d="M20,5h2.392V7.392H20Z" transform="translate(3.531 0.589)" fill="#707070"/>
          <path id="Path_963" data-name="Path 963" d="M16,57h7.177v2.392H16Z" transform="translate(2.747 10.791)" fill="#707070"/>
          <path id="Path_964" data-name="Path 964" d="M67.082,13H38.373a1.2,1.2,0,0,0-1.2,1.2v2.392H34.785a1.2,1.2,0,0,0-1.2,1.2v2.392H31.2a1.2,1.2,0,0,0-1.2,1.2V38.12a1.2,1.2,0,0,0,1.2,1.2H59.9a1.2,1.2,0,0,0,1.2-1.2V35.728h2.392a1.2,1.2,0,0,0,1.2-1.2V32.139h2.392a1.2,1.2,0,0,0,1.2-1.2V14.2A1.2,1.2,0,0,0,67.082,13ZM58.709,36.924H32.392V22.57H58.709ZM62.3,33.335H61.1V21.373a1.2,1.2,0,0,0-1.2-1.2H35.981v-1.2H62.3Zm3.589-3.589h-1.2V17.785a1.2,1.2,0,0,0-1.2-1.2H39.57v-1.2H65.886Z" transform="translate(5.493 2.158)" fill="#707070"/>
          <path id="Path_965" data-name="Path 965" d="M43.785,23a4.785,4.785,0,1,0,4.785,4.785A4.785,4.785,0,0,0,43.785,23Zm0,7.177a2.392,2.392,0,1,1,2.392-2.392A2.392,2.392,0,0,1,43.785,30.177Z" transform="translate(7.259 4.12)" fill="#707070"/>
          <path id="Path_966" data-name="Path 966" d="M51.392,26H50.2a1.2,1.2,0,0,0,0,2.392h1.2a1.2,1.2,0,1,0,0-2.392Z" transform="translate(9.221 4.709)" fill="#707070"/>
          <path id="Path_967" data-name="Path 967" d="M36.392,26H35.2a1.2,1.2,0,0,0,0,2.392h1.2a1.2,1.2,0,0,0,0-2.392Z" transform="translate(6.278 4.709)" fill="#707070"/>
          <path id="Path_968" data-name="Path 968" d="M15.177,15.2a1.2,1.2,0,0,0-1.2-1.2H9.2A1.2,1.2,0,0,0,8,15.2v4.785a1.2,1.2,0,0,0,1.2,1.2h4.785a1.2,1.2,0,0,0,1.2-1.2Zm-2.392,3.589H10.392V16.392h2.392Z" transform="translate(1.177 2.354)" fill="#707070"/>
          <path id="Path_969" data-name="Path 969" d="M23.177,15.2a1.2,1.2,0,0,0-1.2-1.2H17.2A1.2,1.2,0,0,0,16,15.2v4.785a1.2,1.2,0,0,0,1.2,1.2h4.785a1.2,1.2,0,0,0,1.2-1.2Zm-2.392,3.589H18.392V16.392h2.392Z" transform="translate(2.747 2.354)" fill="#707070"/>
          <path id="Path_970" data-name="Path 970" d="M13.981,24H9.2A1.2,1.2,0,0,0,8,25.2v4.785a1.2,1.2,0,0,0,1.2,1.2h4.785a1.2,1.2,0,0,0,1.2-1.2V25.2A1.2,1.2,0,0,0,13.981,24Zm-1.2,4.785H10.392V26.392h2.392Z" transform="translate(1.177 4.316)" fill="#707070"/>
          <path id="Path_971" data-name="Path 971" d="M21.981,24H17.2A1.2,1.2,0,0,0,16,25.2v4.785a1.2,1.2,0,0,0,1.2,1.2h4.785a1.2,1.2,0,0,0,1.2-1.2V25.2A1.2,1.2,0,0,0,21.981,24Zm-1.2,4.785H18.392V26.392h2.392Z" transform="translate(2.747 4.316)" fill="#707070"/>
          <path id="Path_972" data-name="Path 972" d="M29.981,16.392a1.2,1.2,0,1,0,0-2.392H25.2A1.2,1.2,0,0,0,24,15.2v4.785a1.2,1.2,0,0,0,1.2,1.2h2.392a1.2,1.2,0,1,0,0-2.392h-1.2V16.392Z" transform="translate(4.316 2.354)" fill="#707070"/>
          <path id="Path_973" data-name="Path 973" d="M27.589,26.392a1.2,1.2,0,1,0,0-2.392H25.2A1.2,1.2,0,0,0,24,25.2v4.785a1.2,1.2,0,0,0,1.2,1.2h2.392a1.2,1.2,0,1,0,0-2.392h-1.2V26.392Z" transform="translate(4.316 4.316)" fill="#707070"/>
        </g>
        <g id="Consult-Talk" transform="translate(19269 15379)">
          <rect id="Rectangle_969" data-name="Rectangle 969" width="2.432" height="2.432" transform="translate(17.026 28.36)" fill="#707070" stroke="#707070" stroke-width="0.25"/>
          <rect id="Rectangle_970" data-name="Rectangle 970" width="2.432" height="2.432" transform="translate(29.187 28.36)" fill="#707070" stroke="#707070" stroke-width="0.25"/>
          <path id="Path_5248" data-name="Path 5248" d="M73.925,43.43l-4.751-.679a17.027,17.027,0,0,0-.8-1.946l2.875-3.833a1.216,1.216,0,0,0-.113-1.589l-5.16-5.16a1.2,1.2,0,0,0-.737-.344V18.172a9.729,9.729,0,0,0,3.648-7.59A9.628,9.628,0,0,0,63.326,1.8a1.216,1.216,0,0,0-1.735,1.1v6.81l-2.432.811-2.432-.811V2.9A1.216,1.216,0,0,0,54.991,1.8a9.628,9.628,0,0,0-5.561,8.781,9.729,9.729,0,0,0,3.648,7.59v8.22H49.43a1.216,1.216,0,0,0-1.2,1.044l-.787,5.508,2.408.344.637-4.463h5.188l.637,4.463a1.216,1.216,0,0,0,.863.995,14.52,14.52,0,0,1,2.919,1.2,1.216,1.216,0,0,0,1.315-.094l3.6-2.7,3.668,3.668-2.706,3.6a1.216,1.216,0,0,0-.094,1.315,14.52,14.52,0,0,1,1.2,2.919,1.216,1.216,0,0,0,.995.863l4.463.637V50.88l-4.463.637a1.216,1.216,0,0,0-.995.863,14.52,14.52,0,0,1-1.2,2.919,1.216,1.216,0,0,0,.094,1.315l2.7,3.6L65,63.883l-3.6-2.71a1.216,1.216,0,0,0-1.315-.094,14.519,14.519,0,0,1-2.919,1.2,1.216,1.216,0,0,0-.863.995l-.634,4.466H50.646V62.6a13.5,13.5,0,0,0-.547-3.8,11.079,11.079,0,1,0-7.776-8.588c-.029-.012-.057-.027-.086-.038L32.4,46.243V44.374a13.486,13.486,0,0,0,4.231-3.388H39.7a3.648,3.648,0,0,0,3.648-3.648V34.681a3.648,3.648,0,0,0,2.432-3.425V27.608a3.648,3.648,0,0,0-2.432-3.425v-1.44a17.026,17.026,0,1,0-34.052,0v1.44a3.648,3.648,0,0,0-2.432,3.425v3.648A3.648,3.648,0,0,0,10.513,34.9h2.432c.078,0,.153-.012.23-.017a13.406,13.406,0,0,0,7.067,9.486v1.869L10.41,50.176A13.316,13.316,0,0,0,2,62.6V73.822a1.216,1.216,0,0,0,1.216,1.216H49.43a1.216,1.216,0,0,0,1.216-1.216V70.173h6.081a1.216,1.216,0,0,0,1.2-1.044l.679-4.751a17.025,17.025,0,0,0,1.946-.8l3.833,2.875a1.216,1.216,0,0,0,1.59-.113l5.16-5.16a1.216,1.216,0,0,0,.113-1.59l-2.875-3.833a17.027,17.027,0,0,0,.8-1.946l4.751-.679a1.216,1.216,0,0,0,1.042-1.2v-7.3a1.216,1.216,0,0,0-1.044-1.2ZM60.548,32.986c-.057-.028-.122-.046-.179-.073V17.879H57.943v9.644l-.012-.088a1.216,1.216,0,0,0-1.2-1.043H55.51V17.563a1.216,1.216,0,0,0-.522-1,7.3,7.3,0,0,1-.694-11.428v5.446a1.216,1.216,0,0,0,.832,1.154l3.648,1.216a1.216,1.216,0,0,0,.769,0l3.648-1.216a1.216,1.216,0,0,0,.832-1.154V5.136a7.3,7.3,0,0,1-.694,11.432,1.216,1.216,0,0,0-.522.995V31.3Zm-15.983,15.3a8.574,8.574,0,1,1,4.053,7.225,13.275,13.275,0,0,0-3.175-3.5,8.314,8.314,0,0,1-.878-3.726ZM39.7,38.553H38.224a13.256,13.256,0,0,0,1.247-3.665c.077,0,.152.017.23.017h1.216v2.432A1.216,1.216,0,0,1,39.7,38.553ZM37.268,25.176a3.667,3.667,0,0,1-2.919-1.459L32.16,20.8a1.216,1.216,0,0,0-.82-.477,1.23,1.23,0,0,0-.913.257l-4.081,3.26a6.1,6.1,0,0,1-3.793,1.338H15.378V23.96a10.945,10.945,0,1,1,21.891,0Zm6.081,6.081a1.216,1.216,0,0,1-1.216,1.216H39.7V26.392h2.432a1.216,1.216,0,0,1,1.216,1.216ZM26.323,8.15A14.61,14.61,0,0,1,40.917,22.744V23.96H39.7a13.378,13.378,0,1,0-26.755,0H11.729V22.744A14.61,14.61,0,0,1,26.323,8.15ZM10.513,32.473A1.216,1.216,0,0,1,9.3,31.257V27.608a1.216,1.216,0,0,1,1.216-1.216h2.432v6.081Zm4.865,0V27.608h7.175a8.542,8.542,0,0,0,5.317-1.866l3.1-2.482L32.4,25.176a6.111,6.111,0,0,0,4.865,2.432v4.865a10.881,10.881,0,0,1-1.851,6.081H26.323v2.432h6.864a10.934,10.934,0,0,1-17.809-8.513ZM26.323,45.85a13.336,13.336,0,0,0,3.648-.518v1.734a3.648,3.648,0,1,1-7.3,0V45.332a13.336,13.336,0,0,0,3.648.518ZM48.213,72.605h-7.3V59.228H38.484V72.605H14.161V59.228H11.729V72.605h-7.3V62.6a10.894,10.894,0,0,1,6.881-10.163l9.2-3.679a6.042,6.042,0,0,0,11.624,0l9.2,3.679A10.894,10.894,0,0,1,48.213,62.6Z" transform="translate(-2 -1.68)" fill="#707070" stroke="#707070" stroke-width="0.25"/>
          <rect id="Rectangle_971" data-name="Rectangle 971" width="2.432" height="2.432" transform="translate(49.862 29.576)" fill="#707070" stroke="#707070" stroke-width="0.25"/>
          <rect id="Rectangle_972" data-name="Rectangle 972" width="2.432" height="2.432" transform="translate(49.862 61.196)" fill="#707070" stroke="#707070" stroke-width="0.25"/>
          <rect id="Rectangle_973" data-name="Rectangle 973" width="2.432" height="2.432" transform="translate(60.537 57.782) rotate(-45)" fill="#707070" stroke="#707070" stroke-width="0.25"/>
          <rect id="Rectangle_974" data-name="Rectangle 974" width="2.432" height="2.432" transform="translate(65.672 45.386)" fill="#707070" stroke="#707070" stroke-width="0.25"/>
          <rect id="Rectangle_975" data-name="Rectangle 975" width="2.432" height="2.432" transform="translate(60.537 35.424) rotate(-45)" fill="#707070" stroke="#707070" stroke-width="0.25"/>
        </g>
        <g id="Outline" transform="translate(19270 15224)">
          <path id="Path_5430" data-name="Path 5430" d="M208.6,279.488l-4.647-6.971a1.162,1.162,0,0,0-.967-.517H165.809a1.162,1.162,0,0,0-.967.517l-4.647,6.971a1.162,1.162,0,0,0,.967,1.806h3.486v20.913h-2.324v2.324h44.15v-2.324H204.15V281.295h3.486a1.162,1.162,0,0,0,.967-1.806Zm-42.172-5.165h11.15l-3.1,4.647h-11.15Zm.54,6.971H175.1a1.162,1.162,0,0,0,.967-.517L178.59,277v25.209H166.971Zm34.856,20.913H180.913V277l2.519,3.778a1.162,1.162,0,0,0,.967.517h17.428Zm-16.806-23.237-3.1-4.647h20.444l3.1,4.647Z" transform="translate(-139.087 -235.983)" fill="#707070"/>
          <path id="Path_5431" data-name="Path 5431" d="M416,448h2.324v2.324H416Z" transform="translate(-357.908 -386.422)" fill="#707070"/>
          <path id="Path_5432" data-name="Path 5432" d="M384,448h2.324v2.324H384Z" transform="translate(-330.555 -386.422)" fill="#707070"/>
          <path id="Path_5433" data-name="Path 5433" d="M320.406,77.8l8.133,6.971a1.162,1.162,0,0,0,1.512,0l8.133-6.971a1.162,1.162,0,0,0,.406-.882V73.428a1.162,1.162,0,0,0-1.162-1.162h-3.486V56h-2.324V73.428a1.162,1.162,0,0,0,1.162,1.162h3.485v1.789l-6.971,5.975-6.971-5.975V74.59h3.486a1.162,1.162,0,0,0,1.162-1.162V56h-2.324V72.266h-3.486A1.162,1.162,0,0,0,320,73.428v3.486a1.162,1.162,0,0,0,.406.882Z" transform="translate(-275.85 -51.353)" fill="#707070"/>
          <path id="Path_5434" data-name="Path 5434" d="M18.324,26.324H55.5v31.37h2.324V25.162A1.162,1.162,0,0,0,56.665,24h-39.5A1.162,1.162,0,0,0,16,25.162V86.74A1.162,1.162,0,0,0,17.162,87.9H38.011V85.578H18.324Z" transform="translate(-16 -24)" fill="#707070"/>
          <path id="Path_5435" data-name="Path 5435" d="M66.8,50.343l-3.145,3.145h-6.49A1.162,1.162,0,0,0,56,54.65v6.971a1.162,1.162,0,0,0,1.162,1.162h6.971a1.162,1.162,0,0,0,1.162-1.162v-6.49l3.145-3.145ZM62.971,60.459H58.324V55.812h3l-1.5,1.5,1.643,1.643,1.5-1.5Z" transform="translate(-50.191 -46.517)" fill="#707070"/>
          <path id="Path_5436" data-name="Path 5436" d="M152,80h2.324v2.324H152Z" transform="translate(-132.249 -71.867)" fill="#707070"/>
          <path id="Path_5437" data-name="Path 5437" d="M184,80h11.619v2.324H184Z" transform="translate(-159.601 -71.867)" fill="#707070"/>
          <path id="Path_5438" data-name="Path 5438" d="M152,112h16.266v2.324H152Z" transform="translate(-132.249 -99.22)" fill="#707070"/>
          <path id="Path_5439" data-name="Path 5439" d="M66.8,146.343l-3.145,3.145h-6.49A1.162,1.162,0,0,0,56,150.65v6.971a1.162,1.162,0,0,0,1.162,1.162h6.971a1.162,1.162,0,0,0,1.162-1.162v-6.49l3.145-3.145Zm-3.826,10.116H58.324v-4.647h3l-1.5,1.5,1.643,1.643,1.5-1.5Z" transform="translate(-50.191 -128.575)" fill="#707070"/>
          <path id="Path_5440" data-name="Path 5440" d="M152,176h2.324v2.324H152Z" transform="translate(-132.249 -153.925)" fill="#707070"/>
          <path id="Path_5441" data-name="Path 5441" d="M184,176h11.619v2.324H184Z" transform="translate(-159.601 -153.925)" fill="#707070"/>
          <path id="Path_5442" data-name="Path 5442" d="M152,208h16.266v2.324H152Z" transform="translate(-132.249 -181.278)" fill="#707070"/>
          <path id="Path_5443" data-name="Path 5443" d="M66.8,242.343l-3.145,3.145h-6.49A1.162,1.162,0,0,0,56,246.65v6.971a1.162,1.162,0,0,0,1.162,1.162h6.971a1.162,1.162,0,0,0,1.162-1.162v-6.49l3.145-3.145Zm-3.826,10.116H58.324v-4.647h3l-1.5,1.5,1.643,1.643,1.5-1.5Z" transform="translate(-50.191 -210.633)" fill="#707070"/>
          <path id="Path_5444" data-name="Path 5444" d="M152,272h2.324v2.324H152Z" transform="translate(-132.249 -235.983)" fill="#707070"/>
          <path id="Path_5445" data-name="Path 5445" d="M57.162,341.488A1.162,1.162,0,0,0,56,342.65v6.971a1.162,1.162,0,0,0,1.162,1.162h6.971a1.162,1.162,0,0,0,1.162-1.162v-6.49l3.145-3.145L66.8,338.343l-3.145,3.145Zm5.809,6.971H58.324v-4.647h3l-1.5,1.5,1.643,1.643,1.5-1.5Z" transform="translate(-50.191 -292.691)" fill="#707070"/>
          <path id="Path_5446" data-name="Path 5446" d="M152,368h2.324v2.324H152Z" transform="translate(-132.249 -318.041)" fill="#707070"/>
          <path id="Path_5447" data-name="Path 5447" d="M152,400h3.486v2.324H152Z" transform="translate(-132.249 -345.393)" fill="#707070"/>
        </g>
        <g id="chat" transform="translate(19270 15517.911)">
          <g id="Group_3033" data-name="Group 3033" transform="translate(0 24.089)">
            <path id="Path_5409" data-name="Path 5409" d="M105.529,161.6a1.027,1.027,0,0,0-1.027-1.027h-28.6a1.027,1.027,0,0,0,0,2.054h28.6A1.027,1.027,0,0,0,105.529,161.6Z" transform="translate(-64.628 -141.888)" fill="#707070"/>
            <path id="Path_5410" data-name="Path 5410" d="M99.663,229.5H75.907a1.027,1.027,0,1,0,0,2.054H99.663a1.027,1.027,0,0,0,0-2.054Z" transform="translate(-64.628 -201.375)" fill="#707070"/>
            <path id="Path_5411" data-name="Path 5411" d="M99.663,298.419H75.907a1.027,1.027,0,1,0,0,2.054H99.663a1.027,1.027,0,0,0,0-2.054Z" transform="translate(-64.628 -260.862)" fill="#707070"/>
            <path id="Path_5412" data-name="Path 5412" d="M318.412,50.208a14.533,14.533,0,0,1-5.434-11.363V37.627a8.961,8.961,0,0,0-4.7-7.879V28.338a4.249,4.249,0,0,0-8.5,0v1.411a8.961,8.961,0,0,0-4.7,7.879v1.217a14.533,14.533,0,0,1-5.433,11.363,2.378,2.378,0,0,0,1.484,4.235h6.564a6.669,6.669,0,0,0,12.677,0h6.564a2.378,2.378,0,0,0,1.485-4.235ZM301.83,28.338a2.2,2.2,0,1,1,4.39,0v.61a8.956,8.956,0,0,0-4.39,0Zm2.2,28.648a4.617,4.617,0,0,1-4.124-2.543h8.247A4.616,4.616,0,0,1,304.025,56.986Zm12.9-4.6h-25.8a.324.324,0,0,1-.2-.583,16.577,16.577,0,0,0,6.2-12.962V37.627a6.9,6.9,0,0,1,13.8,0v1.217a16.577,16.577,0,0,0,6.2,12.962A.324.324,0,0,1,316.928,52.389Z" transform="translate(-249.212 -24.089)" fill="#707070"/>
            <path id="Path_5413" data-name="Path 5413" d="M61,102.252a1.027,1.027,0,0,0-1.027,1.027v8.787a6.169,6.169,0,0,1-6.162,6.163H22.676a3.344,3.344,0,0,0-2.311.922L9.252,129.7l1.637-9.087A2.025,2.025,0,0,0,8.9,118.228h-.68a6.169,6.169,0,0,1-6.162-6.163V84A6.169,6.169,0,0,1,8.216,77.84h35.7a1.027,1.027,0,0,0,0-2.054H8.216A8.225,8.225,0,0,0,0,84v28.064a8.225,8.225,0,0,0,8.216,8.216h.646l-1.765,9.8a1.8,1.8,0,0,0,3.018,1.629L21.779,120.64a1.3,1.3,0,0,1,.9-.358H53.816a8.225,8.225,0,0,0,8.216-8.216v-8.787A1.027,1.027,0,0,0,61,102.252Z" transform="translate(0 -68.708)" fill="#707070"/>
          </g>
        </g>
        <line id="Line_297" data-name="Line 297" y2="1276" transform="translate(19404.5 14702.5)" fill="none" stroke="#707070" stroke-width="1"/>
        <line id="Line_298" data-name="Line 298" x2="1006.585" transform="translate(19223.5 14873.5)" fill="none" stroke="#707070" stroke-width="1"/>
        <line id="Line_299" data-name="Line 299" x2="1006.585" transform="translate(19223.5 15023.5)" fill="none" stroke="#707070" stroke-width="1"/>
        <line id="Line_300" data-name="Line 300" x2="1006.585" transform="translate(19223.5 15183.5)" fill="none" stroke="#707070" stroke-width="1"/>
        <line id="Line_301" data-name="Line 301" x2="1006.585" transform="translate(19223.5 15333.5)" fill="none" stroke="#707070" stroke-width="1"/>
        <line id="Line_302" data-name="Line 302" x2="1006.585" transform="translate(19231.436 15492.5)" fill="none" stroke="#707070" stroke-width="1"/>
        <text id="Profile" transform="translate(19464 14774)" fill="#21232a" font-size="54" font-family="OpenSans-Bold, Open Sans" font-weight="700"><tspan x="0" y="58">Profile</tspan></text>
        <text id="Amount_Payable" data-name="Amount Payable" transform="translate(19464 14914)" fill="#21232a" font-size="54" font-family="OpenSans-Bold, Open Sans" font-weight="700"><tspan x="0" y="58">Amount Payable</tspan></text>
        <text id="Bill_and_Payment_Detail" data-name="Bill and Payment Detail" transform="translate(19464 15066)" fill="#21232a" font-size="54" font-family="OpenSans-Bold, Open Sans" font-weight="700"><tspan x="0" y="58">Bill and Payment Detail</tspan></text>
        <text id="Package_Change_Request" data-name="Package Change Request" transform="translate(19464 15224)" fill="#21232a" font-size="54" font-family="OpenSans-Bold, Open Sans" font-weight="700"><tspan x="0" y="58">Package Change Request</tspan></text>
        <text id="Service_Request" data-name="Service Request" transform="translate(19464 15381)" fill="#21232a" font-size="54" font-family="OpenSans-Bold, Open Sans" font-weight="700"><tspan x="0" y="58">Service Request</tspan></text>
        <text id="Notification" transform="translate(19464 15539)" fill="#21232a" font-size="54" font-family="OpenSans-Bold, Open Sans" font-weight="700"><tspan x="0" y="58">Notification</tspan></text>
        <line id="Line_304" data-name="Line 304" x2="1006.585" transform="translate(19231.436 15652.5)" fill="none" stroke="#707070" stroke-width="1"/>
        <text id="Scheme_Offers" data-name="Scheme &amp; Offers" transform="translate(19464 15684)" fill="#21232a" font-size="54" font-family="OpenSans-Bold, Open Sans" font-weight="700"><tspan x="0" y="58">Scheme &amp; Offers</tspan></text>
        <line id="Line_305" data-name="Line 305" x2="1006.585" transform="translate(19231.436 15792.5)" fill="none" stroke="#707070" stroke-width="1"/>
        <text id="E-Payments" transform="translate(19464 15821)" fill="#21232a" font-size="54" font-family="OpenSans-Bold, Open Sans" font-weight="700"><tspan x="0" y="58">E-Payments</tspan></text>
        <g id="payment-method" transform="translate(19270 14916.977)">
          <g id="Group_3124" data-name="Group 3124" transform="translate(20.747 52.158)">
            <g id="Group_3123" data-name="Group 3123">
              <path id="Path_5471" data-name="Path 5471" d="M155.439,384.95a1.421,1.421,0,0,0-.077-.255,1.38,1.38,0,0,0-.125-.234,1.319,1.319,0,0,0-.375-.375,1.341,1.341,0,0,0-.235-.125,1.277,1.277,0,0,0-.254-.077,1.337,1.337,0,0,0-.53,0,1.317,1.317,0,0,0-.255.077,1.377,1.377,0,0,0-.234.125,1.358,1.358,0,0,0-.5.608,1.319,1.319,0,0,0-.077.255,1.306,1.306,0,0,0,0,.53,1.277,1.277,0,0,0,.077.254,1.255,1.255,0,0,0,.125.235,1.319,1.319,0,0,0,.375.375,1.369,1.369,0,0,0,.234.125,1.313,1.313,0,0,0,.255.077,1.3,1.3,0,0,0,.53,0,1.273,1.273,0,0,0,.254-.077,1.341,1.341,0,0,0,.235-.125,1.319,1.319,0,0,0,.375-.375,1.339,1.339,0,0,0,.125-.235,1.374,1.374,0,0,0,.077-.254,1.305,1.305,0,0,0,0-.53Z" transform="translate(-152.75 -383.857)" fill="#707070"/>
            </g>
          </g>
          <g id="Group_3126" data-name="Group 3126" transform="translate(0 42.116)">
            <g id="Group_3125" data-name="Group 3125">
              <path id="Path_5472" data-name="Path 5472" d="M62.479,321.475l-.016-.04c-1.25-2.925-4.182-4.006-7.652-2.821l-9.463,2.617a6.2,6.2,0,0,0-3.841-3.783l-.036-.013-10.4-3.53a10.729,10.729,0,0,0-8.655-3.983c-3.548,0-6.688,2.434-8.483,5.088H1.358A1.358,1.358,0,0,0,0,316.368v17.124a1.358,1.358,0,0,0,1.358,1.358H9.434a1.358,1.358,0,0,0,1.358-1.358V332.32H14.58a1.358,1.358,0,0,0,1.358-1.358v-.391a9.63,9.63,0,0,1,4.961,1.781,82.2,82.2,0,0,0,8.16,4.166l.06.025a12.192,12.192,0,0,0,4.37.824,10.826,10.826,0,0,0,4.5-.964L58.9,328.914c.037-.013.074-.028.11-.045C61.014,327.949,63.992,325.357,62.479,321.475Zm-54.4,10.659H2.717V317.726H8.076Zm5.145-2.531H10.792V317.726h2.429Zm44.708-3.225-20.907,7.486-.061.024-.055.024a8.8,8.8,0,0,1-6.764.115A78.679,78.679,0,0,1,22.256,330a12.225,12.225,0,0,0-6.318-2.149v-10.94c1.287-2.11,3.784-4.27,6.476-4.27a7.838,7.838,0,0,1,6.649,3.124,1.358,1.358,0,0,0,.721.575L40.578,320c1.724.647,2.635,2.124,2.216,3.6a2.646,2.646,0,0,1-3.252,1.827l-12.169-3.856a1.358,1.358,0,1,0-.821,2.59l12.19,3.863.039.012a5.332,5.332,0,0,0,4.077-.474,5.327,5.327,0,0,0,2.548-3.218q.047-.165.083-.33l10.2-2.825c1.473-.5,3.406-.684,4.267,1.3C60.847,324.81,58.531,326.09,57.929,326.378Z" transform="translate(0 -309.922)" fill="#707070"/>
            </g>
          </g>
          <g id="Group_3128" data-name="Group 3128" transform="translate(46.079 16.794)">
            <g id="Group_3127" data-name="Group 3127">
              <path id="Path_5473" data-name="Path 5473" d="M341.941,124.591a1.32,1.32,0,0,0-.079-.255,1.339,1.339,0,0,0-.5-.609,1.377,1.377,0,0,0-.234-.125,1.353,1.353,0,0,0-.785-.077,1.275,1.275,0,0,0-.254.077,1.341,1.341,0,0,0-.235.125,1.32,1.32,0,0,0-.375.375,1.377,1.377,0,0,0-.125.234,1.316,1.316,0,0,0-.077.255,1.305,1.305,0,0,0,0,.53,1.275,1.275,0,0,0,.077.254,1.339,1.339,0,0,0,.125.235,1.319,1.319,0,0,0,.375.375,1.341,1.341,0,0,0,.235.125,1.371,1.371,0,0,0,.254.077,1.337,1.337,0,0,0,.265.027,1.363,1.363,0,0,0,.266-.027,1.437,1.437,0,0,0,.254-.077,1.377,1.377,0,0,0,.234-.125,1.32,1.32,0,0,0,.375-.375,1.254,1.254,0,0,0,.125-.235,1.279,1.279,0,0,0,.079-.254,1.372,1.372,0,0,0,0-.53Z" transform="translate(-339.25 -123.498)" fill="#707070"/>
            </g>
          </g>
          <g id="Group_3130" data-name="Group 3130" transform="translate(4.033 0.023)">
            <g id="Group_3129" data-name="Group 3129" transform="translate(0 0)">
              <path id="Path_5474" data-name="Path 5474" d="M93.843,4.623H85.767a1.358,1.358,0,0,0-1.358,1.358V7.154H80.621a1.358,1.358,0,0,0-1.358,1.358V8.9A9.63,9.63,0,0,1,74.3,7.123a82.188,82.188,0,0,0-8.16-4.166l-.06-.025a11.556,11.556,0,0,0-8.869.139L51.747,5.028,47.14.421a1.358,1.358,0,0,0-1.921,0L30.094,15.546a1.347,1.347,0,0,0,0,1.921L55.94,43.313a1.468,1.468,0,0,0,1.921,0L71.669,29.5c.359.031.732.048,1.118.048,3.549,0,6.688-2.434,8.483-5.087H93.843A1.358,1.358,0,0,0,95.2,23.106V5.982A1.358,1.358,0,0,0,93.843,4.623ZM46.179,3.3l3.1,3.1a5.922,5.922,0,0,1-6.191,0ZM36.071,19.6l-3.1-3.1,3.1-3.1a5.922,5.922,0,0,1,0,6.192ZM56.9,40.432l-3.1-3.1a5.914,5.914,0,0,1,6.19,0Zm5.052-5.052a8.631,8.631,0,0,0-10.1,0L38.028,21.559a8.632,8.632,0,0,0,0-10.105l3.1-3.1a8.632,8.632,0,0,0,10.105,0l2.938,2.938a5.384,5.384,0,0,0-4.042,2.961,7.741,7.741,0,1,0,8.9,9.583l4.586,1.556a8.672,8.672,0,0,0,1.439,6.884ZM53.694,22.026l.036.013,2.716.922a5.026,5.026,0,1,1-6.822-5.741A6.013,6.013,0,0,0,53.694,22.026Zm13.317,8.294a5.941,5.941,0,0,1-.868-2.825,10.561,10.561,0,0,0,2.4,1.3Zm12.252-7.756c-1.287,2.11-3.784,4.271-6.476,4.271a9.886,9.886,0,0,1-1.417-.1h-.005a7.78,7.78,0,0,1-5.031-2.753c-.028-.041-.146-.2-.163-.221a1.353,1.353,0,0,0-.749-.622l-10.8-3.665c-1.723-.647-2.634-2.123-2.217-3.594v-.006a2.646,2.646,0,0,1,3.25-1.822l12.169,3.856a1.358,1.358,0,0,0,.821-2.59L58.969,12.25l-.084-.084,0,0L53.871,7.152,58.178,5.61l.047-.018.014-.006.055-.024a8.8,8.8,0,0,1,6.764-.115,78.679,78.679,0,0,1,7.886,4.028,12.224,12.224,0,0,0,6.318,2.149Zm5.146-.817H81.98V9.871h2.429Zm8.076,0H87.125V7.34h5.359Z" transform="translate(-29.691 -0.023)" fill="#707070"/>
            </g>
          </g>
        </g>
        <g id="planning" transform="translate(19270 15652)">
          <g id="Group_3132" data-name="Group 3132" transform="translate(0 48)">
            <g id="Group_3131" data-name="Group 3131">
              <path id="Path_5475" data-name="Path 5475" d="M68.8,86.483H66.47V56.163A1.166,1.166,0,0,0,65.3,55H9.329V49.166A1.166,1.166,0,0,0,8.163,48h-3.5A4.665,4.665,0,0,0,0,52.665V99.31a4.665,4.665,0,0,0,4.665,4.665H65.3a1.166,1.166,0,0,0,1.166-1.166V98.144H68.8a1.166,1.166,0,0,0,1.166-1.166V87.649A1.166,1.166,0,0,0,68.8,86.483ZM2.332,52.665a2.332,2.332,0,0,1,2.332-2.332H7V94.646H4.665a4.63,4.63,0,0,0-2.332.626Zm61.806,48.978H4.665a2.332,2.332,0,1,1,0-4.665h3.5a1.166,1.166,0,0,0,1.166-1.166V57.329H64.138V86.483H43.147c-.012,0-.022.008-.034.008a1.166,1.166,0,0,0-.487.117L33.3,91.272a1.166,1.166,0,0,0,0,2.087l9.329,4.665a1.166,1.166,0,0,0,.521.12H64.138Zm-3.5-12.828v7H58.307v-7ZM44.314,91.147V88.815H55.975v2.332ZM55.975,93.48v2.332H44.314V93.48ZM41.981,89.536v5.556l-5.556-2.778Zm25.655,6.276H62.972v-7h4.665Z" transform="translate(0 -48)" fill="#707070"/>
            </g>
          </g>
          <g id="Group_3134" data-name="Group 3134" transform="translate(12.828 60.828)">
            <g id="Group_3133" data-name="Group 3133">
              <path id="Path_5476" data-name="Path 5476" d="M101.994,145.329h11.661a1.166,1.166,0,0,0,1.166-1.166v-7A1.166,1.166,0,0,0,113.655,136H101.994a1.166,1.166,0,0,0-1.166,1.166V139.5h-3.5v-2.332A1.166,1.166,0,0,0,96.163,136h-7A1.166,1.166,0,0,0,88,137.166v7a1.166,1.166,0,0,0,1.166,1.166H91.5v3.5H89.166A1.166,1.166,0,0,0,88,149.994v7a1.166,1.166,0,0,0,1.166,1.166h7a1.166,1.166,0,0,0,1.166-1.166v-2.332h3.5v2.332a1.166,1.166,0,0,0,1.166,1.166h11.661a1.166,1.166,0,0,0,1.166-1.166v-7a1.166,1.166,0,0,0-1.166-1.166H101.994a1.166,1.166,0,0,0-1.166,1.166v2.332h-3.5v-2.332a1.166,1.166,0,0,0-1.166-1.166H93.831v-3.5h2.332a1.166,1.166,0,0,0,1.166-1.166v-2.332h3.5v2.332A1.166,1.166,0,0,0,101.994,145.329Zm1.166-7h9.329V143H103.16Zm0,12.828h9.329v4.665H103.16Zm-8.163,0v4.665H90.332V151.16ZM95,143H90.332v-4.665H95Z" transform="translate(-88 -136)" fill="#707070"/>
            </g>
          </g>
          <g id="Group_3136" data-name="Group 3136" transform="translate(43.147 61.983)">
            <g id="Group_3135" data-name="Group 3135">
              <path id="Path_5477" data-name="Path 5477" d="M309.994,159.1V157.8a8.163,8.163,0,1,0-11.661,0V159.1H296v2.332h16.326V159.1Zm-1.483-3.123a5.845,5.845,0,0,1-.462.462,1.166,1.166,0,0,0-.387.868V159.1h-2.332v-3.016l3.157-3.157-1.649-1.649-2.674,2.674-2.674-2.674-1.649,1.649L303,156.083V159.1h-2.332v-1.792a1.166,1.166,0,0,0-.387-.869,5.831,5.831,0,1,1,8.233-.462Z" transform="translate(-296 -143.928)" fill="#707070"/>
            </g>
          </g>
          <g id="Group_3138" data-name="Group 3138" transform="translate(12.675 91.301)">
            <g id="Group_3137" data-name="Group 3137" transform="translate(0 0)">
              <rect id="Rectangle_1021" data-name="Rectangle 1021" width="16" height="3" transform="translate(0.326 -0.326)" fill="#707070"/>
            </g>
          </g>
          <g id="Group_3140" data-name="Group 3140" transform="translate(12.675 95.91)">
            <g id="Group_3139" data-name="Group 3139" transform="translate(0 0)">
              <rect id="Rectangle_1022" data-name="Rectangle 1022" width="16" height="2" transform="translate(0.326 0.065)" fill="#707070"/>
            </g>
          </g>
          <g id="Group_3142" data-name="Group 3142" transform="translate(17.283 86.692)">
            <g id="Group_3141" data-name="Group 3141" transform="translate(0 0)">
              <rect id="Rectangle_1023" data-name="Rectangle 1023" width="12" height="2" transform="translate(-0.283 0.282)" fill="#707070"/>
            </g>
          </g>
          <g id="Group_3144" data-name="Group 3144" transform="translate(12.675 86.692)">
            <g id="Group_3143" data-name="Group 3143" transform="translate(0 0)">
              <rect id="Rectangle_1024" data-name="Rectangle 1024" width="2" height="2" transform="translate(0.326 0.282)" fill="#707070"/>
            </g>
          </g>
        </g>
      </g>
    </g>
  </g>
</svg>
