<svg xmlns="http://www.w3.org/2000/svg" width="1167" height="1069" viewBox="0 0 1167 1069">
  <g id="Group_3360" data-name="Group 3360" transform="translate(13 12)">
    <rect id="Rectangle_1083" data-name="Rectangle 1083" width="1167" height="1069" transform="translate(-13 -12)" fill="#fff"/>
    <g id="Group_3359" data-name="Group 3359" transform="translate(-11781 -10481)">
      <g id="home_1_" data-name="home (1)" transform="translate(10841.5 11827)">
        <g id="Group_2895" data-name="Group 2895" transform="translate(1030 -1231)">
          <g id="Group_2894" data-name="Group 2894">
            <path id="Path_5221" data-name="Path 5221" d="M54.5,34.583a1.589,1.589,0,0,0-2.082.016l-4.338,3.882v-.509a1.078,1.078,0,1,0-2.155,0v2.439l-1.8,1.608a1.078,1.078,0,0,0,1.438,1.606l7.9-7.074,7.9,7.074a1.078,1.078,0,1,0,1.438-1.606Z" transform="translate(-38.376 -29.889)" fill="#707070"/>
            <path id="Path_5222" data-name="Path 5222" d="M74.8,119.52a1.078,1.078,0,0,0-1.078,1.078v7.544H62.942V120.6a1.078,1.078,0,1,0-2.155,0v8.228A1.49,1.49,0,0,0,62.3,130.3h12.07a1.494,1.494,0,0,0,1.509-1.474V120.6A1.078,1.078,0,0,0,74.8,119.52Z" transform="translate(-53.236 -104.432)" fill="#707070"/>
            <path id="Path_5223" data-name="Path 5223" d="M68.331,221.92a7.544,7.544,0,1,0,7.544,7.544A7.544,7.544,0,0,0,68.331,221.92Zm-5.389,7.544a5.4,5.4,0,0,1,4.311-5.281v4.67l-3.987,2.391A5.313,5.313,0,0,1,62.942,229.464Zm1.434,3.628,3.788-2.272,3.134,3.134A5.337,5.337,0,0,1,64.376,233.092Zm8.445-.662-3.413-3.412v-4.834a5.379,5.379,0,0,1,3.413,8.247Z" transform="translate(-53.236 -193.9)" fill="#707070"/>
            <path id="Path_5224" data-name="Path 5224" d="M268.007,49.275V45.586a1.7,1.7,0,0,0-1.7-1.7h-3.067a1.7,1.7,0,0,0-1.7,1.7v3.689h-2.155V42.518a1.867,1.867,0,0,0-1.864-1.864h-2.737a1.867,1.867,0,0,0-1.864,1.864v6.757h-2.155V37.42a2.155,2.155,0,0,0-2.155-2.155h-2.156A2.155,2.155,0,0,0,244.3,37.42V49.275H243.22a1.078,1.078,0,0,1-1.078-1.078V35.265a1.078,1.078,0,0,0-2.155,0V48.2a3.233,3.233,0,0,0,3.233,3.233h24.787a1.078,1.078,0,1,0,0-2.155Zm-19.4,0h-2.156V37.42h2.156Zm8.622,0h-2.155V42.809h2.155Zm8.622,0H263.7V46.042h2.155v3.233Z" transform="translate(-209.805 -29.876)" fill="#707070"/>
            <path id="Path_5225" data-name="Path 5225" d="M268.007,219.942H243.22a1.078,1.078,0,0,1-1.078-1.078v-1.709l3.549-3.549a1.1,1.1,0,0,1,1.524,0l1.263,1.263a3.233,3.233,0,0,0,4.572,0l4.5-4.5a1.1,1.1,0,0,1,1.524,0l1.263,1.264a3.24,3.24,0,0,0,4.572,0l3.865-3.865a1.078,1.078,0,0,0-1.524-1.524l-3.865,3.864a1.078,1.078,0,0,1-1.524,0l-1.263-1.263a3.311,3.311,0,0,0-4.572,0l-4.5,4.5a1.078,1.078,0,0,1-1.524,0l-1.262-1.263a3.312,3.312,0,0,0-4.573,0l-2.025,2.025v-8.176a1.078,1.078,0,1,0-2.155,0v12.932a3.233,3.233,0,0,0,3.233,3.233h24.787a1.078,1.078,0,1,0,0-2.155Z" transform="translate(-209.805 -178.989)" fill="#707070"/>
            <path id="Path_5226" data-name="Path 5226" d="M65.669,50.117V6.029A5.712,5.712,0,0,0,60.28.053H6.4A5.712,5.712,0,0,0,1.007,6.029V50.117A5.712,5.712,0,0,0,6.4,56.094H23.639v2.155H19.328a4.311,4.311,0,0,0-4.311,4.311v1.078a1.078,1.078,0,0,0,1.078,1.078H50.581a1.078,1.078,0,0,0,1.078-1.078V62.56a4.311,4.311,0,0,0-4.311-4.311H43.037V56.094H60.281A5.712,5.712,0,0,0,65.669,50.117ZM47.348,60.4A2.155,2.155,0,0,1,49.5,62.56H17.172A2.155,2.155,0,0,1,19.328,60.4ZM25.794,58.249V56.094H40.882v2.155ZM60.28,53.938H6.4a3.569,3.569,0,0,1-3.233-3.822V47.472H63.514v2.645A3.569,3.569,0,0,1,60.28,53.938ZM63.514,6.029V45.317H3.162V6.029A3.568,3.568,0,0,1,6.4,2.208H60.281A3.568,3.568,0,0,1,63.514,6.029Z" transform="translate(-1 -0.053)" fill="#707070"/>
          </g>
        </g>
      </g>
      <g id="business-idea" transform="translate(11865.5 11349.5)">
        <path id="Path_5478" data-name="Path 5478" d="M38.226,49.783a8.454,8.454,0,0,0,6.017-2.493l9.7-9.7h5.593A3.663,3.663,0,0,0,63.2,33.928V31.489A3.636,3.636,0,0,0,61.881,28.7a4.842,4.842,0,0,0,1.317-3.31V23.207a2.349,2.349,0,0,1,1.051-2,10.978,10.978,0,1,0-11.833.017,2.4,2.4,0,0,1,1.024,2.033v2.387a4.711,4.711,0,0,0-1.9,1.144l-2.977,2.977-9.788,9.787a22.094,22.094,0,0,0-6.9-4.34A25.02,25.02,0,0,0,27.448,34.2a2.426,2.426,0,0,1-2.056-2.409v-1.62a9.808,9.808,0,0,0,4.16-4.778h.718a4.866,4.866,0,0,0,3.983-7.678l.012-.026A8.357,8.357,0,0,0,30.527,6.472l-.271-.135A5.472,5.472,0,0,0,24.8,1H16.854A8.548,8.548,0,0,0,8.333,9.016l-.239.239A7.567,7.567,0,0,0,6.266,17L6.6,18a4.83,4.83,0,0,0-.721,2.517,4.883,4.883,0,0,0,4.878,4.878h.718a9.808,9.808,0,0,0,4.16,4.778v1.749a2.442,2.442,0,0,1-2.137,2.42l-3.45.432a10.377,10.377,0,0,0-6.022,2.946A10.255,10.255,0,0,0,1,45.019v19.4a3.663,3.663,0,0,0,3.659,3.659H7.1a3.618,3.618,0,0,0,1.22-.224v8.761H32.709V47.957l1.444.788a8.533,8.533,0,0,0,4.073,1.038ZM60.759,25.391A2.437,2.437,0,0,1,59,27.723,4.715,4.715,0,0,0,55.881,25.5v-.11Zm-10.9-14.545A8.567,8.567,0,0,1,57.32,3.5,8.45,8.45,0,0,1,64,5.606,8.533,8.533,0,0,1,62.93,19.157a4.758,4.758,0,0,0-2.156,3.8H55.861a4.756,4.756,0,0,0-2.133-3.784,8.5,8.5,0,0,1-3.872-8.321Zm3.41,17.665a2.341,2.341,0,0,1,1.644-.682,2.31,2.31,0,0,1,2.079,1.285l.577,1.154h1.973a1.221,1.221,0,0,1,1.22,1.22v2.439a1.221,1.221,0,0,1-1.22,1.22H53.946l-3.659-3.659ZM25.073,40.893l-2.925-2.34,2.228-3.344.073.071ZM22.866,51.8l-2.353,2.353L18.161,51.8,20,40.781l.516-.412.516.412ZM16.56,35.42c.046-.045.1-.087.14-.133l2.177,3.266-2.925,2.34ZM30.27,22.952h-.084a9.814,9.814,0,0,0,.084-1.22V18.074a2.439,2.439,0,0,1,0,4.878Zm-19.513,0a2.439,2.439,0,1,1,0-4.878v3.659a9.814,9.814,0,0,0,.084,1.22Zm.02-7.317h-.02a4.83,4.83,0,0,0-2.188.541,5.105,5.105,0,0,1,1.25-5.2l.938-.937v-.5a6.1,6.1,0,0,1,6.1-6.1H24.8a3.032,3.032,0,0,1,.96,5.909l-.751.25.771,2.315.751-.251a5.461,5.461,0,0,0,3.2-2.835A5.876,5.876,0,0,1,32.3,16.091a4.837,4.837,0,0,0-2.031-.456V13.2H24.747a21.981,21.981,0,0,1-9.787-2.311l-.545-.272-.545.273a5.593,5.593,0,0,0-3.094,4.749Zm2.42,6.1v-5.81a3.178,3.178,0,0,1,1.285-2.562,24.435,24.435,0,0,0,10.266,2.274h3.083v6.1a7.317,7.317,0,1,1-14.635,0Zm7.317,9.757a9.7,9.7,0,0,0,2.439-.321v.62a4.876,4.876,0,0,0,.111.994l-2.55,3.826L17.99,32.822a4.923,4.923,0,0,0,.084-.9v-.75a9.7,9.7,0,0,0,2.439.321ZM5.75,39.441a7.927,7.927,0,0,1,4.6-2.251l3.45-.432c.056-.007.106-.027.161-.035l-1.084,9.754,4.267-3.414-1.6,9.577,4.965,4.965,4.965-4.965-1.6-9.577,4.267,3.414-1.1-9.879c.02,0,.038.011.059.013a22.628,22.628,0,0,1,3.994.912,20.183,20.183,0,0,1,6.205,3.99L36.5,43.14l2.182,1.092,1.131-2.262,8.754-8.755,3.154,3.154-9.2,9.2a6.031,6.031,0,0,1-4.293,1.778,6.1,6.1,0,0,1-2.906-.74l-2.59-1.412a2.916,2.916,0,0,1,.842-1.862L31.845,41.6a5.346,5.346,0,0,0-1.576,3.805v14.13H13.041a3.59,3.59,0,0,0-.894-1.554l-1.39-1.39V45.409A5.351,5.351,0,0,0,9.181,41.6L7.455,43.328a2.926,2.926,0,0,1,.862,2.082V55.881H3.439V45.019A7.944,7.944,0,0,1,5.75,39.441ZM7.1,65.637H4.659a1.221,1.221,0,0,1-1.22-1.22v-6.1H9.032l1.39,1.39a1.152,1.152,0,0,1,.334.809,1.137,1.137,0,0,1-.632,1.022l-1.807.9v1.973a1.221,1.221,0,0,1-1.22,1.22Zm14.635,8.537V70.713a4.129,4.129,0,0,1,2.825-3.92l-.772-2.312A6.565,6.565,0,0,0,20.512,66.9a6.552,6.552,0,0,0-3.273-2.421l-.772,2.312a4.128,4.128,0,0,1,2.827,3.92v3.461H10.757V63.952l.459-.229a3.565,3.565,0,0,0,1.672-1.744H30.27v12.2Z" transform="translate(0 0)" fill="#707070"/>
        <path id="Path_5479" data-name="Path 5479" d="M54.774,8.017,53.05,6.293l-6.455,6.455-1.577-1.577L43.293,12.9l3.3,3.3Z" transform="translate(9.286 1.162)" fill="#707070"/>
        <path id="Path_5480" data-name="Path 5480" d="M49.294,51.878V49.944a2.944,2.944,0,0,0-5.026-2.082l-4.016,4.016H34.659A3.663,3.663,0,0,0,31,55.537v4.878a3.663,3.663,0,0,0,3.659,3.659H49.294a3.663,3.663,0,0,0,3.659-3.659V55.537A3.663,3.663,0,0,0,49.294,51.878Zm1.22,8.537a1.221,1.221,0,0,1-1.22,1.22H34.659a1.221,1.221,0,0,1-1.22-1.22V55.537a1.221,1.221,0,0,1,1.22-1.22h6.6l4.729-4.729a.524.524,0,0,1,.863.356v4.373h2.439a1.221,1.221,0,0,1,1.22,1.22Z" transform="translate(6.587 10.1)" fill="#707070"/>
        <path id="Path_5481" data-name="Path 5481" d="M35,55H47.2v2.439H35Z" transform="translate(7.465 11.857)" fill="#707070"/>
        <path id="Path_5482" data-name="Path 5482" d="M63.294,33H48.659A3.663,3.663,0,0,0,45,36.659v4.878A3.663,3.663,0,0,0,48.659,45.2V47.13a2.944,2.944,0,0,0,5.026,2.082L57.7,45.2h5.593a3.663,3.663,0,0,0,3.659-3.659V36.659A3.663,3.663,0,0,0,63.294,33Zm1.22,8.537a1.221,1.221,0,0,1-1.22,1.22h-6.6l-4.729,4.729a.524.524,0,0,1-.863-.356V42.757H48.659a1.221,1.221,0,0,1-1.22-1.22V36.659a1.221,1.221,0,0,1,1.22-1.22H63.294a1.221,1.221,0,0,1,1.22,1.22Z" transform="translate(9.661 7.026)" fill="#707070"/>
        <path id="Path_5483" data-name="Path 5483" d="M49,37H61.2v2.439H49Z" transform="translate(10.539 7.904)" fill="#707070"/>
      </g>
      <g id="deposit" transform="translate(11863.5 10716.5)">
        <path id="Path_4342" data-name="Path 4342" d="M60.842,31h-43.4A1.447,1.447,0,0,0,16,32.447v43.4a1.446,1.446,0,0,0,1.447,1.447h43.4a1.446,1.446,0,0,0,1.447-1.447v-43.4A1.447,1.447,0,0,0,60.842,31ZM59.4,74.4h-40.5v-40.5H59.4Z" transform="translate(1.358 12.395)" fill="#707070"/>
        <path id="Path_4343" data-name="Path 4343" d="M20.447,67.27v2.893a1.446,1.446,0,0,0,1.447,1.447h33.27a1.446,1.446,0,0,0,1.447-1.447V35.447A1.446,1.446,0,0,0,55.163,34H21.893a1.446,1.446,0,0,0-1.447,1.447V38.34A1.446,1.446,0,0,0,19,39.786v8.679a1.446,1.446,0,0,0,1.447,1.447V55.7A1.446,1.446,0,0,0,19,57.144v8.679A1.446,1.446,0,0,0,20.447,67.27Zm1.447-20.251V41.233H23.34v5.786Zm1.447,2.893h1.447a1.446,1.446,0,0,0,1.447-1.447V39.786a1.446,1.446,0,0,0-1.447-1.447H23.34V36.893H53.716V68.716H23.34V67.27h1.447a1.446,1.446,0,0,0,1.447-1.447V57.144A1.446,1.446,0,0,0,24.786,55.7H23.34Zm-1.447,8.679H23.34v5.786H21.893Z" transform="translate(2.698 13.735)" fill="#707070"/>
        <path id="Path_4344" data-name="Path 4344" d="M37.019,64.037A13.019,13.019,0,1,0,24,51.019,13.034,13.034,0,0,0,37.019,64.037Zm0-23.144A10.126,10.126,0,1,1,26.893,51.019,10.138,10.138,0,0,1,37.019,40.893Z" transform="translate(4.931 15.521)" fill="#707070"/>
        <path id="Path_4345" data-name="Path 4345" d="M35.679,58.358A8.679,8.679,0,1,0,27,49.679,8.688,8.688,0,0,0,35.679,58.358Zm0-14.465a5.786,5.786,0,1,1-5.786,5.786A5.792,5.792,0,0,1,35.679,43.893Z" transform="translate(6.27 16.861)" fill="#707070"/>
        <path id="Path_4346" data-name="Path 4346" d="M21.447,41.5H53.27a1.447,1.447,0,0,0,1.447-1.447V1H51.823V38.609H22.893V1H20V40.056A1.447,1.447,0,0,0,21.447,41.5Z" transform="translate(3.145 -1)" fill="#707070"/>
        <path id="Path_4347" data-name="Path 4347" d="M31.679,17.572a5.792,5.792,0,0,0,5.786-5.786,2.893,2.893,0,1,1,2.893,2.893v2.893a5.781,5.781,0,0,0,5.581-4.34h3.1V10.34h-3.1a5.774,5.774,0,0,0-11.367,1.447,2.893,2.893,0,1,1-2.893-2.893V6A5.781,5.781,0,0,0,26.1,10.34H23v2.893h3.1A5.781,5.781,0,0,0,31.679,17.572Z" transform="translate(4.484 1.233)" fill="#707070"/>
        <path id="Path_4348" data-name="Path 4348" d="M24.447,26.572a2.9,2.9,0,0,1,2.893,2.893,1.447,1.447,0,0,0,1.447,1.447H43.252A1.447,1.447,0,0,0,44.7,29.465a2.9,2.9,0,0,1,2.893-2.893,1.447,1.447,0,0,0,1.447-1.447V15H46.145v8.861a5.81,5.81,0,0,0-4.157,4.157H30.049a5.81,5.81,0,0,0-4.157-4.157V15H23V25.126a1.449,1.449,0,0,0,1.448,1.447Z" transform="translate(4.484 5.251)" fill="#707070"/>
        <path id="Path_4349" data-name="Path 4349" d="M31,15h2.893v2.893H31Z" transform="translate(8.056 5.251)" fill="#707070"/>
        <path id="Path_4350" data-name="Path 4350" d="M31,3h2.893V5.893H31Z" transform="translate(8.056 -0.107)" fill="#707070"/>
        <path id="Path_4351" data-name="Path 4351" d="M66.141,16.018a1.449,1.449,0,0,0-1.337-.893h-4.34V5H57.572V16.572a1.447,1.447,0,0,0,1.447,1.447h2.294l-5.187,5.187-5.187-5.187h2.294a1.447,1.447,0,0,0,1.447-1.447V5H51.786V15.126h-4.34a1.446,1.446,0,0,0-1.023,2.469L55.1,26.274a1.446,1.446,0,0,0,2.045,0l8.679-8.679a1.446,1.446,0,0,0,.314-1.577Z" transform="translate(14.754 0.786)" fill="#707070"/>
        <path id="Path_4352" data-name="Path 4352" d="M50,1h2.893V3.893H50Z" transform="translate(16.54 -1)" fill="#707070"/>
        <path id="Path_4353" data-name="Path 4353" d="M24.141,26.018a1.449,1.449,0,0,0-1.337-.892h-4.34V15H15.572V26.572a1.447,1.447,0,0,0,1.447,1.447h2.294l-5.187,5.187L8.938,28.019h2.294a1.447,1.447,0,0,0,1.447-1.447V15H9.786V25.126H5.447a1.446,1.446,0,0,0-1.023,2.469L13.1,36.274a1.446,1.446,0,0,0,2.045,0l8.679-8.679A1.446,1.446,0,0,0,24.141,26.018Z" transform="translate(-4 5.251)" fill="#707070"/>
        <path id="Path_4354" data-name="Path 4354" d="M8,11h2.893v2.893H8Z" transform="translate(-2.214 3.465)" fill="#707070"/>
      </g>
      <g id="Consult-Talk" transform="translate(11867.5 11191.5)">
        <rect id="Rectangle_969" data-name="Rectangle 969" width="2.432" height="2.432" transform="translate(17.026 28.36)" fill="#707070" stroke="#707070" stroke-width="0.25"/>
        <rect id="Rectangle_970" data-name="Rectangle 970" width="2.432" height="2.432" transform="translate(29.187 28.36)" fill="#707070" stroke="#707070" stroke-width="0.25"/>
        <path id="Path_5248" data-name="Path 5248" d="M73.925,43.43l-4.751-.679a17.027,17.027,0,0,0-.8-1.946l2.875-3.833a1.216,1.216,0,0,0-.113-1.589l-5.16-5.16a1.2,1.2,0,0,0-.737-.344V18.172a9.729,9.729,0,0,0,3.648-7.59A9.628,9.628,0,0,0,63.326,1.8a1.216,1.216,0,0,0-1.735,1.1v6.81l-2.432.811-2.432-.811V2.9A1.216,1.216,0,0,0,54.991,1.8a9.628,9.628,0,0,0-5.561,8.781,9.729,9.729,0,0,0,3.648,7.59v8.22H49.43a1.216,1.216,0,0,0-1.2,1.044l-.787,5.508,2.408.344.637-4.463h5.188l.637,4.463a1.216,1.216,0,0,0,.863.995,14.52,14.52,0,0,1,2.919,1.2,1.216,1.216,0,0,0,1.315-.094l3.6-2.7,3.668,3.668-2.706,3.6a1.216,1.216,0,0,0-.094,1.315,14.52,14.52,0,0,1,1.2,2.919,1.216,1.216,0,0,0,.995.863l4.463.637V50.88l-4.463.637a1.216,1.216,0,0,0-.995.863,14.52,14.52,0,0,1-1.2,2.919,1.216,1.216,0,0,0,.094,1.315l2.7,3.6L65,63.883l-3.6-2.71a1.216,1.216,0,0,0-1.315-.094,14.519,14.519,0,0,1-2.919,1.2,1.216,1.216,0,0,0-.863.995l-.634,4.466H50.646V62.6a13.5,13.5,0,0,0-.547-3.8,11.079,11.079,0,1,0-7.776-8.588c-.029-.012-.057-.027-.086-.038L32.4,46.243V44.374a13.486,13.486,0,0,0,4.231-3.388H39.7a3.648,3.648,0,0,0,3.648-3.648V34.681a3.648,3.648,0,0,0,2.432-3.425V27.608a3.648,3.648,0,0,0-2.432-3.425v-1.44a17.026,17.026,0,1,0-34.052,0v1.44a3.648,3.648,0,0,0-2.432,3.425v3.648A3.648,3.648,0,0,0,10.513,34.9h2.432c.078,0,.153-.012.23-.017a13.406,13.406,0,0,0,7.067,9.486v1.869L10.41,50.176A13.316,13.316,0,0,0,2,62.6V73.822a1.216,1.216,0,0,0,1.216,1.216H49.43a1.216,1.216,0,0,0,1.216-1.216V70.173h6.081a1.216,1.216,0,0,0,1.2-1.044l.679-4.751a17.025,17.025,0,0,0,1.946-.8l3.833,2.875a1.216,1.216,0,0,0,1.59-.113l5.16-5.16a1.216,1.216,0,0,0,.113-1.59l-2.875-3.833a17.027,17.027,0,0,0,.8-1.946l4.751-.679a1.216,1.216,0,0,0,1.042-1.2v-7.3a1.216,1.216,0,0,0-1.044-1.2ZM60.548,32.986c-.057-.028-.122-.046-.179-.073V17.879H57.943v9.644l-.012-.088a1.216,1.216,0,0,0-1.2-1.043H55.51V17.563a1.216,1.216,0,0,0-.522-1,7.3,7.3,0,0,1-.694-11.428v5.446a1.216,1.216,0,0,0,.832,1.154l3.648,1.216a1.216,1.216,0,0,0,.769,0l3.648-1.216a1.216,1.216,0,0,0,.832-1.154V5.136a7.3,7.3,0,0,1-.694,11.432,1.216,1.216,0,0,0-.522.995V31.3Zm-15.983,15.3a8.574,8.574,0,1,1,4.053,7.225,13.275,13.275,0,0,0-3.175-3.5,8.314,8.314,0,0,1-.878-3.726ZM39.7,38.553H38.224a13.256,13.256,0,0,0,1.247-3.665c.077,0,.152.017.23.017h1.216v2.432A1.216,1.216,0,0,1,39.7,38.553ZM37.268,25.176a3.667,3.667,0,0,1-2.919-1.459L32.16,20.8a1.216,1.216,0,0,0-.82-.477,1.23,1.23,0,0,0-.913.257l-4.081,3.26a6.1,6.1,0,0,1-3.793,1.338H15.378V23.96a10.945,10.945,0,1,1,21.891,0Zm6.081,6.081a1.216,1.216,0,0,1-1.216,1.216H39.7V26.392h2.432a1.216,1.216,0,0,1,1.216,1.216ZM26.323,8.15A14.61,14.61,0,0,1,40.917,22.744V23.96H39.7a13.378,13.378,0,1,0-26.755,0H11.729V22.744A14.61,14.61,0,0,1,26.323,8.15ZM10.513,32.473A1.216,1.216,0,0,1,9.3,31.257V27.608a1.216,1.216,0,0,1,1.216-1.216h2.432v6.081Zm4.865,0V27.608h7.175a8.542,8.542,0,0,0,5.317-1.866l3.1-2.482L32.4,25.176a6.111,6.111,0,0,0,4.865,2.432v4.865a10.881,10.881,0,0,1-1.851,6.081H26.323v2.432h6.864a10.934,10.934,0,0,1-17.809-8.513ZM26.323,45.85a13.336,13.336,0,0,0,3.648-.518v1.734a3.648,3.648,0,1,1-7.3,0V45.332a13.336,13.336,0,0,0,3.648.518ZM48.213,72.605h-7.3V59.228H38.484V72.605H14.161V59.228H11.729V72.605h-7.3V62.6a10.894,10.894,0,0,1,6.881-10.163l9.2-3.679a6.042,6.042,0,0,0,11.624,0l9.2,3.679A10.894,10.894,0,0,1,48.213,62.6Z" transform="translate(-2 -1.68)" fill="#707070" stroke="#707070" stroke-width="0.25"/>
        <rect id="Rectangle_971" data-name="Rectangle 971" width="2.432" height="2.432" transform="translate(49.862 29.576)" fill="#707070" stroke="#707070" stroke-width="0.25"/>
        <rect id="Rectangle_972" data-name="Rectangle 972" width="2.432" height="2.432" transform="translate(49.862 61.196)" fill="#707070" stroke="#707070" stroke-width="0.25"/>
        <rect id="Rectangle_973" data-name="Rectangle 973" width="2.432" height="2.432" transform="translate(60.537 57.782) rotate(-45)" fill="#707070" stroke="#707070" stroke-width="0.25"/>
        <rect id="Rectangle_974" data-name="Rectangle 974" width="2.432" height="2.432" transform="translate(65.672 45.386)" fill="#707070" stroke="#707070" stroke-width="0.25"/>
        <rect id="Rectangle_975" data-name="Rectangle 975" width="2.432" height="2.432" transform="translate(60.537 35.424) rotate(-45)" fill="#707070" stroke="#707070" stroke-width="0.25"/>
      </g>
      <g id="Outline" transform="translate(11869.5 11036.5)">
        <path id="Path_5430" data-name="Path 5430" d="M208.6,279.488l-4.647-6.971a1.162,1.162,0,0,0-.967-.517H165.809a1.162,1.162,0,0,0-.967.517l-4.647,6.971a1.162,1.162,0,0,0,.967,1.806h3.486v20.913h-2.324v2.324h44.15v-2.324H204.15V281.295h3.486a1.162,1.162,0,0,0,.967-1.806Zm-42.172-5.165h11.15l-3.1,4.647h-11.15Zm.54,6.971H175.1a1.162,1.162,0,0,0,.967-.517L178.59,277v25.209H166.971Zm34.856,20.913H180.913V277l2.519,3.778a1.162,1.162,0,0,0,.967.517h17.428Zm-16.806-23.237-3.1-4.647h20.444l3.1,4.647Z" transform="translate(-139.087 -235.983)" fill="#707070"/>
        <path id="Path_5431" data-name="Path 5431" d="M416,448h2.324v2.324H416Z" transform="translate(-357.908 -386.422)" fill="#707070"/>
        <path id="Path_5432" data-name="Path 5432" d="M384,448h2.324v2.324H384Z" transform="translate(-330.555 -386.422)" fill="#707070"/>
        <path id="Path_5433" data-name="Path 5433" d="M320.406,77.8l8.133,6.971a1.162,1.162,0,0,0,1.512,0l8.133-6.971a1.162,1.162,0,0,0,.406-.882V73.428a1.162,1.162,0,0,0-1.162-1.162h-3.486V56h-2.324V73.428a1.162,1.162,0,0,0,1.162,1.162h3.485v1.789l-6.971,5.975-6.971-5.975V74.59h3.486a1.162,1.162,0,0,0,1.162-1.162V56h-2.324V72.266h-3.486A1.162,1.162,0,0,0,320,73.428v3.486a1.162,1.162,0,0,0,.406.882Z" transform="translate(-275.85 -51.353)" fill="#707070"/>
        <path id="Path_5434" data-name="Path 5434" d="M18.324,26.324H55.5v31.37h2.324V25.162A1.162,1.162,0,0,0,56.665,24h-39.5A1.162,1.162,0,0,0,16,25.162V86.74A1.162,1.162,0,0,0,17.162,87.9H38.011V85.578H18.324Z" transform="translate(-16 -24)" fill="#707070"/>
        <path id="Path_5435" data-name="Path 5435" d="M66.8,50.343l-3.145,3.145h-6.49A1.162,1.162,0,0,0,56,54.65v6.971a1.162,1.162,0,0,0,1.162,1.162h6.971a1.162,1.162,0,0,0,1.162-1.162v-6.49l3.145-3.145ZM62.971,60.459H58.324V55.812h3l-1.5,1.5,1.643,1.643,1.5-1.5Z" transform="translate(-50.191 -46.517)" fill="#707070"/>
        <path id="Path_5436" data-name="Path 5436" d="M152,80h2.324v2.324H152Z" transform="translate(-132.249 -71.867)" fill="#707070"/>
        <path id="Path_5437" data-name="Path 5437" d="M184,80h11.619v2.324H184Z" transform="translate(-159.601 -71.867)" fill="#707070"/>
        <path id="Path_5438" data-name="Path 5438" d="M152,112h16.266v2.324H152Z" transform="translate(-132.249 -99.22)" fill="#707070"/>
        <path id="Path_5439" data-name="Path 5439" d="M66.8,146.343l-3.145,3.145h-6.49A1.162,1.162,0,0,0,56,150.65v6.971a1.162,1.162,0,0,0,1.162,1.162h6.971a1.162,1.162,0,0,0,1.162-1.162v-6.49l3.145-3.145Zm-3.826,10.116H58.324v-4.647h3l-1.5,1.5,1.643,1.643,1.5-1.5Z" transform="translate(-50.191 -128.575)" fill="#707070"/>
        <path id="Path_5440" data-name="Path 5440" d="M152,176h2.324v2.324H152Z" transform="translate(-132.249 -153.925)" fill="#707070"/>
        <path id="Path_5441" data-name="Path 5441" d="M184,176h11.619v2.324H184Z" transform="translate(-159.601 -153.925)" fill="#707070"/>
        <path id="Path_5442" data-name="Path 5442" d="M152,208h16.266v2.324H152Z" transform="translate(-132.249 -181.278)" fill="#707070"/>
        <path id="Path_5443" data-name="Path 5443" d="M66.8,242.343l-3.145,3.145h-6.49A1.162,1.162,0,0,0,56,246.65v6.971a1.162,1.162,0,0,0,1.162,1.162h6.971a1.162,1.162,0,0,0,1.162-1.162v-6.49l3.145-3.145Zm-3.826,10.116H58.324v-4.647h3l-1.5,1.5,1.643,1.643,1.5-1.5Z" transform="translate(-50.191 -210.633)" fill="#707070"/>
        <path id="Path_5444" data-name="Path 5444" d="M152,272h2.324v2.324H152Z" transform="translate(-132.249 -235.983)" fill="#707070"/>
        <path id="Path_5445" data-name="Path 5445" d="M57.162,341.488A1.162,1.162,0,0,0,56,342.65v6.971a1.162,1.162,0,0,0,1.162,1.162h6.971a1.162,1.162,0,0,0,1.162-1.162v-6.49l3.145-3.145L66.8,338.343l-3.145,3.145Zm5.809,6.971H58.324v-4.647h3l-1.5,1.5,1.643,1.643,1.5-1.5Z" transform="translate(-50.191 -292.691)" fill="#707070"/>
        <path id="Path_5446" data-name="Path 5446" d="M152,368h2.324v2.324H152Z" transform="translate(-132.249 -318.041)" fill="#707070"/>
        <path id="Path_5447" data-name="Path 5447" d="M152,400h3.486v2.324H152Z" transform="translate(-132.249 -345.393)" fill="#707070"/>
      </g>
      <line id="Line_297" data-name="Line 297" y2="978" transform="translate(11998 10515)" fill="none" stroke="#707070" stroke-width="1"/>
      <line id="Line_298" data-name="Line 298" x2="1040.435" transform="translate(11817 10686)" fill="none" stroke="#707070" stroke-width="1"/>
      <line id="Line_299" data-name="Line 299" x2="1040.435" transform="translate(11817 10836)" fill="none" stroke="#707070" stroke-width="1"/>
      <line id="Line_300" data-name="Line 300" x2="1040.435" transform="translate(11817 10996)" fill="none" stroke="#707070" stroke-width="1"/>
      <line id="Line_301" data-name="Line 301" x2="1040.435" transform="translate(11817 11146)" fill="none" stroke="#707070" stroke-width="1"/>
      <line id="Line_302" data-name="Line 302" x2="1040.435" transform="translate(11824.936 11305)" fill="none" stroke="#707070" stroke-width="1"/>
      <text id="Dashboard" transform="translate(12057.5 10586.5)" fill="#21232a" font-size="54" font-family="OpenSans-Bold, Open Sans" font-weight="700"><tspan x="0" y="58">Dashboard</tspan></text>
      <text id="Bill_and_Payment_Detail" data-name="Bill and Payment Detail" transform="translate(12057.5 10726.5)" fill="#21232a" font-size="54" font-family="OpenSans-Bold, Open Sans" font-weight="700"><tspan x="0" y="58">Bill and Payment Detail</tspan></text>
      <text id="Energy_Consumption_Details" data-name="Energy Consumption Details" transform="translate(12057.5 10878.5)" fill="#21232a" font-size="54" font-family="OpenSans-Bold, Open Sans" font-weight="700"><tspan x="0" y="58">Energy Consumption Details</tspan></text>
      <text id="Package_Change_Request" data-name="Package Change Request" transform="translate(12057.5 11036.5)" fill="#21232a" font-size="54" font-family="OpenSans-Bold, Open Sans" font-weight="700"><tspan x="0" y="58">Package Change Request</tspan></text>
      <text id="Service_Request" data-name="Service Request" transform="translate(12057.5 11193.5)" fill="#21232a" font-size="54" font-family="OpenSans-Bold, Open Sans" font-weight="700"><tspan x="0" y="58">Service Request</tspan></text>
      <text id="New_Connection_Request" data-name="New Connection Request" transform="translate(12057.5 11351.5)" fill="#21232a" font-size="54" font-family="OpenSans-Bold, Open Sans" font-weight="700"><tspan x="0" y="58">New Connection Request</tspan></text>
      <g id="battery_1_" data-name="battery (1)" transform="translate(11871.5 10871.5)">
        <path id="Path_680" data-name="Path 680" d="M141.546,55.225h3.824L140.139,68.3a1.516,1.516,0,0,0,2.521,1.591l18.188-19.7a1.516,1.516,0,0,0-1.114-2.544h-5.94l4.092-5.115a1.516,1.516,0,0,0-1.183-2.463h-10.61a1.516,1.516,0,0,0-1.419.983l-4.547,12.125a1.516,1.516,0,0,0,1.419,2.048Zm5.6-12.125h6.406l-4.092,5.115a1.516,1.516,0,0,0,1.183,2.463h5.632L146,61.8l3.012-7.53a1.516,1.516,0,0,0-1.407-2.079h-3.876Z" transform="translate(-126.39 -32.477)" fill="#707070"/>
        <path id="Path_681" data-name="Path 681" d="M162.1,300.193a6.063,6.063,0,1,0-6.063-6.063A6.063,6.063,0,0,0,162.1,300.193Zm0-9.094a3.031,3.031,0,1,1-3.031,3.031A3.031,3.031,0,0,1,162.1,291.1Z" transform="translate(-139.362 -233.492)" fill="#707070"/>
        <path id="Path_682" data-name="Path 682" d="M131.691,57.608V53.061H128.66v4.547h-3.031V53.061H122.6v4.547a1.516,1.516,0,0,0-1.516,1.516V63.67a6.074,6.074,0,0,0,4.547,5.871v10.8a4.552,4.552,0,0,1-4.547,4.547H113.5V33.357a1.516,1.516,0,0,0-1.516-1.516h-1.425a22.072,22.072,0,1,0-39.588,0H69.55a1.516,1.516,0,0,0-1.516,1.516V89.436a1.516,1.516,0,0,0,1.516,1.516h42.438a1.516,1.516,0,0,0,1.516-1.516V87.921h7.578a7.587,7.587,0,0,0,7.578-7.578v-10.8a6.073,6.073,0,0,0,4.547-5.871V59.123A1.516,1.516,0,0,0,131.691,57.608ZM90.769,3.044a19.04,19.04,0,1,1-19.04,19.04A19.04,19.04,0,0,1,90.769,3.044ZM78.644,87.921H71.065V34.873h1.724a22.255,22.255,0,0,0,5.854,5.646Zm15.157,0H87.737V84.889H93.8Zm0-6.063H87.737V78.827H93.8Zm0-6.063H87.737V72.764H93.8Zm6.063,12.125H96.831V71.248a1.516,1.516,0,0,0-1.516-1.516H86.222a1.516,1.516,0,0,0-1.516,1.516V87.921H81.675V51.545H99.863Zm0-39.407H81.675V42.195a22.061,22.061,0,0,0,18.188,0Zm10.61,39.407h-7.578v-47.4a22.255,22.255,0,0,0,5.854-5.646h1.724Zm19.7-24.25a3.031,3.031,0,0,1-6.063,0V60.639h6.063Z" transform="translate(-68.034 0)" fill="#707070"/>
      </g>
    </g>
  </g>
</svg>
