<svg xmlns="http://www.w3.org/2000/svg" width="1552" height="1231" viewBox="0 0 1552 1231">
  <g id="Group_3305" data-name="Group 3305" transform="translate(8479 -3229)">
    <g id="Group_3295" data-name="Group 3295" transform="translate(-8658 -2437)">
      <rect id="Rectangle_1068" data-name="Rectangle 1068" width="1552" height="1231" transform="translate(179 5666)" fill="#fff"/>
    </g>
    <g id="Group_3200" data-name="Group 3200" transform="translate(-8677.377 -2372.408)">
      <rect id="Rectangle_67" data-name="Rectangle 67" width="158" height="289" transform="translate(639.377 5977.908)" fill="#e6e6e6"/>
      <path id="Path_539" data-name="Path 539" d="M280,557.93h128.79V298.61H280Z" transform="translate(373.797 5694.184)" fill="#fff"/>
      <rect id="Rectangle_68" data-name="Rectangle 68" width="37.613" height="3.493" transform="translate(703.286 6048.412)" fill="#e6e6e6"/>
      <rect id="Rectangle_69" data-name="Rectangle 69" width="65.556" height="3.493" transform="translate(703.286 6060.495)" fill="#e6e6e6"/>
      <rect id="Rectangle_70" data-name="Rectangle 70" width="65.492" height="3.493" transform="translate(703.286 6072.579)" fill="#e6e6e6"/>
      <rect id="Rectangle_71" data-name="Rectangle 71" width="27.943" height="27.943" transform="translate(667.548 6048.464)" fill="#e6e6e6"/>
      <rect id="Rectangle_72" data-name="Rectangle 72" width="37.613" height="3.493" transform="translate(703.286 6108.456)" fill="#e6e6e6"/>
      <rect id="Rectangle_73" data-name="Rectangle 73" width="65.556" height="3.493" transform="translate(703.286 6120.539)" fill="#e6e6e6"/>
      <rect id="Rectangle_74" data-name="Rectangle 74" width="65.492" height="3.493" transform="translate(703.286 6132.623)" fill="#e6e6e6"/>
      <rect id="Rectangle_75" data-name="Rectangle 75" width="27.943" height="27.943" transform="translate(667.548 6108.508)" fill="#e6e6e6"/>
      <rect id="Rectangle_76" data-name="Rectangle 76" width="37.613" height="3.493" transform="translate(703.286 6168.5)" fill="#e6e6e6"/>
      <rect id="Rectangle_77" data-name="Rectangle 77" width="65.556" height="3.493" transform="translate(703.286 6180.583)" fill="#e6e6e6"/>
      <rect id="Rectangle_78" data-name="Rectangle 78" width="65.492" height="3.493" transform="translate(703.286 6192.667)" fill="#e6e6e6"/>
      <rect id="Rectangle_79" data-name="Rectangle 79" width="27.943" height="27.943" transform="translate(667.548 6168.552)" fill="#e6e6e6"/>
    </g>
    <ellipse id="Ellipse_66" data-name="Ellipse 66" cx="444.003" cy="18" rx="444.003" ry="18" transform="translate(-8109 3885.5)" fill="#e6e6e6"/>
    <path id="Path_5527" data-name="Path 5527" d="M-58.884,0H543.1" transform="translate(-7910.591 3980)" fill="none" stroke="#707070" stroke-width="2"/>
    <text id="वेब_आधारित_केंद्रीकृत_डैशबोर्ड" data-name="वेब आधारित केंद्रीकृत
डैशबोर्ड" transform="translate(-7933 3349.5)" fill="#21232a" font-size="40" font-family="NirmalaUI-Bold, Nirmala UI" font-weight="700"><tspan x="74.012" y="43">वेब</tspan><tspan y="43" font-family="OpenSans-Bold, Open Sans"> </tspan><tspan y="43">आधारित</tspan><tspan y="43" font-family="OpenSans-Bold, Open Sans"> </tspan><tspan y="43">केंद्रीकृत</tspan><tspan y="43" font-family="OpenSans-Bold, Open Sans"></tspan><tspan x="186.043" y="101">डैशबोर्ड</tspan></text>
    <text id="कस्टमर_एप्प" data-name="कस्टमर एप्प" transform="translate(-7560.5 3512)" fill="#21232a" font-size="38" font-family="NirmalaUI-Bold, Nirmala UI" font-weight="700"><tspan x="87.496" y="41">कस्टमर</tspan><tspan y="41" font-family="OpenSans-Bold, Open Sans"> </tspan><tspan y="41">एप्प</tspan></text>
    <text id="फील्ड_एजेंट_एप्प" data-name="फील्ड एजेंट एप्प" transform="translate(-8139 3512)" fill="#21232a" font-size="38" font-family="NirmalaUI-Bold, Nirmala UI" font-weight="700"><tspan x="23.635" y="41">फील्ड</tspan><tspan y="41" font-family="OpenSans-Bold, Open Sans"> </tspan><tspan y="41">एजेंट</tspan><tspan y="41" font-family="OpenSans-Bold, Open Sans"> </tspan><tspan y="41">एप्प</tspan></text>
    <g id="Group_145" data-name="Group 145" transform="translate(-7295 10196.748) rotate(180)">
      <line id="Line_20" data-name="Line 20" y1="45.109" transform="translate(673.5 6216.5)" fill="none" stroke="#707070" stroke-width="2"/>
      <path id="Polygon_1" data-name="Polygon 1" d="M3.5,0,7,6H0Z" transform="translate(677 6266.749) rotate(180)" fill="#727a7a"/>
    </g>
    <g id="Group_146" data-name="Group 146" transform="translate(-6695 10196.748) rotate(180)">
      <line id="Line_20-2" data-name="Line 20" y1="45.109" transform="translate(673.5 6216.5)" fill="none" stroke="#707070" stroke-width="2"/>
      <path id="Polygon_1-2" data-name="Polygon 1" d="M3.5,0,7,6H0Z" transform="translate(677 6266.749) rotate(180)" fill="#727a7a"/>
    </g>
    <line id="Line_21" data-name="Line 21" x2="290" transform="translate(-7976.5 3269)" fill="none" stroke="#4bff83" stroke-width="2"/>
    <path id="Path_5467" data-name="Path 5467" d="M5.281.048H313.24" transform="translate(-7684.78 3269)" fill="none" stroke="#24bcff" stroke-width="2"/>
    <g id="Group_143" data-name="Group 143" transform="translate(-8649 -2947.5)">
      <line id="Line_20-3" data-name="Line 20" y1="223.36" transform="translate(673.5 6216.5)" fill="none" stroke="#4bff83" stroke-width="2"/>
      <path id="Polygon_1-3" data-name="Polygon 1" d="M3.5,0,7,6H0Z" transform="translate(677 6445) rotate(180)" fill="#4bfe83"/>
    </g>
    <g id="Group_144" data-name="Group 144" transform="translate(-8563 -2947.5)">
      <line id="Line_22" data-name="Line 22" y1="223.349" transform="translate(1190.5 6216.5)" fill="none" stroke="#24bcff" stroke-width="2"/>
      <g id="Polygon_2" data-name="Polygon 2" transform="translate(1194 6445) rotate(180)" fill="#727a7a">
        <path d="M 5.258962631225586 5 L 1.741037487983704 5 L 3.5 1.984635710716248 L 5.258962631225586 5 Z" stroke="none"/>
        <path d="M 3.5 0 L 7 6 L 0 6 L 3.5 0 Z" stroke="none" fill="#24bcff"/>
      </g>
    </g>
    <g id="Group_142" data-name="Group 142" transform="translate(-7689.497 3269)">
      <line id="Line_23" data-name="Line 23" y1="67.857" transform="translate(2.5)" fill="none" stroke="#49fe87" stroke-width="2"/>
      <path id="Polygon_3" data-name="Polygon 3" d="M3.5,0,7,5.293H0Z" transform="translate(7 71.978) rotate(180)" fill="#47fe8b"/>
    </g>
    <g id="Group_147" data-name="Group 147" transform="translate(-7682 3269)">
      <line id="Line_23-2" data-name="Line 23" y1="67.857" transform="translate(3.5)" fill="none" stroke="#24bcff" stroke-width="2"/>
      <g id="Polygon_3-2" data-name="Polygon 3" transform="translate(7 71.978) rotate(180)" fill="#23beff">
        <path d="M 5.139915466308594 4.293081760406494 L 1.860084652900696 4.293081760406494 L 3.5 1.813023805618286 L 5.139915466308594 4.293081760406494 Z" stroke="none"/>
        <path d="M 3.5 1.9073486328125e-06 L 7 5.293081760406494 L 0 5.293081760406494 L 3.5 1.9073486328125e-06 Z" stroke="none" fill="#24bcff"/>
      </g>
    </g>
    <text id="सप्लाय_साइड_जनरेशन_डेटा_दर्ज_करना_डिमांड_साइड_और_लेनदेन_डेटा_दर्ज_करना_" data-name="सप्लाय साइड जनरेशन डेटा दर्ज करना

डिमांड साइड और लेनदेन डेटा दर्ज करना

" transform="translate(-8416 3657.5)" fill="#21232a" font-size="30" font-family="MangalBold, Mangal"><tspan x="0" y="37">सप्लाय साइड जनरेशन </tspan><tspan x="0" y="71">डेटा दर्ज करना</tspan><tspan x="0" y="105"></tspan><tspan x="0" y="139">डिमांड साइड और </tspan><tspan x="0" y="173">लेनदेन डेटा दर्ज करना</tspan><tspan x="0" y="207"></tspan><tspan x="0" y="241"></tspan></text>
    <text id="ग्राहक_से_संबंधित_लेनदेन" data-name="ग्राहक से संबंधित लेनदेन" transform="translate(-8416 3889.5)" fill="#21232a" font-size="28" font-family="NirmalaUI-Bold, Nirmala UI" font-weight="700"><tspan x="0" y="30">ग्राहक</tspan><tspan y="30" font-family="OpenSans-Bold, Open Sans"> </tspan><tspan y="30">से</tspan><tspan y="30" font-family="OpenSans-Bold, Open Sans"> </tspan><tspan y="30">संबंधित</tspan><tspan y="30" font-family="OpenSans-Bold, Open Sans"> </tspan><tspan y="30">लेनदेन</tspan></text>
    <text id="ग्राहक_को_ऐड_डिलीट_अपग्रेड_करना_ग्राहक_और_प्लांट_की_ओर_बकाया_राशि_देखना_" data-name="ग्राहक को ऐड, डिलीट, अपग्रेड करना

ग्राहक और प्लांट की ओर बकाया राशि देखना
" transform="translate(-8416 3965.5)" fill="#21232a" font-size="30" font-family="MangalBold, Mangal"><tspan x="0" y="37">ग्राहक को ऐड, डिलीट, </tspan><tspan x="0" y="71">अपग्रेड करना</tspan><tspan x="0" y="105"></tspan><tspan x="0" y="139">ग्राहक और प्लांट की </tspan><tspan x="0" y="173">ओर बकाया राशि देखना</tspan><tspan x="0" y="207"></tspan></text>
    <text id="प्लांट_से_संबंधित_डेटा_दर्ज_करना_" data-name="प्लांट से संबंधित डेटा 
दर्ज करना
" transform="translate(-8416 3592.5)" fill="#21232a" font-size="28" font-family="NirmalaUI-Bold, Nirmala UI" font-weight="700"><tspan x="0" y="0">प्लांट</tspan><tspan y="0" font-family="OpenSans-Bold, Open Sans"> </tspan><tspan y="0">से</tspan><tspan y="0" font-family="OpenSans-Bold, Open Sans"> </tspan><tspan y="0">संबंधित</tspan><tspan y="0" font-family="OpenSans-Bold, Open Sans"> </tspan><tspan y="0">डेटा</tspan><tspan y="0" font-family="OpenSans-Bold, Open Sans"> </tspan><tspan x="0" y="39">दर्ज</tspan><tspan y="39" font-family="OpenSans-Bold, Open Sans"> </tspan><tspan y="39">करना</tspan><tspan y="39" font-family="OpenSans-Bold, Open Sans"></tspan><tspan font-family="OpenSans-Bold, Open Sans"><tspan x="0" y="78"></tspan></tspan></text>
    <circle id="Ellipse_379" data-name="Ellipse 379" cx="4" cy="4" r="4" transform="translate(-8447 3682.5)" fill="#707070"/>
    <circle id="Ellipse_380" data-name="Ellipse 380" cx="4" cy="4" r="4" transform="translate(-8447 3783.5)" fill="#707070"/>
    <circle id="Ellipse_472" data-name="Ellipse 472" cx="4" cy="4" r="4" transform="translate(-8447 3990.5)" fill="#707070"/>
    <circle id="Ellipse_473" data-name="Ellipse 473" cx="4" cy="4" r="4" transform="translate(-8447 4089.5)" fill="#707070"/>
    <g id="Group_3201" data-name="Group 3201" transform="translate(-7219.32 3398.495)">
      <path id="Path_5512" data-name="Path 5512" d="M-362.57,568.53h-87.569l2.969-38.589h81.632Z" transform="translate(-39.446 -74.239)" fill="#e6e6e6"/>
      <rect id="Rectangle_1047" data-name="Rectangle 1047" width="97.958" height="8.905" transform="translate(-494.038 489.839)" fill="#e6e6e6"/>
      <path id="Path_5513" data-name="Path 5513" d="M-278.085,207.1h-334.69a8.9,8.9,0,0,0-8.9,8.9h0v204.08h352.5V216a8.9,8.9,0,0,0-8.9-8.9Z" transform="translate(0)" fill="#3f3d56"/>
      <path id="Path_5514" data-name="Path 5514" d="M-621.68,483.683v33.395a8.9,8.9,0,0,0,8.9,8.906h334.69a8.9,8.9,0,0,0,8.9-8.906h0V483.683Z" transform="translate(0 -63.602)" fill="#e6e6e6"/>
      <rect id="Rectangle_1048" data-name="Rectangle 1048" width="317.622" height="178.106" transform="translate(-603.87 225.649)" fill="#e6e6e6"/>
      <circle id="Ellipse_527" data-name="Ellipse 527" cx="8.905" cy="8.905" r="8.905" transform="translate(-453.964 431.955)" fill="#3f3d56"/>
      <circle id="Ellipse_528" data-name="Ellipse 528" cx="1.69" cy="1.69" r="1.69" transform="translate(-595.656 229.792)" fill="#fff"/>
      <circle id="Ellipse_529" data-name="Ellipse 529" cx="1.69" cy="1.69" r="1.69" transform="translate(-589.241 229.792)" fill="#fff"/>
      <circle id="Ellipse_530" data-name="Ellipse 530" cx="1.69" cy="1.69" r="1.69" transform="translate(-582.827 229.792)" fill="#fff"/>
      <rect id="Rectangle_1049" data-name="Rectangle 1049" width="300.254" height="149.579" transform="translate(-595.656 237.225)" fill="#fff"/>
      <path id="Path_5515" data-name="Path 5515" d="M-562.283,275.768a1.062,1.062,0,0,0-1.061,1.061v53.654a1.062,1.062,0,0,0,1.061,1.061h61.961a1.063,1.063,0,0,0,1.062-1.061V276.829a1.062,1.062,0,0,0-1.062-1.061Z" transform="translate(-13.415 -15.791)" fill="#e6e6e6"/>
      <path id="Path_5516" data-name="Path 5516" d="M-433.087,275.992a1.062,1.062,0,0,0-1.062,1.061v53.481a1.062,1.062,0,0,0,1.062,1.061h61.764a1.062,1.062,0,0,0,1.061-1.061V277.053a1.062,1.062,0,0,0-1.061-1.061Z" transform="translate(-43.123 -15.843)" fill="#e6e6e6"/>
      <path id="Path_5517" data-name="Path 5517" d="M-305.246,275.264a1.062,1.062,0,0,0-1.061,1.061v54.042a1.062,1.062,0,0,0,1.061,1.061h62.406a1.062,1.062,0,0,0,1.061-1.061V276.325a1.062,1.062,0,0,0-1.061-1.061Z" transform="translate(-72.521 -15.675)" fill="#e6e6e6"/>
      <path id="Path_5518" data-name="Path 5518" d="M-561.149,382.689a2.194,2.194,0,0,0-2.189,2.2,2.194,2.194,0,0,0,2.189,2.19h58.256a2.194,2.194,0,0,0,2.189-2.2,2.195,2.195,0,0,0-2.189-2.19Z" transform="translate(-13.416 -40.378)" fill="#e6e6e6"/>
      <path id="Path_5519" data-name="Path 5519" d="M-561.149,396.245a2.195,2.195,0,0,0-2.192,2.2,2.194,2.194,0,0,0,2.192,2.192h26.229a2.195,2.195,0,0,0,2.192-2.2,2.194,2.194,0,0,0-2.192-2.192Z" transform="translate(-13.415 -43.495)" fill="#b4bdb9"/>
      <path id="Path_5520" data-name="Path 5520" d="M-430.565,382.689a2.194,2.194,0,0,0-2.189,2.2,2.194,2.194,0,0,0,2.189,2.19h58.256a2.194,2.194,0,0,0,2.189-2.2,2.194,2.194,0,0,0-2.189-2.19Z" transform="translate(-43.444 -40.378)" fill="#e6e6e6"/>
      <path id="Path_5521" data-name="Path 5521" d="M-430.565,396.245a2.195,2.195,0,0,0-2.192,2.2,2.194,2.194,0,0,0,2.192,2.192h26.23a2.194,2.194,0,0,0,2.192-2.2,2.194,2.194,0,0,0-2.192-2.192Z" transform="translate(-43.443 -43.495)" fill="#b4bdb9"/>
      <path id="Path_5522" data-name="Path 5522" d="M-303.244,382.689a2.2,2.2,0,0,0-2.19,2.2,2.194,2.194,0,0,0,2.19,2.19h58.256a2.195,2.195,0,0,0,2.19-2.2,2.2,2.2,0,0,0-2.19-2.19Z" transform="translate(-72.722 -40.378)" fill="#e6e6e6"/>
      <path id="Path_5523" data-name="Path 5523" d="M-561.149,368.689a2.194,2.194,0,0,0-2.189,2.2,2.194,2.194,0,0,0,2.189,2.19h58.256a2.194,2.194,0,0,0,2.189-2.2,2.195,2.195,0,0,0-2.189-2.19Z" transform="translate(-13.416 -37.158)" fill="#e6e6e6"/>
      <path id="Path_5524" data-name="Path 5524" d="M-430.565,368.689a2.194,2.194,0,0,0-2.189,2.2,2.193,2.193,0,0,0,2.189,2.19h58.256a2.194,2.194,0,0,0,2.189-2.2,2.194,2.194,0,0,0-2.189-2.19Z" transform="translate(-43.444 -37.158)" fill="#e6e6e6"/>
      <path id="Path_5525" data-name="Path 5525" d="M-303.244,368.689a2.2,2.2,0,0,0-2.19,2.2,2.194,2.194,0,0,0,2.19,2.19h58.256a2.195,2.195,0,0,0,2.19-2.2,2.2,2.2,0,0,0-2.19-2.19Z" transform="translate(-72.722 -37.158)" fill="#e6e6e6"/>
      <path id="Path_5526" data-name="Path 5526" d="M-303.245,396.245a2.2,2.2,0,0,0-2.192,2.2,2.195,2.195,0,0,0,2.192,2.192h26.229a2.195,2.195,0,0,0,2.192-2.2,2.195,2.195,0,0,0-2.192-2.192Z" transform="translate(-72.721 -43.495)" fill="#b4bdb9"/>
    </g>
    <g id="Group_3202" data-name="Group 3202" transform="translate(-8087.377 -2372.408)">
      <rect id="Rectangle_67-2" data-name="Rectangle 67" width="158" height="289" transform="translate(639.377 5977.908)" fill="#e6e6e6"/>
      <path id="Path_539-2" data-name="Path 539" d="M280,557.93h128.79V298.61H280Z" transform="translate(373.797 5694.184)" fill="#fff"/>
      <rect id="Rectangle_68-2" data-name="Rectangle 68" width="37.613" height="3.493" transform="translate(703.286 6048.412)" fill="#e6e6e6"/>
      <rect id="Rectangle_69-2" data-name="Rectangle 69" width="65.556" height="3.493" transform="translate(703.286 6060.495)" fill="#e6e6e6"/>
      <rect id="Rectangle_70-2" data-name="Rectangle 70" width="65.492" height="3.493" transform="translate(703.286 6072.579)" fill="#e6e6e6"/>
      <rect id="Rectangle_71-2" data-name="Rectangle 71" width="27.943" height="27.943" transform="translate(667.548 6048.464)" fill="#e6e6e6"/>
      <rect id="Rectangle_72-2" data-name="Rectangle 72" width="37.613" height="3.493" transform="translate(703.286 6108.456)" fill="#e6e6e6"/>
      <rect id="Rectangle_73-2" data-name="Rectangle 73" width="65.556" height="3.493" transform="translate(703.286 6120.539)" fill="#e6e6e6"/>
      <rect id="Rectangle_74-2" data-name="Rectangle 74" width="65.492" height="3.493" transform="translate(703.286 6132.623)" fill="#e6e6e6"/>
      <rect id="Rectangle_75-2" data-name="Rectangle 75" width="27.943" height="27.943" transform="translate(667.548 6108.508)" fill="#e6e6e6"/>
      <rect id="Rectangle_76-2" data-name="Rectangle 76" width="37.613" height="3.493" transform="translate(703.286 6168.5)" fill="#e6e6e6"/>
      <rect id="Rectangle_77-2" data-name="Rectangle 77" width="65.556" height="3.493" transform="translate(703.286 6180.583)" fill="#e6e6e6"/>
      <rect id="Rectangle_78-2" data-name="Rectangle 78" width="65.492" height="3.493" transform="translate(703.286 6192.667)" fill="#e6e6e6"/>
      <rect id="Rectangle_79-2" data-name="Rectangle 79" width="27.943" height="27.943" transform="translate(667.548 6168.552)" fill="#e6e6e6"/>
    </g>
    <g id="Group_3303" data-name="Group 3303" transform="translate(-162 1430)">
      <text id="प्लांट_समूह_पोर्टफोलियो_स्तर_पर_परफार्मेन्स_की_निगरानी_करना_बिलिंग_कलेक्शन_और_बकाया_राशि_की_निगरानी_करना_चालू_स्कीमों_की_निगरानी_करना_हर_फील्ड_एजेंट_के_परफार्मेन्स_के_लक्ष्य_और_अंतर_की_निगरानी_करना_परिचालन_लागत_की_निगरानी_करना_निर्धारित_मापदंडों_" data-name="प्लांट / समूह / पोर्टफोलियो स्तर पर परफार्मेन्स की निगरानी करना

बिलिंग, कलेक्शन और बकाया राशि की निगरानी करना

चालू स्कीमों की निगरानी करना

हर फील्ड एजेंट के परफार्मेन्स के लक्ष्य और अंतर की निगरानी करना

परिचालन लागत की निगरानी करना

निर्धारित मापदंडों " transform="translate(-7892 2596)" fill="#21232a" font-size="28" font-family="Mangal-Regular, Mangal"><tspan x="0" y="35">प्लांट / समूह / पोर्टफोलियो स्तर पर परफार्मेन्स की निगरानी करना</tspan><tspan x="0" y="65"></tspan><tspan x="0" y="95">बिलिंग, कलेक्शन और बकाया राशि की निगरानी करना</tspan><tspan x="0" y="125"></tspan><tspan x="0" y="155">चालू स्कीमों की निगरानी करना</tspan><tspan x="0" y="185"></tspan><tspan x="0" y="215">हर फील्ड एजेंट के परफार्मेन्स के लक्ष्य और अंतर की निगरानी करना</tspan><tspan x="0" y="245"></tspan><tspan x="0" y="275">परिचालन लागत की निगरानी करना</tspan><tspan x="0" y="305"></tspan><tspan x="0" y="335">निर्धारित मापदंडों की तुलना में परफार्मेंस की तुलना करना (ग्राउंड टीम के)</tspan><tspan x="0" y="365"></tspan></text>
      <circle id="Ellipse_382" data-name="Ellipse 382" cx="4" cy="4" r="4" transform="translate(-7926 2620)" fill="#707070"/>
      <circle id="Ellipse_383" data-name="Ellipse 383" cx="4" cy="4" r="4" transform="translate(-7926 2680)" fill="#707070"/>
      <circle id="Ellipse_385" data-name="Ellipse 385" cx="4" cy="4" r="4" transform="translate(-7926 2740)" fill="#707070"/>
      <circle id="Ellipse_386" data-name="Ellipse 386" cx="4" cy="4" r="4" transform="translate(-7926 2799)" fill="#707070"/>
      <circle id="Ellipse_387" data-name="Ellipse 387" cx="4" cy="4" r="4" transform="translate(-7926 2859)" fill="#707070"/>
      <circle id="Ellipse_541" data-name="Ellipse 541" cx="4" cy="4" r="4" transform="translate(-7926 2919)" fill="#707070"/>
    </g>
    <g id="Group_3304" data-name="Group 3304" transform="translate(-451 -7)">
      <text id="कनेक्शन_प्रोफाइल_बकाया_भुगतान_शेष_राशि_आदि_देखना_पैकेज_बदलने_का_अनुरोध_लॉग-इन_संबंधी_शिकायतें_" data-name="कनेक्शन प्रोफाइल, बकाया भुगतान, शेष राशि आदि देखना

पैकेज बदलने का अनुरोध

लॉग-इन संबंधी शिकायतें
" transform="translate(-6787 3589)" fill="#21232a" font-size="30" font-family="Mangal-Regular, Mangal"><tspan x="0" y="37">कनेक्शन प्रोफाइल, </tspan><tspan x="0" y="67">बकाया भुगतान, शेष </tspan><tspan x="0" y="97">राशि आदि देखना</tspan><tspan x="0" y="127"></tspan><tspan x="0" y="157">पैकेज बदलने का </tspan><tspan x="0" y="187">अनुरोध</tspan><tspan x="0" y="217"></tspan><tspan x="0" y="247">लॉग-इन संबंधी </tspan><tspan x="0" y="277">शिकायतें</tspan><tspan x="0" y="307"></tspan></text>
      <circle id="Ellipse_375" data-name="Ellipse 375" cx="4" cy="4" r="4" transform="translate(-6818 3609)" fill="#707070"/>
      <circle id="Ellipse_376" data-name="Ellipse 376" cx="4" cy="4" r="4" transform="translate(-6818 3732)" fill="#707070"/>
      <circle id="Ellipse_377" data-name="Ellipse 377" cx="4" cy="4" r="4" transform="translate(-6818 3825)" fill="#707070"/>
    </g>
  </g>
</svg>
