<svg xmlns="http://www.w3.org/2000/svg" width="1552" height="1231" viewBox="0 0 1552 1231">
  <g id="Group_3296" data-name="Group 3296" transform="translate(-179 -5666)">
    <g id="Group_3295" data-name="Group 3295">
      <rect id="Rectangle_1068" data-name="Rectangle 1068" width="1552" height="1231" transform="translate(179 5666)" fill="#fff"/>
    </g>
    <g id="Group_3204" data-name="Group 3204" transform="translate(17 21.5)">
      <g id="Group_3200" data-name="Group 3200" transform="translate(-36.377 43.092)">
        <rect id="Rectangle_67" data-name="Rectangle 67" width="158" height="289" transform="translate(639.377 5977.908)" fill="#e6e6e6"/>
        <path id="Path_539" data-name="Path 539" d="M280,557.93h128.79V298.61H280Z" transform="translate(373.797 5694.184)" fill="#fff"/>
        <rect id="Rectangle_68" data-name="Rectangle 68" width="37.613" height="3.493" transform="translate(703.286 6048.412)" fill="#e6e6e6"/>
        <rect id="Rectangle_69" data-name="Rectangle 69" width="65.556" height="3.493" transform="translate(703.286 6060.495)" fill="#e6e6e6"/>
        <rect id="Rectangle_70" data-name="Rectangle 70" width="65.492" height="3.493" transform="translate(703.286 6072.579)" fill="#e6e6e6"/>
        <rect id="Rectangle_71" data-name="Rectangle 71" width="27.943" height="27.943" transform="translate(667.548 6048.464)" fill="#e6e6e6"/>
        <rect id="Rectangle_72" data-name="Rectangle 72" width="37.613" height="3.493" transform="translate(703.286 6108.456)" fill="#e6e6e6"/>
        <rect id="Rectangle_73" data-name="Rectangle 73" width="65.556" height="3.493" transform="translate(703.286 6120.539)" fill="#e6e6e6"/>
        <rect id="Rectangle_74" data-name="Rectangle 74" width="65.492" height="3.493" transform="translate(703.286 6132.623)" fill="#e6e6e6"/>
        <rect id="Rectangle_75" data-name="Rectangle 75" width="27.943" height="27.943" transform="translate(667.548 6108.508)" fill="#e6e6e6"/>
        <rect id="Rectangle_76" data-name="Rectangle 76" width="37.613" height="3.493" transform="translate(703.286 6168.5)" fill="#e6e6e6"/>
        <rect id="Rectangle_77" data-name="Rectangle 77" width="65.556" height="3.493" transform="translate(703.286 6180.583)" fill="#e6e6e6"/>
        <rect id="Rectangle_78" data-name="Rectangle 78" width="65.492" height="3.493" transform="translate(703.286 6192.667)" fill="#e6e6e6"/>
        <rect id="Rectangle_79" data-name="Rectangle 79" width="27.943" height="27.943" transform="translate(667.548 6168.552)" fill="#e6e6e6"/>
      </g>
      <ellipse id="Ellipse_66" data-name="Ellipse 66" cx="444.003" cy="18" rx="444.003" ry="18" transform="translate(532 6301)" fill="#e6e6e6"/>
      <path id="Path_5527" data-name="Path 5527" d="M-58.884,0H543.1" transform="translate(730.409 6395.5)" fill="none" stroke="#707070" stroke-width="2"/>
      <text id="Web-based_Centralised_Dashboard" data-name="Web-based Centralised Dashboard" transform="translate(708 5765)" fill="#21232a" font-size="32" font-family="OpenSans-Bold, Open Sans" font-weight="700"><tspan x="68.992" y="34">Web-based Centralised </tspan><tspan x="164.938" y="68">Dashboard</tspan></text>
      <text id="Customer_App" data-name="Customer App" transform="translate(1129 5929)" fill="#21232a" font-size="32" font-family="OpenSans-Bold, Open Sans" font-weight="700"><tspan x="8.109" y="34">Customer App</tspan></text>
      <text id="Field_Agent_App" data-name="Field Agent App" transform="translate(512 5927)" fill="#21232a" font-size="32" font-family="OpenSans-Bold, Open Sans" font-weight="700"><tspan x="7.281" y="34">Field Agent App</tspan></text>
      <g id="Group_145" data-name="Group 145" transform="translate(1346 12612.248) rotate(180)">
        <line id="Line_20" data-name="Line 20" y1="45.109" transform="translate(673.5 6216.5)" fill="none" stroke="#707070" stroke-width="2"/>
        <path id="Polygon_1" data-name="Polygon 1" d="M3.5,0,7,6H0Z" transform="translate(677 6266.749) rotate(180)" fill="#727a7a"/>
      </g>
      <g id="Group_146" data-name="Group 146" transform="translate(1946 12612.248) rotate(180)">
        <line id="Line_20-2" data-name="Line 20" y1="45.109" transform="translate(673.5 6216.5)" fill="none" stroke="#707070" stroke-width="2"/>
        <path id="Polygon_1-2" data-name="Polygon 1" d="M3.5,0,7,6H0Z" transform="translate(677 6266.749) rotate(180)" fill="#727a7a"/>
      </g>
      <line id="Line_21" data-name="Line 21" x2="290" transform="translate(664.5 5684.5)" fill="none" stroke="#4bff83" stroke-width="2"/>
      <path id="Path_5467" data-name="Path 5467" d="M5.281.048H313.24" transform="translate(956.22 5684.5)" fill="none" stroke="#24bcff" stroke-width="2"/>
      <g id="Group_143" data-name="Group 143" transform="translate(-8 -532)">
        <line id="Line_20-3" data-name="Line 20" y1="223.36" transform="translate(673.5 6216.5)" fill="none" stroke="#4bff83" stroke-width="2"/>
        <path id="Polygon_1-3" data-name="Polygon 1" d="M3.5,0,7,6H0Z" transform="translate(677 6445) rotate(180)" fill="#4bfe83"/>
      </g>
      <g id="Group_144" data-name="Group 144" transform="translate(78 -532)">
        <line id="Line_22" data-name="Line 22" y1="223.349" transform="translate(1190.5 6216.5)" fill="none" stroke="#24bcff" stroke-width="2"/>
        <g id="Polygon_2" data-name="Polygon 2" transform="translate(1194 6445) rotate(180)" fill="#727a7a">
          <path d="M 5.258962631225586 5 L 1.741037487983704 5 L 3.5 1.984635710716248 L 5.258962631225586 5 Z" stroke="none"/>
          <path d="M 3.5 0 L 7 6 L 0 6 L 3.5 0 Z" stroke="none" fill="#24bcff"/>
        </g>
      </g>
      <g id="Group_142" data-name="Group 142" transform="translate(951.503 5684.5)">
        <line id="Line_23" data-name="Line 23" y1="67.857" transform="translate(2.5)" fill="none" stroke="#49fe87" stroke-width="2"/>
        <path id="Polygon_3" data-name="Polygon 3" d="M3.5,0,7,5.293H0Z" transform="translate(7 71.978) rotate(180)" fill="#47fe8b"/>
      </g>
      <g id="Group_147" data-name="Group 147" transform="translate(959 5684.5)">
        <line id="Line_23-2" data-name="Line 23" y1="67.857" transform="translate(3.5)" fill="none" stroke="#24bcff" stroke-width="2"/>
        <g id="Polygon_3-2" data-name="Polygon 3" transform="translate(7 71.978) rotate(180)" fill="#23beff">
          <path d="M 5.139915466308594 4.293081760406494 L 1.860084652900696 4.293081760406494 L 3.5 1.813023805618286 L 5.139915466308594 4.293081760406494 Z" stroke="none"/>
          <path d="M 3.5 1.9073486328125e-06 L 7 5.293081760406494 L 0 5.293081760406494 L 3.5 1.9073486328125e-06 Z" stroke="none" fill="#24bcff"/>
        </g>
      </g>
      <text id="View_connection_profile_pending_payment_balance_etc._Request_for_package_change_Log_complaints" data-name="View connection profile, pending payment, balance, etc.

Request for package change

Log complaints" transform="translate(1409 5973)" fill="#21232a" font-size="30" font-family="OpenSans-Regular, Open Sans"><tspan x="0" y="32">View connection </tspan><tspan x="0" y="64">profile, pending </tspan><tspan x="0" y="96">payment, balance, </tspan><tspan x="0" y="128">etc.</tspan><tspan x="0" y="160"></tspan><tspan x="0" y="192">Request for </tspan><tspan x="0" y="224">package change</tspan><tspan x="0" y="256"></tspan><tspan x="0" y="288">Log complaints</tspan></text>
      <text id="Plant_Data_Entry_Input_supply_side_generation_data_Input_demand_side_transactional_data_Customer_Transactions_Add_delete_upgrade_customers_View_customer_and_plant_level_dues" data-name="Plant Data Entry

Input supply side, generation data

Input demand side &amp; transactional data

Customer Transactions

Add/delete/upgrade
customers

View customer and plant level dues" transform="translate(225 5973)" fill="#21232a" font-size="30" font-family="OpenSans-Bold, Open Sans" font-weight="700"><tspan x="0" y="32">Plant Data Entry</tspan><tspan x="0" y="66"></tspan><tspan font-family="OpenSans-Regular, Open Sans" font-weight="400"><tspan x="0" y="100">Input supply side, </tspan><tspan x="0" y="134">generation data</tspan><tspan x="0" y="168"></tspan><tspan x="0" y="202">Input demand side </tspan><tspan x="0" y="236">&amp; transactional data</tspan><tspan x="0" y="270"></tspan></tspan><tspan x="0" y="304">Customer </tspan><tspan x="0" y="338">Transactions</tspan><tspan font-family="OpenSans-Regular, Open Sans" font-weight="400"><tspan x="0" y="372"></tspan><tspan x="0" y="406">Add/delete/upgrade</tspan><tspan x="0" y="440">customers</tspan><tspan x="0" y="474"></tspan><tspan x="0" y="508">View customer and </tspan><tspan x="0" y="542">plant level dues</tspan></tspan></text>
      <circle id="Ellipse_375" data-name="Ellipse 375" cx="4" cy="4" r="4" transform="translate(1378 5991)" fill="#707070"/>
      <circle id="Ellipse_376" data-name="Ellipse 376" cx="4" cy="4" r="4" transform="translate(1378 6151)" fill="#707070"/>
      <circle id="Ellipse_377" data-name="Ellipse 377" cx="4" cy="4" r="4" transform="translate(1378 6247)" fill="#707070"/>
      <circle id="Ellipse_379" data-name="Ellipse 379" cx="4" cy="4" r="4" transform="translate(194 6060)" fill="#707070"/>
      <circle id="Ellipse_380" data-name="Ellipse 380" cx="4" cy="4" r="4" transform="translate(194 6163)" fill="#707070"/>
      <circle id="Ellipse_472" data-name="Ellipse 472" cx="4" cy="4" r="4" transform="translate(194 6364)" fill="#707070"/>
      <circle id="Ellipse_473" data-name="Ellipse 473" cx="4" cy="4" r="4" transform="translate(194 6468)" fill="#707070"/>
      <g id="Group_3203" data-name="Group 3203" transform="translate(-132)">
        <text id="Monitor_plant_cluster_portfolio_level_performance_Monitor_total_billing_collection_dues_Monitor_generation_consumption_losses_Monitor_on-going_schemes_Monitor_performance_targets_and_gaps_for_each_field_agent_Monitor_operational_costs_Monitor_on-g" data-name="Monitor plant/cluster/portfolio level performance

Monitor total billing, collection dues

Monitor generation, consumption, losses

Monitor on-going schemes

Monitor performance targets and gaps for each field agent

Monitor operational costs

Monitor on-g" transform="translate(686 6414)" fill="#21232a" font-size="30" font-family="OpenSans-Regular, Open Sans"><tspan x="0" y="32">Monitor plant/cluster/portfolio level performance</tspan><tspan x="0" y="62"></tspan><tspan x="0" y="92">Monitor total billing, collection dues</tspan><tspan x="0" y="122"></tspan><tspan x="0" y="152">Monitor generation, consumption, losses</tspan><tspan x="0" y="182"></tspan><tspan x="0" y="212">Monitor on-going schemes</tspan><tspan x="0" y="242"></tspan><tspan x="0" y="272">Monitor performance targets and gaps for each field agent</tspan><tspan x="0" y="302"></tspan><tspan x="0" y="332">Monitor operational costs</tspan><tspan x="0" y="362"></tspan><tspan x="0" y="392">Monitor on-ground team performance against set metrics</tspan></text>
        <circle id="Ellipse_382" data-name="Ellipse 382" cx="4" cy="4" r="4" transform="translate(657 6433)" fill="#707070"/>
        <circle id="Ellipse_383" data-name="Ellipse 383" cx="4" cy="4" r="4" transform="translate(657 6493)" fill="#707070"/>
        <circle id="Ellipse_384" data-name="Ellipse 384" cx="4" cy="4" r="4" transform="translate(657 6553)" fill="#707070"/>
        <circle id="Ellipse_385" data-name="Ellipse 385" cx="4" cy="4" r="4" transform="translate(657 6613)" fill="#707070"/>
        <circle id="Ellipse_386" data-name="Ellipse 386" cx="4" cy="4" r="4" transform="translate(657 6672)" fill="#707070"/>
        <circle id="Ellipse_387" data-name="Ellipse 387" cx="4" cy="4" r="4" transform="translate(657 6732)" fill="#707070"/>
        <circle id="Ellipse_474" data-name="Ellipse 474" cx="4" cy="4" r="4" transform="translate(657 6792)" fill="#707070"/>
      </g>
      <g id="Group_3201" data-name="Group 3201" transform="translate(1421.68 5813.995)">
        <path id="Path_5512" data-name="Path 5512" d="M-362.57,568.53h-87.569l2.969-38.589h81.632Z" transform="translate(-39.446 -74.239)" fill="#e6e6e6"/>
        <rect id="Rectangle_1047" data-name="Rectangle 1047" width="97.958" height="8.905" transform="translate(-494.038 489.839)" fill="#e6e6e6"/>
        <path id="Path_5513" data-name="Path 5513" d="M-278.085,207.1h-334.69a8.9,8.9,0,0,0-8.9,8.9h0v204.08h352.5V216a8.9,8.9,0,0,0-8.9-8.9Z" transform="translate(0)" fill="#3f3d56"/>
        <path id="Path_5514" data-name="Path 5514" d="M-621.68,483.683v33.395a8.9,8.9,0,0,0,8.9,8.906h334.69a8.9,8.9,0,0,0,8.9-8.906h0V483.683Z" transform="translate(0 -63.602)" fill="#e6e6e6"/>
        <rect id="Rectangle_1048" data-name="Rectangle 1048" width="317.622" height="178.106" transform="translate(-603.87 225.649)" fill="#e6e6e6"/>
        <circle id="Ellipse_527" data-name="Ellipse 527" cx="8.905" cy="8.905" r="8.905" transform="translate(-453.964 431.955)" fill="#3f3d56"/>
        <circle id="Ellipse_528" data-name="Ellipse 528" cx="1.69" cy="1.69" r="1.69" transform="translate(-595.656 229.792)" fill="#fff"/>
        <circle id="Ellipse_529" data-name="Ellipse 529" cx="1.69" cy="1.69" r="1.69" transform="translate(-589.241 229.792)" fill="#fff"/>
        <circle id="Ellipse_530" data-name="Ellipse 530" cx="1.69" cy="1.69" r="1.69" transform="translate(-582.827 229.792)" fill="#fff"/>
        <rect id="Rectangle_1049" data-name="Rectangle 1049" width="300.254" height="149.579" transform="translate(-595.656 237.225)" fill="#fff"/>
        <path id="Path_5515" data-name="Path 5515" d="M-562.283,275.768a1.062,1.062,0,0,0-1.061,1.061v53.654a1.062,1.062,0,0,0,1.061,1.061h61.961a1.063,1.063,0,0,0,1.062-1.061V276.829a1.062,1.062,0,0,0-1.062-1.061Z" transform="translate(-13.415 -15.791)" fill="#e6e6e6"/>
        <path id="Path_5516" data-name="Path 5516" d="M-433.087,275.992a1.062,1.062,0,0,0-1.062,1.061v53.481a1.062,1.062,0,0,0,1.062,1.061h61.764a1.062,1.062,0,0,0,1.061-1.061V277.053a1.062,1.062,0,0,0-1.061-1.061Z" transform="translate(-43.123 -15.843)" fill="#e6e6e6"/>
        <path id="Path_5517" data-name="Path 5517" d="M-305.246,275.264a1.062,1.062,0,0,0-1.061,1.061v54.042a1.062,1.062,0,0,0,1.061,1.061h62.406a1.062,1.062,0,0,0,1.061-1.061V276.325a1.062,1.062,0,0,0-1.061-1.061Z" transform="translate(-72.521 -15.675)" fill="#e6e6e6"/>
        <path id="Path_5518" data-name="Path 5518" d="M-561.149,382.689a2.194,2.194,0,0,0-2.189,2.2,2.194,2.194,0,0,0,2.189,2.19h58.256a2.194,2.194,0,0,0,2.189-2.2,2.195,2.195,0,0,0-2.189-2.19Z" transform="translate(-13.416 -40.378)" fill="#e6e6e6"/>
        <path id="Path_5519" data-name="Path 5519" d="M-561.149,396.245a2.195,2.195,0,0,0-2.192,2.2,2.194,2.194,0,0,0,2.192,2.192h26.229a2.195,2.195,0,0,0,2.192-2.2,2.194,2.194,0,0,0-2.192-2.192Z" transform="translate(-13.415 -43.495)" fill="#b4bdb9"/>
        <path id="Path_5520" data-name="Path 5520" d="M-430.565,382.689a2.194,2.194,0,0,0-2.189,2.2,2.194,2.194,0,0,0,2.189,2.19h58.256a2.194,2.194,0,0,0,2.189-2.2,2.194,2.194,0,0,0-2.189-2.19Z" transform="translate(-43.444 -40.378)" fill="#e6e6e6"/>
        <path id="Path_5521" data-name="Path 5521" d="M-430.565,396.245a2.195,2.195,0,0,0-2.192,2.2,2.194,2.194,0,0,0,2.192,2.192h26.23a2.194,2.194,0,0,0,2.192-2.2,2.194,2.194,0,0,0-2.192-2.192Z" transform="translate(-43.443 -43.495)" fill="#b4bdb9"/>
        <path id="Path_5522" data-name="Path 5522" d="M-303.244,382.689a2.2,2.2,0,0,0-2.19,2.2,2.194,2.194,0,0,0,2.19,2.19h58.256a2.195,2.195,0,0,0,2.19-2.2,2.2,2.2,0,0,0-2.19-2.19Z" transform="translate(-72.722 -40.378)" fill="#e6e6e6"/>
        <path id="Path_5523" data-name="Path 5523" d="M-561.149,368.689a2.194,2.194,0,0,0-2.189,2.2,2.194,2.194,0,0,0,2.189,2.19h58.256a2.194,2.194,0,0,0,2.189-2.2,2.195,2.195,0,0,0-2.189-2.19Z" transform="translate(-13.416 -37.158)" fill="#e6e6e6"/>
        <path id="Path_5524" data-name="Path 5524" d="M-430.565,368.689a2.194,2.194,0,0,0-2.189,2.2,2.193,2.193,0,0,0,2.189,2.19h58.256a2.194,2.194,0,0,0,2.189-2.2,2.194,2.194,0,0,0-2.189-2.19Z" transform="translate(-43.444 -37.158)" fill="#e6e6e6"/>
        <path id="Path_5525" data-name="Path 5525" d="M-303.244,368.689a2.2,2.2,0,0,0-2.19,2.2,2.194,2.194,0,0,0,2.19,2.19h58.256a2.195,2.195,0,0,0,2.19-2.2,2.2,2.2,0,0,0-2.19-2.19Z" transform="translate(-72.722 -37.158)" fill="#e6e6e6"/>
        <path id="Path_5526" data-name="Path 5526" d="M-303.245,396.245a2.2,2.2,0,0,0-2.192,2.2,2.195,2.195,0,0,0,2.192,2.192h26.229a2.195,2.195,0,0,0,2.192-2.2,2.195,2.195,0,0,0-2.192-2.192Z" transform="translate(-72.721 -43.495)" fill="#b4bdb9"/>
      </g>
      <g id="Group_3202" data-name="Group 3202" transform="translate(553.623 43.092)">
        <rect id="Rectangle_67-2" data-name="Rectangle 67" width="158" height="289" transform="translate(639.377 5977.908)" fill="#e6e6e6"/>
        <path id="Path_539-2" data-name="Path 539" d="M280,557.93h128.79V298.61H280Z" transform="translate(373.797 5694.184)" fill="#fff"/>
        <rect id="Rectangle_68-2" data-name="Rectangle 68" width="37.613" height="3.493" transform="translate(703.286 6048.412)" fill="#e6e6e6"/>
        <rect id="Rectangle_69-2" data-name="Rectangle 69" width="65.556" height="3.493" transform="translate(703.286 6060.495)" fill="#e6e6e6"/>
        <rect id="Rectangle_70-2" data-name="Rectangle 70" width="65.492" height="3.493" transform="translate(703.286 6072.579)" fill="#e6e6e6"/>
        <rect id="Rectangle_71-2" data-name="Rectangle 71" width="27.943" height="27.943" transform="translate(667.548 6048.464)" fill="#e6e6e6"/>
        <rect id="Rectangle_72-2" data-name="Rectangle 72" width="37.613" height="3.493" transform="translate(703.286 6108.456)" fill="#e6e6e6"/>
        <rect id="Rectangle_73-2" data-name="Rectangle 73" width="65.556" height="3.493" transform="translate(703.286 6120.539)" fill="#e6e6e6"/>
        <rect id="Rectangle_74-2" data-name="Rectangle 74" width="65.492" height="3.493" transform="translate(703.286 6132.623)" fill="#e6e6e6"/>
        <rect id="Rectangle_75-2" data-name="Rectangle 75" width="27.943" height="27.943" transform="translate(667.548 6108.508)" fill="#e6e6e6"/>
        <rect id="Rectangle_76-2" data-name="Rectangle 76" width="37.613" height="3.493" transform="translate(703.286 6168.5)" fill="#e6e6e6"/>
        <rect id="Rectangle_77-2" data-name="Rectangle 77" width="65.556" height="3.493" transform="translate(703.286 6180.583)" fill="#e6e6e6"/>
        <rect id="Rectangle_78-2" data-name="Rectangle 78" width="65.492" height="3.493" transform="translate(703.286 6192.667)" fill="#e6e6e6"/>
        <rect id="Rectangle_79-2" data-name="Rectangle 79" width="27.943" height="27.943" transform="translate(667.548 6168.552)" fill="#e6e6e6"/>
      </g>
    </g>
  </g>
</svg>
