<svg xmlns="http://www.w3.org/2000/svg" width="1191" height="519.566" viewBox="0 0 1191 519.566">
  <g id="Group_3106" data-name="Group 3106" transform="translate(-325 -2139)">
    <rect id="Rectangle_1014" data-name="Rectangle 1014" width="265" height="435" rx="20" transform="translate(1243 2139)" fill="#f2f2f2"/>
    <rect id="Rectangle_1013" data-name="Rectangle 1013" width="265" height="435" rx="20" transform="translate(938 2139)" fill="#f2f2f2"/>
    <rect id="Rectangle_1012" data-name="Rectangle 1012" width="265" height="435" rx="20" transform="translate(630 2139)" fill="#f2f2f2"/>
    <rect id="Rectangle_1011" data-name="Rectangle 1011" width="265" height="435" rx="20" transform="translate(325 2139)" fill="#f2f2f2"/>
    <rect id="Rectangle_1007" data-name="Rectangle 1007" width="265" height="435" rx="20" transform="translate(1251 2147)" fill="#f7f7f7"/>
    <rect id="Rectangle_1008" data-name="Rectangle 1008" width="265" height="435" rx="20" transform="translate(946 2147)" fill="#f7f7f7"/>
    <rect id="Rectangle_1009" data-name="Rectangle 1009" width="265" height="435" rx="20" transform="translate(638 2147)" fill="#f7f7f7"/>
    <rect id="Rectangle_1010" data-name="Rectangle 1010" width="265" height="435" rx="20" transform="translate(333 2147)" fill="#f7f7f7"/>
    <g id="Group_247" data-name="Group 247" transform="translate(428.279 2599)">
      <path id="Path_728" data-name="Path 728" d="M91.609,196.85q0-11.388,4.1-15.938t12.492-4.551a18.674,18.674,0,0,1,6.62,1,12.237,12.237,0,0,1,4.223,2.588,13.8,13.8,0,0,1,2.576,3.351,17.451,17.451,0,0,1,1.511,4.1,38.238,38.238,0,0,1,1.117,9.319q0,10.871-3.678,15.91T107.9,217.664a17.762,17.762,0,0,1-8.147-1.607,13.188,13.188,0,0,1-5.095-4.713,17.765,17.765,0,0,1-2.248-6.036A41.2,41.2,0,0,1,91.609,196.85Zm11.007.027q0,7.628,1.349,10.421t3.909,2.793a4.1,4.1,0,0,0,2.929-1.186,7.336,7.336,0,0,0,1.825-3.746,39.191,39.191,0,0,0,.586-7.983q0-7.954-1.349-10.693a4.318,4.318,0,0,0-4.045-2.739,4.127,4.127,0,0,0-3.978,2.793Q102.617,189.33,102.616,196.877Z" transform="translate(-91.609 -176.361)" fill="#bebebe"/>
      <path id="Path_729" data-name="Path 729" d="M145.2,176.361v40.622H133.972V190.365a34.1,34.1,0,0,1-5.272,3.351,41.121,41.121,0,0,1-6.389,2.452v-9.1a26.987,26.987,0,0,0,8.8-4.386,17.91,17.91,0,0,0,4.9-6.321Z" transform="translate(-82.833 -176.361)" fill="#bebebe"/>
    </g>
    <g id="Group_250" data-name="Group 250" transform="translate(736.475 2599)">
      <path id="Path_730" data-name="Path 730" d="M183.528,196.85q0-11.388,4.1-15.938t12.491-4.551a18.669,18.669,0,0,1,6.62,1,12.255,12.255,0,0,1,4.224,2.588,13.79,13.79,0,0,1,2.574,3.351,17.508,17.508,0,0,1,1.512,4.1,38.3,38.3,0,0,1,1.116,9.319q0,10.871-3.678,15.91t-12.668,5.041a17.753,17.753,0,0,1-8.146-1.607,13.17,13.17,0,0,1-5.095-4.713,17.738,17.738,0,0,1-2.248-6.036A41.2,41.2,0,0,1,183.528,196.85Zm11.007.027q0,7.628,1.348,10.421t3.909,2.793a4.1,4.1,0,0,0,2.929-1.186,7.346,7.346,0,0,0,1.826-3.746,39.3,39.3,0,0,0,.585-7.983q0-7.954-1.349-10.693a4.317,4.317,0,0,0-4.044-2.739,4.125,4.125,0,0,0-3.978,2.793Q194.534,189.33,194.535,196.877Z" transform="translate(-183.528 -176.361)" fill="#bebebe"/>
      <path id="Path_731" data-name="Path 731" d="M245.127,216.983H211.835a20.861,20.861,0,0,1,3.473-9.276q2.9-4.346,10.885-10.257,4.876-3.624,6.239-5.5a6.167,6.167,0,0,0,1.362-3.57,4.168,4.168,0,0,0-1.348-3.12,5.142,5.142,0,0,0-6.867.041q-1.348,1.335-1.812,4.713l-11.116-.9a17.706,17.706,0,0,1,2.4-7.315,11.117,11.117,0,0,1,4.917-4.031,22.239,22.239,0,0,1,8.786-1.4,24.789,24.789,0,0,1,9.114,1.336,11.1,11.1,0,0,1,5.122,4.1,10.839,10.839,0,0,1,1.866,6.2,12.689,12.689,0,0,1-2.138,6.975q-2.139,3.323-7.778,7.3-3.35,2.317-4.481,3.242t-2.657,2.425h17.327Z" transform="translate(-175.436 -176.361)" fill="#bebebe"/>
    </g>
    <g id="Component_4_1" data-name="Component 4 – 1" transform="translate(1034.462 2580)">
      <g id="Group_253" data-name="Group 253" transform="translate(20.939 0) rotate(22)">
        <path id="Path_732" data-name="Path 732" d="M278.13,180.8q-4.34-10.527-2.284-16.3t9.815-8.966a18.7,18.7,0,0,1,6.5-1.6,12.261,12.261,0,0,1,4.89.784,13.748,13.748,0,0,1,3.657,2.117,17.463,17.463,0,0,1,2.961,3.215,38.3,38.3,0,0,1,4.584,8.188q4.143,10.051,2.663,16.112t-9.791,9.488a17.771,17.771,0,0,1-8.145,1.619,13.186,13.186,0,0,1-6.507-2.416,17.761,17.761,0,0,1-4.378-4.723A41.2,41.2,0,0,1,278.13,180.8Zm10.187-4.17q2.907,7.054,5.218,9.121t4.679,1.092a4.091,4.091,0,0,0,2.255-2.212,7.341,7.341,0,0,0,.26-4.159,39.128,39.128,0,0,0-2.5-7.6q-3.03-7.354-5.322-9.373a4.318,4.318,0,0,0-4.783-.99,4.127,4.127,0,0,0-2.613,4.1Q285.44,169.65,288.316,176.627Z" transform="translate(-275.185 -139.595)" fill="#bebebe"/>
        <path id="Path_733" data-name="Path 733" d="M311.874,158.064l-10.414,2.261a13.168,13.168,0,0,1,1.719-9.019q2.421-3.887,8.717-6.482,7.229-2.98,11.565-1.614a9.153,9.153,0,0,1,6.017,5.447,8.187,8.187,0,0,1,.477,4.872,12.043,12.043,0,0,1-2.554,5.03,12.638,12.638,0,0,1,3.784-.116,8.647,8.647,0,0,1,4.089,1.807,9.773,9.773,0,0,1,2.842,4,13.294,13.294,0,0,1,.861,6.879A12.223,12.223,0,0,1,336,177.693a20.1,20.1,0,0,1-7.678,5.035,23.407,23.407,0,0,1-8.435,2.093,12.823,12.823,0,0,1-6.213-1.492,17.2,17.2,0,0,1-5.246-4.54l9.692-5.587a8.625,8.625,0,0,0,3.647,3.521,4.9,4.9,0,0,0,3.73-.138,4.814,4.814,0,0,0,2.815-2.928,6.237,6.237,0,0,0-.288-4.6,6.058,6.058,0,0,0-2.963-3.435,5.072,5.072,0,0,0-4.171.069,14.009,14.009,0,0,0-3.076,1.975l-2.493-7.548a10.381,10.381,0,0,0,1.387-.424,5.063,5.063,0,0,0,2.833-2.671,4.4,4.4,0,0,0,.091-3.6,3.937,3.937,0,0,0-2.119-2.28,4.047,4.047,0,0,0-3.185.135,4.393,4.393,0,0,0-2.5,2.311A7.178,7.178,0,0,0,311.874,158.064Z" transform="translate(-267.718 -142.78)" fill="#bebebe"/>
      </g>
    </g>
    <g id="Group_256" data-name="Group 256" transform="translate(1347.688 2595)">
      <path id="Path_734" data-name="Path 734" d="M370.338,196.85q0-11.388,4.1-15.938t12.491-4.551a18.676,18.676,0,0,1,6.621,1,12.238,12.238,0,0,1,4.223,2.588,13.757,13.757,0,0,1,2.574,3.351,17.4,17.4,0,0,1,1.512,4.1,38.3,38.3,0,0,1,1.117,9.319q0,10.871-3.679,15.91t-12.668,5.041a17.756,17.756,0,0,1-8.146-1.607,13.188,13.188,0,0,1-5.095-4.713,17.764,17.764,0,0,1-2.248-6.036A41.2,41.2,0,0,1,370.338,196.85Zm11.007.027q0,7.628,1.348,10.421t3.91,2.793a4.1,4.1,0,0,0,2.929-1.186,7.346,7.346,0,0,0,1.825-3.746,39.191,39.191,0,0,0,.586-7.983q0-7.954-1.349-10.693a4.318,4.318,0,0,0-4.045-2.739,4.127,4.127,0,0,0-3.979,2.793Q381.346,189.33,381.345,196.877Z" transform="translate(-370.338 -176.361)" fill="#bebebe"/>
      <path id="Path_735" data-name="Path 735" d="M418.606,209.518H398.39v-9.127l20.216-24.03h9.671V200.91h5.014v8.609h-5.014v7.464h-9.671Zm0-8.609V188.339L407.925,200.91Z" transform="translate(-362.319 -176.361)" fill="#bebebe"/>
    </g>
    <text id="Scheduled_manual_collection_of_key_data_points" data-name="Scheduled manual
collection of
key data points" transform="translate(363 2180)" fill="#21232a" font-size="30" font-family="OpenSans-Bold, Open Sans" font-weight="700"><tspan x="25.522" y="32">Scheduled </tspan><tspan x="45.356" y="66">manual</tspan><tspan x="10.544" y="100">collection of</tspan><tspan x="37.783" y="134">key data </tspan><tspan x="55.317" y="168">points</tspan></text>
    <text id="Automated_high_frequency_data_gathering_communication" data-name="Automated high
frequency data
gathering &amp;
communication" transform="translate(646 2180)" fill="#21232a" font-size="30" font-family="OpenSans-Bold, Open Sans" font-weight="700"><tspan x="3.674" y="32">Automated high</tspan><tspan x="11.182" y="66">frequency data</tspan><tspan x="37.366" y="100">gathering &amp;</tspan><tspan x="7.241" y="134">communication</tspan></text>
    <text id="Remote_control_of_plant_equipment" data-name="Remote control
of plant
equipment" transform="translate(986 2180)" fill="#21232a" font-size="30" font-family="OpenSans-Bold, Open Sans" font-weight="700"><tspan x="34.346" y="32">Remote </tspan><tspan x="38.455" y="66">control</tspan><tspan x="34.009" y="100">of plant</tspan><tspan x="10.256" y="134">equipment</tspan></text>
    <text id="Energy_management_system_to_optimise_plant_technical_operations" data-name="Energy management
system to optimise
plant technical
operations" transform="translate(1251 2180)" fill="#21232a" font-size="30" font-family="OpenSans-Bold, Open Sans" font-weight="700"><tspan x="81.56" y="32">Energy </tspan><tspan x="32.495" y="66">management</tspan><tspan x="59.258" y="100">system to </tspan><tspan x="67.007" y="134">optimise</tspan><tspan x="20.374" y="168">plant technical</tspan><tspan x="51.296" y="202">operations</tspan></text>
    <g id="Data_analysis-research-analysis-report-presentation" data-name="Data analysis-research-analysis-report-presentation" transform="translate(429.455 2432.996)">
      <path id="Path_5062" data-name="Path 5062" d="M34.137,15.642H45.505a1.137,1.137,0,0,0,1.137-1.137A12.52,12.52,0,0,0,34.137,2,1.137,1.137,0,0,0,33,3.137V14.505A1.137,1.137,0,0,0,34.137,15.642ZM35.274,4.336a10.254,10.254,0,0,1,9.032,9.032H35.274Z" transform="translate(4.242 0)" fill="#707070"/>
      <path id="Path_5063" data-name="Path 5063" d="M49.978,4.274h7.487V2H49.507a1.137,1.137,0,0,0-.8.333L45.293,5.744,46.9,7.351Z" transform="translate(5.924 0)" fill="#707070"/>
      <path id="Path_5064" data-name="Path 5064" d="M58,2h4.547V4.274H58Z" transform="translate(7.663 0)" fill="#707070"/>
      <path id="Path_5065" data-name="Path 5065" d="M18.565,7.351l1.607-1.607-3.41-3.41a1.137,1.137,0,0,0-.8-.333H8V4.274h7.487Z" transform="translate(0.821 0)" fill="#707070"/>
      <path id="Path_5066" data-name="Path 5066" d="M2,2H6.547V4.274H2Z" transform="translate(0 0)" fill="#707070"/>
      <path id="Path_5067" data-name="Path 5067" d="M50,8h9.095v2.274H50Z" transform="translate(6.568 0.821)" fill="#707070"/>
      <path id="Path_5068" data-name="Path 5068" d="M60,8h2.274v2.274H60Z" transform="translate(7.936 0.821)" fill="#707070"/>
      <path id="Path_5069" data-name="Path 5069" d="M2,8H15.642v2.274H2Z" transform="translate(0 0.821)" fill="#707070"/>
      <path id="Path_5070" data-name="Path 5070" d="M26.487,36.37H19v2.274h7.958a1.137,1.137,0,0,0,.8-.333L31.172,34.9l-1.607-1.607Z" transform="translate(2.326 4.282)" fill="#707070"/>
      <path id="Path_5071" data-name="Path 5071" d="M13,36h4.547v2.274H13Z" transform="translate(1.505 4.652)" fill="#707070"/>
      <path id="Path_5072" data-name="Path 5072" d="M13,30H26.642v2.274H13Z" transform="translate(1.505 3.831)" fill="#707070"/>
      <path id="Path_5073" data-name="Path 5073" d="M69.252,32.147A14.764,14.764,0,0,0,45.174,20.676a12.439,12.439,0,0,0,.2-2.171,1.137,1.137,0,0,0-1.137-1.137H34.01V7.137A1.137,1.137,0,0,0,32.873,6a12.518,12.518,0,0,0-12.016,9.095H14.684A5.684,5.684,0,0,0,9,20.779V50.336a5.684,5.684,0,0,0,5.684,5.684H30.6v6.821h-3.41a3.421,3.421,0,0,0-3.41,3.41v2.274a1.137,1.137,0,0,0,1.137,1.137H45.379a1.137,1.137,0,0,0,1.137-1.137V66.252a3.421,3.421,0,0,0-3.41-3.41h-3.41V56.021h9.095v7.958a5.684,5.684,0,1,0,11.368,0V50.336A1.137,1.137,0,0,0,59.021,49.2H57.884V46.517a14.807,14.807,0,0,0,11.368-14.37ZM31.737,8.342V18.505a1.137,1.137,0,0,0,1.137,1.137H43.037a10.231,10.231,0,1,1-11.3-11.3ZM43.1,65.115a1.137,1.137,0,0,1,1.137,1.137v1.137H26.052V66.252a1.137,1.137,0,0,1,1.137-1.137ZM32.873,62.842V56.021h4.547v6.821ZM49.926,49.2a1.137,1.137,0,0,0-1.137,1.137v3.41h-34.1a3.421,3.421,0,0,1-3.41-3.41V49.2H46.515V46.926H11.274V20.779a3.421,3.421,0,0,1,3.41-3.41h5.741c-.034.375-.057.75-.057,1.137A12.493,12.493,0,0,0,40.126,28.68a14.551,14.551,0,0,0-.432,3.467,14.807,14.807,0,0,0,11.368,14.37V49.2Zm7.958,14.779a3.41,3.41,0,0,1-6.821,0V51.473h6.821ZM53.336,49.2V46.869c.375.023.75.057,1.137.057s.762-.034,1.137-.057V49.2Zm1.137-4.547A12.505,12.505,0,1,1,66.978,32.147,12.505,12.505,0,0,1,54.473,44.652Z" transform="translate(0.958 0.547)" fill="#707070"/>
      <path id="Path_5074" data-name="Path 5074" d="M50.231,20A10.231,10.231,0,1,0,60.463,30.231,10.231,10.231,0,0,0,50.231,20Zm0,18.189a7.958,7.958,0,1,1,7.958-7.958,7.958,7.958,0,0,1-7.958,7.958Z" transform="translate(5.2 2.463)" fill="#707070"/>
      <path id="Path_5075" data-name="Path 5075" d="M44,29.684h2.274a3.41,3.41,0,0,1,3.41-3.41V24A5.691,5.691,0,0,0,44,29.684Z" transform="translate(5.747 3.01)" fill="#707070"/>
      <path id="Path_5076" data-name="Path 5076" d="M48,48h2.274v2.274H48Z" transform="translate(6.294 6.294)" fill="#707070"/>
      <path id="Path_5077" data-name="Path 5077" d="M48,52h2.274v6.821H48Z" transform="translate(6.294 6.842)" fill="#707070"/>
    </g>
    <g id="green-energy" transform="translate(1338.773 2421.007)">
      <path id="Path_5078" data-name="Path 5078" d="M328,256h2.133v2.133H328Z" transform="translate(-270.508 -208.014)" fill="#707070"/>
      <path id="Path_5079" data-name="Path 5079" d="M328,288h2.133v2.133H328Z" transform="translate(-270.508 -235.748)" fill="#707070"/>
      <path id="Path_5080" data-name="Path 5080" d="M328,320h2.133v2.133H328Z" transform="translate(-270.508 -263.482)" fill="#707070"/>
      <path id="Path_5081" data-name="Path 5081" d="M168,256h2.133v2.133H168Z" transform="translate(-131.836 -208.014)" fill="#707070"/>
      <path id="Path_5082" data-name="Path 5082" d="M168,288h2.133v2.133H168Z" transform="translate(-131.836 -235.748)" fill="#707070"/>
      <path id="Path_5083" data-name="Path 5083" d="M168,320h2.133v2.133H168Z" transform="translate(-131.836 -263.482)" fill="#707070"/>
      <path id="Path_5084" data-name="Path 5084" d="M232,192h2.133v2.133H232Z" transform="translate(-187.305 -152.545)" fill="#707070"/>
      <path id="Path_5085" data-name="Path 5085" d="M248,160h2.133v2.133H248Z" transform="translate(-201.172 -124.811)" fill="#707070"/>
      <path id="Path_5086" data-name="Path 5086" d="M264,192h2.133v2.133H264Z" transform="translate(-215.039 -152.545)" fill="#707070"/>
      <path id="Path_5087" data-name="Path 5087" d="M232,224h2.133v2.133H232Z" transform="translate(-187.305 -180.279)" fill="#707070"/>
      <path id="Path_5088" data-name="Path 5088" d="M264,224h2.133v2.133H264Z" transform="translate(-215.039 -180.279)" fill="#707070"/>
      <path id="Path_5089" data-name="Path 5089" d="M232,256h2.133v2.133H232Z" transform="translate(-187.305 -208.014)" fill="#707070"/>
      <path id="Path_5090" data-name="Path 5090" d="M264,256h2.133v2.133H264Z" transform="translate(-215.039 -208.014)" fill="#707070"/>
      <path id="Path_5091" data-name="Path 5091" d="M232,288h2.133v2.133H232Z" transform="translate(-187.305 -235.748)" fill="#707070"/>
      <path id="Path_5092" data-name="Path 5092" d="M264,288h2.133v2.133H264Z" transform="translate(-215.039 -235.748)" fill="#707070"/>
      <path id="Path_5093" data-name="Path 5093" d="M232,320h2.133v2.133H232Z" transform="translate(-187.305 -263.482)" fill="#707070"/>
      <path id="Path_5094" data-name="Path 5094" d="M264,320h2.133v2.133H264Z" transform="translate(-215.039 -263.482)" fill="#707070"/>
      <path id="Path_5095" data-name="Path 5095" d="M198.4,42.133a26.643,26.643,0,0,1,8.2,1.286l.656-2.03a28.946,28.946,0,0,0-17.718,0l.656,2.03A26.643,26.643,0,0,1,198.4,42.133Z" transform="translate(-150.506 -20.807)" fill="#707070"/>
      <path id="Path_5096" data-name="Path 5096" d="M41.389,189.541a28.949,28.949,0,0,0,0,17.718l2.03-.656a26.815,26.815,0,0,1,0-16.407Z" transform="translate(-20.899 -150.414)" fill="#707070"/>
      <path id="Path_5097" data-name="Path 5097" d="M198.4,447.641a26.643,26.643,0,0,1-8.2-1.286l-.656,2.03a28.945,28.945,0,0,0,17.718,0l-.656-2.03A26.643,26.643,0,0,1,198.4,447.641Z" transform="translate(-150.506 -372.994)" fill="#707070"/>
      <path id="Path_5098" data-name="Path 5098" d="M448.385,207.259a28.949,28.949,0,0,0,0-17.718l-2.03.656a26.814,26.814,0,0,1,0,16.407Z" transform="translate(-373.086 -150.414)" fill="#707070"/>
      <path id="Path_5099" data-name="Path 5099" d="M27.73,39.455a11.731,11.731,0,1,0-9.384-18.771l1.706,1.281a9.554,9.554,0,1,1-.96,1.571l-1.92-.932A11.62,11.62,0,0,0,16,27.725,11.744,11.744,0,0,0,27.73,39.455Z" transform="translate(-0.098 0)" fill="#707070"/>
      <path id="Path_5100" data-name="Path 5100" d="M331.731,39.461A11.731,11.731,0,1,0,320,27.731,11.731,11.731,0,0,0,331.731,39.461Zm0-21.328a9.6,9.6,0,1,1-9.6,9.6A9.6,9.6,0,0,1,331.731,18.133Z" transform="translate(-263.574 -0.006)" fill="#707070"/>
      <path id="Path_5101" data-name="Path 5101" d="M68.156,139.726a11.673,11.673,0,0,0-4.266.8V129.062a1.066,1.066,0,0,0-.5-.9l-8.03-5.019V118.4a1.066,1.066,0,0,0-.384-.819l-6.4-5.332a1.066,1.066,0,0,0-1.366,0l-6.4,5.332a1.066,1.066,0,0,0-.384.819v4.741l-8.03,5.019a1.066,1.066,0,0,0-.5.9v11.467a11.738,11.738,0,1,0,6.182,5.6H57.709a11.731,11.731,0,0,0,20.608,11.2l-1.846-1.068a9.547,9.547,0,1,1,.844-1.918l2.035.639a11.739,11.739,0,0,0-11.193-15.25ZM27.633,161.054a9.6,9.6,0,1,1,9.6-9.6A9.6,9.6,0,0,1,27.633,161.054Zm6.4-19.425V129.653l6.4-4v18.338H36.675A11.825,11.825,0,0,0,34.031,141.629ZM42.562,118.9l5.332-4.443,5.332,4.443v25.094H42.562Zm16.552,25.094H55.359V125.654l6.4,4v11.976A11.825,11.825,0,0,0,59.114,143.992Z" transform="translate(0 -83.208)" fill="#707070"/>
      <path id="Path_5102" data-name="Path 5102" d="M75.351,59.884l-3.2,5.332a1.066,1.066,0,0,0,.914,1.615h3.449l-2.23,3.717,1.829,1.1,3.2-5.332A1.066,1.066,0,0,0,78.4,64.7H74.95l2.23-3.717Z" transform="translate(-48.633 -38.04)" fill="#707070"/>
      <path id="Path_5103" data-name="Path 5103" d="M371.851,74.351l2-2a6.4,6.4,0,0,0,7.911-6.219,6.488,6.488,0,0,0-.047-.766,1.066,1.066,0,0,0-.64-.854,6.4,6.4,0,0,0-8.911,5.886c0,.193.01.393.029.6l-1.849,1.849Zm6.711-8.219a4.258,4.258,0,0,1,1.064.133,4.27,4.27,0,0,1-5.328,4A4.271,4.271,0,0,1,378.562,66.132Z" transform="translate(-307.207 -41.607)" fill="#707070"/>
      <path id="Path_5104" data-name="Path 5104" d="M96,432h2.133v2.133H96Z" transform="translate(-69.434 -360.553)" fill="#707070"/>
      <path id="Path_5105" data-name="Path 5105" d="M75.353,401.217l1.239,1.736a4.468,4.468,0,0,1,5.16,0l1.238-1.737A6.6,6.6,0,0,0,75.353,401.217Z" transform="translate(-51.539 -332.818)" fill="#707070"/>
      <path id="Path_5106" data-name="Path 5106" d="M50.7,370.687l1.413,1.6a8.6,8.6,0,0,1,11.384,0l1.413-1.6A10.737,10.737,0,0,0,50.7,370.687Z" transform="translate(-30.172 -305.084)" fill="#707070"/>
      <path id="Path_5107" data-name="Path 5107" d="M421.173,409.725a1.066,1.066,0,0,0,.047-1.038l-2.133-4.266-1.908.954,1.361,2.722H416v2.133h4.266A1.066,1.066,0,0,0,421.173,409.725Z" transform="translate(-346.777 -336.651)" fill="#707070"/>
      <path id="Path_5108" data-name="Path 5108" d="M362.246,404.422l-2.133,4.266a1.066,1.066,0,0,0,.954,1.543h4.266V408.1h-2.54l1.361-2.722Z" transform="translate(-298.242 -336.651)" fill="#707070"/>
      <path id="Path_5109" data-name="Path 5109" d="M389.111,357.809a1.066,1.066,0,0,0,1.708.277l2.133-2.133-1.508-1.508-1.087,1.087-1.471-2.942a1.066,1.066,0,0,0-1.907,0l-2.133,4.266,1.907.954,1.179-2.358Z" transform="translate(-319.775 -291.217)" fill="#707070"/>
    </g>
    <g id="outline" transform="translate(1041.66 2431.685)">
      <path id="Path_5110" data-name="Path 5110" d="M3.069,64.066H30.859A1.069,1.069,0,0,0,31.928,63V38.413a1.069,1.069,0,0,0-.685-1l-13.9-5.344a1.09,1.09,0,0,0-.767,0l-13.9,5.344a1.069,1.069,0,0,0-.685,1V63A1.069,1.069,0,0,0,3.069,64.066ZM4.138,39.147l12.826-4.934,12.826,4.934V43.27L17.348,38.484a1.078,1.078,0,0,0-.767,0L4.138,43.27Zm0,6.413,12.826-4.934,12.826,4.934V61.928H4.138Z" transform="translate(0 2.066)" fill="#707070"/>
      <path id="Path_5111" data-name="Path 5111" d="M26.551,48.275a4.275,4.275,0,1,0-4.275,4.275A4.275,4.275,0,0,0,26.551,48.275Zm-4.275,2.138a2.138,2.138,0,1,1,2.138-2.138A2.138,2.138,0,0,1,22.275,50.413Z" transform="translate(1.102 2.892)" fill="#707070"/>
      <path id="Path_5112" data-name="Path 5112" d="M18,54.138v3.207a1.069,1.069,0,0,0,1.069,1.069h6.413a1.069,1.069,0,0,0,1.069-1.069V54.138A2.138,2.138,0,0,0,24.413,52H20.138A2.138,2.138,0,0,0,18,54.138Zm6.413,0v2.138H20.138V54.138Z" transform="translate(1.102 3.443)" fill="#707070"/>
      <path id="Path_5113" data-name="Path 5113" d="M15.62,46H7.069A1.069,1.069,0,0,0,6,47.069v6.413a1.069,1.069,0,0,0,1.069,1.069H8.907L8.17,57.5a1.069,1.069,0,0,0,1.037,1.328h4.275A1.069,1.069,0,0,0,14.519,57.5l-.738-2.948H15.62a1.069,1.069,0,0,0,1.069-1.069V47.069A1.069,1.069,0,0,0,15.62,46ZM10.576,56.689l.534-2.138h.468l.534,2.138Zm3.975-4.275H8.138V48.138h6.413Z" transform="translate(0.275 3.03)" fill="#707070"/>
      <path id="Path_5114" data-name="Path 5114" d="M55.62,46H47.069A1.069,1.069,0,0,0,46,47.069v6.413a1.069,1.069,0,0,0,1.069,1.069h1.838L48.17,57.5a1.069,1.069,0,0,0,1.037,1.328h4.275A1.069,1.069,0,0,0,54.519,57.5l-.738-2.948H55.62a1.069,1.069,0,0,0,1.069-1.069V47.069A1.069,1.069,0,0,0,55.62,46ZM50.576,56.689l.534-2.138h.468l.534,2.138Zm3.975-4.275H48.138V48.138h6.413Z" transform="translate(3.03 3.03)" fill="#707070"/>
      <path id="Path_5115" data-name="Path 5115" d="M21,13.758A11.758,11.758,0,1,0,32.758,2,11.758,11.758,0,0,0,21,13.758ZM29.972,4.55a18.534,18.534,0,0,0-2.821,4.932H24.142a9.664,9.664,0,0,1,5.83-4.932Zm-6.834,9.207a9.589,9.589,0,0,1,.249-2.138h3.171a10.957,10.957,0,0,0,0,4.275H23.387a9.589,9.589,0,0,1-.249-2.138Zm1,4.275h3.009a18.534,18.534,0,0,0,2.821,4.932,9.664,9.664,0,0,1-5.83-4.932Zm7.546,3.643a17.29,17.29,0,0,1-2.224-3.643h2.224Zm0-5.78H28.742a8.927,8.927,0,0,1,0-4.275h2.947Zm0-6.413H29.464a17.29,17.29,0,0,1,2.224-3.643Zm3.854,13.483a18.534,18.534,0,0,0,2.821-4.932h3.009a9.664,9.664,0,0,1-5.83,4.932Zm6.834-9.207a9.589,9.589,0,0,1-.249,2.138H38.957a10.957,10.957,0,0,0,0-4.275h3.168A9.589,9.589,0,0,1,42.377,13.758Zm-1-4.275H38.364A18.534,18.534,0,0,0,35.543,4.55,9.664,9.664,0,0,1,41.373,9.482ZM33.826,5.839a17.29,17.29,0,0,1,2.224,3.643H33.826Zm0,5.78h2.947a8.927,8.927,0,0,1,0,4.275H33.826Zm0,6.413h2.224a17.29,17.29,0,0,1-2.224,3.643Z" transform="translate(1.308 0)" fill="#707070"/>
      <path id="Path_5116" data-name="Path 5116" d="M63,26H41.62a1.069,1.069,0,0,0-1.069,1.069V45.24H33.069A1.069,1.069,0,0,0,32,46.308v17.1a1.069,1.069,0,0,0,1.069,1.069H63a1.069,1.069,0,0,0,1.069-1.069V27.069A1.069,1.069,0,0,0,63,26ZM40.551,62.342H34.138V47.377h6.413Zm21.377,0H42.689v-34.2h19.24Z" transform="translate(2.066 1.653)" fill="#707070"/>
      <rect id="Rectangle_920" data-name="Rectangle 920" width="2.682" height="1.341" transform="translate(38.213 51.379)" fill="#707070"/>
      <rect id="Rectangle_921" data-name="Rectangle 921" width="2.682" height="2.682" transform="translate(38.213 55.402)" fill="#707070"/>
      <rect id="Rectangle_922" data-name="Rectangle 922" width="2.682" height="2.682" transform="translate(38.213 59.426)" fill="#707070"/>
      <path id="Path_5117" data-name="Path 5117" d="M45.069,36.413h4.275a1.069,1.069,0,0,0,1.069-1.069V31.069A1.069,1.069,0,0,0,49.344,30H45.069A1.069,1.069,0,0,0,44,31.069v4.275A1.069,1.069,0,0,0,45.069,36.413Zm1.069-4.275h2.138v2.138H46.138Z" transform="translate(2.892 1.928)" fill="#707070"/>
      <path id="Path_5118" data-name="Path 5118" d="M53.069,36.413h4.275a1.069,1.069,0,0,0,1.069-1.069V31.069A1.069,1.069,0,0,0,57.344,30H53.069A1.069,1.069,0,0,0,52,31.069v4.275A1.069,1.069,0,0,0,53.069,36.413Zm1.069-4.275h2.138v2.138H54.138Z" transform="translate(3.443 1.928)" fill="#707070"/>
      <path id="Path_5119" data-name="Path 5119" d="M45.069,44.413h4.275a1.069,1.069,0,0,0,1.069-1.069V39.069A1.069,1.069,0,0,0,49.344,38H45.069A1.069,1.069,0,0,0,44,39.069v4.275A1.069,1.069,0,0,0,45.069,44.413Zm1.069-4.275h2.138v2.138H46.138Z" transform="translate(2.892 2.479)" fill="#707070"/>
      <path id="Path_5120" data-name="Path 5120" d="M53.069,44.413h4.275a1.069,1.069,0,0,0,1.069-1.069V39.069A1.069,1.069,0,0,0,57.344,38H53.069A1.069,1.069,0,0,0,52,39.069v4.275A1.069,1.069,0,0,0,53.069,44.413Zm1.069-4.275h2.138v2.138H54.138Z" transform="translate(3.443 2.479)" fill="#707070"/>
      <path id="Path_5121" data-name="Path 5121" d="M51.413,12H45v2.138h5.344v7.041L48.961,19.8,47.45,21.307l3.207,3.207a1.069,1.069,0,0,0,1.511,0l3.207-3.207L53.863,19.8l-1.381,1.383v-8.11A1.069,1.069,0,0,0,51.413,12Z" transform="translate(2.961 0.689)" fill="#707070"/>
      <path id="Path_5122" data-name="Path 5122" d="M15,13.069V31.24h2.138v-17.1h2.138V12H16.069A1.069,1.069,0,0,0,15,13.069Z" transform="translate(0.895 0.689)" fill="#707070"/>
    </g>
    <g id="Group_2852" data-name="Group 2852" transform="translate(-156.43 833.122)">
      <path id="Path_5124" data-name="Path 5124" d="M158,438h33v2.35H158Z" transform="translate(766.412 1221.214)" fill="#707070"/>
      <path id="Path_5125" data-name="Path 5125" d="M384,86h11.751v2.35H384Z" transform="translate(561.665 1521.51)" fill="#707070"/>
      <path id="Path_5126" data-name="Path 5126" d="M395.751,17.751H384V6" transform="translate(561.665 1589.759)" fill="#707070"/>
      <path id="Path_5127" data-name="Path 5127" d="M192,150h4.7v4.7H192Z" transform="translate(725.462 1466.911)" fill="#707070"/>
      <path id="Path_5128" data-name="Path 5128" d="M192,230h4.7v4.7H192Z" transform="translate(725.462 1398.662)" fill="#707070"/>
      <ellipse id="Ellipse_428" data-name="Ellipse 428" cx="14.782" cy="14.078" rx="14.782" ry="14.078" transform="translate(896.242 1640.993)" fill="none"/>
      <path id="Path_5129" data-name="Path 5129" d="M62.1,414.926A14.1,14.1,0,0,1,48.05,402c-.032.388-.049.779-.049,1.175a14.1,14.1,0,1,0,28.2,0c0-.4-.017-.788-.049-1.175A14.1,14.1,0,0,1,62.1,414.926Z" transform="translate(848.31 1251.926)" fill="#707070"/>
      <circle id="Ellipse_429" data-name="Ellipse 429" cx="4.927" cy="4.927" r="4.927" transform="translate(906.096 1649.44)" fill="#707070"/>
      <path id="Path_5130" data-name="Path 5130" d="M92.521,442a9.4,9.4,0,0,0-8.863,6.266,14.1,14.1,0,0,0,17.727,0A9.4,9.4,0,0,0,92.521,442Z" transform="translate(817.891 1217.802)" fill="#707070"/>
      <path id="Path_5131" data-name="Path 5131" d="M93.181,477.715q.271-.013.54-.035l.1-.009c.181-.017.361-.036.541-.059l.06-.008q.272-.037.54-.083l.031-.005c.182-.032.363-.069.543-.108l.076-.017q.265-.059.526-.128l.065-.017q.553-.149,1.089-.341l.022-.008q.265-.1.525-.2l.044-.018q.261-.107.518-.225l.012-.006q.531-.245,1.038-.531l0,0q.252-.143.5-.3l.01-.006a14.156,14.156,0,0,0,1.424-1.013,9.361,9.361,0,0,0-.823-1.733,14.1,14.1,0,0,1-16.081,0,9.361,9.361,0,0,0-.823,1.733,14.169,14.169,0,0,0,1.424,1.013l.01.006q.246.153.5.3l0,0q.507.286,1.038.531l.012.006q.256.118.518.225l.044.018q.26.106.525.2l.022.008q.535.192,1.089.341l.065.017q.261.069.526.128l.076.017c.18.039.361.076.543.108l.031.005q.268.047.54.083l.06.008c.179.023.359.043.541.059l.1.009q.269.023.54.035l.089,0c.189.008.379.013.57.013s.381,0,.57-.013Z" transform="translate(817.891 1191.471)" fill="#707070"/>
      <path id="Path_5132" data-name="Path 5132" d="M92.6,0H56.1V45.267a14.982,14.982,0,1,0,13.936,22.3h34.83v-55.3Zm.516,3.009,8.742,8.742H93.116ZM56.982,73.443a13.148,13.148,0,0,1-7.8-2.552,8.522,8.522,0,0,1,15.6,0A13.148,13.148,0,0,1,56.982,73.443Zm-3.819-13.22a3.819,3.819,0,1,1,3.819,3.819A3.823,3.823,0,0,1,53.163,60.223Zm13.012,9.49a10.252,10.252,0,0,0-5.769-5.087,5.582,5.582,0,1,0-6.848,0,10.251,10.251,0,0,0-5.769,5.087,13.22,13.22,0,1,1,18.385,0ZM103.1,65.8H70.886A14.98,14.98,0,0,0,57.864,45.267V1.763h33.49V13.513H103.1Z" transform="translate(853.43 1594.878)" fill="#707070"/>
      <path id="Path_5133" data-name="Path 5133" d="M192,64h23.5v1.763H192Z" transform="translate(725.462 1540.279)" fill="#707070"/>
      <path id="Path_5134" data-name="Path 5134" d="M192,96h18.8v1.763H192Z" transform="translate(725.462 1512.979)" fill="#707070"/>
      <path id="Path_5135" data-name="Path 5135" d="M186,150.463h6.463V144H186Zm1.763-4.7H190.7V148.7h-2.938Z" transform="translate(730.581 1472.03)" fill="#707070"/>
      <path id="Path_5136" data-name="Path 5136" d="M256,176h18.8v1.763H256Z" transform="translate(670.863 1444.73)" fill="#707070"/>
      <path id="Path_5137" data-name="Path 5137" d="M256,144h23.5v1.763H256Z" transform="translate(670.863 1472.03)" fill="#707070"/>
      <path id="Path_5138" data-name="Path 5138" d="M186,230.463h6.463V224H186Zm1.763-4.7H190.7V228.7h-2.938Z" transform="translate(730.581 1403.781)" fill="#707070"/>
      <path id="Path_5139" data-name="Path 5139" d="M256,256h18.8v1.763H256Z" transform="translate(670.863 1376.481)" fill="#707070"/>
      <path id="Path_5140" data-name="Path 5140" d="M256,224h23.5v1.763H256Z" transform="translate(670.863 1403.781)" fill="#707070"/>
      <path id="Path_5141" data-name="Path 5141" d="M256,336h18.8v1.763H256Z" transform="translate(670.863 1308.232)" fill="#707070"/>
      <path id="Path_5142" data-name="Path 5142" d="M256,304h23.5v1.763H256Z" transform="translate(670.863 1335.531)" fill="#707070"/>
    </g>
    <path id="Polygon_26" data-name="Polygon 26" d="M12,0,24,21H0Z" transform="matrix(-0.017, 1, -1, -0.017, 617.645, 2352.691)" fill="#eae5e5"/>
    <path id="Polygon_27" data-name="Polygon 27" d="M12,0,24,21H0Z" transform="matrix(-0.017, 1, -1, -0.017, 924.645, 2352.691)" fill="#eae5e5"/>
    <path id="Polygon_28" data-name="Polygon 28" d="M12,0,24,21H0Z" transform="matrix(-0.017, 1, -1, -0.017, 1231.645, 2352.691)" fill="#eae5e5"/>
  </g>
</svg>
