<svg xmlns="http://www.w3.org/2000/svg" width="1119.5" height="1090.5" viewBox="0 0 1119.5 1090.5">
  <g id="Group_3207" data-name="Group 3207" transform="translate(-21809 -10020)">
    <rect id="Rectangle_1046" data-name="Rectangle 1046" width="1073" height="1088" transform="translate(21809 10020)" fill="#fff"/>
    <g id="Group_3206" data-name="Group 3206" transform="translate(-5 2)">
      <g id="seo-report_2_" data-name="seo-report (2)" transform="translate(21890 10440.872)">
        <path id="Path_5177" data-name="Path 5177" d="M259.825,110.414h14.321a1.03,1.03,0,1,0,0-2.061H259.825a1.03,1.03,0,1,0,0,2.061Z" transform="translate(-229.909 -92.35)" fill="#707070"/>
        <path id="Path_5178" data-name="Path 5178" d="M258.8,142.018a1.03,1.03,0,0,0,1.03,1.03h14.321a1.03,1.03,0,0,0,0-2.061H259.825A1.03,1.03,0,0,0,258.8,142.018Z" transform="translate(-229.909 -120.165)" fill="#707070"/>
        <path id="Path_5179" data-name="Path 5179" d="M259.825,175.684h14.321a1.03,1.03,0,0,0,0-2.061H259.825a1.03,1.03,0,1,0,0,2.061Z" transform="translate(-229.909 -147.98)" fill="#707070"/>
        <path id="Path_5180" data-name="Path 5180" d="M281,356.783a1.03,1.03,0,0,0-1.03-1.03H266.651a1.03,1.03,0,0,0,0,2.061h13.313A1.03,1.03,0,0,0,281,356.783Z" transform="translate(-235.727 -303.21)" fill="#707070"/>
        <path id="Path_5181" data-name="Path 5181" d="M123.96,288.709a1.03,1.03,0,0,0-1.03-1.03H108.608a1.03,1.03,0,0,0,0,2.061H122.93A1.03,1.03,0,0,0,123.96,288.709Z" transform="translate(-101.026 -245.19)" fill="#707070"/>
        <path id="Path_5182" data-name="Path 5182" d="M108.608,257.106H122.93a1.03,1.03,0,1,0,0-2.061H108.608a1.03,1.03,0,0,0,0,2.061Z" transform="translate(-101.026 -217.376)" fill="#707070"/>
        <path id="Path_5183" data-name="Path 5183" d="M110.76,72.694a10.679,10.679,0,1,0,10.679,10.679A10.691,10.691,0,0,0,110.76,72.694Zm0,19.142a8.463,8.463,0,0,1-1.108-16.854v8.391a1.108,1.108,0,0,0,1.108,1.108h8.391A8.476,8.476,0,0,1,110.76,91.836Zm1.108-9.571V74.982a8.482,8.482,0,0,1,7.283,7.283Z" transform="translate(-94.636 -61.957)" fill="#707070"/>
        <path id="Path_5184" data-name="Path 5184" d="M236.417,234.5v9.891a1.8,1.8,0,0,0,1.795,1.795h17.206a1.8,1.8,0,0,0,1.795-1.795V234.5a1.8,1.8,0,0,0-1.795-1.795H238.212a1.8,1.8,0,0,0-1.794,1.795Zm2.215.421H255v9.05H238.632Z" transform="translate(-210.836 -198.333)" fill="#707070"/>
        <path id="Path_5185" data-name="Path 5185" d="M100.078,352.9a1.8,1.8,0,0,0,1.794,1.795h3.01a1.8,1.8,0,0,0,1.795-1.795V337.877a1.8,1.8,0,0,0-1.795-1.794h-3.01a1.8,1.8,0,0,0-1.794,1.794Zm2.215-14.6h2.168v14.184h-2.168Z" transform="translate(-94.633 -286.444)" fill="#707070"/>
        <path id="Path_5186" data-name="Path 5186" d="M157.243,362.775a1.8,1.8,0,0,0-1.795,1.795v11.083a1.8,1.8,0,0,0,1.795,1.795h3.01a1.8,1.8,0,0,0,1.795-1.795V364.57a1.8,1.8,0,0,0-1.795-1.795Zm2.589,12.457h-2.168V364.99h2.168Z" transform="translate(-141.826 -309.195)" fill="#707070"/>
        <path id="Path_5187" data-name="Path 5187" d="M212.613,405.792h3.01A1.8,1.8,0,0,0,217.417,404v-6.171a1.8,1.8,0,0,0-1.795-1.795h-3.01a1.8,1.8,0,0,0-1.795,1.795V404A1.8,1.8,0,0,0,212.613,405.792Zm.421-7.545H215.2v5.33h-2.168Z" transform="translate(-189.018 -337.539)" fill="#707070"/>
        <path id="Path_5188" data-name="Path 5188" d="M279.964,390.03H266.65a1.03,1.03,0,1,0,0,2.061h13.313a1.03,1.03,0,0,0,0-2.061Z" transform="translate(-235.726 -332.424)" fill="#707070"/>
        <path id="Path_5189" data-name="Path 5189" d="M279.964,424.307H266.65a1.03,1.03,0,1,0,0,2.061h13.313a1.03,1.03,0,0,0,0-2.061Z" transform="translate(-235.726 -361.639)" fill="#707070"/>
        <path id="Path_5190" data-name="Path 5190" d="M119.054,13.734a1.108,1.108,0,0,0,1.108-1.108V3.713A3.717,3.717,0,0,0,116.449,0h-44.4a3.717,3.717,0,0,0-3.713,3.713V5.126H66.928a3.717,3.717,0,0,0-3.713,3.713V56.3a1.108,1.108,0,1,0,2.215,0V8.839a1.5,1.5,0,0,1,1.5-1.5h44.4a1.5,1.5,0,0,1,1.5,1.5V71.907a1.5,1.5,0,0,1-1.5,1.5h-44.4a1.5,1.5,0,0,1-1.5-1.5V61.466a1.108,1.108,0,1,0-2.215,0V71.907a3.717,3.717,0,0,0,3.713,3.713h44.4a3.717,3.717,0,0,0,3.713-3.713V70.494h1.414a3.717,3.717,0,0,0,3.713-3.713V17.8a1.108,1.108,0,0,0-2.215,0V66.781a1.5,1.5,0,0,1-1.5,1.5h-1.414V8.839a3.717,3.717,0,0,0-3.713-3.713H70.557V3.713a1.5,1.5,0,0,1,1.5-1.5h44.4a1.5,1.5,0,0,1,1.5,1.5v8.914a1.108,1.108,0,0,0,1.108,1.108Z" transform="translate(-63.215 0)" fill="#707070"/>
      </g>
      <line id="Line_278" data-name="Line 278" y2="1047" transform="translate(22018 10041)" fill="none" stroke="#707070" stroke-width="1"/>
      <line id="Line_279" data-name="Line 279" x2="1024" transform="translate(21837 10213)" fill="none" stroke="#707070" stroke-width="1"/>
      <line id="Line_280" data-name="Line 280" x2="1024" transform="translate(21837 10388)" fill="none" stroke="#707070" stroke-width="1"/>
      <line id="Line_281" data-name="Line 281" x2="1024" transform="translate(21837 10563)" fill="none" stroke="#707070" stroke-width="1"/>
      <line id="Line_282" data-name="Line 282" x2="1024" transform="translate(21837 10738)" fill="none" stroke="#707070" stroke-width="1"/>
      <line id="Line_283" data-name="Line 283" x2="1023.961" transform="translate(21841.385 10913)" fill="none" stroke="#707070" stroke-width="1"/>
      <text id="Dashboard" transform="translate(22077.5 10088.5)" fill="#21232a" font-size="54" font-family="OpenSans-Bold, Open Sans" font-weight="700"><tspan x="0" y="58">Dashboard</tspan></text>
      <text id="Billing_Payment_Details" data-name="Billing &amp; Payment Details" transform="translate(22073.5 10263.5)" fill="#21232a" font-size="54" font-family="OpenSans-Bold, Open Sans" font-weight="700"><tspan x="0" y="58">Billing &amp; Payment Details</tspan></text>
      <text id="Energy_Consumption_Details" data-name="Energy Consumption Details" transform="translate(22073.5 10430.5)" fill="#21232a" font-size="54" font-family="OpenSans-Bold, Open Sans" font-weight="700"><tspan x="0" y="58">Energy Consumption Details</tspan></text>
      <text id="Package_Change_Request" data-name="Package Change Request" transform="translate(22074.5 10613.5)" fill="#21232a" font-size="54" font-family="OpenSans-Bold, Open Sans" font-weight="700"><tspan x="0" y="58">Package Change Request</tspan></text>
      <text id="Service_Request" data-name="Service Request" transform="translate(22077.5 10787.5)" fill="#21232a" font-size="54" font-family="OpenSans-Bold, Open Sans" font-weight="700"><tspan x="0" y="58">Service Request</tspan></text>
      <text id="New_Connection_Request" data-name="New Connection Request" transform="translate(22077.5 10960.5)" fill="#21232a" font-size="54" font-family="OpenSans-Bold, Open Sans" font-weight="700"><tspan x="0" y="58">New Connection Request</tspan></text>
      <g id="home_1_" data-name="home (1)" transform="translate(21886 10097.5)">
        <g id="Group_2895" data-name="Group 2895" transform="translate(0 0)">
          <g id="Group_2894" data-name="Group 2894">
            <path id="Path_5221" data-name="Path 5221" d="M54.5,34.583a1.589,1.589,0,0,0-2.082.016l-4.338,3.882v-.509a1.078,1.078,0,1,0-2.155,0v2.439l-1.8,1.608a1.078,1.078,0,0,0,1.438,1.606l7.9-7.074,7.9,7.074a1.078,1.078,0,1,0,1.438-1.606Z" transform="translate(-38.376 -29.889)" fill="#707070"/>
            <path id="Path_5222" data-name="Path 5222" d="M74.8,119.52a1.078,1.078,0,0,0-1.078,1.078v7.544H62.942V120.6a1.078,1.078,0,1,0-2.155,0v8.228A1.49,1.49,0,0,0,62.3,130.3h12.07a1.494,1.494,0,0,0,1.509-1.474V120.6A1.078,1.078,0,0,0,74.8,119.52Z" transform="translate(-53.236 -104.432)" fill="#707070"/>
            <path id="Path_5223" data-name="Path 5223" d="M68.331,221.92a7.544,7.544,0,1,0,7.544,7.544A7.544,7.544,0,0,0,68.331,221.92Zm-5.389,7.544a5.4,5.4,0,0,1,4.311-5.281v4.67l-3.987,2.391A5.313,5.313,0,0,1,62.942,229.464Zm1.434,3.628,3.788-2.272,3.134,3.134A5.337,5.337,0,0,1,64.376,233.092Zm8.445-.662-3.413-3.412v-4.834a5.379,5.379,0,0,1,3.413,8.247Z" transform="translate(-53.236 -193.9)" fill="#707070"/>
            <path id="Path_5224" data-name="Path 5224" d="M268.007,49.275V45.586a1.7,1.7,0,0,0-1.7-1.7h-3.067a1.7,1.7,0,0,0-1.7,1.7v3.689h-2.155V42.518a1.867,1.867,0,0,0-1.864-1.864h-2.737a1.867,1.867,0,0,0-1.864,1.864v6.757h-2.155V37.42a2.155,2.155,0,0,0-2.155-2.155h-2.156A2.155,2.155,0,0,0,244.3,37.42V49.275H243.22a1.078,1.078,0,0,1-1.078-1.078V35.265a1.078,1.078,0,0,0-2.155,0V48.2a3.233,3.233,0,0,0,3.233,3.233h24.787a1.078,1.078,0,1,0,0-2.155Zm-19.4,0h-2.156V37.42h2.156Zm8.622,0h-2.155V42.809h2.155Zm8.622,0H263.7V46.042h2.155v3.233Z" transform="translate(-209.805 -29.876)" fill="#707070"/>
            <path id="Path_5225" data-name="Path 5225" d="M268.007,219.942H243.22a1.078,1.078,0,0,1-1.078-1.078v-1.709l3.549-3.549a1.1,1.1,0,0,1,1.524,0l1.263,1.263a3.233,3.233,0,0,0,4.572,0l4.5-4.5a1.1,1.1,0,0,1,1.524,0l1.263,1.264a3.24,3.24,0,0,0,4.572,0l3.865-3.865a1.078,1.078,0,0,0-1.524-1.524l-3.865,3.864a1.078,1.078,0,0,1-1.524,0l-1.263-1.263a3.311,3.311,0,0,0-4.572,0l-4.5,4.5a1.078,1.078,0,0,1-1.524,0l-1.262-1.263a3.312,3.312,0,0,0-4.573,0l-2.025,2.025v-8.176a1.078,1.078,0,1,0-2.155,0v12.932a3.233,3.233,0,0,0,3.233,3.233h24.787a1.078,1.078,0,1,0,0-2.155Z" transform="translate(-209.805 -178.989)" fill="#707070"/>
            <path id="Path_5226" data-name="Path 5226" d="M65.669,50.117V6.029A5.712,5.712,0,0,0,60.28.053H6.4A5.712,5.712,0,0,0,1.007,6.029V50.117A5.712,5.712,0,0,0,6.4,56.094H23.639v2.155H19.328a4.311,4.311,0,0,0-4.311,4.311v1.078a1.078,1.078,0,0,0,1.078,1.078H50.581a1.078,1.078,0,0,0,1.078-1.078V62.56a4.311,4.311,0,0,0-4.311-4.311H43.037V56.094H60.281A5.712,5.712,0,0,0,65.669,50.117ZM47.348,60.4A2.155,2.155,0,0,1,49.5,62.56H17.172A2.155,2.155,0,0,1,19.328,60.4ZM25.794,58.249V56.094H40.882v2.155ZM60.28,53.938H6.4a3.569,3.569,0,0,1-3.233-3.822V47.472H63.514v2.645A3.569,3.569,0,0,1,60.28,53.938ZM63.514,6.029V45.317H3.162V6.029A3.568,3.568,0,0,1,6.4,2.208H60.281A3.568,3.568,0,0,1,63.514,6.029Z" transform="translate(-1 -0.053)" fill="#707070"/>
          </g>
        </g>
      </g>
      <g id="Group_3205" data-name="Group 3205" transform="translate(-1364.788 14)">
        <path id="Path_5478" data-name="Path 5478" d="M35.868,46.693A7.918,7.918,0,0,0,41.5,44.358l9.088-9.088h5.239a3.431,3.431,0,0,0,3.427-3.427V29.558a3.406,3.406,0,0,0-1.234-2.611,4.536,4.536,0,0,0,1.234-3.1V21.8a2.2,2.2,0,0,1,.985-1.873,10.282,10.282,0,1,0-11.084.016,2.247,2.247,0,0,1,.96,1.9v2.236a4.412,4.412,0,0,0-1.78,1.072l-2.788,2.788L36.382,37.11a20.7,20.7,0,0,0-6.463-4.066,23.435,23.435,0,0,0-4.147-.95,2.273,2.273,0,0,1-1.926-2.256V28.321a9.186,9.186,0,0,0,3.9-4.476h.673a4.558,4.558,0,0,0,3.731-7.192l.011-.024a7.827,7.827,0,0,0-3.5-10.5L28.4,6A5.125,5.125,0,0,0,23.29,1H15.85A8.006,8.006,0,0,0,7.869,8.509l-.224.224a7.088,7.088,0,0,0-1.712,7.251l.312.936a4.524,4.524,0,0,0-.675,2.358,4.574,4.574,0,0,0,4.569,4.569h.673a9.186,9.186,0,0,0,3.9,4.476V29.96a2.287,2.287,0,0,1-2,2.266l-3.232.4a9.72,9.72,0,0,0-5.641,2.76A9.605,9.605,0,0,0,1,42.231V60.4a3.431,3.431,0,0,0,3.427,3.427H6.712a3.389,3.389,0,0,0,1.142-.21v8.206H30.7V44.983l1.353.738a7.993,7.993,0,0,0,3.815.972ZM56.974,23.847a2.282,2.282,0,0,1-1.65,2.184,4.416,4.416,0,0,0-2.92-2.081v-.1ZM46.762,10.223a8.024,8.024,0,0,1,6.991-6.885,7.915,7.915,0,0,1,6.261,1.976,7.993,7.993,0,0,1-1.006,12.692,4.457,4.457,0,0,0-2.02,3.555h-4.6a4.454,4.454,0,0,0-2-3.545,7.965,7.965,0,0,1-3.627-7.794ZM49.956,26.77a2.193,2.193,0,0,1,1.54-.639,2.163,2.163,0,0,1,1.948,1.2l.54,1.081h1.848a1.143,1.143,0,0,1,1.142,1.142v2.285a1.143,1.143,0,0,1-1.142,1.142H50.593l-3.427-3.427Zm-26.407,11.6-2.739-2.192L22.9,33.042l.069.066ZM21.481,48.586l-2.2,2.2-2.2-2.2,1.72-10.324.483-.386.483.386ZM15.575,33.24c.043-.042.089-.081.131-.125l2.039,3.059-2.739,2.192ZM28.416,21.562h-.079a9.192,9.192,0,0,0,.079-1.142V16.993a2.285,2.285,0,1,1,0,4.569Zm-18.277,0a2.285,2.285,0,0,1,0-4.569V20.42a9.192,9.192,0,0,0,.079,1.142Zm.018-6.854h-.018a4.524,4.524,0,0,0-2.049.507A4.782,4.782,0,0,1,9.26,10.347l.878-.877V9A5.718,5.718,0,0,1,15.85,3.285h7.44a2.84,2.84,0,0,1,.9,5.535l-.7.234.722,2.168.7-.235a5.115,5.115,0,0,0,3-2.656,5.5,5.5,0,0,1,2.408,6.8,4.53,4.53,0,0,0-1.9-.427V12.423H23.243a20.588,20.588,0,0,1-9.167-2.165L13.566,10l-.511.256a5.239,5.239,0,0,0-2.9,4.448Zm2.266,5.712V14.977a2.977,2.977,0,0,1,1.2-2.4,22.887,22.887,0,0,0,9.616,2.13h2.888V20.42a6.854,6.854,0,0,1-13.708,0Zm6.854,9.139a9.084,9.084,0,0,0,2.285-.3v.58a4.567,4.567,0,0,0,.1.931l-2.389,3.583-2.363-3.546a4.612,4.612,0,0,0,.079-.846v-.7a9.084,9.084,0,0,0,2.285.3ZM5.449,37.006A7.425,7.425,0,0,1,9.758,34.9l3.232-.4c.053-.007.1-.025.151-.033L12.125,43.6l4-3.2-1.5,8.971,4.65,4.65,4.65-4.65-1.5-8.971,4,3.2L25.4,34.343c.018,0,.035.01.055.013a21.2,21.2,0,0,1,3.741.854,18.9,18.9,0,0,1,5.812,3.738l-.761,1.523,2.044,1.022,1.059-2.119,8.2-8.2L48.5,34.127l-8.615,8.615a5.649,5.649,0,0,1-4.021,1.666,5.709,5.709,0,0,1-2.722-.693L30.72,42.392a2.731,2.731,0,0,1,.788-1.744l-1.616-1.615A5.007,5.007,0,0,0,28.416,42.6V55.832H12.278a3.363,3.363,0,0,0-.837-1.455l-1.3-1.3V42.6a5.012,5.012,0,0,0-1.476-3.565L7.046,40.647a2.741,2.741,0,0,1,.808,1.95V52.4H3.285V42.231a7.441,7.441,0,0,1,2.165-5.225ZM6.712,61.543H4.427A1.143,1.143,0,0,1,3.285,60.4V54.689H8.523l1.3,1.3a1.079,1.079,0,0,1,.313.757,1.065,1.065,0,0,1-.592.957l-1.693.846V60.4a1.143,1.143,0,0,1-1.142,1.142Zm13.708,8V66.3a3.867,3.867,0,0,1,2.646-3.671l-.723-2.166a6.149,6.149,0,0,0-3.066,2.268A6.137,6.137,0,0,0,16.21,60.46l-.723,2.166A3.866,3.866,0,0,1,18.135,66.3V69.54h-8V59.965l.43-.215a3.34,3.34,0,0,0,1.566-1.634H28.416V69.54Z" transform="translate(23246.789 10949)" fill="#707070"/>
        <path id="Path_5479" data-name="Path 5479" d="M54.047,7.908,52.432,6.293l-6.046,6.046-1.477-1.477-1.615,1.615,3.092,3.092Z" transform="translate(23252.809 10949.753)" fill="#707070"/>
        <path id="Path_5480" data-name="Path 5480" d="M48.135,51.569V49.758a2.758,2.758,0,0,0-4.708-1.95l-3.762,3.762H34.427A3.431,3.431,0,0,0,31,55v4.569a3.431,3.431,0,0,0,3.427,3.427H48.135a3.431,3.431,0,0,0,3.427-3.427V55A3.431,3.431,0,0,0,48.135,51.569Zm1.142,8a1.143,1.143,0,0,1-1.142,1.142H34.427a1.143,1.143,0,0,1-1.142-1.142V55a1.143,1.143,0,0,1,1.142-1.142h6.185l4.43-4.43a.491.491,0,0,1,.809.334v4.1h2.285A1.143,1.143,0,0,1,49.277,55Z" transform="translate(23251.059 10955.547)" fill="#707070"/>
        <path id="Path_5481" data-name="Path 5481" d="M35,55H46.423v2.285H35Z" transform="translate(23251.629 10956.686)" fill="#707070"/>
        <path id="Path_5482" data-name="Path 5482" d="M62.135,33H48.427A3.431,3.431,0,0,0,45,36.427V41a3.431,3.431,0,0,0,3.427,3.427v1.812a2.758,2.758,0,0,0,4.708,1.95L56.9,44.423h5.239A3.431,3.431,0,0,0,65.562,41V36.427A3.431,3.431,0,0,0,62.135,33Zm1.142,8a1.143,1.143,0,0,1-1.142,1.142H55.95l-4.43,4.43a.491.491,0,0,1-.809-.334v-4.1H48.427A1.143,1.143,0,0,1,47.285,41V36.427a1.143,1.143,0,0,1,1.142-1.142H62.135a1.143,1.143,0,0,1,1.142,1.142Z" transform="translate(23253.051 10953.555)" fill="#707070"/>
        <path id="Path_5483" data-name="Path 5483" d="M49,37H60.423v2.285H49Z" transform="translate(23253.621 10954.124)" fill="#707070"/>
      </g>
      <g id="deposit" transform="translate(21878 10263.5)">
        <path id="Path_4342" data-name="Path 4342" d="M60.842,31h-43.4A1.447,1.447,0,0,0,16,32.447v43.4a1.446,1.446,0,0,0,1.447,1.447h43.4a1.446,1.446,0,0,0,1.447-1.447v-43.4A1.447,1.447,0,0,0,60.842,31ZM59.4,74.4h-40.5v-40.5H59.4Z" transform="translate(1.358 12.395)" fill="#707070"/>
        <path id="Path_4343" data-name="Path 4343" d="M20.447,67.27v2.893a1.446,1.446,0,0,0,1.447,1.447h33.27a1.446,1.446,0,0,0,1.447-1.447V35.447A1.446,1.446,0,0,0,55.163,34H21.893a1.446,1.446,0,0,0-1.447,1.447V38.34A1.446,1.446,0,0,0,19,39.786v8.679a1.446,1.446,0,0,0,1.447,1.447V55.7A1.446,1.446,0,0,0,19,57.144v8.679A1.446,1.446,0,0,0,20.447,67.27Zm1.447-20.251V41.233H23.34v5.786Zm1.447,2.893h1.447a1.446,1.446,0,0,0,1.447-1.447V39.786a1.446,1.446,0,0,0-1.447-1.447H23.34V36.893H53.716V68.716H23.34V67.27h1.447a1.446,1.446,0,0,0,1.447-1.447V57.144A1.446,1.446,0,0,0,24.786,55.7H23.34Zm-1.447,8.679H23.34v5.786H21.893Z" transform="translate(2.698 13.735)" fill="#707070"/>
        <path id="Path_4344" data-name="Path 4344" d="M37.019,64.037A13.019,13.019,0,1,0,24,51.019,13.034,13.034,0,0,0,37.019,64.037Zm0-23.144A10.126,10.126,0,1,1,26.893,51.019,10.138,10.138,0,0,1,37.019,40.893Z" transform="translate(4.931 15.521)" fill="#707070"/>
        <path id="Path_4345" data-name="Path 4345" d="M35.679,58.358A8.679,8.679,0,1,0,27,49.679,8.688,8.688,0,0,0,35.679,58.358Zm0-14.465a5.786,5.786,0,1,1-5.786,5.786A5.792,5.792,0,0,1,35.679,43.893Z" transform="translate(6.27 16.861)" fill="#707070"/>
        <path id="Path_4346" data-name="Path 4346" d="M21.447,41.5H53.27a1.447,1.447,0,0,0,1.447-1.447V1H51.823V38.609H22.893V1H20V40.056A1.447,1.447,0,0,0,21.447,41.5Z" transform="translate(3.145 -1)" fill="#707070"/>
        <path id="Path_4347" data-name="Path 4347" d="M31.679,17.572a5.792,5.792,0,0,0,5.786-5.786,2.893,2.893,0,1,1,2.893,2.893v2.893a5.781,5.781,0,0,0,5.581-4.34h3.1V10.34h-3.1a5.774,5.774,0,0,0-11.367,1.447,2.893,2.893,0,1,1-2.893-2.893V6A5.781,5.781,0,0,0,26.1,10.34H23v2.893h3.1A5.781,5.781,0,0,0,31.679,17.572Z" transform="translate(4.484 1.233)" fill="#707070"/>
        <path id="Path_4348" data-name="Path 4348" d="M24.447,26.572a2.9,2.9,0,0,1,2.893,2.893,1.447,1.447,0,0,0,1.447,1.447H43.252A1.447,1.447,0,0,0,44.7,29.465a2.9,2.9,0,0,1,2.893-2.893,1.447,1.447,0,0,0,1.447-1.447V15H46.145v8.861a5.81,5.81,0,0,0-4.157,4.157H30.049a5.81,5.81,0,0,0-4.157-4.157V15H23V25.126a1.449,1.449,0,0,0,1.448,1.447Z" transform="translate(4.484 5.251)" fill="#707070"/>
        <path id="Path_4349" data-name="Path 4349" d="M31,15h2.893v2.893H31Z" transform="translate(8.056 5.251)" fill="#707070"/>
        <path id="Path_4350" data-name="Path 4350" d="M31,3h2.893V5.893H31Z" transform="translate(8.056 -0.107)" fill="#707070"/>
        <path id="Path_4351" data-name="Path 4351" d="M66.141,16.018a1.449,1.449,0,0,0-1.337-.893h-4.34V5H57.572V16.572a1.447,1.447,0,0,0,1.447,1.447h2.294l-5.187,5.187-5.187-5.187h2.294a1.447,1.447,0,0,0,1.447-1.447V5H51.786V15.126h-4.34a1.446,1.446,0,0,0-1.023,2.469L55.1,26.274a1.446,1.446,0,0,0,2.045,0l8.679-8.679a1.446,1.446,0,0,0,.314-1.577Z" transform="translate(14.754 0.786)" fill="#707070"/>
        <path id="Path_4352" data-name="Path 4352" d="M50,1h2.893V3.893H50Z" transform="translate(16.54 -1)" fill="#707070"/>
        <path id="Path_4353" data-name="Path 4353" d="M24.141,26.018a1.449,1.449,0,0,0-1.337-.892h-4.34V15H15.572V26.572a1.447,1.447,0,0,0,1.447,1.447h2.294l-5.187,5.187L8.938,28.019h2.294a1.447,1.447,0,0,0,1.447-1.447V15H9.786V25.126H5.447a1.446,1.446,0,0,0-1.023,2.469L13.1,36.274a1.446,1.446,0,0,0,2.045,0l8.679-8.679A1.446,1.446,0,0,0,24.141,26.018Z" transform="translate(-4 5.251)" fill="#707070"/>
        <path id="Path_4354" data-name="Path 4354" d="M8,11h2.893v2.893H8Z" transform="translate(-2.214 3.465)" fill="#707070"/>
      </g>
      <g id="Consult-Talk" transform="translate(21882 10772.5)">
        <rect id="Rectangle_969" data-name="Rectangle 969" width="2.432" height="2.432" transform="translate(17.026 28.36)" fill="#707070" stroke="#707070" stroke-width="0.25"/>
        <rect id="Rectangle_970" data-name="Rectangle 970" width="2.432" height="2.432" transform="translate(29.187 28.36)" fill="#707070" stroke="#707070" stroke-width="0.25"/>
        <path id="Path_5248" data-name="Path 5248" d="M73.925,43.43l-4.751-.679a17.027,17.027,0,0,0-.8-1.946l2.875-3.833a1.216,1.216,0,0,0-.113-1.589l-5.16-5.16a1.2,1.2,0,0,0-.737-.344V18.172a9.729,9.729,0,0,0,3.648-7.59A9.628,9.628,0,0,0,63.326,1.8a1.216,1.216,0,0,0-1.735,1.1v6.81l-2.432.811-2.432-.811V2.9A1.216,1.216,0,0,0,54.991,1.8a9.628,9.628,0,0,0-5.561,8.781,9.729,9.729,0,0,0,3.648,7.59v8.22H49.43a1.216,1.216,0,0,0-1.2,1.044l-.787,5.508,2.408.344.637-4.463h5.188l.637,4.463a1.216,1.216,0,0,0,.863.995,14.52,14.52,0,0,1,2.919,1.2,1.216,1.216,0,0,0,1.315-.094l3.6-2.7,3.668,3.668-2.706,3.6a1.216,1.216,0,0,0-.094,1.315,14.52,14.52,0,0,1,1.2,2.919,1.216,1.216,0,0,0,.995.863l4.463.637V50.88l-4.463.637a1.216,1.216,0,0,0-.995.863,14.52,14.52,0,0,1-1.2,2.919,1.216,1.216,0,0,0,.094,1.315l2.7,3.6L65,63.883l-3.6-2.71a1.216,1.216,0,0,0-1.315-.094,14.519,14.519,0,0,1-2.919,1.2,1.216,1.216,0,0,0-.863.995l-.634,4.466H50.646V62.6a13.5,13.5,0,0,0-.547-3.8,11.079,11.079,0,1,0-7.776-8.588c-.029-.012-.057-.027-.086-.038L32.4,46.243V44.374a13.486,13.486,0,0,0,4.231-3.388H39.7a3.648,3.648,0,0,0,3.648-3.648V34.681a3.648,3.648,0,0,0,2.432-3.425V27.608a3.648,3.648,0,0,0-2.432-3.425v-1.44a17.026,17.026,0,1,0-34.052,0v1.44a3.648,3.648,0,0,0-2.432,3.425v3.648A3.648,3.648,0,0,0,10.513,34.9h2.432c.078,0,.153-.012.23-.017a13.406,13.406,0,0,0,7.067,9.486v1.869L10.41,50.176A13.316,13.316,0,0,0,2,62.6V73.822a1.216,1.216,0,0,0,1.216,1.216H49.43a1.216,1.216,0,0,0,1.216-1.216V70.173h6.081a1.216,1.216,0,0,0,1.2-1.044l.679-4.751a17.025,17.025,0,0,0,1.946-.8l3.833,2.875a1.216,1.216,0,0,0,1.59-.113l5.16-5.16a1.216,1.216,0,0,0,.113-1.59l-2.875-3.833a17.027,17.027,0,0,0,.8-1.946l4.751-.679a1.216,1.216,0,0,0,1.042-1.2v-7.3a1.216,1.216,0,0,0-1.044-1.2ZM60.548,32.986c-.057-.028-.122-.046-.179-.073V17.879H57.943v9.644l-.012-.088a1.216,1.216,0,0,0-1.2-1.043H55.51V17.563a1.216,1.216,0,0,0-.522-1,7.3,7.3,0,0,1-.694-11.428v5.446a1.216,1.216,0,0,0,.832,1.154l3.648,1.216a1.216,1.216,0,0,0,.769,0l3.648-1.216a1.216,1.216,0,0,0,.832-1.154V5.136a7.3,7.3,0,0,1-.694,11.432,1.216,1.216,0,0,0-.522.995V31.3Zm-15.983,15.3a8.574,8.574,0,1,1,4.053,7.225,13.275,13.275,0,0,0-3.175-3.5,8.314,8.314,0,0,1-.878-3.726ZM39.7,38.553H38.224a13.256,13.256,0,0,0,1.247-3.665c.077,0,.152.017.23.017h1.216v2.432A1.216,1.216,0,0,1,39.7,38.553ZM37.268,25.176a3.667,3.667,0,0,1-2.919-1.459L32.16,20.8a1.216,1.216,0,0,0-.82-.477,1.23,1.23,0,0,0-.913.257l-4.081,3.26a6.1,6.1,0,0,1-3.793,1.338H15.378V23.96a10.945,10.945,0,1,1,21.891,0Zm6.081,6.081a1.216,1.216,0,0,1-1.216,1.216H39.7V26.392h2.432a1.216,1.216,0,0,1,1.216,1.216ZM26.323,8.15A14.61,14.61,0,0,1,40.917,22.744V23.96H39.7a13.378,13.378,0,1,0-26.755,0H11.729V22.744A14.61,14.61,0,0,1,26.323,8.15ZM10.513,32.473A1.216,1.216,0,0,1,9.3,31.257V27.608a1.216,1.216,0,0,1,1.216-1.216h2.432v6.081Zm4.865,0V27.608h7.175a8.542,8.542,0,0,0,5.317-1.866l3.1-2.482L32.4,25.176a6.111,6.111,0,0,0,4.865,2.432v4.865a10.881,10.881,0,0,1-1.851,6.081H26.323v2.432h6.864a10.934,10.934,0,0,1-17.809-8.513ZM26.323,45.85a13.336,13.336,0,0,0,3.648-.518v1.734a3.648,3.648,0,1,1-7.3,0V45.332a13.336,13.336,0,0,0,3.648.518ZM48.213,72.605h-7.3V59.228H38.484V72.605H14.161V59.228H11.729V72.605h-7.3V62.6a10.894,10.894,0,0,1,6.881-10.163l9.2-3.679a6.042,6.042,0,0,0,11.624,0l9.2,3.679A10.894,10.894,0,0,1,48.213,62.6Z" transform="translate(-2 -1.68)" fill="#707070" stroke="#707070" stroke-width="0.25"/>
        <rect id="Rectangle_971" data-name="Rectangle 971" width="2.432" height="2.432" transform="translate(49.862 29.576)" fill="#707070" stroke="#707070" stroke-width="0.25"/>
        <rect id="Rectangle_972" data-name="Rectangle 972" width="2.432" height="2.432" transform="translate(49.862 61.196)" fill="#707070" stroke="#707070" stroke-width="0.25"/>
        <rect id="Rectangle_973" data-name="Rectangle 973" width="2.432" height="2.432" transform="translate(60.537 57.782) rotate(-45)" fill="#707070" stroke="#707070" stroke-width="0.25"/>
        <rect id="Rectangle_974" data-name="Rectangle 974" width="2.432" height="2.432" transform="translate(65.672 45.386)" fill="#707070" stroke="#707070" stroke-width="0.25"/>
        <rect id="Rectangle_975" data-name="Rectangle 975" width="2.432" height="2.432" transform="translate(60.537 35.424) rotate(-45)" fill="#707070" stroke="#707070" stroke-width="0.25"/>
      </g>
      <g id="Outline" transform="translate(21883 10613.5)">
        <path id="Path_5430" data-name="Path 5430" d="M208.6,279.488l-4.647-6.971a1.162,1.162,0,0,0-.967-.517H165.809a1.162,1.162,0,0,0-.967.517l-4.647,6.971a1.162,1.162,0,0,0,.967,1.806h3.486v20.913h-2.324v2.324h44.15v-2.324H204.15V281.295h3.486a1.162,1.162,0,0,0,.967-1.806Zm-42.172-5.165h11.15l-3.1,4.647h-11.15Zm.54,6.971H175.1a1.162,1.162,0,0,0,.967-.517L178.59,277v25.209H166.971Zm34.856,20.913H180.913V277l2.519,3.778a1.162,1.162,0,0,0,.967.517h17.428Zm-16.806-23.237-3.1-4.647h20.444l3.1,4.647Z" transform="translate(-139.087 -235.983)" fill="#707070"/>
        <path id="Path_5431" data-name="Path 5431" d="M416,448h2.324v2.324H416Z" transform="translate(-357.908 -386.422)" fill="#707070"/>
        <path id="Path_5432" data-name="Path 5432" d="M384,448h2.324v2.324H384Z" transform="translate(-330.555 -386.422)" fill="#707070"/>
        <path id="Path_5433" data-name="Path 5433" d="M320.406,77.8l8.133,6.971a1.162,1.162,0,0,0,1.512,0l8.133-6.971a1.162,1.162,0,0,0,.406-.882V73.428a1.162,1.162,0,0,0-1.162-1.162h-3.486V56h-2.324V73.428a1.162,1.162,0,0,0,1.162,1.162h3.485v1.789l-6.971,5.975-6.971-5.975V74.59h3.486a1.162,1.162,0,0,0,1.162-1.162V56h-2.324V72.266h-3.486A1.162,1.162,0,0,0,320,73.428v3.486a1.162,1.162,0,0,0,.406.882Z" transform="translate(-275.85 -51.353)" fill="#707070"/>
        <path id="Path_5434" data-name="Path 5434" d="M18.324,26.324H55.5v31.37h2.324V25.162A1.162,1.162,0,0,0,56.665,24h-39.5A1.162,1.162,0,0,0,16,25.162V86.74A1.162,1.162,0,0,0,17.162,87.9H38.011V85.578H18.324Z" transform="translate(-16 -24)" fill="#707070"/>
        <path id="Path_5435" data-name="Path 5435" d="M66.8,50.343l-3.145,3.145h-6.49A1.162,1.162,0,0,0,56,54.65v6.971a1.162,1.162,0,0,0,1.162,1.162h6.971a1.162,1.162,0,0,0,1.162-1.162v-6.49l3.145-3.145ZM62.971,60.459H58.324V55.812h3l-1.5,1.5,1.643,1.643,1.5-1.5Z" transform="translate(-50.191 -46.517)" fill="#707070"/>
        <path id="Path_5436" data-name="Path 5436" d="M152,80h2.324v2.324H152Z" transform="translate(-132.249 -71.867)" fill="#707070"/>
        <path id="Path_5437" data-name="Path 5437" d="M184,80h11.619v2.324H184Z" transform="translate(-159.601 -71.867)" fill="#707070"/>
        <path id="Path_5438" data-name="Path 5438" d="M152,112h16.266v2.324H152Z" transform="translate(-132.249 -99.22)" fill="#707070"/>
        <path id="Path_5439" data-name="Path 5439" d="M66.8,146.343l-3.145,3.145h-6.49A1.162,1.162,0,0,0,56,150.65v6.971a1.162,1.162,0,0,0,1.162,1.162h6.971a1.162,1.162,0,0,0,1.162-1.162v-6.49l3.145-3.145Zm-3.826,10.116H58.324v-4.647h3l-1.5,1.5,1.643,1.643,1.5-1.5Z" transform="translate(-50.191 -128.575)" fill="#707070"/>
        <path id="Path_5440" data-name="Path 5440" d="M152,176h2.324v2.324H152Z" transform="translate(-132.249 -153.925)" fill="#707070"/>
        <path id="Path_5441" data-name="Path 5441" d="M184,176h11.619v2.324H184Z" transform="translate(-159.601 -153.925)" fill="#707070"/>
        <path id="Path_5442" data-name="Path 5442" d="M152,208h16.266v2.324H152Z" transform="translate(-132.249 -181.278)" fill="#707070"/>
        <path id="Path_5443" data-name="Path 5443" d="M66.8,242.343l-3.145,3.145h-6.49A1.162,1.162,0,0,0,56,246.65v6.971a1.162,1.162,0,0,0,1.162,1.162h6.971a1.162,1.162,0,0,0,1.162-1.162v-6.49l3.145-3.145Zm-3.826,10.116H58.324v-4.647h3l-1.5,1.5,1.643,1.643,1.5-1.5Z" transform="translate(-50.191 -210.633)" fill="#707070"/>
        <path id="Path_5444" data-name="Path 5444" d="M152,272h2.324v2.324H152Z" transform="translate(-132.249 -235.983)" fill="#707070"/>
        <path id="Path_5445" data-name="Path 5445" d="M57.162,341.488A1.162,1.162,0,0,0,56,342.65v6.971a1.162,1.162,0,0,0,1.162,1.162h6.971a1.162,1.162,0,0,0,1.162-1.162v-6.49l3.145-3.145L66.8,338.343l-3.145,3.145Zm5.809,6.971H58.324v-4.647h3l-1.5,1.5,1.643,1.643,1.5-1.5Z" transform="translate(-50.191 -292.691)" fill="#707070"/>
        <path id="Path_5446" data-name="Path 5446" d="M152,368h2.324v2.324H152Z" transform="translate(-132.249 -318.041)" fill="#707070"/>
        <path id="Path_5447" data-name="Path 5447" d="M152,400h3.486v2.324H152Z" transform="translate(-132.249 -345.393)" fill="#707070"/>
      </g>
    </g>
  </g>
</svg>
